<?xml version="1.0" encoding="utf-8"?>
<!-- Generator: Adobe Illustrator 16.0.0, SVG Export Plug-In . SVG Version: 6.00 Build 0)  -->
<!DOCTYPE svg PUBLIC "-//W3C//DTD SVG 1.1//EN" "http://www.w3.org/Graphics/SVG/1.1/DTD/svg11.dtd">
<svg version="1.1" id="圖層_1" xmlns="http://www.w3.org/2000/svg" xmlns:xlink="http://www.w3.org/1999/xlink" x="0px" y="0px"
	 width="192px" height="152.093px" viewBox="0 0 192 152.093" enable-background="new 0 0 192 152.093" xml:space="preserve">
<g>
	<path fill="#B39559" d="M29.447,111.365c0-0.486,0-0.971,0-1.459c0.031-0.098,0.074-0.191,0.098-0.293
		c0.48-1.842,1.625-3.045,3.457-3.574c0.344-0.098,0.703-0.135,1.082-0.205c0-0.217,0-0.412,0-0.607c0-17.338,0-34.678,0-52.016
		c0-0.215,0.008-0.426,0.012-0.639c24.488,0,48.98,0,73.469,0c0.145,0.033,0.293,0.07,0.441,0.092
		c1.328,0.211,2.553,0.656,3.562,1.578c1.625,1.48,2.262,3.4,2.262,5.52c0.02,18.396,0.012,36.793,0.01,55.188
		c0,0.16-0.016,0.32-0.025,0.506c-0.203,0-0.355,0-0.506,0c-13.551,0-27.1-0.002-40.65,0.008c-0.383,0-0.539-0.105-0.645-0.482
		c-2.285-7.996-10.207-13.115-18.398-11.787c-5.549,0.896-9.643,3.928-12.246,8.912c-0.551,1.051-0.914,2.197-1.387,3.344
		c-1.949,0-3.973,0.047-5.988-0.016c-1.469-0.043-2.73-0.674-3.568-1.896C29.982,112.894,29.768,112.095,29.447,111.365z"/>
	<path fill-rule="evenodd" clip-rule="evenodd" fill="#B39559" d="M153.961,114.099c-0.385,1.318-1.355,1.705-2.615,1.688
		c-1.365-0.021-2.73-0.014-4.1,0c-0.311,0.004-0.426-0.09-0.518-0.404c-1.938-6.514-6.188-10.656-12.848-12.057
		c-5.059-1.062-9.648,0.229-13.68,3.467c-0.258,0.209-0.512,0.428-0.75,0.662c-0.221,0.219-0.416,0.463-0.621,0.697
		c-0.037-0.029-0.07-0.059-0.107-0.086c0-12.262,0-24.521,0-36.848c0.229,0,0.436,0,0.643,0c6.727,0,13.457,0.01,20.184-0.008
		c2.066-0.006,3.725,0.867,4.895,2.461c2.9,3.955,5.484,8.113,7.473,12.611c0.93,2.1,1.707,4.248,1.969,6.549
		c0.012,0.102,0.051,0.203,0.076,0.301C153.961,100.123,153.961,107.113,153.961,114.099z M125.268,86.992c7.492,0,14.945,0,22.42,0
		c-0.021-0.078-0.027-0.125-0.045-0.164c-1.805-3.773-4.027-7.297-6.469-10.684c-0.396-0.549-0.984-0.848-1.73-0.844
		c-4.541,0.02-9.082,0.01-13.621,0.01c-0.18,0-0.357,0-0.555,0C125.268,79.23,125.268,83.097,125.268,86.992z"/>
	<path fill-rule="evenodd" clip-rule="evenodd" fill="#B39559" d="M68.592,119.527c0.039,6.926-5.744,12.607-12.764,12.445
		c-6.73-0.152-12.254-5.732-12.186-12.617c0.066-6.764,5.688-12.355,12.498-12.314C63.08,107.082,68.592,112.611,68.592,119.527z
		 M61.898,119.535c0.002-3.211-2.568-5.799-5.764-5.801c-3.195-0.004-5.801,2.59-5.801,5.773c-0.002,3.178,2.617,5.795,5.795,5.793
		C59.297,125.296,61.898,122.697,61.898,119.535z"/>
	<path fill-rule="evenodd" clip-rule="evenodd" fill="#B39559" d="M130.717,107.041c6.787-0.021,12.43,5.545,12.496,12.234
		c0.07,7.049-5.5,12.486-12.074,12.697c-6.93,0.223-12.746-5.229-12.893-12.182C118.1,112.714,123.756,107.052,130.717,107.041z
		 M130.73,113.734c-3.193-0.002-5.822,2.619-5.803,5.781c0.02,3.184,2.637,5.789,5.812,5.785c3.156-0.008,5.766-2.615,5.77-5.771
		C136.514,116.332,133.924,113.734,130.73,113.734z"/>
</g>
<text transform="matrix(1 0 0 1 51.3145 93.499)" fill="#FFFFFF" font-family="'DFLiHeiStd-W7-B5pc-H'" font-size="42.611">5t</text>
<rect x="19.369" y="130.093" fill="#B39559" width="152.803" height="5.205"/>
<path fill-rule="evenodd" clip-rule="evenodd" fill="#B39559" d="M67.354,31.193c2.492-3.328,5.844-3.162,9.641,0.379
	c0.984-1.156,1.996-2.289,2.945-3.469c4.344-5.395,10.162-8.906,15.943-12.441c0.771-0.473,1.928-0.322,2.904-0.461
	c0.086,0.137,0.17,0.271,0.256,0.406c-0.273,0.406-0.508,0.848-0.83,1.213c-3.648,4.146-7.436,8.182-10.926,12.459
	c-1.773,2.172-3.004,4.779-4.516,7.168c-0.84,1.332-1.652,2.699-2.65,3.906c-1.863,2.254-5.184,1.684-6.15-1.062
	c-1.059-3.014-2.996-5.293-5.484-7.188C68.119,31.826,67.768,31.527,67.354,31.193z"/>
</svg>
