<?xml version="1.0" encoding="utf-8"?>
<!-- Generator: Adobe Illustrator 16.0.0, SVG Export Plug-In . SVG Version: 6.00 Build 0)  -->
<!DOCTYPE svg PUBLIC "-//W3C//DTD SVG 1.1//EN" "http://www.w3.org/Graphics/SVG/1.1/DTD/svg11.dtd">
<svg version="1.1" id="圖層_1" xmlns="http://www.w3.org/2000/svg" xmlns:xlink="http://www.w3.org/1999/xlink" x="0px" y="0px"
	 width="246px" height="152.093px" viewBox="0 0 246 152.093" enable-background="new 0 0 246 152.093" xml:space="preserve">
<path fill="#B39559" d="M90.903,73.129c0,17.738-14.376,32.112-32.122,32.112c-17.736,0-32.112-14.374-32.112-32.112
	c0-17.739,14.376-32.12,32.112-32.12C76.526,41.009,90.903,55.39,90.903,73.129z"/>
<path fill="none" stroke="#B39559" stroke-width="5.7719" stroke-miterlimit="10" d="M111.312,73.129
	c0,29.007-23.519,52.529-52.531,52.529c-29.007,0-52.521-23.521-52.521-52.529c0-29.012,23.514-52.529,52.521-52.529
	C87.793,20.6,111.312,44.117,111.312,73.129z"/>
<g>
	<path fill="#B39559" stroke="#B39559" stroke-width="0.5212" stroke-miterlimit="10" d="M32.299,48.487l-3.343-2.523l-2.833,3.752
		l3.345,2.521l-0.81,1.069l-7.656-5.773l0.812-1.072l3.306,2.497l2.833-3.747l-3.311-2.499l0.81-1.072l7.656,5.773L32.299,48.487z"
		/>
	<path fill="#B39559" stroke="#B39559" stroke-width="0.5212" stroke-miterlimit="10" d="M38.317,41.282
		c0.02,1.241-0.476,2.253-1.471,3.061c-1.016,0.812-2.114,1.079-3.306,0.785c-1.128-0.26-2.119-0.937-2.999-2.031
		c-0.866-1.079-1.317-2.197-1.325-3.35c-0.027-1.216,0.459-2.244,1.469-3.061c1-0.799,2.109-1.057,3.306-0.78
		c1.111,0.265,2.119,0.932,2.987,2.014C37.856,39.011,38.295,40.139,38.317,41.282z M33.66,37.218
		c-0.802-0.179-1.521-0.034-2.155,0.481c-0.652,0.522-0.964,1.207-0.952,2.013c0.029,0.824,0.382,1.663,1.069,2.516
		c0.696,0.866,1.437,1.391,2.246,1.582c0.81,0.211,1.53,0.042,2.168-0.474c0.638-0.507,0.949-1.169,0.922-2.013
		c-0.02-0.822-0.368-1.67-1.06-2.536C35.213,37.939,34.458,37.419,33.66,37.218z"/>
	<path fill="#B39559" stroke="#B39559" stroke-width="0.5212" stroke-miterlimit="10" d="M46.195,38.015
		c-0.316,0.81-1.045,1.467-2.195,1.972c-1.146,0.502-2.131,0.598-2.921,0.279c-0.878-0.319-1.594-1.165-2.18-2.506l-2.264-5.138
		l1.236-0.542l2.254,5.143c0.441,1.003,0.915,1.609,1.439,1.825c0.466,0.194,1.099,0.105,1.913-0.252
		c0.814-0.356,1.314-0.768,1.496-1.244c0.181-0.525,0.068-1.29-0.371-2.293l-2.259-5.143l1.241-0.544l2.261,5.145
		C46.43,36.05,46.553,37.159,46.195,38.015z"/>
	<path fill="#B39559" stroke="#B39559" stroke-width="0.5212" stroke-miterlimit="10" d="M53.552,36.634
		c-0.56,0.566-1.32,0.929-2.278,1.106c-1.798,0.338-3.063-0.333-3.804-2.001l1.113-0.711c0.535,1.177,1.346,1.643,2.452,1.439
		c0.685-0.13,1.187-0.37,1.536-0.748c0.294-0.336,0.412-0.716,0.338-1.133c-0.118-0.601-1.055-1.035-2.813-1.3
		c-0.913-0.125-1.587-0.297-2.009-0.513c-0.672-0.336-1.074-0.868-1.202-1.582c-0.167-0.863,0.032-1.567,0.594-2.146
		c0.471-0.476,1.152-0.797,2.04-0.964c1.006-0.187,1.825-0.088,2.472,0.282c0.441,0.272,0.849,0.728,1.241,1.388l-1.143,0.729
		c-0.26-0.454-0.525-0.775-0.785-0.949c-0.38-0.228-0.902-0.292-1.545-0.169c-1.175,0.218-1.683,0.743-1.53,1.577
		c0.078,0.397,0.873,0.709,2.401,0.93c1.005,0.152,1.768,0.346,2.264,0.598c0.76,0.407,1.216,1.033,1.373,1.864
		C54.44,35.236,54.2,36.006,53.552,36.634z"/>
	<path fill="#B39559" stroke="#B39559" stroke-width="0.5212" stroke-miterlimit="10" d="M55.715,36.987l-0.16-9.586l6.041-0.103
		l0.02,1.26l-4.714,0.076l0.047,2.798l4.171-0.064l0.022,1.253l-4.172,0.068l0.049,3.019l4.716-0.073l0.022,1.255L55.715,36.987z"/>
	<path fill="#B39559" stroke="#B39559" stroke-width="0.5212" stroke-miterlimit="10" d="M68.698,38.103l0.807-4.11l-4.608-0.91
		l-0.807,4.113l-1.322-0.26l1.856-9.407l1.317,0.26l-0.8,4.066l4.606,0.907l0.804-4.063l1.314,0.257l-1.854,9.408L68.698,38.103z"/>
	<path fill="#B39559" stroke="#B39559" stroke-width="0.5212" stroke-miterlimit="10" d="M77.552,40.443
		c-1.119,0.54-2.247,0.515-3.399-0.057c-1.16-0.581-1.861-1.466-2.089-2.67c-0.235-1.128-0.037-2.32,0.586-3.571
		c0.62-1.244,1.444-2.119,2.489-2.609c1.094-0.53,2.232-0.52,3.395,0.059c1.147,0.572,1.844,1.472,2.092,2.673
		c0.223,1.118,0.037,2.315-0.579,3.556C79.42,39.077,78.579,39.947,77.552,40.443z M79.293,34.518
		c-0.167-0.804-0.608-1.398-1.339-1.761c-0.745-0.37-1.496-0.37-2.227-0.015c-0.736,0.365-1.347,1.037-1.834,2.018
		c-0.496,0.994-0.662,1.886-0.496,2.703c0.143,0.824,0.601,1.408,1.33,1.773c0.73,0.365,1.466,0.368,2.222-0.005
		c0.736-0.366,1.361-1.035,1.854-2.026C79.293,36.225,79.447,35.325,79.293,34.518z"/>
	<path fill="#B39559" stroke="#B39559" stroke-width="0.5212" stroke-miterlimit="10" d="M78.31,42.589l6.389-7.156l1,0.895
		l-5.555,6.219l3.75,3.345l-0.834,0.937L78.31,42.589z"/>
	<path fill="#B39559" stroke="#B39559" stroke-width="0.5212" stroke-miterlimit="10" d="M87.965,51.766
		c-1.207-0.282-2.239-1.082-3.134-2.416l-1.53-2.286l7.951-5.341l1.533,2.286c0.93,1.378,1.327,2.624,1.185,3.72
		c-0.167,1.189-0.957,2.261-2.374,3.212C90.373,51.766,89.162,52.033,87.965,51.766z M92.644,47.533
		c0.135-0.792-0.167-1.736-0.9-2.823l-0.79-1.175l-5.869,3.941l0.79,1.177c0.697,1.04,1.486,1.633,2.374,1.81
		c0.814,0.162,1.678-0.071,2.573-0.672C91.901,49.07,92.497,48.315,92.644,47.533z"/>
</g>
<path fill="#B39559" stroke="#B39559" stroke-width="0.5212" stroke-miterlimit="10" d="M27.74,107.762l-1.04-0.902l3.487-7.085
	l-6.553,4.402l-1.035-0.91l4.495-9.429l1.108,0.969l-3.556,7.141l6.637-4.451l1.015,0.888l-3.527,7.171l6.604-4.481l1.106,0.969
	L27.74,107.762z"/>
<path fill="#B39559" stroke="#B39559" stroke-width="0.5212" stroke-miterlimit="10" d="M39.357,114.531l0.216-2.989l-3.978-1.972
	l-2.246,1.979l-1.344-0.667l8.187-7.166l1.26,0.623l-0.75,10.857L39.357,114.531z M39.965,105.753l-3.276,2.887l2.963,1.469
	L39.965,105.753z"/>
<path fill="#B39559" stroke="#B39559" stroke-width="0.5212" stroke-miterlimit="10" d="M49.756,117.511l-1.28-4.763l-2.695-0.63
	l-0.988,4.233l-1.374-0.319l2.283-9.797l4.179,0.979c1.013,0.233,1.763,0.66,2.266,1.263c0.522,0.66,0.689,1.42,0.483,2.303
	c-0.297,1.28-1.187,1.984-2.644,2.102l1.319,4.991L49.756,117.511z M49.547,108.486l-2.769-0.65l-0.701,2.999l2.776,0.647
	c0.682,0.157,1.256,0.137,1.688-0.091c0.363-0.201,0.588-0.51,0.687-0.944C51.458,109.464,50.894,108.797,49.547,108.486z"/>
<path fill="#B39559" stroke="#B39559" stroke-width="0.5212" stroke-miterlimit="10" d="M60.392,118.246l-2.239-4.395l-2.771-0.057
	l-0.09,4.346l-1.405-0.029l0.211-10.057l4.282,0.088c1.045,0.022,1.864,0.282,2.484,0.772c0.645,0.532,0.969,1.246,0.949,2.148
	c-0.027,1.314-0.75,2.188-2.153,2.604l2.325,4.616L60.392,118.246z"/>
<polygon fill="#B39559" stroke="#B39559" stroke-width="0.5212" stroke-miterlimit="10" points="71.881,116.743 70.273,114.217 
	65.902,115.007 65.28,117.938 63.803,118.205 66.099,107.566 67.482,107.316 73.358,116.476 "/>
<path fill="#B39559" stroke="#B39559" stroke-width="0.5212" stroke-miterlimit="10" d="M81.932,113.045l-7.759-5.172l3.07,7.178
	l-1.292,0.552l-3.958-9.248l1.425-0.608l7.754,5.177l-3.065-7.181l1.29-0.557l3.958,9.25L81.932,113.045z"/>
<path fill="#B39559" stroke="#B39559" stroke-width="0.5212" stroke-miterlimit="10" d="M84.438,101.325l4.993,7.188l-1.158,0.804
	l-4.996-7.188l-2.675,1.866l-0.758-1.084l6.521-4.53l0.755,1.082L84.438,101.325z"/>
<path fill="#B39559" stroke="#B39559" stroke-width="0.5212" stroke-miterlimit="10" d="M93.89,98.472l3.335,3.254l-0.996,1.018
	l-3.321-3.24l-6.68-0.92l1.197-1.231l4.983,0.684l-0.79-4.988l1.182-1.207L93.89,98.472z"/>
<g>
	<path fill="#FFFFFF" d="M55.872,66.733c-0.957,1.324-2.462,2.914-4.557,4.748c-3.603,3.212-5.746,5.65-6.477,7.318h12.947v3.679
		H39.411c0.687-2.781,1.825-5.26,3.375-7.485c1.28-1.839,3.193-3.853,5.656-5.994c1.915-1.707,3.281-3.12,4.012-4.233
		c0.73-1.069,1.094-2.225,1.094-3.468c0-2.31-1.688-3.507-5.018-3.507c-3.237,0-4.966,2.138-5.194,6.418l-3.924-1.369
		c0.277-2.737,1.234-4.878,2.83-6.459c1.548-1.582,3.649-2.398,6.288-2.398c2.737,0,4.974,0.64,6.705,1.927
		c1.731,1.283,2.6,3.078,2.6,5.388C57.834,63.098,57.147,64.938,55.872,66.733z"/>
	<path fill="#FFFFFF" d="M70.278,82.821c-6.521,0-9.756-4.792-9.756-14.376c0-9.628,3.235-14.462,9.756-14.462
		c6.472,0,9.756,4.833,9.756,14.462C80.034,78.029,76.75,82.821,70.278,82.821z M74.285,59.974
		c-0.861-1.455-2.188-2.183-4.007-2.183c-3.649,0-5.469,3.551-5.469,10.653c0,7.058,1.82,10.567,5.469,10.567
		c1.731,0,3.053-0.729,3.963-2.18c1.005-1.672,1.506-4.449,1.506-8.387C75.747,64.508,75.246,61.686,74.285,59.974z"/>
</g>
<g>
	<path fill="#FFFFFF" d="M46.646,92.344V96h-1.187v-3.645l-3.35-4.257h1.437l2.499,3.173l2.524-3.173h1.415L46.646,92.344z"/>
	<path fill="#FFFFFF" d="M49.979,96v-7.902h5.31v1.035h-4.14v2.311h3.664v1.035h-3.664v2.489h4.14V96H49.979z"/>
	<path fill="#FFFFFF" d="M61.905,96l-0.947-2.176h-3.723L56.289,96h-1.258l3.478-7.902h1.18L63.161,96H61.905z M59.1,89.614
		l-1.388,3.176h2.771L59.1,89.614z"/>
	<path fill="#FFFFFF" d="M68.61,96l-1.947-3.414h-2.325V96h-1.177v-7.902h3.59c0.873,0,1.565,0.194,2.089,0.566
		c0.55,0.41,0.834,0.964,0.834,1.672c0,1.033-0.588,1.729-1.756,2.083L69.944,96H68.61z M66.727,89.133h-2.389v2.418h2.389
		c0.588,0,1.05-0.123,1.359-0.373c0.255-0.218,0.38-0.493,0.38-0.841C68.465,89.541,67.879,89.133,66.727,89.133z"/>
	<path fill="#FFFFFF" d="M74.609,95.544c-0.577,0.375-1.295,0.552-2.153,0.552c-1.604,0-2.59-0.733-2.963-2.2l1.079-0.407
		c0.27,1.035,0.898,1.538,1.884,1.538c0.615,0,1.089-0.121,1.447-0.371c0.309-0.23,0.476-0.52,0.476-0.868
		c0-0.505-0.745-0.998-2.217-1.481c-0.77-0.241-1.319-0.479-1.658-0.721c-0.522-0.373-0.78-0.863-0.78-1.467
		c0-0.718,0.279-1.263,0.863-1.648c0.483-0.312,1.123-0.468,1.922-0.468c0.893,0,1.589,0.204,2.09,0.603
		c0.333,0.287,0.613,0.719,0.848,1.31l-1.108,0.422c-0.152-0.412-0.333-0.708-0.525-0.895c-0.294-0.238-0.733-0.368-1.305-0.368
		c-1.054,0-1.579,0.348-1.579,1.044c0,0.338,0.643,0.711,1.922,1.116c0.849,0.282,1.477,0.557,1.859,0.831
		c0.588,0.446,0.885,1.025,0.885,1.722C75.597,94.546,75.264,95.135,74.609,95.544z"/>
</g>
<g>
	<path fill="none" stroke="#B39559" stroke-width="5.7719" stroke-miterlimit="10" d="M228.921,73.129
		c0,29.007-23.519,52.529-52.531,52.529s-52.526-23.521-52.526-52.529c0-29.012,23.514-52.529,52.526-52.529
		S228.921,44.117,228.921,73.129z"/>
	<path fill="#B39559" d="M228.053,82.426c0,3.867-4.103,8.24-9.172,8.24h-84.602c-5.062,0-9.169-4.373-9.169-8.24V63.829
		c0-3.865,4.108-8.24,9.169-8.24h84.602c5.069,0,9.172,4.375,9.172,8.24V82.426z"/>
	<g>
		<path fill="#FFFFFF" d="M145.666,86.982v-21.65h-5.606v-2.609c3.419,0,5.606-1.238,6.563-3.765h3.149v28.024H145.666z"/>
		<path fill="#FFFFFF" d="M166.543,87.368c-6.516,0-9.753-4.79-9.753-14.376c0-9.626,3.237-14.462,9.753-14.462
			c6.477,0,9.756,4.836,9.756,14.462C176.299,82.578,173.02,87.368,166.543,87.368z M170.555,64.521
			c-0.866-1.455-2.188-2.183-4.012-2.183c-3.646,0-5.471,3.551-5.471,10.654c0,7.061,1.825,10.567,5.471,10.567
			c1.734,0,3.056-0.729,3.971-2.183c0.998-1.668,1.501-4.449,1.501-8.385C172.015,69.058,171.512,66.232,170.555,64.521z"/>
	</g>
	<g>
		<path fill="#FFFFFF" d="M186.268,80.358v3.654h-1.194v-3.644l-3.348-4.258h1.438l2.501,3.176l2.526-3.176h1.41L186.268,80.358z"/>
		<path fill="#FFFFFF" d="M189.599,84.013v-7.902h5.307v1.035h-4.14v2.308h3.666v1.038h-3.666v2.487h4.14v1.035H189.599z"/>
		<path fill="#FFFFFF" d="M201.522,84.013l-0.947-2.175h-3.718l-0.952,2.175h-1.256l3.478-7.902h1.177l3.473,7.902H201.522z
			 M198.714,77.629l-1.381,3.174h2.764L198.714,77.629z"/>
		<path fill="#FFFFFF" d="M208.227,84.013l-1.947-3.416h-2.32v3.416h-1.182v-7.902h3.59c0.873,0,1.565,0.194,2.089,0.567
			c0.555,0.407,0.834,0.963,0.834,1.67c0,1.04-0.588,1.731-1.756,2.08l2.026,3.585H208.227z M206.341,77.146h-2.381v2.418h2.381
			c0.591,0,1.052-0.12,1.359-0.375c0.257-0.213,0.385-0.491,0.385-0.841C208.085,77.558,207.497,77.146,206.341,77.146z"/>
		<path fill="#FFFFFF" d="M214.226,83.557c-0.574,0.373-1.29,0.554-2.153,0.554c-1.602,0-2.59-0.733-2.962-2.205l1.079-0.405
			c0.27,1.035,0.893,1.538,1.884,1.538c0.613,0,1.089-0.12,1.447-0.373c0.309-0.228,0.476-0.518,0.476-0.863
			c0-0.51-0.741-1-2.222-1.481c-0.765-0.243-1.314-0.483-1.65-0.724c-0.527-0.373-0.78-0.863-0.78-1.466
			c0-0.721,0.282-1.261,0.856-1.648c0.49-0.312,1.128-0.471,1.922-0.471c0.903,0,1.594,0.208,2.095,0.606
			c0.333,0.287,0.615,0.719,0.843,1.31l-1.101,0.419c-0.154-0.407-0.333-0.707-0.527-0.89c-0.294-0.238-0.73-0.373-1.31-0.373
			c-1.049,0-1.574,0.351-1.574,1.047c0,0.333,0.64,0.711,1.922,1.118c0.844,0.277,1.477,0.554,1.857,0.829
			c0.593,0.446,0.89,1.025,0.89,1.724C215.217,82.559,214.883,83.149,214.226,83.557z"/>
	</g>
	<g>
		<g>
			<path fill="#B39559" stroke="#B39559" stroke-width="0.5212" stroke-miterlimit="10" d="M143.404,47.074
				c-0.407-1.003-1.084-1.521-2.035-1.521c-0.645,0-1.217,0.299-1.707,0.897c-0.54,0.662-0.8,1.518-0.8,2.575
				c0,1.032,0.246,1.842,0.746,2.442c0.434,0.54,0.949,0.797,1.575,0.797c0.53,0,0.961-0.135,1.3-0.434
				c0.299-0.255,0.583-0.704,0.839-1.33l1.169,0.476c-0.341,0.814-0.748,1.422-1.221,1.815c-0.557,0.463-1.248,0.682-2.087,0.682
				c-1.03,0-1.884-0.407-2.565-1.246c-0.691-0.816-1.03-1.888-1.03-3.203c0-1.329,0.355-2.44,1.084-3.335
				c0.721-0.895,1.616-1.354,2.698-1.354c1.564,0,2.648,0.77,3.242,2.291L143.404,47.074z"/>
			<path fill="#B39559" stroke="#B39559" stroke-width="0.5212" stroke-miterlimit="10" d="M151.9,52.116
				c-0.702,0.91-1.648,1.359-2.845,1.359c-1.207,0-2.158-0.449-2.85-1.359c-0.662-0.836-0.986-1.908-0.986-3.212
				c0-1.288,0.324-2.359,0.986-3.198c0.691-0.897,1.643-1.358,2.85-1.358c1.197,0,2.144,0.461,2.845,1.358
				c0.652,0.839,0.993,1.911,0.993,3.198C152.893,50.208,152.552,51.28,151.9,52.116z M150.899,46.461
				c-0.476-0.593-1.084-0.907-1.844-0.907c-0.772,0-1.398,0.314-1.854,0.907c-0.466,0.613-0.691,1.425-0.691,2.443
				c0,1.032,0.226,1.844,0.701,2.452c0.461,0.628,1.084,0.925,1.844,0.925s1.369-0.297,1.844-0.925
				c0.466-0.608,0.707-1.42,0.707-2.452C151.605,47.886,151.365,47.074,150.899,46.461z"/>
			<path fill="#B39559" stroke="#B39559" stroke-width="0.5212" stroke-miterlimit="10" d="M161.7,53.367v-6.592l-2.698,6.592
				h-1.163l-2.703-6.592v6.592h-1.233v-8.91h1.577l2.938,7.279l2.943-7.279h1.574v8.91H161.7z"/>
			<path fill="#B39559" stroke="#B39559" stroke-width="0.5212" stroke-miterlimit="10" d="M172.01,53.367v-6.592l-2.698,6.592
				h-1.163l-2.7-6.592v6.592h-1.233v-8.91h1.575l2.943,7.279l2.94-7.279h1.572v8.91H172.01z"/>
			<path fill="#B39559" stroke="#B39559" stroke-width="0.5212" stroke-miterlimit="10" d="M174.531,53.367v-8.91h5.614v1.167
				h-4.383v2.604h3.88v1.165h-3.88V52.2h4.383v1.167H174.531z"/>
			<path fill="#B39559" stroke="#B39559" stroke-width="0.5212" stroke-miterlimit="10" d="M186.92,53.367l-2.062-3.855h-2.452
				v3.855h-1.249v-8.91h3.796c0.922,0,1.653,0.216,2.209,0.638c0.586,0.458,0.88,1.086,0.88,1.883c0,1.167-0.623,1.952-1.854,2.347
				l2.141,4.042H186.92z M184.924,45.625h-2.519v2.725h2.519c0.625,0,1.113-0.138,1.442-0.422c0.27-0.246,0.402-0.557,0.402-0.949
				C186.769,46.083,186.146,45.625,184.924,45.625z"/>
			<path fill="#B39559" stroke="#B39559" stroke-width="0.5212" stroke-miterlimit="10" d="M194.616,47.074
				c-0.407-1.003-1.084-1.521-2.036-1.521c-0.647,0-1.221,0.299-1.707,0.897c-0.542,0.662-0.795,1.518-0.795,2.575
				c0,1.032,0.24,1.842,0.741,2.442c0.434,0.54,0.952,0.797,1.572,0.797c0.532,0,0.963-0.135,1.302-0.434
				c0.301-0.255,0.583-0.704,0.841-1.33l1.165,0.476c-0.338,0.814-0.743,1.422-1.221,1.815c-0.554,0.463-1.246,0.682-2.087,0.682
				c-1.033,0-1.884-0.407-2.563-1.246c-0.691-0.816-1.03-1.888-1.03-3.203c0-1.329,0.354-2.44,1.084-3.335
				c0.721-0.895,1.619-1.354,2.698-1.354c1.56,0,2.644,0.77,3.245,2.291L194.616,47.074z"/>
			<path fill="#B39559" stroke="#B39559" stroke-width="0.5212" stroke-miterlimit="10" d="M197.515,53.367v-8.91h1.272v8.91
				H197.515z"/>
			<path fill="#B39559" stroke="#B39559" stroke-width="0.5212" stroke-miterlimit="10" d="M207.531,53.367l-1-2.458h-3.934
				l-1.006,2.458h-1.329l3.674-8.91h1.25l3.674,8.91H207.531z M204.559,46.164l-1.462,3.583h2.928L204.559,46.164z"/>
			<path fill="#B39559" stroke="#B39559" stroke-width="0.5212" stroke-miterlimit="10" d="M209.529,53.367v-8.91h1.249V52.2h4.667
				v1.167H209.529z"/>
		</g>
	</g>
	<g>
		<g>
			<path fill="#B39559" stroke="#B39559" stroke-width="0.5212" stroke-miterlimit="10" d="M147.973,104.947h-1.375l-2.045-7.632
				l-2.033,7.632h-1.381l-2.82-10.067h1.472l2.021,7.723l2.075-7.723h1.344l2.07,7.723l2.026-7.723h1.469L147.973,104.947z"/>
			<path fill="#B39559" stroke="#B39559" stroke-width="0.5212" stroke-miterlimit="10" d="M159.081,104.947l-1.136-2.774h-4.446
				l-1.133,2.774h-1.501l4.154-10.067h1.41l4.152,10.067H159.081z M155.721,96.807l-1.65,4.049h3.311L155.721,96.807z"/>
			<path fill="#B39559" stroke="#B39559" stroke-width="0.5212" stroke-miterlimit="10" d="M167.855,104.947l-2.325-4.351h-2.781
				v4.351h-1.402V94.879h4.292c1.04,0,1.866,0.243,2.497,0.716c0.657,0.522,0.996,1.229,0.996,2.133
				c0,1.317-0.706,2.205-2.102,2.651l2.425,4.566H167.855z M165.604,96.196h-2.855v3.081h2.855c0.706,0,1.255-0.155,1.626-0.474
				c0.307-0.277,0.458-0.63,0.458-1.074C167.688,96.719,166.982,96.196,165.604,96.196z"/>
			<path fill="#B39559" stroke="#B39559" stroke-width="0.5212" stroke-miterlimit="10" d="M176.807,104.947l-2.335-4.351h-2.771
				v4.351h-1.413V94.879h4.296c1.04,0,1.869,0.243,2.497,0.716c0.657,0.522,0.996,1.229,0.996,2.133c0,1.317-0.707,2.205-2.1,2.651
				l2.421,4.566H176.807z M174.553,96.196h-2.852v3.081h2.852c0.702,0,1.258-0.155,1.624-0.474c0.307-0.277,0.458-0.63,0.458-1.074
				C176.635,96.719,175.929,96.196,174.553,96.196z"/>
			<path fill="#B39559" stroke="#B39559" stroke-width="0.5212" stroke-miterlimit="10" d="M186.761,104.947l-1.133-2.774h-4.441
				l-1.138,2.774h-1.501l4.149-10.067h1.413l4.154,10.067H186.761z M183.409,96.807l-1.663,4.049h3.316L183.409,96.807z"/>
			<path fill="#B39559" stroke="#B39559" stroke-width="0.5212" stroke-miterlimit="10" d="M195.539,104.947l-5.104-7.818v7.818
				h-1.408V94.879h1.547l5.101,7.816v-7.816h1.413v10.067H195.539z"/>
			<path fill="#B39559" stroke="#B39559" stroke-width="0.5212" stroke-miterlimit="10" d="M202.597,96.196v8.75h-1.408v-8.75
				h-3.262v-1.317h7.936v1.317H202.597z"/>
			<path fill="#B39559" stroke="#B39559" stroke-width="0.5212" stroke-miterlimit="10" d="M211.44,100.287v4.66h-1.427v-4.645
				l-4.002-5.422h1.722l2.987,4.044l3.021-4.044h1.688L211.44,100.287z"/>
		</g>
	</g>
</g>
<path fill="#FFFFFF" d="M58.381,109.487l-2.844,0.041l0.047,3.08l2.85-0.045c0.7-0.013,1.251-0.171,1.615-0.498
	c0.303-0.283,0.447-0.637,0.437-1.082C60.472,109.973,59.763,109.462,58.381,109.487z"/>
<polygon fill="#FFFFFF" points="67.125,109.486 66.553,113.625 69.581,113.169 "/>
</svg>
