<?xml version="1.0" encoding="utf-8"?>
<!-- Generator: Adobe Illustrator 16.0.0, SVG Export Plug-In . SVG Version: 6.00 Build 0)  -->
<!DOCTYPE svg PUBLIC "-//W3C//DTD SVG 1.1//EN" "http://www.w3.org/Graphics/SVG/1.1/DTD/svg11.dtd">
<svg version="1.1" id="圖層_1" xmlns="http://www.w3.org/2000/svg" xmlns:xlink="http://www.w3.org/1999/xlink" x="0px" y="0px"
	 width="113.386px" height="113.386px" viewBox="0 0 113.386 113.386" enable-background="new 0 0 113.386 113.386"
	 xml:space="preserve">
<g>
	<g>
		<path fill-rule="evenodd" clip-rule="evenodd" fill="#B39559" d="M4.991,57.865c-0.184-3.762,1.211-6.912,3.848-9.5
			c12.637-12.42,25.262-24.854,37.984-37.193c5.898-5.719,13.852-5.525,19.914,0.377c10.508,10.238,20.945,20.553,31.418,30.832
			c2.109,2.068,4.297,4.061,6.332,6.195c5.094,5.328,5.32,13.045,0.129,18.262C94.405,77.102,83.956,87.129,73.608,97.26
			c-2.453,2.398-4.832,4.873-7.348,7.207c-5.855,5.428-13.836,5.402-19.531-0.146C34.175,92.086,21.694,79.773,9.163,67.51
			C6.44,64.848,4.862,61.738,4.991,57.865z M42.413,28.758c0.273-0.072,0.547-0.145,0.824-0.219
			c2.008,3.207,4.012,6.414,6.312,10.09c1.199-2.008,2.031-3.402,3.102-5.195c0.18,1.867,0.312,3.207,0.512,5.223
			c3.418-2.291,6.305-4.225,9.188-6.156c0.203,0.207,0.406,0.414,0.609,0.619c-0.805,3-1.574,6.01-2.426,8.996
			c-0.598,2.078,0.25,2.439,2.02,1.857c1-0.328,1.984-0.674,2.98-1.012c0.066,0.166,0.137,0.332,0.207,0.498
			c-0.906,1.008-1.812,2.014-3.191,3.541c4.07,0.775,7.484,1.426,10.898,2.078c0.016,0.254,0.031,0.512,0.047,0.77
			c-3.238,1.936-6.48,3.875-10.285,6.146c2.148,1.207,3.555,2,5.449,3.064c-1.992,0.141-3.352,0.234-5.492,0.387
			c1.969,2.738,3.5,4.875,4.797,6.68c2.66-2.631,5.055-5.004,7.48-7.402c-0.57-0.66-1.242-1.441-2.203-2.559
			c7.199-1.787,14.105-3.502,21.48-5.332c-2.105,7.328-4.016,13.971-5.988,20.84c-1.215-0.984-2.133-1.73-3.809-3.092
			c-5.004,5.328-9.785,10.654-14.824,15.723c-6.238,6.279-15.816,7.945-23.094,3.096c-5.684-3.785-10.434-8.973-15.598-13.535
			c0.133-0.258,0.266-0.52,0.398-0.775c3.348-0.527,6.754-0.816,10.023-1.645c4.18-1.057,7.684-0.855,10.594,2.857
			c1.516,1.928,4.02,2.785,6.16,1.258c2.707-1.93,5.016-4.42,7.98-7.105c-3.516-0.805-6.172-1.412-9.41-2.154
			c0.723,2.451,1.188,4.021,1.82,6.15c-1.57-1.359-2.664-2.309-3.969-3.441c-0.555,1.264-0.922,2.102-1.344,3.076
			c-0.531-0.402-1.066-0.658-1.387-1.082c-2.141-2.805-4.797-3.135-8.098-2.311c-3.363,0.844-6.871,1.105-10.699,1.68
			c0.426-1.77,0.715-3.143,1.09-4.492c0.57-2.047-0.199-2.473-2.031-1.797c-0.996,0.367-2.023,0.656-3.035,0.98
			c-0.078-0.164-0.152-0.326-0.234-0.49c0.93-0.984,1.855-1.971,3.273-3.475c-4.059-0.801-7.48-1.475-10.898-2.15
			c-0.023-0.248-0.051-0.498-0.074-0.748c3.246-1.943,6.496-3.889,10.293-6.16c-2.129-1.188-3.555-1.98-5.531-3.082
			c2.066-0.166,3.469-0.277,5.551-0.445c-2.387-3.332-4.352-6.082-6.957-9.719c-4.039,4.352-7.793,8.529-11.691,12.568
			c-4.148,4.297-4.277,8.553-0.066,12.703c9.309,9.17,18.625,18.324,28.02,27.398c0.848,0.818,2.281,1.426,3.457,1.443
			c8.008,0.125,16.02,0.117,24.027,0.006c1.086-0.016,2.418-0.584,3.207-1.344c9.457-9.148,18.852-18.361,28.223-27.598
			c4.082-4.023,4.047-8.422-0.09-12.479c-12.25-12.02-24.516-24.025-36.805-36.008c-4.562-4.449-8.84-4.391-13.43,0.1
			C42.55,22.65,35.343,29.734,28.136,36.82c-0.59,0.578-1.121,1.215-1.938,2.105c3.965,0.975,7.551,1.855,11.773,2.893
			c-0.715-2.42-1.164-3.949-1.754-5.961c1.613,1.225,2.734,2.078,4.242,3.221C41.183,35.236,41.796,31.996,42.413,28.758z
			 M47.37,66.168c6.891,0.004,12.336-5.242,12.418-11.955c0.082-6.826-5.418-12.287-12.371-12.287
			C40.46,41.93,34.921,47.373,34.968,54.17C35.015,60.791,40.569,66.166,47.37,66.168z"/>
		<path fill-rule="evenodd" clip-rule="evenodd" fill="#B39559" d="M42.96,49.193c1.121,0,1.926,0,2.957,0
			c0,2.527,0.148,4.98-0.043,7.404c-0.195,2.482-1.855,3.613-4.273,3.676c-2.383,0.061-4.191-0.861-4.527-3.363
			c-0.289-2.152-0.301-4.359-0.195-6.531c0.023-0.48,1.086-1.293,1.613-1.254s1.332,0.914,1.41,1.504
			c0.203,1.494-0.102,3.064,0.141,4.545c0.133,0.787,0.98,1.455,1.508,2.178c0.469-0.693,1.27-1.355,1.344-2.09
			C43.089,53.387,42.96,51.475,42.96,49.193z"/>
		<path fill-rule="evenodd" clip-rule="evenodd" fill="#B39559" d="M57.698,49.322c-1.254,3.365-2.352,6.482-3.605,9.533
			c-0.223,0.547-1.055,1.139-1.629,1.164c-0.574,0.027-1.504-0.5-1.715-1.014c-1.277-3.135-2.395-6.334-3.621-9.658
			c4.871-1.354,3.512,3.293,5.25,4.762C54.206,52.744,52.753,47.996,57.698,49.322z"/>
	</g>
</g>
</svg>
