<?xml version="1.0" encoding="utf-8"?>
<!-- Generator: Adobe Illustrator 16.0.0, SVG Export Plug-In . SVG Version: 6.00 Build 0)  -->
<!DOCTYPE svg PUBLIC "-//W3C//DTD SVG 1.1//EN" "http://www.w3.org/Graphics/SVG/1.1/DTD/svg11.dtd">
<svg version="1.1" id="圖層_1" xmlns="http://www.w3.org/2000/svg" xmlns:xlink="http://www.w3.org/1999/xlink" x="0px" y="0px"
	 width="113.386px" height="113.386px" viewBox="0 0 113.386 113.386" enable-background="new 0 0 113.386 113.386"
	 xml:space="preserve">
<g>
	<path fill-rule="evenodd" clip-rule="evenodd" fill="#B39559" d="M59.076,11.665c12.699-0.783,27.059,10.471,27.09,26.924
		c0.031,15.145-12.094,27.406-27.207,27.508c-14.871,0.1-27.203-12.234-27.344-27.164C31.47,23.313,44.912,10.837,59.076,11.665z
		 M49.556,18.989c1.016,0.68,2.109,1.096,2.727,1.885c2,2.572,4.824,2.312,7.566,2.672c1.059,0.139,2.355,1.008,2.844,1.922
		c0.301,0.559-0.508,2.074-1.219,2.715c-0.785,0.707-2.027,0.902-3.055,1.314c0.566,4.299-1.301,8.824-6.664,6.975
		c-0.078,1.508-0.305,1.383-0.098,2.684c0.496,3.08,2.465,4.9,5.508,5.516c0.16-0.65,0.129-1.559,0.562-2.074
		c0.672-0.799,1.641-1.809,2.523-1.852c1.004-0.051,2.453,0.584,3.02,1.398c2.309,3.324,6.797,5.359,10.988,4.594
		c-0.238-1.416-0.445-2.842-0.723-4.254c-0.355-1.781-0.703-3.582-3.309-2.457c-0.383,0.168-1.035-0.133-1.504-0.348
		c-3.473-1.59-4.625-5.49-2.293-8.559c2.254-2.965,4.816-5.695,7.285-8.57C67.884,16.522,56.861,14.722,49.556,18.989z
		 M37.251,36.856C35.15,50.444,48.556,63.011,61.787,60.417c-0.191-5.645-0.191-5.645-3.254-9.961
		c-1.492-0.127-2.941-0.4-4.262-0.965c-2.223-0.951-3.695-5.176-5.957-6c-3.199-1.162-6.367-0.121-8.328-2.867
		C39.146,39.452,38.294,38.292,37.251,36.856z M76.888,52.011c-2.387-1.141-4.664,0.914-6.227,5.578
		C72.642,55.815,74.626,54.038,76.888,52.011z"/>
	<path fill-rule="evenodd" clip-rule="evenodd" fill="#B39559" d="M32.115,72.991c-0.824-1.422-1.711-2.811-2.449-4.277
		c-0.812-1.623-1.52-3.309-2.215-4.988c-0.57-1.379-0.664-3.047,0.805-3.58c0.984-0.355,2.816,0.107,3.566,0.883
		c5.523,5.688,11.164,11.303,16.188,17.42c4.773,5.812,6.262,13.258,8.684,20.576c-3.824,0-7.367,0.025-10.914-0.035
		c-0.422-0.006-1.086-0.389-1.215-0.748c-2.117-5.938-6.969-9.73-11.031-14.133c-2.176-2.354-4.348-4.717-6.621-6.973
		c-2.676-2.652-4.094-5.852-4.375-9.545c-0.715-9.424-1.359-18.854-2.027-28.281c-0.035-0.529-0.02-1.072,0.035-1.6
		c0.234-2.188,1.848-2.949,3.449-1.408c1.098,1.061,2.074,2.523,2.477,3.98c1.656,6.01,3.074,12.084,4.586,18.178
		c-0.316,0.107-0.512,0.232-0.711,0.232c-4.262,0.008-5.527,1.697-3.793,5.725c1.344,3.113,3.211,6,4.844,8.986
		C31.634,73.265,31.876,73.128,32.115,72.991z"/>
	<path fill-rule="evenodd" clip-rule="evenodd" fill="#B39559" d="M61.138,99.046c3-9.812,5.809-19.266,13.504-26.344
		c3.641-3.35,6.855-7.16,10.273-10.75c0.473-0.496,0.934-1.137,1.527-1.35c0.984-0.352,2.504-0.912,3.023-0.471
		c0.715,0.605,1.227,2.244,0.918,3.119c-0.93,2.631-2.289,5.111-3.504,7.639c-0.348,0.715-0.789,1.387-1.184,2.078
		c0.262,0.141,0.52,0.281,0.777,0.422c1.723-3.287,3.809-6.445,5.07-9.904c1.258-3.447-0.09-4.828-3.707-4.799
		c-0.297,0.002-0.59-0.027-1.156-0.059c1.613-6.438,3.188-12.752,4.793-19.059c0.148-0.576,0.375-1.279,0.809-1.611
		c1.133-0.871,2.438-2.254,3.602-2.184c1.969,0.121,1.449,2.227,1.355,3.537c-0.715,10.031-1.398,20.07-2.426,30.072
		c-0.227,2.189-1.387,4.6-2.836,6.283c-4.18,4.852-8.855,9.273-13.082,14.088c-2.086,2.373-3.566,5.264-5.418,7.854
		c-0.441,0.617-1.25,1.346-1.914,1.373C68.22,99.12,64.865,99.046,61.138,99.046z"/>
</g>
</svg>
