<?xml version="1.0" encoding="utf-8"?>
<!-- Generator: Adobe Illustrator 16.0.0, SVG Export Plug-In . SVG Version: 6.00 Build 0)  -->
<!DOCTYPE svg PUBLIC "-//W3C//DTD SVG 1.1//EN" "http://www.w3.org/Graphics/SVG/1.1/DTD/svg11.dtd">
<svg version="1.1" id="圖層_1" xmlns="http://www.w3.org/2000/svg" xmlns:xlink="http://www.w3.org/1999/xlink" x="0px" y="0px"
	 width="113.386px" height="113.386px" viewBox="0 0 113.386 113.386" enable-background="new 0 0 113.386 113.386"
	 xml:space="preserve">
<g>
	<path fill-rule="evenodd" clip-rule="evenodd" fill="#B39559" d="M65.046,57.494c-0.023,5.98-0.062,11.959-0.035,17.938
		c0.002,0.531,0.332,1.221,0.736,1.57c4.562,3.9,6.402,9.621,4.58,15.1c-1.941,5.844-6.133,9.16-12.195,9.867
		c-8.383,0.979-15.945-6.559-15.238-14.986c0.342-4.049,2.035-7.402,5.203-9.941c0.664-0.529,0.818-1.062,0.82-1.82
		c0.027-9.756,0.055-19.512,0.117-29.266c0.016-2.535-0.078-5.109,0.295-7.602c0.605-3.98,4.529-6.699,8.588-6.291
		c4.014,0.404,7.164,3.74,7.18,7.75c0.023,5.895-0.035,11.785-0.059,17.682H65.046z M52.571,72.029
		c-0.145,0.062-0.287,0.123-0.432,0.186c-0.006,1.439-0.09,2.879,0.012,4.309c0.084,1.148-0.301,1.801-1.291,2.439
		c-4.383,2.836-6.053,8.523-3.992,13.213c2.199,5.002,7.418,7.674,12.619,6.332c4.43-1.143,7.184-4.068,8.127-8.512
		c0.936-4.406-1.033-8.746-4.826-11.205c-0.543-0.35-0.965-0.615-0.955-1.436c0.072-6.701,0.074-13.402,0.098-20.105
		c0.025-5.682,0.07-11.367,0.07-17.049c-0.004-2.881-2.066-4.953-4.848-4.973c-2.82-0.018-4.82,1.973-4.883,4.881
		c-0.025,1.312-0.014,2.629-0.02,3.945c-0.006,1.785-0.01,1.809,1.762,1.986c0.871,0.09,1.137,0.4,0.662,1.201
		c-0.783-0.066-1.529-0.133-2.424-0.211c-0.01,2.312-0.033,4.508-0.002,6.701c0.002,0.213,0.338,0.42,0.523,0.627
		c0.309-1.426,0.387-2.734,0.295-4.031c-0.076-1.094,0.471-1.469,1.395-1.486c1.635-0.033,3.275,0.031,4.916-0.008
		c1.348-0.033,1.648,0.594,1.637,1.871c-0.09,8.818-0.08,17.641-0.164,26.461c-0.008,1.121,0.346,1.74,1.283,2.33
		c3.832,2.4,5.496,6.547,4.471,10.855c-1.148,4.857-6.291,8.344-11.049,7.492c-5.543-0.994-9.146-5.637-8.535-10.955
		c0.385-3.359,2.1-5.82,4.928-7.6c0.43-0.271,0.951-0.803,0.982-1.248c0.127-1.688,0.084-3.389,0.051-5.084
		C52.976,72.646,52.714,72.335,52.571,72.029z M52.634,62.66c0.133-0.059,0.26-0.117,0.393-0.178
		c0.008-2.141,0.027-4.285,0.006-6.428c-0.004-0.209-0.26-0.418-0.404-0.623c-0.137,0.205-0.393,0.412-0.396,0.623
		c-0.039,1.938-0.043,3.877-0.01,5.816C52.222,62.14,52.491,62.398,52.634,62.66z M52.62,63.708
		c-0.148,0.068-0.293,0.135-0.443,0.197c-0.008,2.107-0.033,4.217-0.006,6.322c0.004,0.246,0.289,0.486,0.447,0.73
		c0.131-0.26,0.373-0.516,0.375-0.775c0.041-1.863,0.053-3.729,0.021-5.588C53.011,64.298,52.759,64.003,52.62,63.708z"/>
	<path fill-rule="evenodd" clip-rule="evenodd" fill="#B39559" stroke="#B39559" stroke-width="2.3991" stroke-miterlimit="10" d="
		M93.608,93.392c0.021-5.789,0.041-11.383,0.066-16.977c0.025-6.363,0.035-12.727,0.092-19.088c0.01-0.871-0.225-1.48-0.848-2.105
		C81.368,43.617,69.851,31.99,58.317,20.367c-0.232-0.236-0.486-0.449-0.775-0.711c-0.346,0.32-0.658,0.6-0.957,0.891
		C45.144,31.9,33.692,43.25,22.28,54.623c-0.428,0.43-0.814,1.139-0.818,1.713c-0.094,12.006-0.129,24.01-0.17,36.012
		c0,0.205,0.025,0.41,0.047,0.762c2.486,0.008,4.934,0.02,7.379,0.027c0.6,0.004,1.191-0.025,1.783,0.02
		c1,0.074,1.566,0.646,1.547,1.65c-0.016,0.977-0.639,1.467-1.564,1.49c-1.57,0.043-3.141,0.027-4.707,0.023
		c-1.867-0.004-3.734,0.004-5.598-0.049c-1.59-0.041-2.111-0.6-2.105-2.197c0.037-10.178,0.078-20.361,0.121-30.537
		c0.012-2.672-0.041-5.348,0.094-8.016c0.039-0.797,0.398-1.773,0.951-2.326c12.215-12.197,24.479-24.35,36.736-36.506
		c1.244-1.234,1.924-1.232,3.199,0.051C69.665,27.3,80.151,37.873,90.63,48.441c1.77,1.773,3.504,3.578,5.301,5.316
		c0.729,0.707,1.039,1.484,1.035,2.48c-0.049,7.082-0.066,14.164-0.1,21.25c-0.025,5.512-0.049,11.023-0.08,16.539
		c-0.014,2.16-0.393,2.547-2.514,2.541c-4.537-0.012-9.078-0.004-13.613-0.086c-0.633-0.012-1.379-0.377-1.836-0.824
		c-0.266-0.25-0.266-1.18-0.012-1.469c0.395-0.439,1.109-0.811,1.689-0.826c3.689-0.051,7.381,0.004,11.072,0.021
		C92.2,93.386,92.825,93.39,93.608,93.392z"/>
</g>
</svg>
