<?xml version="1.0" encoding="utf-8"?>
<!-- Generator: Adobe Illustrator 16.0.0, SVG Export Plug-In . SVG Version: 6.00 Build 0)  -->
<!DOCTYPE svg PUBLIC "-//W3C//DTD SVG 1.1//EN" "http://www.w3.org/Graphics/SVG/1.1/DTD/svg11.dtd">
<svg version="1.1" id="圖層_1" xmlns="http://www.w3.org/2000/svg" xmlns:xlink="http://www.w3.org/1999/xlink" x="0px" y="0px"
	 width="246px" height="152.093px" viewBox="0 0 246 152.093" enable-background="new 0 0 246 152.093" xml:space="preserve">
<path fill="#B39559" d="M174.875,124.275c-0.117,0-0.234,0-0.354,0c-0.244-0.098-0.479-0.215-0.729-0.289
	c-10.691-3.129-19.68-8.918-26.906-17.377c-8.379-9.816-12.814-21.227-13.336-34.115c-0.221-5.479,0.129-10.947,0.852-16.393
	c0.084-0.641,0.34-0.928,0.971-1.125c8.615-2.705,13.908-8.473,15.775-17.322c0.115-0.533,0.324-0.734,0.793-0.859
	c5.074-1.344,10.217-2.303,15.449-2.717c1.26-0.102,2.516-0.232,3.773-0.354c2.414,0,4.832,0,7.25,0
	c0.373,0.062,0.746,0.154,1.119,0.17c6.049,0.311,11.982,1.336,17.834,2.867c0.537,0.145,0.766,0.387,0.895,0.982
	c1.91,8.834,7.207,14.6,15.848,17.242c0.715,0.217,0.832,0.621,0.881,1.201c0.277,3.252,0.627,6.506,0.809,9.764
	c0.307,5.549,0.104,11.092-1.221,16.508c-4.695,19.166-16.215,32.502-34.465,39.998C178.406,123.16,176.625,123.674,174.875,124.275
	z"/>
<g>
	<path fill="#B39559" d="M67.656,119.848c-0.119,0-0.238,0-0.355,0c-0.242-0.098-0.477-0.217-0.727-0.289
		c-10.691-3.129-19.684-8.918-26.908-17.379c-8.381-9.816-12.812-21.227-13.334-34.113c-0.223-5.48,0.129-10.951,0.848-16.393
		c0.086-0.643,0.342-0.926,0.973-1.125c8.613-2.703,13.906-8.473,15.777-17.326c0.113-0.529,0.32-0.73,0.789-0.855
		c5.078-1.344,10.219-2.301,15.453-2.717c1.258-0.104,2.514-0.232,3.77-0.352c2.416,0,4.836,0,7.25,0
		c0.375,0.061,0.746,0.152,1.121,0.17c6.051,0.309,11.984,1.332,17.832,2.865c0.539,0.143,0.766,0.385,0.895,0.982
		c1.91,8.836,7.207,14.598,15.852,17.242c0.715,0.217,0.83,0.621,0.879,1.199c0.277,3.254,0.627,6.506,0.809,9.766
		c0.307,5.547,0.105,11.092-1.223,16.508c-4.691,19.164-16.211,32.498-34.461,39.998C71.188,118.732,69.406,119.246,67.656,119.848z
		 M60.969,94.418c-1.211-5.75,0.012-10.742,3.855-15.088c0.105,0.096,0.137,0.115,0.137,0.131c0.016,0.262,0.02,0.531,0.039,0.793
		c0.449,6.186,3.266,10.891,8.717,13.957c0.514,0.287,0.939,0.287,1.469,0.02c4.795-2.467,7.795-6.377,9.096-11.559
		c1.369-5.438,0.412-10.641-1.992-15.605c-0.793-1.629-1.771-3.156-2.789-4.947c-1.621,4.27-4.188,7.311-8.23,9.381
		c1.447-4.334,1.477-8.418-0.262-12.387c-1.73-3.947-4.586-6.814-8.73-8.611c0.031,0.6,0.047,1.002,0.074,1.404
		c0.191,3.111-0.521,6.016-2.352,8.512c-1.383,1.891-2.961,3.664-4.637,5.305c-7.109,6.979-7.223,17.852-0.184,24.908
		C56.809,92.262,58.672,93.555,60.969,94.418z"/>
</g>
<g>
	<path fill-rule="evenodd" clip-rule="evenodd" fill="#FFFFFF" d="M170.641,66.865c3.279,3.416,5.711,5.947,8.473,8.826
		c1.365-8.357,8.621-6.262,13.639-8.059c0.59-0.209,2.486,1.225,2.512,1.945c0.037,1.062-0.795,2.65-1.725,3.152
		c-1.66,0.891-3.641,1.357-5.539,1.609c-2.74,0.365-3.607,1.953-3.582,4.422c5.5-0.504,8.992,3.518,13.146,5.926
		c0.584,0.34,0.76,2.531,0.256,3.27c-0.498,0.734-2.273,1.223-3.184,0.918c-1.91-0.641-3.723-1.73-5.395-2.895
		c-1.738-1.217-3.098-1.074-4.922-0.025c-7.785,4.473-6.426,5.193-12.539-1.797c-5.152-5.9-10.789-8.969-18.629-7.639
		c-1.555,0.266-3.238,0.275-4.773-0.039c-1.084-0.219-2.016-1.186-3.016-1.816c1.037-0.625,2.035-1.695,3.109-1.781
		c3.066-0.244,6.178,0.096,9.242-0.162c1.422-0.119,3.037-0.791,4.105-1.732c3.082-2.711,5.824-5.809,8.91-8.518
		c2.078-1.828,2.988-3.816,2.645-6.562c-0.211-1.686-0.207-3.451,0.062-5.121c0.121-0.754,1.125-1.369,1.729-2.047
		c0.568,0.615,1.588,1.203,1.627,1.846c0.184,3.305,0.223,6.625,0.059,9.93c-0.039,0.869-0.809,1.861-1.514,2.516
		C173.852,64.418,172.188,65.623,170.641,66.865z"/>
	<path fill-rule="evenodd" clip-rule="evenodd" fill="#FFFFFF" d="M199.789,92.039c-2.047,2.238-51.922,2.373-54.789,0
		C163.527,92.039,181.461,92.039,199.789,92.039z"/>
	<path fill-rule="evenodd" clip-rule="evenodd" fill="#FFFFFF" d="M164.426,64.652c-0.031,2.445-2.164,4.443-4.656,4.373
		c-2.586-0.072-4.367-2.014-4.227-4.662c0.146-2.723,1.734-4.094,4.348-4.221C162.299,60.021,164.461,62.266,164.426,64.652z"/>
	<path fill-rule="evenodd" clip-rule="evenodd" fill="#FFFFFF" d="M174.154,95.572c0.73,2.904-1.018,4.637-2.994,6.262
		C170.338,98.885,172.223,97.217,174.154,95.572z"/>
	<path fill-rule="evenodd" clip-rule="evenodd" fill="#FFFFFF" d="M182.334,95.26c1.072,2.035,2.143,4.074,3.209,6.109
		c-0.52,0.279-1.043,0.559-1.562,0.84c-1.148-2.021-2.301-4.047-3.449-6.072C181.131,95.846,181.736,95.555,182.334,95.26z"/>
	<path fill-rule="evenodd" clip-rule="evenodd" fill="#FFFFFF" d="M177.293,104.133c0-2.885,0-5.199,0-7.84
		C179.461,98.303,179.529,101.504,177.293,104.133z"/>
</g>
<g>
	
		<line fill="none" stroke="#B39559" stroke-width="2.3229" stroke-miterlimit="10" x1="113.621" y1="60.631" x2="128.414" y2="88.512"/>
	
		<line fill="none" stroke="#B39559" stroke-width="2.3229" stroke-miterlimit="10" x1="113.621" y1="88.512" x2="128.414" y2="60.631"/>
</g>
</svg>
