<?xml version="1.0" encoding="utf-8"?>
<!-- Generator: Adobe Illustrator 16.0.0, SVG Export Plug-In . SVG Version: 6.00 Build 0)  -->
<!DOCTYPE svg PUBLIC "-//W3C//DTD SVG 1.1//EN" "http://www.w3.org/Graphics/SVG/1.1/DTD/svg11.dtd">
<svg version="1.1" id="圖層_1" xmlns="http://www.w3.org/2000/svg" xmlns:xlink="http://www.w3.org/1999/xlink" x="0px" y="0px"
	 width="113.386px" height="113.386px" viewBox="0 0 113.386 113.386" enable-background="new 0 0 113.386 113.386"
	 xml:space="preserve">
<g id="_x31_233_1_">
	<g>
		<path fill="#AE9158" d="M17.715,52.742c0.539,1.611,6.371,19.672,6.936,21.375c0.387,1.182,0.85,2.336,1.168,3.537
			c0.246,0.92,0.738,1.477,1.682,1.381c1.102-0.107,2.387,0.537,3.236-0.717c0.133-0.199,0.314-0.387,0.375-0.604
			c0.52-1.824,6.41-19.074,7.051-21.002c0.578-1.748,1.135-3.498,1.717-5.242c0.619-1.857,1.209-3.725,1.883-5.562
			c0.338-0.918,0.188-1.283-0.791-1.33c-0.564-0.027-1.141,0.074-1.695-0.008c-1.229-0.184-1.936,0.42-2.289,1.48
			c-0.594,1.783-6.441,20.111-7.025,21.896c-0.432,1.314-0.879,2.625-1.428,4.246c-0.857-2.75-7.207-23.25-8.113-25.195
			c-1.184-2.562-0.441-4.729,0.73-6.984c2.543-4.895,5.799-9.215,9.994-12.811c1.113-0.953,1.434-0.895,2.262,0.33
			c2.547,3.764,5.111,7.518,7.67,11.275c2.012,2.961,4.037,5.914,6.012,8.896c0.168,0.252,0.135,0.771-0.012,1.068
			c-0.803,1.645-1.709,3.24-2.494,4.891c-0.287,0.598-0.33,1.307-0.494,1.963c-0.152,0.6-0.701,2.98-0.711,3.574
			c-0.031,1.898-0.053,3.797,0.02,5.691c0.025,0.639,1.223,4.766,1.467,5.982c0.033,0.154,0.061,0.324,0.143,0.457
			c1.588,2.521,3.402,4.871,5.877,6.555c0.938,0.635,2.168,0.916,3.303,1.158c1.508,0.32,3.053,0.592,4.586,0.615
			c2.633,0.047,5.088-0.709,7.234-2.281c0.73-0.531,1.15-0.264,1.58,0.371c3.066,4.527,6.145,9.051,9.219,13.574
			c0.135,0.201,0.273,0.398,0.393,0.611c1.094,1.883,1.092,1.879-0.934,2.863c-4.584,2.213-9.404,3.541-14.482,4.041
			c-17.207,1.678-33.135-7.963-40.229-21.889c-3.701-7.256-5.139-14.896-4.357-22.977c0.041-0.41,0.156-0.814,0.234-1.225
			C17.53,52.744,17.624,52.744,17.715,52.742z"/>
		<path fill="#AE9158" d="M92.745,80.043c-0.412,0.619-0.746,1.26-1.213,1.787c-2.02,2.299-4.066,4.576-6.131,6.834
			c-0.701,0.762-1.359,0.844-2.025-0.184c-1.793-2.766-3.656-5.488-5.51-8.217c-1.58-2.332-3.18-4.646-4.77-6.975
			c-0.479-0.695-1.016-1.365-1.389-2.111c-0.211-0.426-0.342-1.066-0.174-1.473c1.6-3.811,1.617-7.85,1.232-11.791
			c-0.455-4.688-2.416-8.838-6.291-11.814c-1.967-1.508-4.23-2.326-6.709-2.299c-1.912,0.021-3.879-0.393-5.736,0.5
			c-0.193,0.096-0.705-0.127-0.861-0.352c-2.164-3.1-4.301-6.223-6.43-9.35c-1.631-2.395-3.238-4.803-4.867-7.199
			c-0.969-1.432-1.951-2.854-2.936-4.275c-0.418-0.607-0.258-1.084,0.359-1.389c3.523-1.746,7.189-3.115,11.07-3.74
			c2.49-0.402,5.033-0.814,7.539-0.738c16.957,0.508,29.465,8.207,37.258,23.375c0.424,0.826,0.807,1.67,1.154,2.531
			c0.109,0.271,0.16,0.701,0.02,0.898c-0.117,0.162-0.566,0.125-0.863,0.107c-2.283-0.131-4.629-0.684-6.832-0.33
			c-3.721,0.598-7.031,2.305-9.205,5.609c-0.986,1.5-2.184,2.977-2.701,4.646c-0.721,2.316-1.029,4.787-1.26,7.219
			c-0.291,3.035,0.143,6.064,1.152,8.936c0.92,2.605,2.518,4.789,4.748,6.543c3.053,2.404,6.525,3.031,10.252,2.898
			c0.238-0.008,0.48,0.025,0.719,0.055C92.417,79.754,92.473,79.834,92.745,80.043z"/>
		<path fill="#AE9158" d="M80.018,62.08c0.188-2.736,0.549-5.4,1.895-7.742c1.66-2.887,3.787-5.141,7.475-5.664
			c3.105-0.441,5.781,0.262,8.393,1.688c0.371,0.203,0.76,0.693,0.816,1.096c0.305,2.189,0.789,4.402,0.695,6.584
			c-0.213,4.959-0.945,9.865-2.828,14.514c-0.375,0.924-1.062,1.607-2.129,1.918c-4.506,1.309-8.414,0.42-11.352-3.299
			c-1-1.268-1.562-2.941-2.068-4.516C80.438,65.188,80.305,63.609,80.018,62.08z"/>
		<path fill="#AE9158" d="M58.196,75.066c-4.031-0.049-6.729-2.209-8.531-5.592c-1.934-3.625-2.039-7.572-1.439-11.518
			c0.225-1.471,0.959-2.883,1.559-4.279c0.258-0.596,0.779-0.854,1.281-0.109c1.979,2.936,3.959,5.873,5.951,8.801
			c1.74,2.562,3.498,5.117,5.242,7.674c0.453,0.662,0.867,1.355,1.34,2.002c0.455,0.617,0.268,1.057-0.311,1.393
			C61.717,74.357,60.092,75.125,58.196,75.066z"/>
		<path fill="#AE9158" d="M67.758,65.461c-3.852-5.639-7.592-11.109-11.523-16.867c0.945-0.066,1.668-0.197,2.377-0.148
			c2.326,0.16,4.523,0.848,6.285,2.385c0.791,0.691,1.264,1.785,1.768,2.758c0.541,1.043,1.141,2.119,1.373,3.25
			c0.371,1.801,0.578,3.664,0.609,5.504C68.663,63.268,68.141,64.197,67.758,65.461z"/>
	</g>
</g>
</svg>
