<?xml version="1.0" encoding="utf-8"?>
<!-- Generator: Adobe Illustrator 16.0.0, SVG Export Plug-In . SVG Version: 6.00 Build 0)  -->
<!DOCTYPE svg PUBLIC "-//W3C//DTD SVG 1.1//EN" "http://www.w3.org/Graphics/SVG/1.1/DTD/svg11.dtd">
<svg version="1.1" id="圖層_1" xmlns="http://www.w3.org/2000/svg" xmlns:xlink="http://www.w3.org/1999/xlink" x="0px" y="0px"
	 width="113.386px" height="113.386px" viewBox="0 0 113.386 113.386" enable-background="new 0 0 113.386 113.386"
	 xml:space="preserve">
<path fill-rule="evenodd" clip-rule="evenodd" fill="#B39559" d="M49.456,86.353c0-2.07,0-3.26,0-4.451c0-2.629,0-5.258,0-9.221
	c-4.84,2.721-8.75,4.916-14.027,7.877c2.242-4.613,3.859-7.941,5.855-12.051c-4.738,0-8.848,0-12.953,0
	c-0.184-0.455-0.367-0.91-0.551-1.363c2.891-1.896,5.781-3.793,9.363-6.143c-4.125-2.541-7.82-4.814-12.914-7.949
	c5.074-0.322,8.688-0.553,13.027-0.828c-2.164-4.191-4.082-7.912-6.938-13.447c4.688,2.488,7.871,4.18,11.57,6.141
	c0.336-5.559,0.637-29.186,0.965-34.678c4.91-0.51,9.688-1.006,15.051-1.562c0,4.031,0,26.236,0,31.074
	c4.039-2.436,7.141-4.307,11.32-6.828c-1.945,4.619-3.39,8.055-5.007,11.896c4.796,0,8.988,0,14.398,0
	c-3.629,2.809-6.398,4.955-9.645,7.467c4.121,2.268,7.754,4.262,12.785,7.027c-4.805,0.715-8.23,1.225-12.551,1.865
	c2.418,3.936,4.691,7.629,7.93,12.891c-4.793-2.113-8.117-3.578-12-5.287c0,4.977,0,9.418,0,15.178
	c-2.973-4.207-5.227-7.402-7.82-11.078c-2.418,4.5-4.574,8.518-7.109,13.238c18.804,0,36.621,0,54.589,0
	c1.508,3.379,1.199,5.043-2.797,5.031c-23.586-0.066-59.691,0.018-83.281-0.16c-1.379-0.01-2.742-1.855-4.117-2.85
	c0.324-0.596,0.652-1.193,0.98-1.789C22.428,86.353,41.803,86.353,49.456,86.353z"/>
<path fill-rule="evenodd" clip-rule="evenodd" fill="#B39559" d="M83.17,74.033c7.195-14.162,14.684-21.732,20.535-20.385
	C96.557,60.748,89.295,67.955,83.17,74.033z"/>
</svg>
