<?xml version="1.0" encoding="utf-8"?>
<!-- Generator: Adobe Illustrator 16.0.0, SVG Export Plug-In . SVG Version: 6.00 Build 0)  -->
<!DOCTYPE svg PUBLIC "-//W3C//DTD SVG 1.1//EN" "http://www.w3.org/Graphics/SVG/1.1/DTD/svg11.dtd">
<svg version="1.1" id="圖層_1" xmlns="http://www.w3.org/2000/svg" xmlns:xlink="http://www.w3.org/1999/xlink" x="0px" y="0px"
	 width="113.386px" height="113.386px" viewBox="0 0 113.386 113.386" enable-background="new 0 0 113.386 113.386"
	 xml:space="preserve">
<g>
	<path fill="#B39559" d="M87.332,85.464c-0.383,0.162-0.711,0.387-0.969,0.699c-0.199,0.242-0.398,0.545-0.57,0.896
		c-0.176,0.355-0.316,0.73-0.457,1.137c-0.133,0.4-0.236,0.801-0.312,1.219c-0.055,0.414-0.105,0.775-0.105,1.137
		c0,0.604,0.105,1.047,0.336,1.332c0.23,0.293,0.547,0.434,0.965,0.434c0.441,0,0.898-0.164,1.348-0.494
		c0.438-0.33,0.824-0.758,1.125-1.314l1.062-5.01c-0.281-0.191-0.734-0.279-1.34-0.279C88.074,85.22,87.723,85.298,87.332,85.464
		 M59.641,85.396c-0.34,0.133-0.719,0.438-1.102,0.908c-0.227,0.271-0.418,0.58-0.582,0.957c-0.16,0.363-0.297,0.758-0.41,1.156
		c-0.102,0.4-0.188,0.801-0.227,1.221c-0.051,0.41-0.094,0.793-0.094,1.156c0,0.562,0.1,0.949,0.283,1.18
		c0.178,0.236,0.447,0.344,0.814,0.344c0.227,0,0.457-0.051,0.688-0.164c0.242-0.109,0.469-0.248,0.676-0.428
		c0.213-0.178,0.402-0.393,0.578-0.623c0.148-0.227,0.301-0.486,0.422-0.729l1.07-4.996c-0.109-0.07-0.244-0.111-0.408-0.139
		c-0.174-0.041-0.346-0.059-0.521-0.059C60.379,85.181,59.984,85.251,59.641,85.396 M96.355,85.765
		c-0.457,0.449-0.793,1.168-1.016,2.127l0.348,0.031c0.176,0.023,0.352,0.027,0.518,0.027c0.6,0,1.123-0.047,1.523-0.148
		c0.428-0.096,0.76-0.27,0.99-0.514c0.281-0.281,0.406-0.615,0.406-1.002c0-0.352-0.074-0.629-0.273-0.867
		c-0.182-0.227-0.496-0.342-0.965-0.342C97.328,85.078,96.805,85.308,96.355,85.765 M70.545,83.794l2.264-0.344l-2.152,10.391
		h-2.211L70.545,83.794z M55.715,93.279c-0.48-0.527-0.717-1.348-0.717-2.434c0-1.125,0.186-2.199,0.588-3.225
		c0.375-1.018,0.885-1.855,1.537-2.543c1.057-1.086,2.377-1.65,3.969-1.65c0.592,0,1.143,0.068,1.689,0.184
		c0.551,0.123,1.016,0.312,1.406,0.584c-0.082,0.283-0.195,0.652-0.312,1.104c-0.115,0.461-0.203,0.865-0.27,1.227l-0.816,4.027
		c-0.125,0.613-0.172,1.088-0.102,1.41c0.055,0.318,0.205,0.607,0.453,0.877l-1.771,1.352c-0.266-0.232-0.451-0.484-0.568-0.756
		s-0.184-0.584-0.184-0.914c-0.352,0.492-0.781,0.887-1.281,1.156c-0.508,0.268-1.082,0.406-1.719,0.406
		C56.818,94.083,56.188,93.818,55.715,93.279 M93.537,93.164c-0.666-0.637-0.986-1.559-0.986-2.777c0-0.508,0.051-1.023,0.154-1.529
		c0.115-0.514,0.254-1.023,0.447-1.5c0.193-0.482,0.43-0.951,0.695-1.377c0.293-0.434,0.59-0.832,0.936-1.16
		c0.506-0.486,1.029-0.828,1.592-1.057c0.547-0.229,1.152-0.336,1.787-0.336c0.982,0,1.756,0.223,2.322,0.68
		c0.549,0.447,0.832,1.133,0.832,2.051c0,0.824-0.283,1.523-0.867,2.096c-0.449,0.416-0.996,0.732-1.686,0.959
		c-0.693,0.223-1.549,0.328-2.576,0.328c-0.271,0-0.523-0.012-0.734-0.035c-0.223-0.031-0.375-0.045-0.479-0.045
		c-0.029,0.111-0.047,0.273-0.07,0.498c-0.033,0.211-0.033,0.416-0.033,0.57c0,0.648,0.168,1.115,0.484,1.416
		c0.332,0.303,0.779,0.461,1.324,0.461c0.523,0,1.016-0.1,1.459-0.275c0.457-0.186,0.912-0.461,1.375-0.836l0.658,1.367
		c-0.59,0.49-1.219,0.867-1.842,1.096c-0.646,0.232-1.377,0.354-2.229,0.354C95.043,94.111,94.184,93.798,93.537,93.164
		 M82.627,90.611c0-0.527,0.045-1.066,0.166-1.598c0.098-0.545,0.25-1.066,0.438-1.574c0.184-0.494,0.43-0.975,0.688-1.402
		c0.285-0.438,0.586-0.816,0.938-1.139c0.51-0.473,1.062-0.834,1.688-1.096c0.623-0.268,1.305-0.4,2.057-0.4
		c0.396,0,0.771,0.02,1.107,0.049c0.328,0.033,0.635,0.066,0.926,0.143c0.301,0.068,0.578,0.15,0.852,0.238
		c0.256,0.092,0.527,0.209,0.809,0.363l-0.086,0.25c-0.039,0.137-0.074,0.268-0.105,0.436c-0.051,0.16-0.09,0.33-0.141,0.516
		c-0.051,0.178-0.088,0.342-0.123,0.51l-1.053,4.971c-0.156,0.768-0.281,1.441-0.379,2.016c-0.09,0.574-0.18,1.053-0.273,1.432
		c-0.152,0.721-0.387,1.316-0.719,1.793c-0.324,0.486-0.707,0.881-1.162,1.17c-0.475,0.291-0.971,0.498-1.545,0.633
		c-0.568,0.133-1.188,0.191-1.828,0.191c-1.27,0-2.441-0.309-3.496-0.904l0.754-1.566c0.828,0.508,1.807,0.768,2.91,0.768
		c0.855,0,1.508-0.166,1.957-0.502c0.453-0.326,0.77-0.85,0.953-1.582l0.074-0.299c0.037-0.146,0.082-0.295,0.111-0.457
		c0.035-0.16,0.084-0.316,0.109-0.463l0.072-0.266c-0.4,0.436-0.801,0.752-1.258,0.939c-0.465,0.191-0.957,0.291-1.494,0.291
		C83.609,94.07,82.627,92.916,82.627,90.611 M74.152,86.812c0.105-0.604,0.164-1.094,0.176-1.48
		c0.018-0.381-0.031-0.768-0.145-1.137l2.023-0.85c0.107,0.238,0.17,0.521,0.211,0.867c0.031,0.352,0.027,0.699-0.041,1.055
		c0.471-0.598,1.023-1.039,1.629-1.352c0.611-0.312,1.264-0.465,1.963-0.465c0.633,0,1.133,0.18,1.473,0.549
		c0.354,0.355,0.531,0.848,0.531,1.465c0,0.166,0,0.361-0.023,0.549c-0.016,0.195-0.043,0.387-0.072,0.559l-1.525,7.27h-2.16
		l1.406-6.729c0.09-0.408,0.141-0.752,0.141-0.986c0-0.293-0.07-0.5-0.191-0.627c-0.137-0.121-0.332-0.18-0.602-0.18
		c-0.352,0-0.766,0.145-1.234,0.418c-0.479,0.299-0.996,0.783-1.504,1.475l-1.395,6.629h-2.131L74.152,86.812z M49.832,89.58
		c0.258-0.508,0.529-1.027,0.816-1.586l4.285-8.049h2.438L49.742,93.9h-2.113l-1.727-13.955h2.418l0.809,8.176
		c0.039,0.432,0.062,0.893,0.094,1.385c0.029,0.5,0.029,0.939,0.029,1.318C49.396,90.509,49.592,90.099,49.832,89.58 M58.209,82.173
		c-0.252-0.258-0.381-0.578-0.381-0.98c0-0.369,0.129-0.688,0.395-0.955c0.266-0.258,0.582-0.381,0.957-0.381
		c0.352,0,0.67,0.123,0.941,0.381c0.25,0.268,0.375,0.586,0.375,0.955c0,0.402-0.125,0.723-0.375,0.98
		c-0.271,0.266-0.59,0.395-0.965,0.395C58.785,82.568,58.475,82.439,58.209,82.173 M62.348,82.173
		c-0.266-0.258-0.391-0.578-0.391-0.98c0-0.369,0.125-0.688,0.391-0.955c0.25-0.258,0.568-0.381,0.949-0.381
		c0.375,0,0.684,0.123,0.941,0.381c0.266,0.268,0.391,0.586,0.391,0.955c0,0.402-0.125,0.723-0.391,0.98
		c-0.258,0.266-0.566,0.395-0.941,0.395C62.916,82.568,62.598,82.439,62.348,82.173 M71.281,81.781
		c-0.279-0.299-0.422-0.646-0.422-1.035c0-0.416,0.143-0.768,0.422-1.072c0.297-0.283,0.633-0.426,1.039-0.426
		c0.398,0,0.742,0.143,1,0.426c0.273,0.305,0.422,0.637,0.422,1.039c0,0.416-0.148,0.77-0.422,1.068
		c-0.258,0.281-0.621,0.422-1.027,0.422C71.896,82.203,71.578,82.062,71.281,81.781 M64.943,93.638
		c-0.283-0.297-0.424-0.666-0.424-1.139c0-0.15,0.004-0.346,0.043-0.615c0.029-0.262,0.08-0.527,0.148-0.807l1.752-8.389
		c0.154-0.684,0.232-1.268,0.279-1.764c0.035-0.49,0-0.9-0.113-1.236l2.289-0.771c0.039,0.168,0.074,0.385,0.084,0.635
		c0.014,0.25,0.014,0.531-0.01,0.832c-0.027,0.301-0.051,0.617-0.094,0.959c-0.041,0.33-0.086,0.662-0.162,0.984l-1.717,8.201
		c-0.09,0.4-0.146,0.715-0.184,0.924c-0.035,0.217-0.043,0.381-0.043,0.51c0,0.355,0.148,0.537,0.453,0.537h0.191l0.156-0.037
		l0.115,1.348c-0.438,0.164-0.916,0.26-1.455,0.26C65.658,94.07,65.227,93.925,64.943,93.638 M10.059,86.9h9.195l2.348-11.727
		c0.195-0.986,0.242-1.664,1.566-1.664h8.516h0.062c1.029,0,1.289,0.014,0.992,1.465l-3.135,15.271h10.893
		c-2.904,4.271-8.287,7.115-14.393,7.115c-6.158,0-11.482-2.797-14.367-7.115h11.105l2.26-11.021c0.23-1,1.078-1.469,1.799-1.469
		h3.662l0.324-1.771h-4.229c-1.377,0-2.916,0.992-3.268,2.789l-1.998,9.682H10.701C10.434,87.923,10.264,87.453,10.059,86.9
		 M97.303,75.046l-1.264-3.818l1.234-0.223l1.027,3.461c0.094,0.35,0.316,1.281,0.316,1.281s0.203-0.848,0.412-1.543l0.928-3.078
		h1.301l-1.973,5.803c-0.465,1.373-0.859,2.057-2.176,2.299l-0.391-0.793c0.758-0.211,1.184-0.539,1.496-1.627h-0.383
		C97.684,76.167,97.477,75.554,97.303,75.046 M58.77,73.984c0-0.998,0.207-1.658,0.699-2.211c0.441-0.533,0.992-0.771,1.707-0.771
		c0.551,0,1.059,0.141,1.531,0.578c0.48,0.453,0.729,1.141,0.729,2.469v0.26h-3.334V74.4c0,0.779,0.285,1.609,1.379,1.609
		c0.512,0,0.961-0.189,1.379-0.553l0.48,0.75c-0.574,0.496-1.258,0.752-2.008,0.752C59.766,76.958,58.77,75.798,58.77,73.984
		 M75.863,73.984c0-0.998,0.203-1.658,0.684-2.211c0.457-0.533,1.004-0.771,1.707-0.771c0.566,0,1.051,0.141,1.531,0.578
		c0.49,0.453,0.734,1.141,0.734,2.469v0.26h-3.336V74.4c0,0.779,0.291,1.609,1.383,1.609c0.525,0,0.977-0.189,1.398-0.553
		l0.469,0.75c-0.582,0.496-1.254,0.752-2.004,0.752C76.848,76.958,75.863,75.798,75.863,73.984 M51.098,71.228l1.234-0.234v5.816
		h-1.234V71.228z M53.852,74.041c0-2.064,1.211-3.059,2.461-3.059c0.605,0,1.047,0.145,1.539,0.627l-0.596,0.811
		c-0.338-0.301-0.629-0.441-0.943-0.441c-0.396,0-0.701,0.209-0.887,0.582c-0.162,0.35-0.223,0.871-0.223,1.582
		c0,0.77,0.111,1.258,0.367,1.545c0.18,0.213,0.439,0.322,0.742,0.322c0.387,0,0.764-0.189,1.117-0.553l0.584,0.75
		c-0.51,0.514-1.041,0.752-1.791,0.752C54.703,76.958,53.852,75.863,53.852,74.041 M64.85,72.642c0-0.602-0.057-0.945-0.207-1.35
		l1.104-0.318c0.133,0.266,0.199,0.512,0.199,0.811c0.59-0.52,1.109-0.791,1.699-0.791c0.871,0,1.469,0.535,1.469,1.578v4.238
		h-1.207v-3.768c0-0.77-0.172-0.988-0.637-0.988c-0.352,0-0.855,0.273-1.223,0.641v4.115H64.85V72.642z M73.514,75.248
		c0-0.434-0.287-0.656-0.904-0.793l-0.678-0.146c-0.838-0.18-1.34-0.768-1.34-1.555c0-1.068,0.846-1.807,2.084-1.807
		c0.764,0,1.359,0.23,1.826,0.484l-0.385,0.855c-0.523-0.279-0.928-0.412-1.363-0.412c-0.521,0-0.859,0.287-0.859,0.73
		c0,0.35,0.191,0.529,0.75,0.668l0.695,0.18c1.125,0.291,1.418,0.924,1.418,1.588c0,1.141-0.918,1.926-2.254,1.926
		c-0.691,0-1.414-0.221-2.141-0.631l0.434-0.891c0.498,0.303,1.18,0.604,1.812,0.604C73.141,76.048,73.514,75.718,73.514,75.248
		 M45.891,69.041h1.297v6.707h2.82l-0.207,1.062h-3.91V69.041z M50.918,69.468c0-0.457,0.355-0.826,0.801-0.826
		c0.438,0,0.807,0.357,0.807,0.826c0,0.447-0.369,0.824-0.82,0.824C51.262,70.292,50.918,69.916,50.918,69.468 M85.09,70.617v-2.074
		l1.203,0.186v6.109c0,1.123,0.07,1.691,0.184,1.977h-1.113c-0.057-0.123-0.078-0.207-0.109-0.441
		c-0.367,0.379-0.805,0.557-1.357,0.557c-1.432,0-2.285-1.131-2.285-2.895c0-1.789,0.975-3.006,2.307-3.006
		c0.482,0,0.867,0.16,1.199,0.516C85.117,71.544,85.09,71.113,85.09,70.617 M90.725,75.541v-5.35c0-0.652-0.025-1.059-0.117-1.371
		l1.232-0.277c0.078,0.406,0.104,0.684,0.104,1.131v1.32c0,0.373-0.035,0.551-0.035,0.551h0.041
		c0.381-0.373,0.785-0.551,1.328-0.551c1.332,0,2.176,1.113,2.176,2.887c0,1.814-0.926,3.049-2.234,3.049
		c-0.551,0-1.012-0.219-1.352-0.641c-0.062,0.293-0.074,0.369-0.156,0.525h-1.104C90.699,76.556,90.725,76.306,90.725,75.541
		 M9.398,82.855c0-7.99,7.512-14.506,16.705-14.506c9.201,0,16.705,6.516,16.705,14.506c0,2.025-0.465,3.816-1.303,5.6l-9.678,0.014
		l2.805-13.971c0.289-1.57,0.59-2.756-1.578-2.756c-0.785,0-9.762-0.025-10.854-0.025H22.18c-1.863,0-1.957,1.627-2.209,2.684
		l-2.188,10.697H9.602C9.457,84.322,9.398,83.675,9.398,82.855 M25.926,24.083c4.33-3.596,8.301-5.445,14.012-5.445
		c7.723,0,11.73,4.436,11.73,10.684c0,7.771-6.656,13.438-14.168,18.355c1.113-0.219,2.746-0.322,4.395-0.322h10.631l-2.014,7.674
		H27.188v-6.674c3.434-3.004,7.449-6.656,10.312-10.199c2.488-3.068,4.076-5.131,4.076-8.619c0-1.904-1.012-3.385-3.275-3.385
		c-2.18,0-3.916,1.117-6.398,3.33L25.926,24.083z M58.148,42.611c-2.486-3.521-3.496-7.094-3.496-12.16
		c0-7.943,3.129-14.77,9.273-17.973c2.75-1.439,5.09-1.918,8.426-1.918c4.82,0,9.328,1.6,12.871,4.695l-5.238,5.912
		c-1.979-1.92-4.727-2.879-7.523-2.879c-4.992,0-7,3.471-7,11.787c0,7.414,2.176,11.043,6.57,11.043
		c1.227,0,2.445-0.107,3.453-0.539v-5.861h-4.506l-1.064-7.568h15.055v18.129c-4.254,2.611-8.533,3.676-13.303,3.676
		C65.52,48.955,61.281,46.986,58.148,42.611 M11.375,6.328c-2.73,0-4.961,2.238-4.961,4.977v89.436c0,2.703,2.191,4.922,4.879,4.965
		h89.602c2.707-0.043,4.883-2.262,4.883-4.965V11.304c0-2.738-2.227-4.977-4.957-4.977H11.375z"/>
</g>
</svg>
