<?xml version="1.0" encoding="utf-8"?>
<!-- Generator: Adobe Illustrator 16.0.0, SVG Export Plug-In . SVG Version: 6.00 Build 0)  -->
<!DOCTYPE svg PUBLIC "-//W3C//DTD SVG 1.1//EN" "http://www.w3.org/Graphics/SVG/1.1/DTD/svg11.dtd">
<svg version="1.1" id="圖層_1" xmlns="http://www.w3.org/2000/svg" xmlns:xlink="http://www.w3.org/1999/xlink" x="0px" y="0px"
	 width="113.386px" height="113.386px" viewBox="0 0 113.386 113.386" enable-background="new 0 0 113.386 113.386"
	 xml:space="preserve">
<g>
	<path fill-rule="evenodd" clip-rule="evenodd" fill="#B39559" d="M12.766,67.085c2.221-0.307,4.383-0.809,6.352-1.945
		c2.863-1.65,4.756-4.16,5.836-7.18c1.297-3.607,2.312-7.318,3.43-10.99c1.176-3.871,2.625-7.607,5.27-10.756
		c1.939-2.311,4.316-4.023,7.145-5.262c1.832,6.273,4.846,11.879,8.699,17.145c-2.215,0.873-4.338,1.719-6.469,2.543
		c-3.543,1.375-4.646,3.035-4.496,6.889c-0.619,0.266-1.266,0.525-1.898,0.822c-3.762,1.771-4.67,6.402-1.832,9.438
		c0.34,0.359,0.398,0.598,0.172,1.045c-1.191,2.396-0.785,5.037,1.006,6.836c1.822,1.83,4.416,2.283,6.822,1.141
		c6.363-3.02,12.713-6.076,19.092-9.072c0.736-0.346,1.607-0.531,2.424-0.559c2.055-0.074,4.117-0.012,6.176-0.004
		c0.312,0.002,0.621,0.041,0.93,0.062c0.027,0.074,0.055,0.148,0.082,0.223c-0.227,0.174-0.441,0.377-0.688,0.52
		c-2.332,1.363-4.693,2.682-7.004,4.08c-2.277,1.377-3.812,3.35-4.105,6.053c-0.465,4.326,3.375,7.135,7.494,5.518
		c1.963-0.773,3.881-1.668,5.846-2.445c3.463-1.369,6.906-2.773,10.562-3.615c3.09-0.711,5.574-2.568,7.799-4.77
		c0.389-0.387,0.744-0.535,1.303-0.469c3.346,0.391,6.691,0.734,10.113,1.104c-0.254,0.135-0.492,0.27-0.74,0.389
		c-4.693,2.309-9.133,5-12.842,8.738c-2.117,2.135-3.871,4.514-4.43,7.566c-0.406,2.227,0.02,4.318,1.182,6.424
		c-1.525,0.404-2.975,0.82-4.445,1.164c-4.326,1.014-8.693,1.703-13.137,1.922c-0.289,0.012-0.576,0.1-0.865,0.152
		c-2.645-0.01-5.297-0.021-7.945-0.031c-0.285-0.059-0.566-0.148-0.852-0.166c-4.531-0.268-8.982-1.016-13.357-2.201
		c-7.803-2.119-14.994-5.465-21.17-10.779c-5.215-4.494-9.049-9.914-10.84-16.65c-0.211-0.783-0.414-1.564-0.617-2.348
		C12.766,67.439,12.766,67.261,12.766,67.085z"/>
	<path fill-rule="evenodd" clip-rule="evenodd" fill="#B39559" d="M41.379,57.224c-0.391-1.744,0.258-3.084,1.77-3.686
		c3.078-1.229,6.164-2.438,9.26-3.625c0.393-0.152,0.855-0.18,1.289-0.178c8.445,0.023,16.891,0.051,25.33,0.105
		c0.672,0.002,1.145-0.174,1.609-0.678c2.473-2.682,4.984-5.324,7.572-8.074c4.67,5.078,9.318,10.129,14.029,15.25
		c-0.266,0.303-0.504,0.59-0.758,0.861c-2.141,2.305-4.336,4.562-6.414,6.928c-1.51,1.721-2.803,3.629-4.305,5.355
		c-0.98,1.125-2.113,2.131-3.273,3.078c-1.631,1.34-3.578,2.012-5.594,2.654c-4.102,1.303-8.121,2.881-12.162,4.373
		c-1.4,0.516-2.736,1.236-4.166,1.633c-1.975,0.547-3.41-0.883-3.113-2.93c0.277-1.912,1.477-3.156,3.066-4.068
		c2.572-1.48,5.172-2.914,7.74-4.396c1.396-0.809,1.836-1.947,1.314-3.248c-0.35-0.873-0.984-1.406-1.938-1.414
		c-3.766-0.033-7.535-0.045-11.301-0.035c-0.359,0.002-0.734,0.174-1.07,0.332c-6.207,2.951-12.402,5.912-18.605,8.865
		c-1.461,0.695-3.053,0.336-3.969-0.859c-0.887-1.16-0.885-2.795,0.068-3.91c0.318-0.373,0.74-0.666,1.164-0.922
		c5.082-3.066,10.174-6.117,15.264-9.174c0.25-0.152,0.602-0.26,0.715-0.486c0.191-0.367,0.391-0.871,0.279-1.215
		c-0.17-0.529-0.701-0.666-1.244-0.406c-0.211,0.1-0.41,0.225-0.611,0.348c-4.768,2.906-9.541,5.799-14.291,8.736
		c-0.605,0.375-1.076,0.33-1.602-0.006c-1.084-0.688-1.627-1.664-1.523-2.969c0.102-1.301,0.785-2.199,1.982-2.67
		c3.111-1.225,6.232-2.428,9.354-3.621c1.562-0.6,3.129-1.176,4.703-1.74c0.633-0.227,1.064-0.59,0.824-1.299
		c-0.254-0.764-0.836-0.768-1.508-0.52c-2.943,1.096-5.889,2.172-8.836,3.252C42.105,56.986,41.773,57.091,41.379,57.224z"/>
	<path fill-rule="evenodd" clip-rule="evenodd" fill="#B39559" d="M71.141,35.16c-1.539,0.357-3.078,0.738-4.621,1.059
		c-0.707,0.148-1.082,0.441-1.23,1.207c-0.295,1.547-0.723,3.07-1.244,4.621c-0.33-1.355-0.658-2.711-0.984-4.064
		c-0.072-0.283-0.166-0.568-0.189-0.859c-0.043-0.533-0.336-0.713-0.836-0.826c-1.627-0.369-3.242-0.793-4.873-1.346
		c1.436-0.346,2.854-0.779,4.307-1.006c1.027-0.156,1.414-0.643,1.594-1.6c0.27-1.432,0.668-2.836,1.189-4.252
		c0.377,1.6,0.764,3.195,1.115,4.797c0.121,0.551,0.352,0.82,0.941,0.943c1.625,0.338,3.23,0.779,4.842,1.178
		C71.146,35.06,71.143,35.111,71.141,35.16z"/>
	<path fill-rule="evenodd" clip-rule="evenodd" fill="#B39559" d="M89.484,91.484c0.01-1.885,1.566-3.424,3.434-3.396
		c1.824,0.029,3.352,1.564,3.379,3.395c0.023,1.838-1.566,3.436-3.418,3.439C91.016,94.923,89.473,93.363,89.484,91.484z"/>
	<path fill-rule="evenodd" clip-rule="evenodd" fill="#B39559" d="M68.676,24.46c1.275-0.309,2.547-0.648,3.832-0.898
		c0.605-0.119,0.891-0.373,1.016-0.984c0.266-1.289,0.615-2.562,1.09-3.875c0.219,0.883,0.551,1.756,0.621,2.648
		c0.137,1.584,0.875,2.383,2.477,2.529c0.895,0.082,1.762,0.404,2.684,0.768c-0.613,0.156-1.221,0.428-1.838,0.453
		c-2.256,0.1-3.42,1.197-3.525,3.477c-0.031,0.623-0.297,1.23-0.617,1.852c-0.307-1.311-0.633-2.621-0.918-3.938
		c-0.111-0.518-0.328-0.779-0.895-0.895C71.293,25.33,70,24.96,68.699,24.634C68.691,24.578,68.684,24.517,68.676,24.46z"/>
	<path fill-rule="evenodd" clip-rule="evenodd" fill="#B39559" d="M100.619,84.664c-0.012,1.18-0.99,2.121-2.16,2.092
		c-1.184-0.031-2.096-0.998-2.061-2.188c0.031-1.139,0.973-2.051,2.113-2.051C99.688,82.523,100.633,83.484,100.619,84.664z"/>
</g>
</svg>
