<?xml version="1.0" encoding="utf-8"?>
<!-- Generator: Adobe Illustrator 16.0.0, SVG Export Plug-In . SVG Version: 6.00 Build 0)  -->
<!DOCTYPE svg PUBLIC "-//W3C//DTD SVG 1.1//EN" "http://www.w3.org/Graphics/SVG/1.1/DTD/svg11.dtd">
<svg version="1.1" id="圖層_1" xmlns="http://www.w3.org/2000/svg" xmlns:xlink="http://www.w3.org/1999/xlink" x="0px" y="0px"
	 width="113.386px" height="113.386px" viewBox="0 0 113.386 113.386" enable-background="new 0 0 113.386 113.386"
	 xml:space="preserve">
<g>
	<path fill-rule="evenodd" clip-rule="evenodd" fill="#B39559" d="M62.525,73.822c0.072-1.678,1.271-3.639,2.807-5.514
		c2.441-2.977,5.02-5.891,7.102-9.113c3.408-5.27,3.68-10.83,0.514-16.422c-1-1.77-1.961-3.574-2.77-5.439
		c-1.811-4.166-0.754-7.885,2.148-11.131c2.006-2.246,4.588-2.572,7.373-1.652c4.785,1.586,8.553,4.83,12.529,7.73
		c3.307,2.41,5.129,5.668,5.598,9.719c0.445,3.84-0.559,7.207-3.201,10.064c-1.783,1.93-3.629,3.812-5.328,5.82
		c-4.205,4.973-7.088,10.674-9.092,16.861c-1.383,4.268-4.371,6.779-8.83,7.42C66.712,82.835,62.433,79.171,62.525,73.822z"/>
	<path fill-rule="evenodd" clip-rule="evenodd" fill="#B39559" d="M38.738,50.347c3.869,0.527,7.754,0.959,11.6,1.637
		c1.436,0.25,2.854,0.936,4.133,1.676c2,1.164,2.941,3.043,2.938,5.379c-0.012,4.516-1.934,7.832-6.129,9.684
		c-1.957,0.865-3.957,1.635-5.939,2.445c-5.697,2.33-8.619,6.812-9.246,12.703c-0.412,3.871-0.373,7.818-0.197,11.715
		c0.232,5.23-3.039,9.488-7.525,9.348c-3.734-0.113-7.273-2.982-8.432-6.873c-0.699-2.344-0.582-4.686,0.379-6.926
		c3.549-8.275,4.613-16.859,3.652-25.799C23.007,56.324,29.005,50.441,38.738,50.347z"/>
	<path fill-rule="evenodd" clip-rule="evenodd" fill="#B39559" d="M85.916,12.044c-0.035,2.996-0.967,5.604-3.549,7.338
		c-2.047,1.375-3.902,0.863-5.143-1.285c-1.939-3.352-0.627-8.643,2.66-10.723c2.701-1.707,5.539-0.197,6.027,3.225
		C85.978,11.072,85.919,11.562,85.916,12.044z"/>
	<path fill-rule="evenodd" clip-rule="evenodd" fill="#B39559" d="M63.925,42.279c-0.154,2.439-1.438,5.045-4.133,6.807
		c-2.594,1.699-5.168,0.566-5.822-2.469c-0.736-3.422,1.508-7.926,4.695-9.41C61.597,35.841,63.986,37.802,63.925,42.279z"/>
	<path fill-rule="evenodd" clip-rule="evenodd" fill="#B39559" d="M50.359,40.644c-0.537,1.238-0.855,2.658-1.664,3.688
		c-1.725,2.189-4.568,1.682-5.32-0.986c-0.361-1.273-0.16-2.85,0.223-4.16c0.543-1.857,2.375-2.83,3.969-2.494
		C49.091,37.011,50.078,38.527,50.359,40.644z"/>
	<path fill-rule="evenodd" clip-rule="evenodd" fill="#B39559" d="M96.091,18.068c-0.459,2.791-1.977,4.92-4.025,5.375
		c-2.08,0.459-3.699-0.768-3.674-2.867c0.018-1.855,0.758-3.467,2.129-4.695c0.992-0.893,2.359-1.562,3.52-0.756
		C94.96,15.765,95.423,17.06,96.091,18.068z"/>
	<path fill-rule="evenodd" clip-rule="evenodd" fill="#B39559" d="M96.41,26.753c0.068-1.779,1.51-3.332,3.074-3.301
		c1.273,0.025,2.109,1.258,2.08,3.082c-0.029,1.613-1.428,3.051-2.926,3.012C97.3,29.511,96.349,28.318,96.41,26.753z"/>
	<path fill-rule="evenodd" clip-rule="evenodd" fill="#B39559" d="M39.072,42.212c-0.062,1.729-1.264,3.16-2.631,3.135
		c-1.324-0.029-2.242-1.299-2.195-3.025c0.047-1.844,1.107-3.107,2.58-3.084C38.167,39.257,39.126,40.535,39.072,42.212z"/>
	<path fill-rule="evenodd" clip-rule="evenodd" fill="#B39559" d="M31.076,44.722c0.016,1.744-1.066,3.176-2.445,3.227
		c-1.242,0.047-2.379-1.232-2.393-2.699c-0.021-1.635,1.213-3.086,2.615-3.078C30.228,42.181,31.064,43.136,31.076,44.722z"/>
	<path fill-rule="evenodd" clip-rule="evenodd" fill="#B39559" d="M105.814,33.83c-0.027,1.541-1.43,3.027-2.789,2.963
		c-1.123-0.053-2.021-1.158-2.016-2.479c0.006-1.65,1.508-3.291,2.957-3.225C105.138,31.148,105.849,32.195,105.814,33.83z"/>
</g>
</svg>
