<?xml version="1.0" encoding="utf-8"?>
<!-- Generator: Adobe Illustrator 16.0.0, SVG Export Plug-In . SVG Version: 6.00 Build 0)  -->
<!DOCTYPE svg PUBLIC "-//W3C//DTD SVG 1.1//EN" "http://www.w3.org/Graphics/SVG/1.1/DTD/svg11.dtd">
<svg version="1.1" id="圖層_1" xmlns="http://www.w3.org/2000/svg" xmlns:xlink="http://www.w3.org/1999/xlink" x="0px" y="0px"
	 width="113.386px" height="113.386px" viewBox="0 0 113.386 113.386" enable-background="new 0 0 113.386 113.386"
	 xml:space="preserve">
<path fill-rule="evenodd" clip-rule="evenodd" fill="#B39559" d="M23.339,27.098c1.312-0.301,2.582-0.549,3.832-0.877
	c1.934-0.512,3.867-1.037,5.777-1.631c1.506-0.469,3.004-1.002,4.471-1.598c2-0.811,3.99-1.66,5.941-2.578
	c2.947-1.387,5.75-3.039,8.393-4.939c2.107-1.518,4.09-3.182,5.883-5.064c0.211-0.219,0.32-0.211,0.543,0.021
	c1.621,1.689,3.391,3.217,5.27,4.613c0.723,0.537,1.387,1.168,2.156,1.629c1.646,0.994,3.318,1.955,5.031,2.832
	c1.809,0.928,3.645,1.811,5.516,2.592c1.975,0.824,4.002,1.535,6.031,2.236c1.48,0.512,2.984,0.979,4.504,1.381
	c1.82,0.48,3.664,0.883,5.504,1.289c0.299,0.066,0.34,0.191,0.338,0.432c-0.074,1.998-0.109,3.994-0.213,5.986
	c-0.092,1.762-0.225,3.523-0.393,5.277c-0.123,1.322-0.322,2.637-0.518,3.953c-0.207,1.395-0.43,2.787-0.676,4.174
	c-0.18,1.014-0.359,2.029-0.645,3.014c-0.43,1.512-0.621,3.051-0.758,4.605c-0.135,1.48-0.504,2.898-1.406,4.104
	c-0.75,0.998-1.145,2.156-1.652,3.271c-0.832,1.826-1.633,3.672-2.543,5.463c-1.562,3.076-3.434,5.967-5.533,8.711
	c-2.207,2.891-4.674,5.535-7.404,7.938c-2.578,2.271-5.355,4.281-8.375,5.924c-1.336,0.723-2.756,1.287-4.113,1.965
	c-0.439,0.221-0.789,0.02-1.129-0.121c-2.053-0.844-4.004-1.879-5.877-3.062c-4.143-2.617-7.834-5.775-11.057-9.465
	c-1.398-1.598-2.688-3.293-3.969-4.988c-0.59-0.777-1.051-1.652-1.559-2.494c-0.965-1.604-2.018-3.172-2.855-4.838
	c-1.047-2.076-1.977-4.217-2.855-6.371c-0.727-1.793-1.363-3.621-1.926-5.467c-0.539-1.756-0.947-3.553-1.371-5.338
	c-0.305-1.258-0.584-2.523-0.805-3.797c-0.271-1.518-0.488-3.047-0.691-4.576c-0.199-1.514-0.422-3.033-0.504-4.561
	c-0.174-3.17-0.266-6.348-0.391-9.521C23.308,27.172,23.332,27.123,23.339,27.098z M70.269,75.262
	c-1.324-0.549-2.254-1.41-2.859-2.529c-0.955-1.756-1.039-3.639-0.227-5.459c0.625-1.404,1.457-2.719,2.199-4.07
	c0.754-1.365,1.59-2.695,2.238-4.107c0.461-0.998,0.666-2.109,1.035-3.322c0.297,1.785,0.824,3.414,1.672,4.906
	c0.855,1.514,1.791,2.98,2.701,4.473c0.518-0.861,0.916-1.68,1.459-2.385c0.623-0.809,1.047-1.688,1.395-2.627
	c0.637-1.732,1.359-3.438,1.922-5.197c0.656-2.059,1.207-4.158,1.756-6.252c0.721-2.73,1.209-5.508,1.506-8.316
	c0.266-2.514,0.465-5.031,0.725-7.547c0.053-0.473-0.174-0.604-0.539-0.699c-0.93-0.252-1.859-0.477-2.768-0.777
	c-2.105-0.691-4.211-1.375-6.281-2.156c-1.742-0.654-3.461-1.375-5.146-2.176c-2.049-0.979-4.08-2.021-6.07-3.131
	c-2.398-1.342-4.67-2.887-6.807-4.625c-0.203-0.164-0.371-0.146-0.562,0.006c-0.561,0.438-1.113,0.873-1.689,1.293
	c-2.889,2.123-5.963,3.955-9.182,5.523c-2.168,1.051-4.391,1.98-6.613,2.906c-1.434,0.594-2.895,1.123-4.367,1.6
	c-1.781,0.576-3.582,1.064-5.375,1.582c-0.316,0.09-0.406,0.252-0.379,0.574c0.281,2.93,0.473,5.867,0.84,8.785
	c0.275,2.184,0.684,4.365,1.195,6.504c0.609,2.543,1.324,5.062,2.133,7.545c0.912,2.812,2.105,5.521,3.453,8.162
	c1.645,3.229,3.582,6.27,5.836,9.096c2.291,2.877,4.887,5.469,7.791,7.727c1.992,1.553,4.092,2.945,6.357,4.078
	c0.16,0.078,0.426,0.074,0.582-0.004c0.707-0.357,1.402-0.734,2.082-1.141c2.883-1.719,5.508-3.785,7.912-6.123
	C68.878,76.713,69.531,76.016,70.269,75.262z"/>
<path fill-rule="evenodd" clip-rule="evenodd" fill="#B39559" d="M51.484,92.096c0.109,0.143,0.254,0.244,0.271,0.365
	c0.33,1.891,1.371,3.426,2.361,5.004c0.758,1.205,1.496,2.42,1.789,3.863c0.305,1.514-0.363,3.338-1.611,4.281
	c-1.377,1.041-2.881,1.254-4.469,0.615c-0.566-0.227-1.035-0.631-1.504-1.078c-1.398-1.334-1.404-2.924-0.994-4.559
	c0.215-0.852,0.75-1.627,1.188-2.41c0.719-1.293,1.523-2.543,2.203-3.854C51.06,93.664,51.214,92.902,51.484,92.096z"/>
<path fill-rule="evenodd" clip-rule="evenodd" fill="#B39559" d="M54.621,54.379c-1.238,0.211-2.033-0.607-2.809-1.289
	c-1.164-1.016-2.031-2.258-2.566-3.764c-0.562-1.576-0.707-3.158-0.445-4.768c0.256-1.561,0.811-3.045,1.602-4.418
	c0.676-1.17,1.41-2.309,2.129-3.457c0.588-0.947,1.254-1.857,1.789-2.84c0.699-1.293,1.332-2.627,1.945-3.969
	c0.805-1.768,1.254-3.641,1.656-5.59c0.051,0.09,0.135,0.17,0.145,0.264c0.234,2.1,0.893,4.062,1.752,5.975
	c1.061,2.352,2.469,4.486,3.84,6.645c1.061,1.664,2.08,3.352,2.768,5.199c0.617,1.658,0.875,3.418,0.613,5.176
	c-0.346,2.316-1.445,4.299-3.285,5.768c-2.203,1.764-4.742,2.438-7.551,1.893c-0.449-0.088-0.895-0.188-1.328-0.322
	c-0.137-0.043-0.223-0.227-0.332-0.344C54.566,54.484,54.593,54.43,54.621,54.379z"/>
</svg>
