<?xml version="1.0" encoding="utf-8"?>
<!-- Generator: Adobe Illustrator 16.0.0, SVG Export Plug-In . SVG Version: 6.00 Build 0)  -->
<!DOCTYPE svg PUBLIC "-//W3C//DTD SVG 1.1//EN" "http://www.w3.org/Graphics/SVG/1.1/DTD/svg11.dtd">
<svg version="1.1" id="圖層_1" xmlns="http://www.w3.org/2000/svg" xmlns:xlink="http://www.w3.org/1999/xlink" x="0px" y="0px"
	 width="85.039px" height="85.223px" viewBox="0 0 85.039 85.223" enable-background="new 0 0 85.039 85.223" xml:space="preserve">
<g>
	<path fill="#FFFFFF" d="M35.104,21.713h0.174h0.168l0.17,0.079h0.172h0.18h0.16h0.178h0.168v5.756h-0.168l-0.178-0.077h-0.16h-0.18
		h-0.172h-0.17h-0.168h-0.174h-0.693l-0.771,0.077l-0.768,0.071l-0.775,0.166l-0.686,0.158l-0.689,0.231l-0.684,0.235l-0.678,0.237
		l-0.691,0.323l-0.607,0.314l-0.676,0.384l-0.605,0.399l-0.604,0.393l-0.51,0.479l-0.604,0.47l-0.514,0.479l-0.422,0.546
		l-0.521,0.56l-0.424,0.548l-0.43,0.631l-0.354,0.631l-0.424,0.633l-0.254,0.624l-0.348,0.638l-0.254,0.709l-0.266,0.711
		l-0.172,0.709l-0.17,0.705l-0.168,0.79l-0.088,0.717v0.788l-0.084,0.784l0.084,0.786v0.789l0.088,0.713l0.168,0.783l0.17,0.711
		l0.172,0.711l0.266,0.715l0.254,0.711l0.348,0.625l0.254,0.633l0.424,0.63l0.354,0.635l0.43,0.631l0.424,0.549l0.521,0.553
		l0.422,0.548l0.514,0.483l0.604,0.465l0.51,0.478l0.604,0.396l0.605,0.39l0.676,0.405l0.607,0.31l0.691,0.312l0.678,0.24
		l0.684,0.236l0.689,0.233l0.686,0.16l0.775,0.156l0.768,0.074l0.771,0.082h0.691h0.176h0.168h0.17h0.172h0.18h0.16l0.178-0.082
		h0.168v5.764h-0.168h-0.178h-0.16h-0.18h-0.172l-0.17,0.076h-0.168h-0.176l-1.029-0.076l-1.035-0.08l-1.021-0.08l-1.041-0.235
		l-0.938-0.232l-1.033-0.242l-0.943-0.401l-0.938-0.312l-0.855-0.469l-0.947-0.402l-0.863-0.551l-0.852-0.551l-0.77-0.56
		l-0.77-0.627l-0.777-0.623l-0.689-0.713l-0.68-0.709l-0.689-0.793l-0.6-0.785l-0.512-0.793l-0.602-0.865l-0.523-0.864l-0.426-0.867
		l-0.424-0.945l-0.35-0.949l-0.35-0.948l-0.252-1.021l-0.252-1.029l-0.176-1.021l-0.086-1.027l-0.094-1.022l-0.082-1.106
		l0.082-1.104l0.094-1.024l0.086-1.021l0.176-1.028l0.252-1.024l0.252-1.021l0.35-0.948l0.35-0.953l0.424-0.939l0.426-0.865
		l0.523-0.868l0.602-0.867l0.512-0.793l0.6-0.78l0.689-0.803l0.68-0.706l0.689-0.703l0.777-0.633l0.77-0.632l0.77-0.552l0.852-0.558
		l0.863-0.55l0.947-0.396l0.855-0.469l0.938-0.313l0.943-0.396l1.033-0.237l0.938-0.231l1.041-0.16l1.021-0.152l1.035-0.08
		L35.104,21.713z M69.167,21.713h0.174h0.166l0.168,0.079h0.18h0.174h0.17h0.172h0.164v5.756H70.37l-0.172-0.077h-0.17h-0.174h-0.18
		h-0.168h-0.166h-0.174h-0.689l-0.682,0.077l-0.686,0.071l-0.607,0.085l-0.684,0.151l-0.6,0.156l-0.604,0.163l-0.682,0.235
		l-0.52,0.237l-0.598,0.238l-0.602,0.313l-0.607,0.315l-0.506,0.312l-0.525,0.396l-0.506,0.395l-0.516,0.398l-0.43,0.39
		l-0.518,0.479l-0.43,0.389l-0.43,0.555l-0.342,0.476l-0.434,0.474l-0.342,0.545l-0.34,0.559l-0.34,0.553l-0.258,0.552l-0.264,0.627
		l-0.242,0.631l-0.189,0.554l-0.252,0.633l-0.176,0.632l-0.086,0.705h11.758v5.688H54.485l0.086,0.705l0.176,0.627l0.252,0.632
		l0.189,0.555l0.242,0.629l0.264,0.633l0.258,0.551l0.34,0.552l0.34,0.555l0.342,0.551l0.434,0.478l0.342,0.471l0.43,0.551
		l0.43,0.389l0.518,0.484l0.43,0.396l0.516,0.385l0.506,0.397l0.525,0.392l0.506,0.321l0.607,0.31l0.602,0.317l0.598,0.236
		l0.52,0.24l0.682,0.236l0.604,0.153l0.6,0.16l0.684,0.158l0.607,0.078l0.686,0.074l0.682,0.081h0.689h0.174h0.166h0.168h0.18h0.174
		h0.17l0.172-0.081h0.164v5.764H70.37h-0.172h-0.17h-0.174h-0.18l-0.168,0.076h-0.166h-0.174l-1.113-0.076l-1.025-0.08l-1.033-0.08
		l-1.031-0.236l-0.951-0.231l-1.02-0.242l-0.941-0.396l-0.945-0.312l-0.863-0.469l-0.938-0.402l-0.857-0.551l-0.771-0.551
		l-0.863-0.56l-0.771-0.627l-0.773-0.623l-0.688-0.713l-0.684-0.709l-0.6-0.793l-0.689-0.785l-0.518-0.793l-0.512-0.865
		l-0.518-0.868l-0.512-0.867l-0.342-0.945l-0.43-0.949l-0.256-0.948l-0.348-1.021l-0.174-1.029l-0.258-1.021l-0.086-1.027
		l-0.088-1.022v-1.106v-1.104l0.088-1.024l0.086-1.021l0.258-1.028l0.174-1.024l0.348-1.021l0.256-0.948l0.43-0.953l0.342-0.939
		l0.512-0.865l0.516-0.868l0.512-0.867l0.518-0.793l0.689-0.78l0.598-0.803l0.686-0.706l0.688-0.703l0.773-0.633l0.77-0.632
		l0.865-0.552l0.771-0.558l0.857-0.55l0.938-0.396l0.863-0.469l0.945-0.313l0.941-0.396l1.02-0.237l0.951-0.231l1.031-0.16
		l1.033-0.152l1.025-0.08L69.167,21.713z"/>
</g>
</svg>
