<?xml version="1.0" encoding="utf-8"?>
<!-- Generator: Adobe Illustrator 16.0.0, SVG Export Plug-In . SVG Version: 6.00 Build 0)  -->
<!DOCTYPE svg PUBLIC "-//W3C//DTD SVG 1.1//EN" "http://www.w3.org/Graphics/SVG/1.1/DTD/svg11.dtd">
<svg version="1.1" id="圖層_1" xmlns="http://www.w3.org/2000/svg" xmlns:xlink="http://www.w3.org/1999/xlink" x="0px" y="0px"
	 width="85.039px" height="85.223px" viewBox="0 0 85.039 85.223" enable-background="new 0 0 85.039 85.223" xml:space="preserve">
<g>
	<g>
		<path fill="#FFFFFF" d="M74.372,39.362c-21.266,0-42.439,0-63.713,0c0-0.353,0-0.658,0-0.965c0-8.206,0.041-16.412-0.029-24.616
			c-0.014-1.611,1.523-3.049,3.016-3.047c19.271,0.041,38.543,0.026,57.816,0.029c1.645,0,2.941,1.207,2.941,2.779
			c0.012,8.425,0.004,16.852,0,25.275C74.405,38.973,74.386,39.128,74.372,39.362z M19.583,25.521
			c-0.465-0.022-1.092-0.227-1.547-0.028c-0.436,0.192-0.691,0.797-1.021,1.21c-0.729-1.233-0.729-1.233-1.189-1.126
			c0,0.76,0,1.494,0,2.231c0.068,0.002,0.145,0.005,0.213,0.009c0.064-0.327,0.133-0.653,0.217-1.102
			c0.305,0.473,0.529,0.825,0.83,1.297c0.275-0.559,0.457-0.934,0.705-1.429c0.07,0.508,0.127,0.862,0.176,1.189
			c0.621,0,1.146,0,1.619,0C19.583,26.99,19.583,26.291,19.583,25.521z M22.854,27.105c-0.002,0.081-0.008,0.163-0.014,0.245
			c-0.336,0.028-0.668,0.058-1.004,0.086c-0.002,0.106-0.008,0.213-0.008,0.32c0.422,0,0.844,0,1.266,0c0.475,0,0.945,0,1.383,0
			c0-0.755,0-1.48,0-2.243c-0.523-0.033-1.094-0.138-1.645-0.075c-0.348,0.039-0.664,0.329-0.994,0.507
			c0.184,0.287,0.355,0.59,0.572,0.855C22.517,26.935,22.704,27.006,22.854,27.105z M62.833,25.439
			c-0.258,0.024-0.516,0.051-0.748,0.072c0,0.719,0,1.346,0,1.974c-0.135,0.006-0.268,0.014-0.404,0.02
			c-0.02-0.355-0.127-0.734-0.039-1.062c0.178-0.664-0.053-0.96-0.697-0.997c-0.271-0.016-0.543-0.004-0.783-0.004
			c0,0.857,0,1.617,0,2.377c0.061,0.004,0.127,0.008,0.189,0.013c0.105-0.281,0.219-0.563,0.383-1
			c0.492,1.059,1.244,1.163,2.102,0.958C62.833,27.021,62.833,26.299,62.833,25.439z M48.063,25.471c0,0.727,0,1.366,0,2.004
			c-0.076,0.013-0.154,0.025-0.229,0.039c-0.203-0.544-0.4-1.09-0.604-1.633c-0.168-0.442-0.572-0.687-0.824-0.268
			c-0.387,0.649-0.559,1.428-0.805,2.105c0.65-0.122,1.119-0.322,1.562-0.267c0.561,0.07,1.098,0.349,1.672,0.545
			c0-1.01,0-1.756,0-2.527C48.595,25.471,48.351,25.471,48.063,25.471z M55.302,27.944c0.062-0.066,0.123-0.136,0.186-0.205
			c0-0.761,0-1.521,0-2.281c-0.082,0.003-0.162,0.005-0.238,0.007c-0.059,0.369-0.105,0.736-0.168,1.169
			c-0.504-0.47-0.936-0.871-1.486-1.385c0,1.073,0,1.814,0,2.558c0.094,0.011,0.188,0.021,0.281,0.032
			c0.078-0.429,0.162-0.854,0.26-1.366C54.552,26.996,54.929,27.47,55.302,27.944z M27.657,27.81
			c0.094-0.002,0.186-0.005,0.277-0.007c0.059-0.396,0.115-0.793,0.189-1.263c0.49,0.521,0.891,0.957,1.465,1.565
			c0-1.111,0-1.877,0-2.644c-0.092-0.011-0.186-0.02-0.279-0.028c-0.078,0.434-0.148,0.867-0.232,1.324
			c-0.584-0.316-0.555-1.368-1.42-1.292C27.657,26.325,27.657,27.068,27.657,27.81z M69.063,28.105
			c0.059-0.127,0.109-0.252,0.162-0.378c0.025-0.515,0.111-1.037,0.047-1.537c-0.035-0.265-0.303-0.609-0.551-0.706
			c-0.307-0.123-0.701-0.029-1.023-0.029c0,0.867,0,1.609,0,2.355c0.076,0.018,0.154,0.034,0.232,0.053
			c0.119-0.288,0.238-0.575,0.477-1.14C68.677,27.297,68.868,27.701,69.063,28.105z M38.493,26.436
			c0.514,0.574,0.93,1.038,1.484,1.66c0-1.106,0-1.873,0-2.64c-0.088-0.006-0.18-0.012-0.27-0.018
			c-0.066,0.41-0.129,0.82-0.203,1.282c-0.469-0.51-0.871-0.947-1.424-1.55c0,1.103,0,1.867,0,2.63
			c0.092,0.008,0.182,0.016,0.27,0.022C38.396,27.396,38.438,26.969,38.493,26.436z M33.134,27.819
			c0.801,0.055,1.557,0.139,1.902-0.631c0.154-0.348,0.18-1.051-0.027-1.202c-0.49-0.361-1.145-0.493-1.875-0.768
			C33.134,26.267,33.134,27.004,33.134,27.819z M50.89,27.857c0.035-0.646,0.123-1.201,0.068-1.741
			c-0.025-0.235-0.305-0.556-0.539-0.634c-0.324-0.107-0.711-0.027-1.025-0.027c0,0.865,0,1.608,0,2.354
			c0.072,0.011,0.145,0.021,0.217,0.034c0.104-0.284,0.209-0.568,0.326-0.891C50.302,27.298,50.624,27.603,50.89,27.857z
			 M37.554,27.577c-0.178-0.494-0.398-1.135-0.637-1.771c-0.182-0.511-0.58-0.547-0.799-0.137c-0.348,0.651-0.543,1.385-0.734,1.906
			C36.161,27.577,36.815,27.577,37.554,27.577z M27.106,26.452c0-0.522-0.307-0.994-1.084-1.036c-0.725-0.04-1.23,0.459-1.238,1.21
			c-0.014,0.742,0.363,1.184,1.098,1.262C26.581,27.96,27.085,27.424,27.106,26.452z M58.757,26.292
			c-0.01-0.087-0.025-0.177-0.037-0.265c0.271-0.104,0.551-0.208,0.75-0.285c-0.102-0.334-0.186-0.604-0.262-0.847
			c-0.305,0.246-0.623,0.498-0.955,0.762c0,0.675,0,1.407,0,2.23c0.504-0.049,0.92-0.091,1.334-0.132
			c0.002-0.075,0.002-0.147,0.002-0.223c-0.283-0.104-0.566-0.205-1.035-0.372c0.439-0.25,0.709-0.401,1.111-0.63
			C59.253,26.424,59.007,26.358,58.757,26.292z M65.501,25.459c-0.125,0.014-0.248,0.027-0.367,0.042
			c0.07,0.753-0.373,1.622,0.406,2.199c0.258,0.191,1.018,0.105,1.234-0.135c0.549-0.61,0.32-1.388,0.049-2.117
			c-0.207,0.254-0.213,0.535-0.299,0.792c-0.125,0.387-0.307,0.756-0.467,1.133c-0.146-0.396-0.314-0.787-0.443-1.189
			C65.54,25.954,65.536,25.701,65.501,25.459z M13.897,25.464c0,0.813,0,1.55,0,2.409c0.5-0.039,0.938-0.071,1.373-0.105
			c0.002-0.079,0.004-0.158,0.004-0.237c-0.281-0.1-0.572-0.197-1.064-0.364c0.451-0.247,0.721-0.396,1.084-0.598
			c-0.381-0.144-0.633-0.24-1.094-0.413c0.471-0.228,0.744-0.358,1.02-0.49c-0.01-0.066-0.023-0.135-0.037-0.2
			C14.755,25.464,14.329,25.464,13.897,25.464z M63.31,27.883c0.543-0.043,0.973-0.079,1.398-0.115
			c0.004-0.07,0.006-0.141,0.012-0.213c-0.289-0.104-0.58-0.208-1.064-0.384c0.438-0.247,0.703-0.399,1.055-0.598
			c-0.367-0.147-0.623-0.249-1.084-0.434c0.479-0.207,0.744-0.324,1.012-0.441c-0.012-0.055-0.021-0.108-0.033-0.165
			c-0.422,0-0.846,0-1.293,0C63.31,26.289,63.31,27.003,63.31,27.883z M30.642,25.981c0.398-0.1,0.684-0.172,0.975-0.242
			c-0.031-0.123-0.059-0.246-0.088-0.368c-0.438,0.131-1.08,0.126-1.271,0.417c-0.58,0.896,0.658,0.886,0.939,1.538
			c-0.412,0.049-0.754,0.088-1.309,0.151c0.676,0.544,1.293,0.597,1.643,0.138C32.226,26.709,31.056,26.579,30.642,25.981z
			 M40.425,27.443c0.553,0.661,1.178,0.603,1.525,0.182c0.766-0.924-0.574-1.032-0.816-1.648c0.328-0.095,0.609-0.175,0.889-0.257
			c-0.029-0.116-0.061-0.233-0.092-0.35c-0.422,0.114-1.037,0.093-1.229,0.368c-0.639,0.91,0.645,0.939,0.914,1.614
			C41.222,27.382,40.911,27.406,40.425,27.443z M19.671,27.441c0.688,0.588,1.295,0.631,1.658,0.184
			c0.738-0.926-0.566-1.042-0.852-1.662c0.355-0.083,0.646-0.152,0.938-0.222c-0.016-0.108-0.033-0.22-0.051-0.328
			c-0.426,0.084-1.021,0.021-1.24,0.278c-0.801,0.96,0.66,0.961,0.84,1.668C20.583,27.383,20.271,27.402,19.671,27.441z
			 M56.021,25.511c1.285,0.463,0.244,1.731,0.941,2.446c0.227-0.887,0.424-1.663,0.627-2.446
			C57.202,25.511,56.612,25.511,56.021,25.511z M44.001,27.269c0-0.587,0-1.193,0-1.8c-0.133-0.008-0.258-0.016-0.385-0.024
			c-0.236,0.746-0.154,1.527-0.049,2.428c0.48-0.048,0.895-0.086,1.309-0.128c0-0.075,0-0.152-0.004-0.229
			C44.618,27.443,44.36,27.37,44.001,27.269z M53.032,27.832c0-0.854,0-1.576,0-2.375c-0.23,0.016-0.48,0.032-0.668,0.044
			c0,0.804,0,1.508,0,2.281C52.558,27.798,52.786,27.813,53.032,27.832z"/>
		<path fill="#FFFFFF" d="M74.325,64.802c-11.268,0-22.5,0-33.787,0c0-8.185,0-16.315,0-24.521c11.232,0,22.473,0,33.787,0
			C74.325,48.393,74.325,56.55,74.325,64.802z M59.907,60.597c-0.186-0.477-0.301-0.799-0.432-1.115
			c-1.699-4.116-3.4-8.23-5.105-12.344c-0.863-2.078-0.863-2.045-3.125-2.086c-0.711-0.014-1.02,0.231-1.281,0.885
			c-1.877,4.586-3.797,9.152-5.699,13.728c-0.115,0.271-0.189,0.555-0.324,0.934c1.117,0,2.09-0.027,3.059,0.014
			c0.543,0.023,0.766-0.196,0.928-0.692c0.309-0.945,0.439-2.248,1.115-2.696c0.73-0.484,1.992-0.176,3.025-0.18
			c0.908-0.004,2.059-0.289,2.654,0.155c0.631,0.474,0.742,1.649,1.072,2.524c0.061,0.145,0.061,0.336,0.166,0.434
			c0.18,0.177,0.404,0.414,0.621,0.423C57.642,60.621,58.708,60.597,59.907,60.597z M66.915,58.284c0-1.293,0-2.477,0-3.758
			c1.283,0,2.492,0,3.73,0c0-0.961,0-1.819,0-2.805c-1.266,0-2.473,0-3.77,0c0-1.396,0-2.668,0-3.969c-1.043,0-1.996,0-3.039,0
			c0,1.336,0,2.61,0,3.996c-1.299,0-2.508,0-3.746,0c0,0.977,0,1.838,0,2.797c1.266,0,2.477,0,3.785,0c0,1.305,0,2.512,0,3.738
			C64.917,58.284,65.845,58.284,66.915,58.284z"/>
		<path fill="#FFFFFF" d="M39.663,40.268c0,11.418,0,22.754,0,34.22c-0.361,0-0.695,0-1.029,0c-8.168,0-16.336,0.002-24.51,0
			c-2.262,0-3.461-1.189-3.461-3.429c-0.004-9.896-0.004-19.795-0.004-29.693c0-0.342,0-0.686,0-1.099
			C20.337,40.268,29.958,40.268,39.663,40.268z M15.155,54.596c0,0.348,0,0.686,0,1.025c0,4.369,0.02,8.74-0.021,13.109
			c-0.008,0.877,0.244,1.123,1.119,1.115c6.006-0.035,12.01-0.018,18.014-0.018c1.219,0,1.221-0.002,1.227-1.271
			c0-4.307,0-8.613,0-12.922c0-0.359,0-0.721,0-1.068c0.752-0.062,1.344-0.108,2.098-0.17c-0.217-0.299-0.266-0.42-0.357-0.485
			c-3.709-2.695-7.41-5.396-11.145-8.06c-0.217-0.152-0.699-0.09-0.982,0.031c-0.395,0.17-0.723,0.494-1.082,0.75
			c-0.879,0.629-1.754,1.258-2.498,1.789c-0.307-0.515-0.496-1.211-0.791-1.258c-0.936-0.148-1.914-0.056-2.965-0.056
			c0,0.508-0.055,0.892,0.012,1.25c0.391,2.082-0.363,3.531-2.281,4.459c-0.643,0.312-1.164,0.873-1.742,1.318
			c0.027,0.082,0.051,0.16,0.08,0.242C14.243,54.448,14.655,54.514,15.155,54.596z"/>
		<path fill="#FFFFFF" d="M66.177,74.143c0-3.008,0-5.883,0-8.805c2.668,0,5.291,0,8.039,0c0,1.033-0.02,2.057,0.006,3.082
			c0.025,1.117,0.062,2.234,0.15,3.352c0.084,1.123-1.223,2.414-2.357,2.384C70.106,74.104,68.19,74.143,66.177,74.143z
			 M72.216,68.121c-0.154-0.349-0.188-0.642-0.342-0.73c-1.148-0.676-3.215,0.258-3.545,1.578c-0.223,0.883,0.014,1.617,0.77,2.146
			c0.639,0.448,2.363,0.59,2.797,0.211c0.146-0.134,0.148-0.431,0.234-0.716c-1,0.132-1.922,0.435-2.492-0.43
			c-0.223-0.342-0.258-1.004-0.084-1.379C70.054,67.746,71.085,68.088,72.216,68.121z"/>
		<path fill="#FFFFFF" d="M49.19,74.07c0-2.945,0-5.796,0-8.716c2.65,0,5.273,0,7.971,0c0,2.869,0,5.767,0,8.716
			C54.522,74.07,51.905,74.07,49.19,74.07z M55.581,71.393c-0.6-1.28-1.143-2.504-1.74-3.703c-0.266-0.53-0.994-0.534-1.258-0.008
			c-0.605,1.22-1.162,2.465-1.742,3.72c0.66,0.155,1.098,0.141,1.355-0.544c0.186-0.504,1.812-0.516,2.006-0.014
			C54.454,71.511,54.872,71.57,55.581,71.393z"/>
		<path fill="#FFFFFF" d="M45.243,71.152c-0.535-1.179-1.049-2.367-1.613-3.533c-0.223-0.457-0.947-0.404-1.195,0.088
			c-0.445,0.887-0.84,1.801-1.266,2.697c-0.125,0.256-0.297,0.489-0.629,0.657c0-1.887,0-3.774,0-5.719c2.703,0,5.385,0,8.141,0
			c0,2.894,0,5.789,0,8.734c-2.707,0-5.395,0-8.143,0c0-0.883,0-1.746,0-2.685c0.627-0.039,1.295,0.039,1.611-0.812
			c0.156-0.426,1.566-0.168,1.898,0.215c0.25,0.281,0.611,0.465,0.918,0.691C45.058,71.379,45.149,71.265,45.243,71.152z
			 M47.142,68.777c-0.111-0.855-0.111-0.855-0.828-0.742c-0.02,0.299-0.047,0.602-0.061,0.823c-0.414,0.177-0.752,0.316-1.092,0.457
			c0.35,0.173,0.691,0.349,1.07,0.543c0.1,0.851,0.1,0.851,0.791,0.806c0.053-0.322,0.1-0.648,0.125-0.836
			c0.43-0.181,0.74-0.312,1.055-0.443C47.897,69.211,47.595,69.039,47.142,68.777z"/>
		<path fill="#FFFFFF" d="M57.729,65.319c2.672,0,5.271,0,7.938,0c0,2.904,0,5.779,0,8.73c-2.607,0-5.23,0-7.938,0
			C57.729,71.188,57.729,68.293,57.729,65.319z M62.952,69.072c0.066-0.252,0.361-0.738,0.236-1.062
			c-0.119-0.307-0.658-0.576-1.047-0.631c-0.725-0.098-1.473-0.027-2.186-0.027c0,1.445,0,2.773,0,4.119
			c0.734,0,1.416,0.115,2.039-0.033c0.523-0.125,1.164-0.453,1.398-0.883C63.558,70.254,63.134,69.627,62.952,69.072z"/>
		<path fill="#FFFFFF" d="M43.001,68.14c0.287,0.707,0.477,1.181,0.703,1.742c-0.486,0-0.863,0-1.381,0
			C42.532,69.347,42.722,68.858,43.001,68.14z"/>
		<path fill="#FFFFFF" d="M33.687,27.274c0-0.456,0-0.911,0-1.368c0.082-0.051,0.166-0.103,0.248-0.154
			c0.227,0.285,0.619,0.561,0.641,0.855c0.014,0.283-0.371,0.583-0.582,0.876C33.888,27.414,33.788,27.344,33.687,27.274z"/>
		<path fill="#FFFFFF" d="M25.054,26.594c0.439-0.338,0.693-0.532,0.943-0.728c0.184,0.275,0.5,0.546,0.512,0.83
			c0.01,0.219-0.379,0.655-0.549,0.636C25.702,27.3,25.476,26.962,25.054,26.594z"/>
		<path fill="#FFFFFF" d="M51.851,48.471c0.787,2.148,1.48,4.043,2.193,5.998c-1.49,0-2.861,0-4.363,0
			C50.386,52.526,51.063,50.641,51.851,48.471z"/>
		<path fill="#FFFFFF" d="M20.579,47.6c0.076,0.699,0.141,1.262,0.227,2.043c1.457-1.053,2.746-1.93,3.973-2.891
			c0.617-0.488,1.047-0.474,1.686,0.004c2.922,2.174,5.887,4.285,8.834,6.424c0.223,0.162,0.424,0.35,0.805,0.666
			c-1.162-0.043-1.176,0.584-1.17,1.332c0.027,4.305,0.016,8.61,0.016,12.915c0,0.342,0,0.685,0,1.131c-3.693,0-7.322,0-11.01,0
			c0-1.502,0-3.088,0-4.674c0.055-0.01,0.107-0.019,0.162-0.027c0.057,0.621,0.117,1.242,0.182,1.938
			c0.82-1.188,0.389-2.854-0.781-3.224c0.076-0.203,0.258-0.453,0.197-0.59c-0.131-0.289-0.395-0.52-0.604-0.772
			c-0.211,0.254-0.471,0.479-0.602,0.77c-0.08,0.185,0.025,0.457,0.049,0.691c-0.094,0.008-0.186,0.016-0.277,0.022
			c-0.068-0.562,0.025-1.233-0.256-1.658c-0.271-0.405-0.928-0.557-1.467-0.846c0.35-0.414,0.908-1.026,0.09-1.578
			c-0.262-0.18-1.156,0.013-1.174,0.129c-0.08,0.509,0.053,1.052,0.119,1.677c0,0-0.322-0.074-0.521,0.043
			c-0.369,0.219-0.912,0.521-0.951,0.844c-0.125,1.02-0.061,2.063-0.045,3.1c0,0.117,0.16,0.232,0.336,0.459
			c0.68-0.938,0.111-1.967,0.578-2.84c0,2.142,0,4.281,0,6.511c-1.002,0-2.07,0-3.26,0c0-0.39,0-0.756,0-1.125
			c0-4.369,0.01-8.736-0.008-13.104c-0.004-0.402-0.176-0.805-0.311-1.381c0.559-0.412,1.281-1.015,2.074-1.498
			c0.68-0.418,0.92-0.945,0.855-1.715c-0.051-0.656,0.02-1.32-0.016-1.979c-0.037-0.615,0.191-0.856,0.811-0.803
			C19.583,47.635,20.05,47.6,20.579,47.6z M30.085,58.51c0.777,0.111,1.518,0.381,2.203,0.274c1.141-0.168,1.965-1.405,1.979-2.633
			c0.018-1.276-0.678-2.117-2.029-2.551c-0.271-0.086-0.643-0.301-0.705-0.527c-0.4-1.358-1.326-2.071-2.658-2.312
			c-1.465-0.271-2.629,0.199-3.521,1.414c-0.146,0.207-0.545,0.369-0.799,0.34c-1.309-0.152-2.404,0.07-3.113,1.328
			c-0.121,0.215-0.473,0.352-0.742,0.426c-1.133,0.316-1.754,1.07-1.668,2.086c0.117,1.407,0.678,1.989,2.008,2.129
			c0.256,0.025,0.574,0.06,0.752,0.215c1.619,1.431,2.535,1.312,3.697-0.51C26.774,60.53,28.737,60.612,30.085,58.51z"/>
		<path fill="#FFFFFF" d="M21.563,62.686c0,1.234,0,2.465,0,3.697c0.117,0.014,0.234,0.029,0.355,0.045
			c0.098-0.434,0.201-0.867,0.301-1.301c0.029,0.002,0.057,0.008,0.084,0.01c0,1.332,0,2.666,0,4.068c-0.35,0-0.666,0-1.076,0
			c0-2.099,0-4.16,0.004-6.228c0-0.102,0.043-0.201,0.068-0.301C21.386,62.682,21.476,62.684,21.563,62.686z"/>
		<path fill="#FFFFFF" d="M20.161,65.371c0,1.266,0,2.531,0,3.801c-0.059-0.004-0.115-0.004-0.168-0.004c0-1.262,0-2.527,0-3.789
			C20.044,65.375,20.103,65.371,20.161,65.371z"/>
		<path fill="#FFFFFF" d="M22.999,69.242c0-0.906,0-1.812,0-2.72c0.057,0,0.111,0.005,0.17,0.005c0,0.903,0,1.809,0,2.715
			C23.112,69.242,23.056,69.242,22.999,69.242z"/>
		<path fill="#FFFFFF" d="M53.19,68.203c0.266,0.646,0.439,1.069,0.646,1.582c-0.451,0-0.828,0-1.293,0
			C52.753,69.283,52.935,68.834,53.19,68.203z"/>
		<path fill="#FFFFFF" d="M60.923,70.996c0-0.582,0-0.91,0-1.469c0.525,0.168,0.967,0.284,1.391,0.461
			c0.062,0.024,0.062,0.452-0.008,0.487C61.899,70.67,61.464,70.801,60.923,70.996z"/>
		<path fill="#FFFFFF" d="M60.923,69.186c0-0.543,0-0.815,0-1.28c0.414,0.096,0.785,0.151,1.127,0.284
			c0.082,0.029,0.127,0.445,0.07,0.478C61.798,68.85,61.438,68.975,60.923,69.186z"/>
		<path fill="#FFFFFF" d="M28.911,51.979c-0.344,0.328-0.557,0.527-0.766,0.728c-0.207-0.226-0.465-0.427-0.592-0.691
			c-0.035-0.072,0.322-0.465,0.51-0.471C28.298,51.534,28.538,51.772,28.911,51.979z"/>
		<path fill="#FFFFFF" d="M27.519,56.69c-0.229-0.414-0.457-0.651-0.463-0.895c-0.008-0.164,0.34-0.5,0.453-0.474
			c0.227,0.06,0.561,0.316,0.561,0.492C28.063,56.052,27.792,56.284,27.519,56.69z"/>
		<path fill="#FFFFFF" d="M21.868,56.635c-0.336,0.277-0.539,0.574-0.709,0.557c-0.248-0.021-0.473-0.271-0.707-0.426
			c0.201-0.182,0.381-0.457,0.615-0.516C21.243,56.206,21.493,56.44,21.868,56.635z"/>
		<path fill="#FFFFFF" d="M23.562,55.03c-0.242-0.381-0.527-0.635-0.512-0.854c0.023-0.199,0.385-0.363,0.592-0.543
			c0.164,0.194,0.471,0.397,0.457,0.578C24.079,54.448,23.813,54.671,23.562,55.03z"/>
		<path fill="#FFFFFF" d="M32.099,55.171c-0.377,0.315-0.566,0.602-0.807,0.641c-0.137,0.023-0.451-0.32-0.482-0.533
			c-0.023-0.157,0.26-0.506,0.426-0.521C31.456,54.741,31.702,54.964,32.099,55.171z"/>
		<path fill="#FFFFFF" d="M23.786,57.319c0.225,0.372,0.465,0.595,0.434,0.771c-0.035,0.188-0.35,0.477-0.5,0.453
			c-0.188-0.027-0.453-0.316-0.471-0.515C23.231,57.858,23.513,57.662,23.786,57.319z"/>
		<path fill="#FFFFFF" d="M32.474,56.737c0.271,0.3,0.531,0.463,0.561,0.661c0.02,0.137-0.289,0.461-0.439,0.449
			c-0.219-0.016-0.422-0.25-0.631-0.395C32.103,57.259,32.243,57.061,32.474,56.737z"/>
	</g>
	<rect x="12.505" y="23.855" fill="#FFFFFF" width="58.568" height="7"/>
</g>
<g>
	<polygon fill="#887243" points="15.784,28.181 14.349,28.181 14.349,25.751 15.722,25.751 15.722,26.176 14.866,26.176 
		14.866,26.75 15.669,26.75 15.669,27.171 14.866,27.171 14.866,27.757 15.784,27.757 	"/>
	<path fill="#887243" d="M18.403,28.181v-1.474c0-0.139,0.01-0.31,0.021-0.516h-0.014l-0.078,0.313l-0.598,1.675h-0.412
		l-0.607-1.659c-0.012-0.039-0.039-0.149-0.078-0.329h-0.014c0.014,0.206,0.021,0.409,0.021,0.614v1.374h-0.465V25.75h0.754
		l0.52,1.469l0.09,0.344h0.014l0.104-0.344l0.521-1.469h0.732v2.431L18.403,28.181L18.403,28.181z"/>
	<polygon fill="#887243" points="20.204,26.153 19.995,26.153 19.995,27.777 20.204,27.777 20.204,28.181 19.274,28.181 
		19.274,27.777 19.478,27.777 19.478,26.153 19.274,26.153 19.274,25.753 20.204,25.753 	"/>
	<path fill="#887243" d="M20.448,27.571c0.193,0.16,0.418,0.24,0.668,0.24l0.316-0.072l0.107-0.187l-0.086-0.188
		c-0.055-0.061-0.203-0.137-0.449-0.239c-0.373-0.159-0.566-0.392-0.566-0.699c0-0.229,0.084-0.403,0.26-0.527
		c0.176-0.125,0.396-0.188,0.68-0.188c0.234,0,0.438,0.031,0.598,0.092v0.487c-0.16-0.113-0.354-0.165-0.572-0.165l-0.303,0.066
		l-0.115,0.188l0.084,0.175c0.047,0.05,0.174,0.122,0.379,0.211c0.244,0.104,0.406,0.214,0.5,0.329l0.139,0.411
		c0,0.23-0.086,0.409-0.248,0.532c-0.17,0.122-0.404,0.185-0.707,0.185c-0.279,0-0.506-0.044-0.684-0.138V27.571L20.448,27.571z"/>
	<path fill="#887243" d="M22.38,27.571c0.193,0.16,0.418,0.24,0.662,0.24l0.316-0.072l0.111-0.187l-0.084-0.188
		c-0.059-0.061-0.205-0.137-0.447-0.239c-0.381-0.159-0.574-0.392-0.574-0.699c0-0.229,0.092-0.403,0.266-0.527
		c0.168-0.125,0.396-0.188,0.68-0.188c0.238,0,0.436,0.031,0.604,0.092v0.487c-0.168-0.113-0.357-0.165-0.576-0.165l-0.305,0.066
		l-0.115,0.188l0.08,0.175c0.047,0.05,0.178,0.122,0.385,0.211c0.244,0.104,0.404,0.214,0.496,0.329l0.137,0.411
		c0,0.23-0.08,0.409-0.248,0.532c-0.164,0.122-0.398,0.185-0.703,0.185c-0.279,0-0.504-0.044-0.682-0.138v-0.515H22.38z"/>
	<polygon fill="#887243" points="25.146,26.153 24.935,26.153 24.935,27.777 25.146,27.777 25.146,28.181 24.212,28.181 
		24.212,27.777 24.415,27.777 24.415,26.153 24.212,26.153 24.212,25.753 25.146,25.753 	"/>
	<path fill="#887243" d="M25.345,26.999c0-0.379,0.111-0.691,0.336-0.931c0.219-0.238,0.51-0.356,0.877-0.356
		c0.348,0,0.625,0.116,0.838,0.346c0.211,0.233,0.318,0.526,0.318,0.89c0,0.382-0.107,0.686-0.328,0.924
		c-0.221,0.235-0.51,0.354-0.869,0.354c-0.348,0-0.627-0.112-0.846-0.343C25.454,27.652,25.345,27.357,25.345,26.999 M25.894,26.973
		c0,0.23,0.051,0.425,0.168,0.576c0.107,0.147,0.271,0.226,0.473,0.226s0.355-0.069,0.469-0.218
		c0.109-0.143,0.172-0.332,0.172-0.577c0-0.252-0.055-0.453-0.172-0.602c-0.105-0.146-0.258-0.219-0.457-0.219
		c-0.203,0-0.361,0.073-0.477,0.224C25.944,26.538,25.894,26.735,25.894,26.973"/>
	<path fill="#887243" d="M30.286,28.181h-0.537l-1.023-1.571l-0.113-0.196h-0.01c0.01,0.084,0.016,0.211,0.016,0.389v1.38h-0.492
		v-2.431h0.561l0.99,1.524l0.121,0.194h0.012c-0.012-0.056-0.012-0.168-0.012-0.334v-1.386h0.488V28.181L30.286,28.181z"/>
	<path fill="#887243" d="M30.739,27.571c0.191,0.16,0.422,0.24,0.668,0.24l0.314-0.072l0.107-0.187l-0.086-0.188
		c-0.057-0.061-0.203-0.137-0.447-0.239c-0.379-0.159-0.57-0.392-0.57-0.699c0-0.229,0.088-0.403,0.262-0.527
		c0.174-0.125,0.396-0.188,0.682-0.188c0.236,0,0.436,0.031,0.598,0.092v0.487c-0.162-0.113-0.354-0.165-0.574-0.165l-0.301,0.066
		l-0.117,0.188l0.078,0.175c0.055,0.05,0.182,0.122,0.391,0.211c0.24,0.104,0.4,0.214,0.494,0.329l0.137,0.411
		c0,0.23-0.084,0.409-0.248,0.532c-0.162,0.122-0.402,0.185-0.703,0.185c-0.283,0-0.504-0.044-0.684-0.138V27.571L30.739,27.571z"/>
	<path fill="#887243" d="M33.739,28.181v-2.431h0.838c0.861,0,1.293,0.396,1.293,1.187c0,0.373-0.125,0.677-0.363,0.905
		c-0.24,0.227-0.555,0.339-0.93,0.339H33.739z M34.253,26.176v1.581h0.283c0.244,0,0.438-0.07,0.578-0.22
		c0.137-0.145,0.209-0.342,0.209-0.592c0-0.246-0.072-0.431-0.217-0.568c-0.15-0.135-0.34-0.201-0.57-0.201H34.253z"/>
	<path fill="#887243" d="M38.333,28.181h-0.564l-0.186-0.559H36.7l-0.176,0.559h-0.561l0.885-2.429h0.615L38.333,28.181z
		 M37.464,27.225l-0.277-0.844l-0.039-0.209h-0.014l-0.037,0.2l-0.275,0.853H37.464z"/>
	<path fill="#887243" d="M40.796,28.181h-0.529l-1.023-1.571l-0.117-0.196H39.12c0.006,0.084,0.012,0.211,0.012,0.389v1.38H38.64
		v-2.431h0.566l0.984,1.524l0.129,0.194h0.006c-0.016-0.056-0.018-0.168-0.018-0.334v-1.386h0.488V28.181L40.796,28.181z"/>
	<path fill="#887243" d="M41.249,27.571c0.199,0.16,0.42,0.24,0.668,0.24l0.318-0.072l0.105-0.187l-0.084-0.188
		c-0.053-0.061-0.207-0.137-0.451-0.239c-0.373-0.159-0.564-0.392-0.564-0.699c0-0.229,0.082-0.403,0.264-0.527
		c0.164-0.125,0.395-0.188,0.672-0.188c0.244,0,0.439,0.031,0.604,0.092v0.487c-0.168-0.113-0.357-0.165-0.574-0.165l-0.303,0.066
		l-0.111,0.188l0.078,0.175c0.049,0.05,0.182,0.122,0.385,0.211c0.238,0.104,0.406,0.214,0.5,0.329l0.135,0.411
		c0,0.23-0.084,0.409-0.25,0.532c-0.164,0.122-0.4,0.185-0.699,0.185c-0.279,0-0.51-0.044-0.689-0.138v-0.515H41.249z"/>
	<polygon fill="#887243" points="45.673,28.181 44.251,28.181 44.251,25.751 44.765,25.751 44.765,27.757 45.673,27.757 	"/>
	<polygon fill="#887243" points="46.37,25.712 46.056,26.463 45.743,26.463 45.931,25.712 	"/>
	<path fill="#887243" d="M48.683,28.181h-0.564l-0.182-0.559h-0.881l-0.18,0.559h-0.561l0.885-2.429h0.609L48.683,28.181z
		 M47.813,27.225l-0.271-0.844l-0.043-0.209h-0.012l-0.049,0.2l-0.27,0.853H47.813z"/>
	<polygon fill="#887243" points="49.716,26.153 49.505,26.153 49.505,27.777 49.716,27.777 49.716,28.181 48.784,28.181 
		48.784,27.777 48.985,27.777 48.985,26.153 48.784,26.153 48.784,25.753 49.716,25.753 	"/>
	<path fill="#887243" d="M52.069,28.183h-0.6l-0.375-0.634l-0.189-0.251l-0.162-0.058h-0.158v0.941h-0.514v-2.431h0.848
		c0.58,0,0.871,0.217,0.871,0.66c0,0.163-0.053,0.305-0.15,0.424c-0.094,0.119-0.23,0.201-0.395,0.248v0.007
		c0.105,0.036,0.229,0.161,0.367,0.37L52.069,28.183z M50.583,26.147v0.701h0.25l0.295-0.11l0.115-0.264
		c0-0.22-0.133-0.327-0.395-0.327H50.583z"/>
	<polygon fill="#887243" points="53.993,26.153 53.778,26.153 53.778,27.777 53.993,27.777 53.993,28.181 53.062,28.181 
		53.062,27.777 53.257,27.777 53.257,26.153 53.062,26.153 53.062,25.753 53.993,25.753 	"/>
	<path fill="#887243" d="M56.497,28.181h-0.529l-1.023-1.571l-0.119-0.196h-0.006c0.006,0.084,0.014,0.211,0.014,0.389v1.38h-0.49
		v-2.431h0.561l0.994,1.524l0.119,0.194h0.008c-0.008-0.056-0.014-0.168-0.014-0.334v-1.386h0.488v2.431H56.497z"/>
	<polygon fill="#887243" points="58.743,26.176 58.048,26.176 58.048,28.181 57.532,28.181 57.532,26.176 56.837,26.176 
		56.837,25.751 58.743,25.751 	"/>
	<polygon fill="#887243" points="60.509,28.181 59.069,28.181 59.069,25.751 60.454,25.751 60.454,26.176 59.587,26.176 
		59.587,26.75 60.39,26.75 60.39,27.171 59.587,27.171 59.587,27.757 60.509,27.757 	"/>
	<path fill="#887243" d="M62.911,28.183h-0.598l-0.379-0.634l-0.191-0.251l-0.16-0.058h-0.158v0.941h-0.516v-2.431h0.854
		c0.576,0,0.863,0.217,0.863,0.66c0,0.163-0.049,0.305-0.146,0.424c-0.094,0.119-0.227,0.201-0.395,0.248v0.007
		c0.105,0.036,0.229,0.161,0.371,0.37L62.911,28.183z M61.425,26.147v0.701h0.252l0.293-0.11l0.113-0.264
		c0-0.22-0.131-0.327-0.396-0.327H61.425z"/>
	<polygon fill="#887243" points="63.872,26.153 63.665,26.153 63.665,27.777 63.872,27.777 63.872,28.181 62.944,28.181 
		62.944,27.777 63.146,27.777 63.146,26.153 62.944,26.153 62.944,25.753 63.872,25.753 	"/>
	<polygon fill="#887243" points="65.665,28.181 64.226,28.181 64.226,25.751 65.606,25.751 65.606,26.176 64.747,26.176 
		64.747,26.75 65.544,26.75 65.544,27.171 64.747,27.171 64.747,27.757 65.665,27.757 	"/>
	<path fill="#887243" d="M68.021,27.136c0,0.723-0.34,1.088-1.008,1.088c-0.648,0-0.979-0.35-0.979-1.059v-1.413h0.52v1.414
		c0,0.403,0.162,0.606,0.48,0.606c0.312,0,0.473-0.191,0.473-0.585v-1.437h0.516v1.385H68.021z"/>
	<path fill="#887243" d="M70.554,28.183H69.96l-0.377-0.634l-0.193-0.251l-0.164-0.058h-0.15v0.941h-0.521v-2.431h0.855
		c0.576,0,0.857,0.217,0.857,0.66c0,0.163-0.043,0.305-0.139,0.424c-0.102,0.119-0.23,0.201-0.398,0.248v0.007
		c0.109,0.036,0.232,0.161,0.369,0.37L70.554,28.183z M69.075,26.147v0.701h0.256l0.291-0.11l0.107-0.264
		c0-0.22-0.131-0.327-0.395-0.327H69.075z"/>
	<polygon fill="#887243" points="71.96,26.388 71.495,26.456 71.827,26.815 71.536,27.02 71.292,26.588 71.058,27.02 70.767,26.815 
		71.099,26.456 70.634,26.388 70.749,26.061 71.177,26.241 71.116,25.753 71.487,25.753 71.415,26.241 71.845,26.061 	"/>
	<polygon fill="#887243" points="15.493,25.117 15.169,25.548 14.866,25.548 15.048,25.117 	"/>
	<polygon fill="#887243" points="60.386,25.117 60.069,25.548 59.757,25.548 59.948,25.117 	"/>
</g>
</svg>
