<?xml version="1.0" encoding="utf-8"?>
<!-- Generator: Adobe Illustrator 16.0.0, SVG Export Plug-In . SVG Version: 6.00 Build 0)  -->
<!DOCTYPE svg PUBLIC "-//W3C//DTD SVG 1.1//EN" "http://www.w3.org/Graphics/SVG/1.1/DTD/svg11.dtd">
<svg version="1.1" id="圖層_1" xmlns="http://www.w3.org/2000/svg" xmlns:xlink="http://www.w3.org/1999/xlink" x="0px" y="0px"
	 width="85.039px" height="85.223px" viewBox="0 0 85.039 85.223" enable-background="new 0 0 85.039 85.223" xml:space="preserve">
<g>
	<g>
		<path fill="#FFFFFF" d="M21.725,30.517h-3.223v11.854h-1.918V30.517h-2.879v-1.743h2.879v-3.72c0-3.605,1.801-4.998,4.559-4.998
			c0.549,0,1.105,0.089,1.656,0.205l-0.348,1.744c-0.467-0.117-0.99-0.206-1.48-0.206c-2.121,0-2.469,1.511-2.469,3.487v3.486h3.223
			V30.517z"/>
		<rect x="24.424" y="20.404" fill="#FFFFFF" width="1.918" height="21.967"/>
		<path fill="#FFFFFF" d="M36.66,42.721c-4.209,0-7.201-3.052-7.201-7.149c0-4.097,2.992-7.147,7.201-7.147
			c4.25,0,7.234,3.052,7.234,7.147C43.895,39.669,40.91,42.721,36.66,42.721 M36.66,30.169c-3.137,0-5.109,2.354-5.109,5.403
			c0,3.052,1.973,5.405,5.109,5.405c3.168,0,5.143-2.354,5.143-5.405C41.803,32.522,39.828,30.169,36.66,30.169"/>
		<path fill="#FFFFFF" d="M53.088,42.721c-4.219,0-7.207-3.052-7.207-7.149c0-4.097,2.988-7.147,7.207-7.147
			c4.24,0,7.234,3.052,7.234,7.147C60.322,39.669,57.328,42.721,53.088,42.721 M53.088,30.169c-3.137,0-5.113,2.354-5.113,5.403
			c0,3.052,1.977,5.405,5.113,5.405c3.164,0,5.139-2.354,5.139-5.405C58.227,32.522,56.252,30.169,53.088,30.169"/>
		<path fill="#FFFFFF" d="M63.205,33.015c0-1.218-0.062-2.267-0.117-4.241h1.891v2.526h0.061c0.547-1.45,1.973-2.876,4.354-2.876
			c0.553,0,1.02,0.06,1.428,0.177l-0.379,1.887c-0.23-0.089-0.582-0.143-1.102-0.143c-2.906,0-4.215,2.523-4.215,4.356v7.669h-1.918
			v-9.355H63.205z"/>
		<path fill="#FFFFFF" d="M10.873,47.415c-0.582-1.104-1.539-1.834-2.938-1.834c-1.336,0-2.812,0.582-2.812,2.037
			c0,1.277,0.895,1.742,2.67,2.15l1.943,0.463c1.891,0.438,3.316,1.805,3.316,3.719c0,2.964-2.643,4.188-5.291,4.188
			c-2.057,0-3.955-0.73-5.229-2.648l1.652-1.133c0.791,1.223,1.975,2.035,3.574,2.035c1.572,0,3.199-0.697,3.199-2.266
			c0-1.366-1.168-1.831-2.584-2.18l-1.863-0.438c-0.928-0.23-3.486-0.988-3.486-3.572c0-2.818,2.473-4.096,5.025-4.096
			c1.891,0,3.66,0.668,4.533,2.44L10.873,47.415z"/>
		<path fill="#FFFFFF" d="M25.545,47.385c-0.635-0.99-1.885-1.806-3.396-1.806c-3.168-0.057-5.111,2.298-5.111,5.408
			c0,3.107,1.943,5.46,5.111,5.402c1.512,0,2.762-0.812,3.396-1.8l1.57,1.19c-1.334,1.566-3.143,2.324-4.967,2.355
			c-4.449,0.051-7.207-3.054-7.207-7.148c0-4.102,2.758-7.207,7.207-7.147c1.824,0.026,3.633,0.785,4.967,2.352L25.545,47.385z"/>
		<path fill="#FFFFFF" d="M35.752,58.137c-4.211,0-7.207-3.054-7.207-7.148c0-4.102,2.996-7.147,7.207-7.147
			c4.238,0,7.232,3.047,7.232,7.147C42.986,55.083,39.992,58.137,35.752,58.137 M35.752,45.581c-3.143,0-5.113,2.355-5.113,5.408
			c0,3.047,1.973,5.402,5.113,5.402c3.168,0,5.143-2.355,5.143-5.402C40.895,47.936,38.92,45.581,35.752,45.581"/>
		<path fill="#FFFFFF" d="M46.271,48.43c0-1.221-0.059-2.269-0.111-4.244h1.881v2.529h0.062c0.547-1.449,1.977-2.875,4.355-2.875
			c0.555,0,1.016,0.055,1.426,0.172l-0.375,1.891c-0.238-0.086-0.588-0.145-1.105-0.145c-2.906,0-4.217,2.526-4.217,4.354v7.671
			h-1.916V48.43L46.271,48.43z"/>
		<path fill="#FFFFFF" d="M56.533,51.509c0.229,2.733,2.295,4.882,4.994,4.882c2.037,0,3.604-1.134,4.359-2.355l1.486,1.222
			c-1.6,2.037-3.604,2.88-5.848,2.88c-4.035,0-7.027-3.055-7.027-7.148c0-4.102,2.992-7.147,6.855-7.147
			c4.131,0.026,6.51,3.078,6.51,6.799v0.869H56.533L56.533,51.509z M65.775,49.942c0-2.59-1.66-4.361-4.42-4.361
			c-2.498,0-4.77,2.123-4.77,4.361H65.775z"/>
		
			<rect x="70.245" y="62.016" transform="matrix(0.7066 -0.7076 0.7076 0.7066 -23.9404 69.6891)" fill="#FFFFFF" width="3.632" height="3.393"/>
		<polygon fill="#FFFFFF" points="28.527,20.355 28.674,20.214 31.084,22.622 30.943,22.766 		"/>
		<polygon fill="#FFFFFF" points="72.627,60.744 74.881,57.641 77.607,59.617 75.346,62.719 		"/>
		<polygon fill="#FFFFFF" points="75.262,57.048 76.912,53.811 79.887,55.329 78.242,58.563 		"/>
		
			<rect x="77.669" y="50.208" transform="matrix(0.3081 -0.9514 0.9514 0.3081 5.5781 111.4115)" fill="#FFFFFF" width="3.43" height="3.326"/>
		<polygon fill="#FFFFFF" points="78.594,48.627 79.104,45.438 82.369,45.958 81.865,49.145 		"/>
		<rect x="79.209" y="41.096" fill="#FFFFFF" width="3.297" height="3.028"/>
		
			<rect x="78.837" y="36.514" transform="matrix(0.9878 -0.156 0.156 0.9878 -4.9307 13.0165)" fill="#FFFFFF" width="3.274" height="2.825"/>
		<polygon fill="#FFFFFF" points="77.447,32.617 80.557,31.605 81.359,34.1 78.256,35.112 		"/>
		
			<rect x="75.952" y="27.794" transform="matrix(0.8911 -0.4539 0.4539 0.8911 -4.7125 38.3757)" fill="#FFFFFF" width="3.266" height="2.42"/>
		<polygon fill="#FFFFFF" points="73.182,25.073 75.824,23.152 77.131,24.947 74.482,26.866 		"/>
		<polygon fill="#FFFFFF" points="24.967,60.6 27.824,58.527 28.65,59.666 25.799,61.742 		"/>
		<polygon fill="#FFFFFF" points="28.025,64.367 30.523,61.875 31.666,63.018 29.174,65.509 		"/>
		
			<rect x="70.437" y="20.438" transform="matrix(0.7071 -0.7071 0.7071 0.7071 5.9445 57.2435)" fill="#FFFFFF" width="3.268" height="2.016"/>
		
			<rect x="66.896" y="17.495" transform="matrix(0.5885 -0.8085 0.8085 0.5885 13.3211 62.979)" fill="#FFFFFF" width="3.272" height="1.815"/>
		
			<rect x="31.671" y="65.822" transform="matrix(0.588 -0.8088 0.8088 0.588 -40.2002 54.5304)" fill="#FFFFFF" width="3.521" height="1.815"/>
		
			<rect x="62.886" y="15.127" transform="matrix(0.454 -0.891 0.891 0.454 21.0321 66.1894)" fill="#FFFFFF" width="3.274" height="1.613"/>
		<polygon fill="#FFFFFF" points="35.691,70.29 37.291,67.161 39.084,68.077 37.492,71.204 		"/>
		<polygon fill="#FFFFFF" points="40.115,72.302 41.195,68.969 43.307,69.656 42.221,72.984 		"/>
		
			<rect x="58.571" y="13.428" transform="matrix(0.3085 -0.9512 0.9512 0.3085 28.1912 67.0453)" fill="#FFFFFF" width="3.279" height="1.409"/>
		<polygon fill="#FFFFFF" points="44.793,73.609 45.338,70.159 47.727,70.54 47.186,73.988 		"/>
		
			<rect x="53.96" y="12.446" transform="matrix(0.157 -0.9876 0.9876 0.157 33.9884 65.9213)" fill="#FFFFFF" width="3.297" height="1.21"/>
		<rect x="50.424" y="11.034" fill="#FFFFFF" width="1.008" height="3.313"/>
		<rect x="49.615" y="70.704" fill="#FFFFFF" width="2.627" height="3.485"/>
		<polygon fill="#FFFFFF" points="45.551,11.492 46.426,11.353 46.943,14.641 46.074,14.779 		"/>
		
			<rect x="54.198" y="70.338" transform="matrix(0.9878 -0.1557 0.1557 0.9878 -10.5458 9.5404)" fill="#FFFFFF" width="2.822" height="3.458"/>
		<polygon fill="#FFFFFF" points="40.828,12.69 41.514,12.467 42.549,15.646 41.852,15.871 		"/>
		
			<rect x="58.632" y="69.261" transform="matrix(0.9509 -0.3094 0.3094 0.9509 -19.0122 22.0943)" fill="#FFFFFF" width="3.023" height="3.439"/>
		<polygon fill="#FFFFFF" points="62.271,68.434 65.154,66.966 66.701,70.014 63.828,71.48 		"/>
		
			<rect x="37.092" y="14.28" transform="matrix(0.8907 -0.4546 0.4546 0.8907 -3.1728 18.7274)" fill="#FFFFFF" width="0.526" height="3.363"/>
		<polygon fill="#FFFFFF" points="66.1,66.413 68.873,64.393 70.873,67.15 68.1,69.165 		"/>
		
			<rect x="33.166" y="16.732" transform="matrix(0.8103 -0.586 0.586 0.8103 -4.4683 23.0499)" fill="#FFFFFF" width="0.405" height="3.388"/>
		<path fill="#FFFFFF" d="M67.986,56.057c0.492,0,0.879,0.382,0.879,0.865c0,0.491-0.387,0.871-0.887,0.871
			c-0.492,0-0.889-0.38-0.889-0.871c0-0.482,0.395-0.865,0.889-0.865H67.986z M67.975,56.234c-0.383,0-0.668,0.31-0.668,0.688
			c0,0.385,0.285,0.688,0.68,0.688c0.373,0.006,0.656-0.305,0.656-0.688c0-0.379-0.283-0.688-0.664-0.688H67.975z M67.838,57.371
			h-0.199v-0.858c0.08-0.021,0.189-0.035,0.336-0.035c0.164,0,0.234,0.027,0.297,0.07c0.053,0.039,0.084,0.104,0.084,0.184
			c0,0.102-0.072,0.172-0.182,0.207v0.012c0.088,0.027,0.137,0.092,0.16,0.211c0.023,0.134,0.047,0.185,0.061,0.211h-0.213
			c-0.027-0.034-0.039-0.108-0.066-0.207c-0.021-0.094-0.074-0.137-0.18-0.137h-0.098V57.371z M67.846,56.885h0.094
			c0.113,0,0.203-0.037,0.203-0.125c0-0.082-0.059-0.136-0.186-0.136l-0.111,0.013V56.885z"/>
	</g>
</g>
</svg>
