<?xml version="1.0" encoding="utf-8"?>
<!-- Generator: Adobe Illustrator 16.0.0, SVG Export Plug-In . SVG Version: 6.00 Build 0)  -->
<!DOCTYPE svg PUBLIC "-//W3C//DTD SVG 1.1//EN" "http://www.w3.org/Graphics/SVG/1.1/DTD/svg11.dtd">
<svg version="1.1" id="圖層_1" xmlns="http://www.w3.org/2000/svg" xmlns:xlink="http://www.w3.org/1999/xlink" x="0px" y="0px"
	 width="510.334px" height="85.223px" viewBox="0 0 510.334 85.223" enable-background="new 0 0 510.334 85.223"
	 xml:space="preserve">
<g>
	<path fill="#FFFFFF" d="M142.075,12.037c1.996,0.428,4.066,0.642,5.97,1.319c10.713,3.82,16.93,11.397,18.284,22.716
		c1.265,10.576-4.506,21.19-13.944,26.108c-0.195,0.102-0.398,0.19-0.816,0.395c0.23-0.461,0.357-0.729,0.504-0.992
		c1.535-2.84,3.599-5.262,5.687-7.727c5.75-6.787,7.233-14.631,4.27-23.009c-2.979-8.409-9.08-13.611-17.861-15.299
		C130.885,13,118.301,22.206,116.51,35.59c-1.718,12.832,7.549,24.87,20.356,26.454c3.605,0.445,7.144,0.111,10.57-1.098
		c0.676-0.238,1.141-0.199,1.609,0.357c0.475,0.569,1.026,1.079,1.746,1.821c-1.949,0.572-3.769,1.265-5.642,1.629
		c-14.07,2.747-27.459-5.676-31.065-19.488c-3.832-14.655,5.567-29.68,20.44-32.669c1.078-0.218,2.166-0.375,3.254-0.561
		C139.213,12.037,140.642,12.037,142.075,12.037z"/>
	<path fill="#FFFFFF" d="M105.926,43.304c0.92-0.121,1.846-0.242,2.771-0.369c0.492-0.066,0.928-0.074,0.836,0.701
		c-1.022,0.186-2.062,0.391-3.106,0.545c-0.15,0.021-0.332-0.188-0.5-0.291C105.926,43.695,105.926,43.5,105.926,43.304z"/>
	<path fill="#FFFFFF" d="M140.536,37.998c0-4.127,0-8.145,0-12.23c2.646,0,5.273-0.086,7.89,0.036
		c1.311,0.062,2.311,0.865,2.639,2.234c0.34,1.404-0.09,2.282-1.496,3.258c-0.049,0.033-0.065,0.107-0.119,0.194
		c1.314,0.426,2.183,1.235,2.277,2.687c0.08,1.299-0.291,2.49-1.459,3.067c-0.93,0.456-2.043,0.672-3.086,0.724
		C145.013,38.072,142.833,37.998,140.536,37.998z M144.282,35.283c0.922,0,1.763,0.056,2.586-0.017
		c0.648-0.059,1.062-0.491,1.062-1.179c0.004-0.688-0.387-1.111-1.06-1.151c-0.852-0.051-1.713-0.014-2.59-0.014
		C144.282,33.729,144.282,34.436,144.282,35.283z M144.282,30.527c0.828-0.038,1.595,0.042,2.285-0.156
		c0.363-0.104,0.791-0.684,0.81-1.067c0.02-0.329-0.457-0.911-0.802-0.982c-0.729-0.153-1.512-0.047-2.293-0.047
		C144.282,29.045,144.282,29.687,144.282,30.527z"/>
	<path fill="#FFFFFF" d="M120.615,38.004c0-4.157,0-8.156,0-12.38c2.556,0.104,5.09,0.047,7.582,0.365
		c1.789,0.229,2.935,1.632,3.26,3.369c0.275,1.445,0.351,2.984,0.183,4.445c-0.254,2.222-1.916,3.698-4.142,4.032
		c-0.512,0.078-1.03,0.154-1.547,0.16C124.197,38.016,122.447,38.004,120.615,38.004z M124.365,35.086
		c2.672,0.428,3.613-0.356,3.644-2.943c0.002-0.325,0.006-0.652-0.021-0.977c-0.154-2.167-1.43-3.068-3.623-2.529
		C124.365,30.763,124.365,32.903,124.365,35.086z"/>
	<path fill="#FFFFFF" d="M157.594,25.76c0,1.193,0,2.21,0,3.307c0.674,0,1.217,0,1.813,0c0,0.845,0,1.609,0,2.46
		c-0.555,0.03-1.125,0.062-1.776,0.1c0,1.156-0.021,2.287,0.004,3.417c0.012,0.579,0.362,0.787,0.918,0.705
		c0.246-0.037,0.498-0.04,0.828-0.063c0.067,0.753,0.133,1.446,0.219,2.329c-1.32,0-2.576,0.089-3.801-0.031
		c-0.797-0.078-1.332-0.727-1.414-1.539c-0.117-1.19-0.138-2.392-0.188-3.589c-0.016-0.385-0.006-0.771-0.006-1.215
		c-0.399-0.037-0.744-0.069-1.174-0.108c0-0.782,0-1.566,0-2.402c0.369-0.039,0.719-0.074,1.051-0.109
		c0.039-0.071,0.113-0.132,0.103-0.179c-0.23-1.141,0.356-1.705,1.354-2.074C156.177,26.52,156.784,26.156,157.594,25.76z"/>
	<path fill="#FFFFFF" d="M134.051,25.757c1.235,0,2.403,0,3.646,0c0,4.042,0,8.088,0,12.189c-1.195,0-2.383,0-3.646,0
		C134.051,33.891,134.051,29.871,134.051,25.757z"/>
	<path fill="#FFFFFF" d="M150.758,61.578c-1.979-1.891-3.881-3.707-5.771-5.532c-0.121-0.116-0.188-0.344-0.188-0.52
		c-0.021-1.396-0.015-2.793-0.015-4.355c1.81,0.729,3.502,1.414,5.279,2.132c3.078-4.084,6.152-8.162,9.293-12.328
		c0,2.114,0.002,4.082-0.012,6.049c0,0.184-0.088,0.383-0.187,0.547C156.392,52.195,153.616,56.817,150.758,61.578z M158.681,42.789
		c-2.613,3.478-5.246,6.941-7.828,10.443c-0.453,0.615-0.832,0.721-1.516,0.408c-1.279-0.586-2.599-1.076-4.045-1.664
		c0,1.196-0.011,2.196,0.014,3.196c0.004,0.205,0.094,0.466,0.233,0.604c1.664,1.625,3.349,3.235,5.082,4.905
		c0.236-0.382,0.435-0.677,0.613-0.978c2.137-3.561,4.146-7.209,6.465-10.65C159.056,47.047,158.868,44.992,158.681,42.789z"/>
	<path fill="#FFFFFF" d="M121.54,46.402c0,0.836,0,1.637,0,2.508c-0.344,0.017-0.614,0.027-0.938,0.043c0-2.66,0-5.254,0-8.066
		c0.41,0.178,0.727,0.311,1.148,0.488c1.137-0.668,2.299-0.612,3.082,0.254c0.883,0.978,0.965,3.103,0.163,4.22
		C124.224,46.926,123.17,47.109,121.54,46.402z M124.615,43.953c-0.043-0.322-0.069-0.547-0.104-0.77
		c-0.129-0.767-0.486-1.353-1.318-1.447c-0.893-0.104-1.451,0.426-1.611,1.213c-0.133,0.67-0.184,1.455,0.052,2.066
		c0.176,0.453,0.86,0.965,1.332,0.973c0.463,0.012,1.024-0.502,1.389-0.922C124.594,44.789,124.552,44.273,124.615,43.953z"/>
	<path fill="#FFFFFF" d="M142.853,44.078c-0.047,1.021,0.324,1.642,1.113,1.898c0.766,0.246,1.444,0.086,1.965-0.648
		c0.172-0.238,0.576-0.312,1.047-0.551c-0.332,1.666-1.469,2.312-3.102,2.039c-1.438-0.242-2.242-1.566-2.048-3.363
		c0.181-1.684,1.207-2.592,2.849-2.518c1.526,0.068,2.416,1.188,2.416,3.143C145.708,44.078,144.323,44.078,142.853,44.078z
		 M146.072,43.289c-0.242-1.199-0.699-1.608-1.668-1.569c-0.912,0.041-1.391,0.534-1.488,1.569
		C143.943,43.289,144.97,43.289,146.072,43.289z"/>
	<path fill="#FFFFFF" d="M132.659,46.851c-1.633-0.017-2.602-1.123-2.592-2.97c0.004-1.889,1.004-2.972,2.715-2.949
		c1.617,0.021,2.644,1.181,2.625,2.968C135.386,45.758,134.359,46.863,132.659,46.851z M131.032,43.91
		c-0.006,1.359,0.633,2.164,1.711,2.152c1.004-0.01,1.656-0.826,1.683-2.104c0.022-1.295-0.662-2.201-1.683-2.217
		C131.697,41.724,131.036,42.562,131.032,43.91z"/>
	<path fill="#FFFFFF" d="M148.407,40.837c0.402,0.233,0.711,0.409,0.916,0.53c0.611-0.143,1.217-0.39,1.832-0.407
		c1.049-0.03,1.646,0.532,1.713,1.587c0.07,1.23,0.058,2.47,0.021,3.703c-0.006,0.185-0.312,0.361-0.48,0.541
		c-0.149-0.196-0.422-0.389-0.434-0.592c-0.049-0.973-0.012-1.949-0.027-2.926c-0.008-0.767-0.153-1.461-1.112-1.527
		c-0.836-0.059-1.476,0.56-1.513,1.547c-0.043,1.131-0.012,2.267-0.012,3.461c-0.336,0.021-0.584,0.031-0.902,0.047
		C148.407,44.859,148.407,42.961,148.407,40.837z"/>
	<path fill="#FFFFFF" d="M136.01,41.096c0.723-0.277,1.059-0.053,1.27,0.622c0.396,1.229,0.875,2.428,1.371,3.782
		c0.484-1.369,0.943-2.575,1.336-3.803c0.195-0.603,0.492-0.878,1.267-0.604c-0.652,1.8-1.293,3.607-1.98,5.398
		c-0.059,0.158-0.43,0.307-0.629,0.275c-0.234-0.031-0.555-0.22-0.635-0.422C137.316,44.609,136.676,42.853,136.01,41.096z"/>
	<path fill="#FFFFFF" d="M126.855,46.699c0-1.863,0-3.734,0-5.884c0.408,0.264,0.67,0.435,0.99,0.646
		c0.401-0.504,1.055-0.771,2.106-0.159c-0.33,0.264-0.584,0.637-0.828,0.629c-0.975-0.039-1.266,0.543-1.311,1.325
		c-0.057,0.939-0.012,1.882-0.031,2.822C127.767,46.787,127.758,46.787,126.855,46.699z"/>
	<path fill="#FFFFFF" d="M155.372,68.77c-0.655,0.328-1.176,0.668-1.741,0.846c-0.63,0.193-1.38,0.078-1.531-0.614
		c-0.107-0.484,0.188-1.13,0.477-1.603c0.164-0.277,0.65-0.379,1.004-0.527c0.363-0.155,0.744-0.276,1.294-0.477
		c0.354,0.68,0.836,1.438,1.141,2.26c0.111,0.299-0.062,0.924-0.316,1.103c-0.709,0.496-1.52,0.836-2.408,1.062
		C153.888,70.024,155.47,70.285,155.372,68.77z M153.588,69.563c0.596-0.648,1.051-1.016,1.293-1.492
		c0.059-0.115-0.705-0.903-0.879-0.836c-0.511,0.195-0.97,0.621-1.298,1.068C152.631,68.406,153.146,68.949,153.588,69.563z"/>
	<path fill="#FFFFFF" d="M109.463,47.986c0.391-0.1,0.784-0.203,1.18-0.307c0.074,0.061,0.147,0.118,0.223,0.18
		c-0.143,0.229-0.229,0.582-0.434,0.662c-0.982,0.396-1.992,0.721-2.996,1.067c-0.305-0.877-0.65-1.688-0.863-2.534
		c-0.223-0.888,0.228-1.767,0.867-1.949c0.654-0.187,1.406,0.326,1.711,1.254C109.316,46.867,109.357,47.414,109.463,47.986z
		 M108.991,47.793c0.029-1.062-0.521-1.862-1.08-1.844c-0.653,0.021-0.895,0.465-0.86,1.055c0.043,0.664,0.139,1.416,0.973,1.423
		C108.4,48.426,108.775,47.945,108.991,47.793z"/>
	<path fill="#FFFFFF" d="M131.722,69.78c-0.412,0.463-0.666,0.808-0.982,1.074c-0.227,0.189-0.569,0.412-0.805,0.361
		c-0.209-0.043-0.422-0.435-0.479-0.699c-0.133-0.664-0.178-1.346-0.26-2.027c0.711,0.099,0.707,0.099,0.756,0.734
		c0.035,0.438,0.088,0.871,0.146,1.488c0.516-0.56,0.862-0.982,1.258-1.361c0.428-0.414,0.793-0.432,0.953,0.26
		c0.125,0.523,0.266,1.041,0.406,1.58c0.737-0.42,0.694-1.67,2.051-1.588c-0.592,0.781-1.023,1.418-1.523,1.996
		c-0.45,0.52-0.922,0.395-1.123-0.262C131.982,70.88,131.883,70.41,131.722,69.78z"/>
	<path fill="#FFFFFF" d="M160.603,62.555c0.141-0.228,0.221-0.521,0.414-0.638c0.438-0.27,1.027-0.729,1.387-0.608
		c0.584,0.203,1.043,0.801,1.535,1.254c0.031,0.029-0.09,0.309-0.195,0.375c-0.098,0.059-0.312,0.026-0.41-0.051
		c-0.25-0.199-0.475-0.441-0.694-0.677c-0.402-0.418-0.82-0.512-1.267-0.069c-0.44,0.438-0.457,0.848-0.026,1.352
		c0.285,0.338,1.121,0.656,0.266,1.402c-0.854-1-1.664-1.945-2.479-2.902C159.676,61.66,159.676,61.66,160.603,62.555z"/>
	<path fill="#FFFFFF" d="M170.49,49.984c1.379-0.467,1.156-1.678,1.556-2.559c0.418,0.973-0.242,2.807-1.138,3.129
		c-0.27,0.098-0.649,0.073-0.916-0.045c-0.688-0.314-0.897-1.257-0.537-2.349c0.263-0.799,0.64-1.506,1.828-1.291
		C171.023,47.89,170.779,48.845,170.49,49.984z M170.758,47.508c-1.142,0.597-1.295,1.234-0.627,2.125
		C170.333,48.945,170.517,48.332,170.758,47.508z"/>
	<path fill="#FFFFFF" d="M109.267,53.812c-0.842-0.65-1.457-2.074-1.111-2.836c0.178-0.386,0.689-0.781,1.107-0.854
		c0.746-0.135,1.457,0.679,1.703,1.715c0.192,0.826,0.012,1.248-0.824,1.705c-0.379-0.852-0.756-1.696-1.168-2.629
		C108.032,52.004,109.142,52.84,109.267,53.812z M110.232,52.859c0.512-1.168,0.277-1.695-0.852-2.103
		C109.665,51.461,109.907,52.06,110.232,52.859z"/>
	<path fill="#FFFFFF" d="M128.491,69.328c-0.225,0.195-0.533,0.613-0.938,0.781c-0.83,0.334-2.34-0.209-2.715-1.016
		c-0.181-0.383-0.191-1.09,0.051-1.383c0.565-0.693,1.403-0.5,2.151-0.224C127.763,67.751,128.385,68.149,128.491,69.328z
		 M127.032,69.755c0.164-0.234,0.627-0.603,0.633-0.974c0.005-0.723-0.643-1.098-1.272-1.008c-0.396,0.06-1.023,0.551-1.027,0.855
		C125.359,69.363,125.988,69.68,127.032,69.755z"/>
	<path fill="#FFFFFF" d="M164.474,61.438c-0.641-0.09-1.103-0.435-1.117-1.234c-0.016-1.074,1-2.24,1.994-2.254
		c0.795-0.012,1.189,0.426,1.207,1.195C166.594,60.172,165.508,61.397,164.474,61.438z M163.842,59.951
		c0.227,0.219,0.487,0.639,0.854,0.789c0.521,0.213,1.383-0.514,1.285-1.119c-0.062-0.381-0.465-0.93-0.799-0.996
		C164.484,58.487,164.103,59.037,163.842,59.951z"/>
	<path fill="#FFFFFF" d="M112.275,55.84c-0.07-0.312-0.094-0.647-0.219-0.938c-0.131-0.309-0.359-0.574-0.543-0.855
		c0.108-0.065,0.213-0.135,0.324-0.2c0.312,0.596,0.772,1.157,0.901,1.791c0.248,1.219-1.055,1.268-1.646,1.958
		c-0.451-0.695-0.935-1.313-1.252-2.005c-0.142-0.303,0.055-0.758,0.098-1.145c0.367,0.096,0.805,0.098,1.084,0.309
		c0.402,0.304,0.686,0.763,1.018,1.152C112.118,55.883,112.197,55.863,112.275,55.84z M111.915,56.097
		c-0.623-0.427-1.051-0.72-1.483-1.013c-0.039,0.228-0.185,0.509-0.099,0.672C110.583,56.238,110.904,56.719,111.915,56.097z"/>
	<path fill="#FFFFFF" d="M148.935,70.098c-0.902,0.227-1.771,0.443-2.785,0.699c0.883,1.055,1.857,0.239,2.801,0.188
		c-0.754,0.781-2.299,1.109-2.959,0.572c-0.313-0.256-0.588-0.846-0.521-1.219c0.16-0.881,0.93-1.17,1.748-1.271
		C147.991,68.969,148.638,69.117,148.935,70.098z M146.282,70.348c0.586-0.141,1.166-0.277,1.754-0.418
		c-0.026-0.098-0.049-0.199-0.069-0.297C147.271,69.321,146.652,69.344,146.282,70.348z"/>
	<path fill="#FFFFFF" d="M140.12,71.408c-0.518,0-0.967,0.007-1.412-0.002c-0.409-0.01-0.817-0.039-1.266-0.062
		c0.367,0.762,0.367,0.762,2.398,0.934c-0.629,0.488-2.125,0.508-2.699-0.115c-0.287-0.305-0.426-0.936-0.336-1.35
		c0.156-0.688,1.25-1.09,2.146-0.881C139.631,70.091,140.275,70.341,140.12,71.408z M137.435,70.953c0.783,0,1.367,0,1.961,0
		C138.95,70.067,138.333,70.02,137.435,70.953z"/>
	<path fill="#FFFFFF" d="M119.368,63.75c-0.082,0.644-0.442,1.103-1.237,1.117c-1.021,0.023-2.188-1.016-2.224-1.967
		c-0.026-0.674,0.519-1.213,1.234-1.232C118.131,61.645,119.342,62.723,119.368,63.75z M117.529,61.817
		c-0.483,0.645-0.961,0.996-0.965,1.35c-0.01,0.679,0.512,1.203,1.203,1.113c0.352-0.045,0.953-0.666,0.893-0.869
		C118.517,62.914,118.056,62.51,117.529,61.817z"/>
	<path fill="#FFFFFF" d="M166.877,54.556c0.416-0.601,0.416-0.601,2.52,0.565c-0.324,0.679-0.604,1.388-0.988,2.034
		c-0.416,0.695-1.022,0.855-1.729,0.365c-0.371-0.258-0.742-0.517-1.109-0.771c0-0.102,0.008-0.198,0.008-0.301
		c0.259-0.02,0.531-0.115,0.759-0.047c0.27,0.082,0.495,0.301,0.737,0.465c0.453,0.31,0.863,0.289,1.152-0.209
		c0.273-0.469,0.473-0.963-0.137-1.352C167.704,55.062,167.316,54.828,166.877,54.556z"/>
	<path fill="#FFFFFF" d="M141.877,72.399c-0.826-0.035-0.927-0.412-0.724-2.367c0.439-0.055,0.892-0.051,1.303-0.176
		c1.308-0.387,1.99,0.037,2.154,1.396c0.035,0.284,0.06,0.573,0.09,0.895c-0.938,0.32-0.801-0.395-0.862-0.895
		c-0.125-0.923-0.619-1.312-1.347-0.949c-0.274,0.141-0.504,0.539-0.592,0.862C141.799,71.524,141.877,71.932,141.877,72.399z"/>
	<path fill="#FFFFFF" d="M157.275,68.891c0.223-0.465,0.43-0.908,0.656-1.391c-0.887-0.5-1.691-0.953-2.535-1.431
		c0.396-0.248,0.396-0.248,2.348,0.513c0-0.664-0.008-1.359,0.015-2.056c0-0.066,0.194-0.125,0.307-0.191
		C158.931,66.501,158.549,68.824,157.275,68.891z"/>
	<path fill="#FFFFFF" d="M172.181,44.17c-0.242,0.451-0.455,0.92-0.738,1.339c-0.127,0.18-0.436,0.362-0.619,0.325
		c-0.178-0.037-0.424-0.352-0.424-0.545c0-0.676,0.09-1.352,0.146-2.026c0.12,0.01,0.233,0.02,0.352,0.026
		c-0.051,0.572-0.104,1.146-0.152,1.719c0.099,0.033,0.199,0.066,0.302,0.101c0.229-0.422,0.412-0.881,0.698-1.256
		c0.188-0.242,0.527-0.371,0.798-0.547c0.149,0.26,0.438,0.526,0.426,0.782c-0.035,0.769-0.185,1.525-0.289,2.291
		c-0.113-0.016-0.229-0.022-0.336-0.039c0.078-0.715,0.156-1.43,0.233-2.147C172.443,44.183,172.314,44.176,172.181,44.17z"/>
	<path fill="#FFFFFF" d="M169.967,52.135c-0.275,0.299-0.513,0.639-0.824,0.877c-0.23,0.176-0.633,0.362-0.832,0.271
		c-0.199-0.094-0.375-0.549-0.324-0.799c0.107-0.539,0.371-1.045,0.568-1.564c0.096,0.029,0.186,0.06,0.279,0.091
		c-0.144,0.521-0.279,1.045-0.414,1.563c0.09,0.047,0.174,0.088,0.266,0.133c0.289-0.326,0.539-0.694,0.873-0.961
		c0.225-0.172,0.646-0.34,0.826-0.24c0.209,0.115,0.408,0.568,0.348,0.808c-0.174,0.656-0.479,1.276-0.74,1.914
		c-0.104-0.039-0.209-0.078-0.313-0.117c0.211-0.598,0.426-1.195,0.639-1.793C170.2,52.254,170.083,52.195,169.967,52.135z"/>
	<path fill="#FFFFFF" d="M114.217,61.918c0.1-0.28,0.143-0.608,0.319-0.834c0.354-0.463,0.779-0.873,1.332-1.467
		c0.523,0.055,1.707-0.734,2.16,0.764c-0.488-0.131-0.926-0.245-1.363-0.36c-0.041,0.094-0.077,0.188-0.116,0.281
		c0.147,0.229,0.301,0.465,0.452,0.694c-0.026,0.043-0.062,0.082-0.09,0.125c-0.26-0.139-0.512-0.276-0.832-0.449
		c-0.485,0.439-0.985,0.896-1.479,1.349C114.47,61.985,114.342,61.953,114.217,61.918z"/>
	<path fill="#FFFFFF" d="M111.883,59.043c0.069-0.27,0.043-0.647,0.221-0.789c0.727-0.59,1.504-1.118,2.281-1.643
		c0.141-0.096,0.373-0.049,0.565-0.068c-0.047,0.211-0.02,0.513-0.151,0.613c-0.855,0.684-1.748,1.326-2.623,1.98
		C112.075,59.106,111.982,59.074,111.883,59.043z"/>
	<path fill="#FFFFFF" d="M124.758,65.033c0.045,0.226,0.2,0.507,0.119,0.67c-0.429,0.867-0.898,1.712-1.394,2.548
		c-0.08,0.137-0.328,0.18-0.496,0.268c-0.045-0.209-0.194-0.471-0.119-0.615c0.519-0.961,1.084-1.897,1.64-2.844
		C124.594,65.052,124.67,65.044,124.758,65.033z"/>
	<path fill="#FFFFFF" d="M149.448,68.604c0.654-0.25,1.197-0.461,1.867-0.721c-0.35,0.541-0.762,0.916-0.824,1.34
		c-0.061,0.434,0.217,0.92,0.342,1.383C150.083,71.009,149.877,70.708,149.448,68.604z"/>
	<path fill="#FFFFFF" d="M119.552,66.36c-0.67-0.492-0.656-0.516,0.955-2.332c0.494,0.312,0.983,0.621,1.586,1
		c-0.638,0.062-1.168-0.02-1.549,0.188C120.15,65.428,119.911,65.923,119.552,66.36z"/>
</g>
<g>
	<path fill="#FFFFFF" d="M344.752,20.644h0.174h0.168l0.17,0.079h0.172h0.18h0.16h0.178h0.168v5.756h-0.168l-0.178-0.077h-0.16
		h-0.18h-0.172h-0.17h-0.168h-0.174h-0.693l-0.771,0.077l-0.768,0.072l-0.775,0.166l-0.686,0.157l-0.689,0.231l-0.684,0.235
		l-0.678,0.237l-0.691,0.323l-0.606,0.312l-0.677,0.384l-0.606,0.399l-0.603,0.393l-0.51,0.479l-0.604,0.47l-0.513,0.479
		l-0.422,0.546l-0.522,0.56l-0.423,0.549l-0.43,0.63l-0.354,0.631l-0.422,0.633l-0.255,0.624l-0.348,0.638l-0.254,0.709
		l-0.267,0.711l-0.172,0.709l-0.17,0.705l-0.168,0.79l-0.088,0.718v0.787l-0.084,0.784l0.084,0.785v0.789l0.088,0.713l0.168,0.783
		l0.17,0.711l0.172,0.711l0.267,0.715l0.254,0.711l0.348,0.625l0.255,0.633l0.422,0.63l0.354,0.635l0.43,0.631l0.423,0.549
		l0.522,0.553l0.422,0.548l0.513,0.483l0.604,0.465l0.51,0.478l0.603,0.396l0.606,0.39l0.677,0.405l0.606,0.31l0.691,0.312
		l0.678,0.24l0.684,0.236l0.689,0.233l0.686,0.161l0.775,0.156l0.768,0.074l0.771,0.082h0.693h0.174h0.168h0.17h0.172h0.18h0.16
		l0.178-0.082h0.168v5.764h-0.168h-0.178h-0.16h-0.18h-0.172l-0.17,0.076h-0.168h-0.174l-1.031-0.076l-1.035-0.08l-1.021-0.08
		l-1.041-0.235l-0.938-0.232l-1.033-0.242l-0.942-0.396l-0.938-0.312l-0.854-0.469l-0.949-0.402l-0.863-0.551l-0.852-0.551
		l-0.769-0.56l-0.771-0.627l-0.777-0.623l-0.688-0.713l-0.681-0.709l-0.69-0.793l-0.599-0.785l-0.512-0.793l-0.602-0.864
		l-0.523-0.865l-0.426-0.867l-0.424-0.945l-0.351-0.948l-0.35-0.949l-0.252-1.021l-0.252-1.028l-0.174-1.021l-0.087-1.026
		l-0.094-1.023l-0.082-1.105l0.082-1.104l0.094-1.024l0.087-1.021l0.174-1.028l0.252-1.023l0.252-1.022l0.35-0.948l0.351-0.953
		l0.424-0.939l0.426-0.865l0.523-0.868l0.602-0.867l0.512-0.793l0.599-0.779l0.69-0.804l0.681-0.706l0.688-0.702l0.777-0.634
		l0.771-0.632l0.769-0.552l0.852-0.557l0.863-0.551l0.949-0.396l0.854-0.468l0.938-0.314l0.942-0.396l1.033-0.238l0.938-0.231
		l1.041-0.159l1.021-0.153l1.035-0.08L344.752,20.644z M378.814,20.644h0.174h0.166l0.168,0.079h0.181h0.174h0.17h0.172h0.164v5.756
		h-0.164l-0.172-0.077h-0.17h-0.174h-0.181h-0.168h-0.166h-0.174h-0.689l-0.682,0.077l-0.686,0.072l-0.607,0.085l-0.684,0.15
		l-0.599,0.156l-0.604,0.163l-0.681,0.236l-0.52,0.236l-0.598,0.238l-0.603,0.313l-0.606,0.315l-0.507,0.313l-0.524,0.395
		l-0.506,0.395l-0.517,0.398l-0.43,0.39l-0.518,0.479l-0.429,0.389l-0.43,0.556l-0.342,0.475l-0.435,0.474l-0.342,0.545l-0.34,0.559
		l-0.34,0.553l-0.258,0.552l-0.263,0.627l-0.244,0.632l-0.188,0.553l-0.252,0.633l-0.176,0.632l-0.086,0.705h11.758v5.688h-11.758
		l0.086,0.704l0.176,0.628l0.252,0.631l0.188,0.555l0.244,0.629l0.263,0.633l0.258,0.552l0.34,0.551l0.34,0.555l0.342,0.551
		l0.435,0.478l0.342,0.471l0.43,0.551l0.429,0.39l0.518,0.483l0.43,0.396l0.517,0.385l0.506,0.397l0.524,0.392l0.507,0.322
		l0.606,0.309l0.603,0.318l0.598,0.235l0.52,0.24l0.681,0.236l0.604,0.153l0.599,0.16l0.684,0.159l0.607,0.078l0.686,0.074
		l0.682,0.082h0.689h0.174h0.166h0.168h0.181h0.174h0.17l0.172-0.082h0.164v5.764h-0.164h-0.172h-0.17h-0.174h-0.181l-0.168,0.076
		h-0.166h-0.174l-1.113-0.076l-1.024-0.08l-1.033-0.08l-1.031-0.235l-0.951-0.232l-1.021-0.242l-0.941-0.396l-0.944-0.312
		l-0.863-0.469l-0.938-0.402l-0.856-0.551l-0.771-0.551l-0.864-0.56l-0.771-0.627l-0.773-0.623l-0.688-0.713l-0.684-0.709
		l-0.599-0.793l-0.69-0.785l-0.517-0.793l-0.512-0.864l-0.516-0.865l-0.513-0.867l-0.342-0.945l-0.43-0.948l-0.256-0.949
		l-0.347-1.021l-0.174-1.028l-0.258-1.021l-0.086-1.027l-0.088-1.022v-1.105v-1.104l0.088-1.024l0.086-1.021l0.258-1.028
		l0.174-1.023l0.347-1.022l0.256-0.948l0.43-0.953l0.342-0.939l0.513-0.865l0.516-0.868l0.512-0.867l0.517-0.793l0.69-0.779
		l0.599-0.804l0.684-0.706l0.688-0.702l0.773-0.634l0.771-0.632l0.864-0.552l0.771-0.557l0.856-0.551l0.938-0.396l0.863-0.468
		l0.944-0.314l0.941-0.396l1.021-0.238l0.951-0.231l1.031-0.159l1.033-0.153l1.024-0.08L378.814,20.644z"/>
	<path fill="#FFFFFF" d="M252.299,12.08c3.637,0.006,7.121,0.702,10.332,1.952c0,0.885-0.021,2.555-0.021,3.466
		c-0.787-0.351-1.547-0.662-2.602-0.786v52.424c-1.457,0.406-2.959,0.709-4.496,0.877V16.239c-0.98-0.233-1.787-0.353-3.215-0.303
		L252.299,12.08L252.299,12.08z M250.771,70.186c-4.246-0.205-8.262-1.307-11.836-3.152V46.649h4.637l-0.508,18.292
		c1.133,0.58,2.203,0.967,3.676,0.783V46.649v-0.066v-0.045v-0.024v-0.064v-0.074v-0.063v-0.07v-0.07v-0.062v-0.066v-0.067v-0.068
		v-0.07v-0.018v-0.054v-0.072v-0.064v-0.067V45.5v-0.051v-0.012v-0.074v-0.07v-0.062v-0.082v-0.062v-0.01v-0.055v-0.066v-0.067
		v-0.068v-0.066v-0.036v-0.037v-0.064v-0.061V44.48v-0.062v-0.055v-0.014v-0.062v-0.082v-0.065v-0.066v-0.062v-0.021V43.94v-0.066
		v-0.065v-0.066v-0.074v-0.047v-0.016v-0.07v-0.078v-0.061v-0.064v-0.066v-0.009v-0.065v-0.062v-0.071V43v-0.071v-0.035v-0.58
		h-7.805V15.251c3.574-1.831,7.59-2.939,11.836-3.142v22.543h-3.432V16.471c-1.246,0.097-2.568,0.42-3.232,0.974
		c-0.477,0.401-0.492,0.821-0.535,1.805c-0.151,6.502-0.332,12.986-0.508,19.487c2.582,0,5.141,0.002,7.707,0.002V70.186
		L250.771,70.186z M264.267,14.744c2.781,5.158,5.883,10.967,7.965,17.493c1.535-1.405,2.428-4.257,3.715-7.768
		c3.312,4.711,5.254,10.469,5.254,16.676c0,6.593-2.184,12.675-5.891,17.554l-2.145-2.618c2.477-6.104,5.688-12.362,3.444-21.234
		c-1.348,3.013-2.508,6.172-3.531,8.716c-1.772-3.201-2.989-6.185-4.297-7.837v28.666l0.24,0.414c-1.49,1.07-3.076,1.99-4.756,2.764
		L264.267,14.744L264.267,14.744z M234.676,64.367c-1.06-0.799-2.076-1.652-3.019-2.602V42.375h-4.526
		c-0.724-0.16,1.832,9.328,2.473,9.345c0.539,0-2.195,0.762-3.988,1.309c-1.637-3.615-2.543-7.646-2.543-11.882
		c0-9.496,4.56-17.925,11.604-23.229L234.676,64.367L234.676,64.367z M227.191,38.699h4.279V27.73
		C228.456,30.773,227.226,34.702,227.191,38.699"/>
	<g>
		<path fill="#FFFFFF" d="M435.49,31.885h-3.223v11.854h-1.918V31.885h-2.879v-1.743h2.879v-3.721c0-3.604,1.801-4.998,4.559-4.998
			c0.549,0,1.105,0.09,1.656,0.205l-0.348,1.744c-0.466-0.117-0.99-0.206-1.48-0.206c-2.121,0-2.469,1.512-2.469,3.488v3.486h3.223
			V31.885z"/>
		<rect x="438.189" y="21.771" fill="#FFFFFF" width="1.918" height="21.967"/>
		<path fill="#FFFFFF" d="M450.426,44.088c-4.209,0-7.201-3.052-7.201-7.147s2.992-7.148,7.201-7.148
			c4.25,0,7.233,3.053,7.233,7.148S454.676,44.088,450.426,44.088 M450.426,31.535c-3.138,0-5.109,2.354-5.109,5.404
			c0,3.052,1.973,5.404,5.109,5.404c3.168,0,5.143-2.354,5.143-5.404C455.568,33.888,453.594,31.535,450.426,31.535"/>
		<path fill="#FFFFFF" d="M466.853,44.088c-4.219,0-7.207-3.052-7.207-7.147s2.988-7.148,7.207-7.148
			c4.24,0,7.236,3.053,7.236,7.148S471.094,44.088,466.853,44.088 M466.853,31.535c-3.137,0-5.113,2.354-5.113,5.404
			c0,3.052,1.978,5.404,5.113,5.404c3.164,0,5.139-2.354,5.139-5.404S470.017,31.535,466.853,31.535"/>
		<path fill="#FFFFFF" d="M476.97,34.382c0-1.218-0.062-2.266-0.117-4.24h1.891v2.525h0.06c0.547-1.449,1.973-2.876,4.354-2.876
			c0.554,0,1.021,0.061,1.429,0.178l-0.38,1.887c-0.229-0.089-0.582-0.144-1.102-0.144c-2.906,0-4.215,2.524-4.215,4.357v7.669
			h-1.918L476.97,34.382L476.97,34.382z"/>
		<path fill="#FFFFFF" d="M424.638,48.781c-0.582-1.104-1.539-1.834-2.938-1.834c-1.336,0-2.812,0.582-2.812,2.037
			c0,1.277,0.895,1.742,2.67,2.149l1.943,0.464c1.891,0.438,3.315,1.805,3.315,3.719c0,2.965-2.643,4.188-5.291,4.188
			c-2.057,0-3.955-0.729-5.229-2.647l1.653-1.133c0.791,1.223,1.974,2.035,3.574,2.035c1.572,0,3.199-0.696,3.199-2.266
			c0-1.367-1.168-1.832-2.584-2.18l-1.863-0.438c-0.928-0.229-3.486-0.987-3.486-3.571c0-2.818,2.472-4.097,5.025-4.097
			c1.891,0,3.66,0.668,4.533,2.441L424.638,48.781z"/>
		<path fill="#FFFFFF" d="M439.31,48.752c-0.635-0.989-1.885-1.805-3.396-1.805c-3.168-0.057-5.112,2.297-5.112,5.408
			c0,3.106,1.944,5.461,5.112,5.403c1.511,0,2.761-0.812,3.396-1.802l1.572,1.192c-1.334,1.565-3.144,2.324-4.967,2.354
			c-4.449,0.052-7.207-3.055-7.207-7.148c0-4.103,2.758-7.207,7.207-7.148c1.823,0.027,3.633,0.785,4.967,2.353L439.31,48.752z"/>
		<path fill="#FFFFFF" d="M449.517,59.504c-4.211,0-7.207-3.055-7.207-7.148c0-4.103,2.996-7.148,7.207-7.148
			c4.24,0,7.234,3.047,7.234,7.148C456.752,56.449,453.758,59.504,449.517,59.504 M449.517,46.947c-3.141,0-5.113,2.355-5.113,5.408
			c0,3.047,1.974,5.403,5.113,5.403c3.168,0,5.143-2.356,5.143-5.403C454.659,49.302,452.685,46.947,449.517,46.947"/>
		<path fill="#FFFFFF" d="M460.036,49.797c0-1.221-0.059-2.268-0.11-4.243h1.881v2.528h0.062c0.547-1.449,1.978-2.875,4.355-2.875
			c0.555,0,1.016,0.056,1.426,0.172l-0.375,1.892c-0.238-0.086-0.588-0.146-1.104-0.146c-2.906,0-4.218,2.527-4.218,4.355v7.672
			h-1.916V49.797z"/>
		<path fill="#FFFFFF" d="M470.299,52.875c0.229,2.734,2.295,4.883,4.994,4.883c2.036,0,3.604-1.135,4.358-2.355l1.486,1.221
			c-1.598,2.037-3.603,2.881-5.846,2.881c-4.035,0-7.029-3.055-7.029-7.148c0-4.103,2.994-7.148,6.856-7.148
			c4.132,0.027,6.511,3.078,6.511,6.799v0.869H470.299L470.299,52.875z M479.54,51.308c0-2.59-1.659-4.361-4.42-4.361
			c-2.498,0-4.77,2.123-4.77,4.361H479.54z"/>
		
			<rect x="483.998" y="63.365" transform="matrix(0.7066 -0.7076 0.7076 0.7066 96.5126 362.8743)" fill="#FFFFFF" width="3.632" height="3.392"/>
		<polygon fill="#FFFFFF" points="442.292,21.721 442.439,21.58 444.849,23.989 444.708,24.133 		"/>
		<polygon fill="#FFFFFF" points="486.392,62.112 488.646,59.008 491.372,60.985 489.111,64.086 		"/>
		<polygon fill="#FFFFFF" points="489.027,58.414 490.677,55.177 493.652,56.696 492.008,59.93 		"/>
		
			<rect x="491.442" y="51.582" transform="matrix(0.308 -0.9514 0.9514 0.308 290.5994 506.0249)" fill="#FFFFFF" width="3.43" height="3.327"/>
		<polygon fill="#FFFFFF" points="492.359,49.992 492.868,46.804 496.135,47.324 495.631,50.511 		"/>
		<rect x="492.974" y="42.463" fill="#FFFFFF" width="3.297" height="3.029"/>
		
			<rect x="492.586" y="37.89" transform="matrix(0.9878 -0.156 0.156 0.9878 -0.0813 77.569)" fill="#FFFFFF" width="3.274" height="2.825"/>
		<polygon fill="#FFFFFF" points="491.213,33.984 494.322,32.971 495.124,35.468 492.021,36.479 		"/>
		
			<rect x="489.698" y="29.161" transform="matrix(0.8911 -0.4539 0.4539 0.8911 39.7434 226.3234)" fill="#FFFFFF" width="3.266" height="2.421"/>
		<polygon fill="#FFFFFF" points="486.947,26.44 489.59,24.519 490.896,26.314 488.247,28.233 		"/>
		<polygon fill="#FFFFFF" points="438.732,61.968 441.59,59.895 442.415,61.033 439.564,63.11 		"/>
		<polygon fill="#FFFFFF" points="441.79,65.735 444.288,63.242 445.431,64.385 442.939,66.876 		"/>
		
			<rect x="484.186" y="21.823" transform="matrix(0.707 -0.7073 0.7073 0.707 126.2185 350.289)" fill="#FFFFFF" width="3.267" height="2.016"/>
		
			<rect x="480.671" y="18.871" transform="matrix(0.5885 -0.8085 0.8085 0.5885 182.4661 398.0732)" fill="#FFFFFF" width="3.272" height="1.815"/>
		
			<rect x="445.452" y="67.177" transform="matrix(0.5882 -0.8087 0.8087 0.5882 129.0936 389.6967)" fill="#FFFFFF" width="3.521" height="1.814"/>
		
			<rect x="476.65" y="16.493" transform="matrix(0.454 -0.891 0.891 0.454 245.7297 435.6002)" fill="#FFFFFF" width="3.274" height="1.613"/>
		<polygon fill="#FFFFFF" points="449.456,71.656 451.056,68.528 452.849,69.444 451.258,72.571 		"/>
		<polygon fill="#FFFFFF" points="453.881,73.669 454.961,70.337 457.072,71.024 455.986,74.352 		"/>
		
			<rect x="472.355" y="14.776" transform="matrix(0.3084 -0.9512 0.9512 0.3084 313.0664 461.5906)" fill="#FFFFFF" width="3.28" height="1.411"/>
		<polygon fill="#FFFFFF" points="458.558,74.977 459.103,71.526 461.491,71.906 460.95,75.356 		"/>
		
			<rect x="467.724" y="13.813" transform="matrix(0.157 -0.9876 0.9876 0.157 381.4434 475.7058)" fill="#FFFFFF" width="3.297" height="1.21"/>
		<rect x="464.189" y="12.401" fill="#FFFFFF" width="1.008" height="3.312"/>
		<rect x="463.381" y="72.071" fill="#FFFFFF" width="2.627" height="3.486"/>
		<polygon fill="#FFFFFF" points="459.316,12.859 460.191,12.719 460.708,16.008 459.84,16.146 		"/>
		
			<rect x="467.962" y="71.685" transform="matrix(0.9878 -0.1557 0.1557 0.9878 -5.7062 74.0003)" fill="#FFFFFF" width="2.822" height="3.458"/>
		<polygon fill="#FFFFFF" points="454.594,14.057 455.279,13.833 456.314,17.012 455.616,17.238 		"/>
		
			<rect x="472.381" y="70.617" transform="matrix(0.9509 -0.3096 0.3096 0.9509 0.8902 150.2843)" fill="#FFFFFF" width="3.022" height="3.441"/>
		<polygon fill="#FFFFFF" points="476.036,69.802 478.92,68.333 480.467,71.382 477.594,72.848 		"/>
		
			<rect x="450.851" y="15.638" transform="matrix(0.8903 -0.4554 0.4554 0.8903 41.6 207.3251)" fill="#FFFFFF" width="0.525" height="3.364"/>
		<polygon fill="#FFFFFF" points="479.865,67.78 482.638,65.76 484.638,68.518 481.865,70.531 		"/>
		
			<rect x="446.93" y="18.092" transform="matrix(0.8103 -0.586 0.586 0.8103 73.2273 265.7815)" fill="#FFFFFF" width="0.405" height="3.388"/>
		<path fill="#FFFFFF" d="M481.752,57.424c0.491,0,0.879,0.384,0.879,0.865c0,0.492-0.388,0.871-0.888,0.871
			c-0.491,0-0.889-0.379-0.889-0.871c0-0.481,0.396-0.865,0.889-0.865H481.752z M481.74,57.602c-0.383,0-0.668,0.309-0.668,0.688
			c0,0.386,0.285,0.689,0.68,0.689c0.373,0.006,0.656-0.306,0.656-0.689c0-0.379-0.283-0.688-0.664-0.688H481.74z M481.603,58.738
			h-0.199v-0.859c0.08-0.02,0.189-0.034,0.336-0.034c0.164,0,0.234,0.026,0.297,0.069c0.054,0.039,0.084,0.105,0.084,0.185
			c0,0.102-0.071,0.172-0.182,0.207v0.012c0.088,0.027,0.137,0.092,0.16,0.211c0.024,0.133,0.047,0.184,0.061,0.211h-0.213
			c-0.027-0.035-0.039-0.109-0.065-0.207c-0.021-0.094-0.074-0.137-0.181-0.137h-0.098V58.738L481.603,58.738z M481.611,58.252
			h0.094c0.113,0,0.203-0.037,0.203-0.125c0-0.082-0.059-0.135-0.186-0.135l-0.111,0.012V58.252z"/>
	</g>
</g>
<g>
	<g>
		<path fill="#FFFFFF" d="M77.806,38.293c-21.267,0-42.439,0-63.713,0c0-0.353,0-0.658,0-0.965c0-8.206,0.041-16.412-0.029-24.616
			c-0.014-1.611,1.523-3.049,3.016-3.047C36.35,9.706,55.622,9.691,74.896,9.694c1.645,0,2.941,1.207,2.941,2.779
			c0.012,8.425,0.004,16.852,0,25.275C77.838,37.904,77.82,38.058,77.806,38.293z M23.017,24.452
			c-0.465-0.022-1.092-0.227-1.547-0.028c-0.437,0.192-0.691,0.797-1.021,1.21c-0.729-1.233-0.729-1.233-1.19-1.126
			c0,0.76,0,1.494,0,2.231c0.069,0.002,0.145,0.005,0.213,0.009c0.065-0.327,0.133-0.653,0.217-1.102
			c0.305,0.473,0.529,0.825,0.83,1.297c0.275-0.559,0.457-0.934,0.705-1.429c0.07,0.508,0.127,0.862,0.176,1.189
			c0.621,0,1.146,0,1.619,0C23.017,25.921,23.017,25.221,23.017,24.452z M26.288,26.036c-0.002,0.081-0.008,0.163-0.014,0.245
			c-0.336,0.028-0.668,0.058-1.004,0.086c-0.002,0.106-0.008,0.213-0.008,0.32c0.422,0,0.844,0,1.266,0c0.474,0,0.945,0,1.383,0
			c0-0.755,0-1.48,0-2.243c-0.524-0.033-1.094-0.138-1.645-0.075c-0.348,0.039-0.664,0.329-0.994,0.507
			c0.184,0.287,0.355,0.59,0.572,0.855C25.95,25.866,26.138,25.936,26.288,26.036z M66.267,24.37
			c-0.258,0.024-0.516,0.051-0.748,0.072c0,0.719,0,1.346,0,1.974c-0.135,0.006-0.268,0.014-0.404,0.02
			c-0.021-0.355-0.127-0.734-0.039-1.062c0.177-0.664-0.053-0.96-0.698-0.997c-0.271-0.016-0.543-0.004-0.783-0.004
			c0,0.857,0,1.617,0,2.377c0.062,0.004,0.127,0.008,0.19,0.013c0.105-0.281,0.218-0.563,0.382-1
			c0.493,1.059,1.245,1.163,2.102,0.958C66.267,25.952,66.267,25.229,66.267,24.37z M51.497,24.402c0,0.727,0,1.366,0,2.004
			c-0.077,0.013-0.155,0.025-0.229,0.039c-0.203-0.544-0.4-1.09-0.604-1.633c-0.168-0.442-0.571-0.687-0.823-0.268
			c-0.388,0.649-0.56,1.428-0.806,2.105c0.65-0.122,1.119-0.322,1.562-0.267c0.561,0.07,1.098,0.349,1.672,0.545
			c0-1.01,0-1.756,0-2.527C52.029,24.402,51.784,24.402,51.497,24.402z M58.736,26.875c0.062-0.066,0.123-0.136,0.185-0.205
			c0-0.761,0-1.521,0-2.281c-0.082,0.003-0.162,0.005-0.238,0.007c-0.058,0.369-0.105,0.736-0.168,1.169
			c-0.504-0.47-0.935-0.871-1.486-1.385c0,1.073,0,1.814,0,2.558c0.094,0.011,0.188,0.021,0.281,0.032
			c0.078-0.429,0.162-0.854,0.26-1.366C57.986,25.927,58.363,26.401,58.736,26.875z M31.09,26.741
			c0.094-0.002,0.186-0.005,0.278-0.007c0.058-0.396,0.115-0.793,0.189-1.263c0.49,0.521,0.891,0.957,1.465,1.565
			c0-1.111,0-1.877,0-2.644c-0.092-0.011-0.186-0.02-0.279-0.028c-0.078,0.434-0.149,0.867-0.233,1.324
			c-0.584-0.316-0.554-1.368-1.42-1.292C31.09,25.256,31.09,25.999,31.09,26.741z M72.497,27.036
			c0.058-0.127,0.109-0.252,0.162-0.378c0.025-0.515,0.111-1.037,0.047-1.537c-0.036-0.265-0.303-0.609-0.551-0.706
			c-0.307-0.123-0.701-0.029-1.024-0.029c0,0.867,0,1.609,0,2.355c0.077,0.018,0.155,0.034,0.233,0.053
			c0.119-0.288,0.238-0.575,0.476-1.14C72.111,26.227,72.302,26.632,72.497,27.036z M41.926,25.367
			c0.514,0.574,0.93,1.038,1.485,1.66c0-1.106,0-1.873,0-2.64c-0.088-0.006-0.18-0.012-0.27-0.018
			c-0.066,0.41-0.129,0.82-0.203,1.282c-0.469-0.51-0.871-0.947-1.424-1.55c0,1.103,0,1.867,0,2.63
			c0.092,0.008,0.182,0.016,0.27,0.022C41.829,26.327,41.872,25.899,41.926,25.367z M36.568,26.75
			c0.801,0.055,1.557,0.139,1.902-0.631c0.153-0.348,0.18-1.051-0.027-1.202c-0.49-0.361-1.146-0.493-1.875-0.768
			C36.568,25.198,36.568,25.934,36.568,26.75z M54.323,26.788c0.035-0.646,0.123-1.201,0.068-1.741
			c-0.025-0.235-0.305-0.556-0.539-0.634c-0.324-0.107-0.711-0.027-1.025-0.027c0,0.865,0,1.608,0,2.354
			c0.072,0.011,0.144,0.021,0.216,0.034c0.104-0.284,0.209-0.568,0.327-0.891C53.736,26.228,54.058,26.534,54.323,26.788z
			 M40.988,26.508c-0.178-0.494-0.399-1.135-0.637-1.771c-0.182-0.511-0.58-0.547-0.799-0.137c-0.349,0.651-0.543,1.385-0.734,1.906
			C39.594,26.508,40.249,26.508,40.988,26.508z M30.54,25.383c0-0.522-0.307-0.994-1.084-1.036c-0.725-0.04-1.231,0.459-1.239,1.21
			c-0.013,0.742,0.364,1.184,1.098,1.262C30.015,26.89,30.519,26.354,30.54,25.383z M62.191,25.222
			c-0.01-0.087-0.025-0.177-0.037-0.265c0.271-0.104,0.551-0.208,0.75-0.285c-0.102-0.334-0.186-0.604-0.262-0.847
			c-0.305,0.246-0.623,0.498-0.955,0.762c0,0.675,0,1.407,0,2.23c0.504-0.049,0.92-0.091,1.334-0.132
			c0.002-0.075,0.002-0.147,0.002-0.223c-0.283-0.104-0.566-0.205-1.035-0.372c0.438-0.25,0.709-0.401,1.111-0.63
			C62.687,25.354,62.441,25.289,62.191,25.222z M68.935,24.389c-0.125,0.014-0.248,0.027-0.367,0.042
			c0.07,0.753-0.373,1.622,0.406,2.199c0.258,0.191,1.018,0.105,1.234-0.135c0.549-0.61,0.319-1.388,0.049-2.117
			c-0.207,0.254-0.213,0.535-0.299,0.792c-0.125,0.387-0.308,0.756-0.468,1.133c-0.146-0.396-0.313-0.787-0.442-1.189
			C68.974,24.885,68.97,24.632,68.935,24.389z M17.331,24.394c0,0.813,0,1.55,0,2.409c0.5-0.039,0.937-0.071,1.373-0.105
			c0.002-0.079,0.004-0.158,0.004-0.237c-0.282-0.1-0.573-0.197-1.065-0.364c0.451-0.247,0.721-0.396,1.084-0.598
			c-0.381-0.144-0.633-0.24-1.094-0.413c0.471-0.228,0.744-0.358,1.02-0.49c-0.01-0.066-0.022-0.135-0.037-0.2
			C18.189,24.394,17.763,24.394,17.331,24.394z M66.743,26.813c0.543-0.043,0.972-0.079,1.398-0.115
			c0.004-0.07,0.006-0.141,0.012-0.213c-0.289-0.104-0.58-0.208-1.065-0.384c0.438-0.247,0.704-0.399,1.055-0.598
			c-0.367-0.147-0.623-0.249-1.084-0.434c0.479-0.207,0.744-0.324,1.012-0.441c-0.012-0.055-0.021-0.108-0.033-0.165
			c-0.422,0-0.846,0-1.293,0C66.743,25.219,66.743,25.933,66.743,26.813z M34.075,24.912c0.398-0.1,0.683-0.172,0.974-0.242
			c-0.031-0.123-0.058-0.246-0.088-0.368c-0.437,0.131-1.08,0.126-1.271,0.417c-0.58,0.896,0.658,0.886,0.939,1.538
			c-0.412,0.049-0.754,0.088-1.31,0.151c0.676,0.544,1.293,0.597,1.644,0.138C35.659,25.639,34.49,25.51,34.075,24.912z
			 M43.859,26.374c0.553,0.661,1.178,0.603,1.525,0.182c0.766-0.924-0.574-1.032-0.816-1.648c0.328-0.095,0.609-0.175,0.889-0.257
			c-0.03-0.116-0.061-0.233-0.092-0.35c-0.422,0.114-1.037,0.093-1.229,0.368c-0.638,0.91,0.645,0.939,0.914,1.614
			C44.656,26.312,44.345,26.337,43.859,26.374z M23.105,26.372c0.688,0.588,1.295,0.631,1.658,0.184
			c0.738-0.926-0.566-1.042-0.853-1.662c0.355-0.083,0.646-0.152,0.938-0.222c-0.017-0.108-0.033-0.22-0.051-0.328
			c-0.427,0.084-1.021,0.021-1.24,0.278c-0.801,0.96,0.66,0.961,0.84,1.668C24.017,26.313,23.704,26.333,23.105,26.372z
			 M59.454,24.442c1.285,0.463,0.244,1.731,0.941,2.446c0.227-0.887,0.424-1.663,0.627-2.446
			C60.635,24.442,60.045,24.442,59.454,24.442z M47.435,26.2c0-0.587,0-1.193,0-1.8c-0.133-0.008-0.258-0.016-0.385-0.024
			c-0.236,0.746-0.154,1.527-0.049,2.428c0.479-0.048,0.895-0.086,1.309-0.128c0-0.075,0-0.152-0.004-0.229
			C48.051,26.374,47.793,26.301,47.435,26.2z M56.465,26.762c0-0.854,0-1.576,0-2.375c-0.229,0.016-0.48,0.032-0.668,0.044
			c0,0.804,0,1.508,0,2.281C55.991,26.728,56.219,26.744,56.465,26.762z"/>
		<path fill="#FFFFFF" d="M77.758,63.733c-11.267,0-22.5,0-33.787,0c0-8.185,0-16.315,0-24.521c11.233,0,22.473,0,33.787,0
			C77.758,47.324,77.758,55.48,77.758,63.733z M63.34,59.528c-0.185-0.477-0.3-0.799-0.431-1.115
			c-1.7-4.116-3.401-8.23-5.106-12.344c-0.863-2.078-0.863-2.045-3.125-2.086c-0.711-0.014-1.019,0.231-1.281,0.885
			c-1.877,4.586-3.797,9.152-5.699,13.728c-0.114,0.271-0.188,0.555-0.324,0.934c1.117,0,2.091-0.027,3.06,0.014
			c0.543,0.023,0.766-0.196,0.928-0.692c0.308-0.945,0.439-2.248,1.115-2.696c0.729-0.484,1.992-0.176,3.025-0.18
			c0.907-0.004,2.059-0.289,2.653,0.155c0.631,0.474,0.742,1.649,1.072,2.524c0.061,0.145,0.062,0.336,0.166,0.434
			c0.18,0.177,0.404,0.414,0.621,0.423C61.075,59.552,62.142,59.528,63.34,59.528z M70.349,57.215c0-1.293,0-2.477,0-3.758
			c1.283,0,2.492,0,3.729,0c0-0.961,0-1.819,0-2.805c-1.266,0-2.473,0-3.77,0c0-1.396,0-2.668,0-3.969c-1.043,0-1.996,0-3.039,0
			c0,1.336,0,2.61,0,3.996c-1.299,0-2.508,0-3.746,0c0,0.977,0,1.838,0,2.797c1.266,0,2.478,0,3.785,0c0,1.305,0,2.512,0,3.738
			C68.351,57.215,69.279,57.215,70.349,57.215z"/>
		<path fill="#FFFFFF" d="M43.097,39.199c0,11.418,0,22.754,0,34.22c-0.361,0-0.695,0-1.029,0c-8.168,0-16.336,0.002-24.51,0
			c-2.262,0-3.461-1.189-3.461-3.429c-0.004-9.896-0.004-19.795-0.004-29.693c0-0.342,0-0.686,0-1.099
			C23.771,39.199,33.392,39.199,43.097,39.199z M18.588,53.527c0,0.348,0,0.686,0,1.025c0,4.369,0.021,8.74-0.021,13.109
			c-0.008,0.877,0.244,1.123,1.119,1.115c6.006-0.035,12.01-0.018,18.014-0.018c1.22,0,1.222-0.002,1.228-1.271
			c0-4.307,0-8.613,0-12.922c0-0.359,0-0.721,0-1.068c0.752-0.062,1.344-0.108,2.098-0.17c-0.217-0.299-0.266-0.42-0.357-0.485
			c-3.709-2.695-7.411-5.396-11.146-8.06c-0.217-0.152-0.699-0.09-0.982,0.031c-0.395,0.17-0.723,0.494-1.082,0.75
			c-0.879,0.629-1.754,1.258-2.497,1.789c-0.308-0.515-0.496-1.211-0.791-1.258c-0.937-0.148-1.914-0.056-2.966-0.056
			c0,0.508-0.055,0.892,0.013,1.25c0.391,2.082-0.363,3.531-2.281,4.459c-0.643,0.312-1.164,0.873-1.742,1.318
			c0.027,0.082,0.051,0.16,0.08,0.242C17.677,53.379,18.088,53.445,18.588,53.527z"/>
		<path fill="#FFFFFF" d="M69.611,73.074c0-3.008,0-5.883,0-8.805c2.668,0,5.291,0,8.039,0c0,1.033-0.02,2.057,0.006,3.082
			c0.025,1.117,0.062,2.234,0.15,3.352c0.084,1.123-1.223,2.414-2.357,2.384C73.54,73.035,71.624,73.074,69.611,73.074z
			 M75.65,67.052c-0.154-0.349-0.188-0.642-0.342-0.73c-1.148-0.676-3.215,0.258-3.545,1.578c-0.224,0.883,0.014,1.617,0.77,2.146
			c0.638,0.448,2.363,0.59,2.797,0.211c0.146-0.134,0.148-0.431,0.234-0.716c-1,0.132-1.922,0.435-2.492-0.43
			c-0.223-0.342-0.258-1.004-0.084-1.379C73.488,66.677,74.519,67.018,75.65,67.052z"/>
		<path fill="#FFFFFF" d="M52.624,73.001c0-2.945,0-5.796,0-8.716c2.65,0,5.273,0,7.97,0c0,2.869,0,5.767,0,8.716
			C57.956,73.001,55.338,73.001,52.624,73.001z M59.015,70.324c-0.601-1.28-1.144-2.504-1.74-3.703
			c-0.266-0.53-0.994-0.534-1.258-0.008c-0.605,1.22-1.162,2.465-1.742,3.72c0.66,0.155,1.098,0.141,1.354-0.544
			c0.186-0.504,1.813-0.516,2.006-0.014C57.888,70.442,58.306,70.501,59.015,70.324z"/>
		<path fill="#FFFFFF" d="M48.677,70.083c-0.535-1.179-1.049-2.367-1.613-3.533c-0.223-0.457-0.947-0.404-1.195,0.088
			c-0.446,0.887-0.84,1.801-1.266,2.697c-0.125,0.256-0.297,0.489-0.629,0.657c0-1.887,0-3.774,0-5.719c2.703,0,5.385,0,8.141,0
			c0,2.894,0,5.789,0,8.734c-2.707,0-5.395,0-8.143,0c0-0.883,0-1.746,0-2.685c0.627-0.039,1.295,0.039,1.61-0.812
			c0.156-0.426,1.566-0.168,1.898,0.215c0.25,0.281,0.611,0.465,0.918,0.691C48.491,70.309,48.583,70.196,48.677,70.083z
			 M50.575,67.708c-0.112-0.855-0.112-0.855-0.828-0.742c-0.021,0.299-0.047,0.602-0.062,0.823
			c-0.414,0.177-0.752,0.316-1.092,0.457c0.35,0.173,0.692,0.349,1.071,0.543c0.099,0.851,0.099,0.851,0.791,0.806
			c0.052-0.322,0.099-0.648,0.125-0.836c0.429-0.181,0.74-0.312,1.054-0.443C51.331,68.141,51.029,67.969,50.575,67.708z"/>
		<path fill="#FFFFFF" d="M61.163,64.25c2.671,0,5.271,0,7.937,0c0,2.904,0,5.779,0,8.73c-2.607,0-5.23,0-7.937,0
			C61.163,70.119,61.163,67.223,61.163,64.25z M66.385,68.003c0.067-0.252,0.362-0.738,0.237-1.062
			c-0.12-0.307-0.659-0.576-1.047-0.631c-0.725-0.098-1.473-0.027-2.186-0.027c0,1.445,0,2.773,0,4.119
			c0.733,0,1.416,0.115,2.039-0.033c0.522-0.125,1.164-0.453,1.397-0.883C66.991,69.184,66.568,68.557,66.385,68.003z"/>
		<path fill="#FFFFFF" d="M46.435,67.071c0.287,0.707,0.477,1.181,0.703,1.742c-0.486,0-0.863,0-1.381,0
			C45.965,68.278,46.156,67.789,46.435,67.071z"/>
		<path fill="#FFFFFF" d="M37.12,26.205c0-0.456,0-0.911,0-1.368c0.082-0.051,0.166-0.103,0.248-0.154
			c0.226,0.285,0.619,0.561,0.64,0.855c0.014,0.283-0.371,0.583-0.582,0.876C37.322,26.344,37.222,26.275,37.12,26.205z"/>
		<path fill="#FFFFFF" d="M28.488,25.524c0.438-0.338,0.693-0.532,0.943-0.728c0.184,0.275,0.5,0.546,0.512,0.83
			c0.01,0.219-0.379,0.655-0.549,0.636C29.135,26.23,28.909,25.892,28.488,25.524z"/>
		<path fill="#FFFFFF" d="M55.284,47.402c0.787,2.148,1.479,4.043,2.193,5.998c-1.49,0-2.861,0-4.363,0
			C53.82,51.457,54.497,49.572,55.284,47.402z"/>
		<path fill="#FFFFFF" d="M24.013,46.531c0.076,0.699,0.141,1.262,0.227,2.043c1.457-1.053,2.746-1.93,3.972-2.891
			c0.618-0.488,1.047-0.474,1.686,0.004c2.922,2.174,5.887,4.285,8.834,6.424c0.223,0.162,0.424,0.35,0.805,0.666
			c-1.161-0.043-1.176,0.584-1.17,1.332c0.027,4.305,0.017,8.61,0.017,12.915c0,0.342,0,0.685,0,1.131c-3.693,0-7.322,0-11.011,0
			c0-1.502,0-3.088,0-4.674c0.056-0.01,0.107-0.019,0.162-0.027c0.058,0.621,0.117,1.242,0.183,1.938
			c0.819-1.188,0.389-2.854-0.781-3.224c0.076-0.203,0.258-0.453,0.197-0.59c-0.132-0.289-0.396-0.52-0.604-0.772
			c-0.211,0.254-0.471,0.479-0.602,0.77c-0.08,0.185,0.026,0.457,0.049,0.691c-0.094,0.008-0.185,0.016-0.277,0.022
			c-0.067-0.562,0.025-1.233-0.256-1.658c-0.271-0.405-0.928-0.557-1.467-0.846c0.35-0.414,0.908-1.026,0.09-1.578
			c-0.262-0.18-1.156,0.013-1.174,0.129c-0.08,0.509,0.053,1.052,0.119,1.677c0,0-0.322-0.074-0.521,0.043
			c-0.369,0.219-0.912,0.521-0.951,0.844c-0.125,1.02-0.061,2.063-0.045,3.1c0,0.117,0.16,0.232,0.336,0.459
			c0.681-0.938,0.111-1.967,0.578-2.84c0,2.142,0,4.281,0,6.511c-1.002,0-2.069,0-3.26,0c0-0.39,0-0.756,0-1.125
			c0-4.369,0.01-8.736-0.008-13.104c-0.004-0.402-0.176-0.805-0.31-1.381c0.558-0.412,1.281-1.015,2.074-1.498
			c0.68-0.418,0.92-0.945,0.854-1.715c-0.05-0.656,0.021-1.32-0.015-1.979c-0.037-0.615,0.191-0.856,0.81-0.803
			C23.017,46.566,23.484,46.531,24.013,46.531z M33.519,57.44c0.777,0.111,1.518,0.381,2.203,0.274
			c1.141-0.168,1.965-1.405,1.979-2.633c0.017-1.276-0.678-2.117-2.03-2.551c-0.271-0.086-0.642-0.301-0.705-0.527
			c-0.4-1.358-1.326-2.071-2.658-2.312c-1.465-0.271-2.629,0.199-3.521,1.414c-0.146,0.207-0.545,0.369-0.799,0.34
			c-1.309-0.152-2.403,0.07-3.113,1.328c-0.12,0.215-0.473,0.352-0.741,0.426c-1.134,0.316-1.754,1.07-1.668,2.086
			c0.116,1.407,0.678,1.989,2.008,2.129c0.256,0.025,0.574,0.06,0.752,0.215c1.619,1.431,2.535,1.312,3.697-0.51
			C30.208,59.461,32.17,59.543,33.519,57.44z"/>
		<path fill="#FFFFFF" d="M24.997,61.617c0,1.234,0,2.465,0,3.697c0.117,0.014,0.234,0.029,0.354,0.045
			c0.098-0.434,0.201-0.867,0.301-1.301c0.029,0.002,0.058,0.008,0.084,0.01c0,1.332,0,2.666,0,4.068c-0.35,0-0.666,0-1.076,0
			c0-2.099,0-4.16,0.004-6.228c0-0.102,0.044-0.201,0.068-0.301C24.82,61.613,24.909,61.615,24.997,61.617z"/>
		<path fill="#FFFFFF" d="M23.594,64.302c0,1.266,0,2.531,0,3.801c-0.058-0.004-0.115-0.004-0.168-0.004c0-1.262,0-2.527,0-3.789
			C23.478,64.305,23.536,64.302,23.594,64.302z"/>
		<path fill="#FFFFFF" d="M26.433,68.173c0-0.906,0-1.812,0-2.72c0.057,0,0.111,0.005,0.17,0.005c0,0.903,0,1.809,0,2.715
			C26.545,68.173,26.49,68.173,26.433,68.173z"/>
		<path fill="#FFFFFF" d="M56.624,67.134c0.265,0.646,0.439,1.069,0.646,1.582c-0.451,0-0.828,0-1.293,0
			C56.187,68.214,56.368,67.764,56.624,67.134z"/>
		<path fill="#FFFFFF" d="M64.357,69.927c0-0.582,0-0.91,0-1.469c0.525,0.168,0.967,0.284,1.391,0.461
			c0.062,0.024,0.062,0.452-0.008,0.487C65.333,69.6,64.898,69.731,64.357,69.927z"/>
		<path fill="#FFFFFF" d="M64.357,68.117c0-0.543,0-0.815,0-1.28c0.414,0.096,0.785,0.151,1.127,0.284
			c0.082,0.029,0.127,0.445,0.07,0.478C65.232,67.781,64.872,67.906,64.357,68.117z"/>
		<path fill="#FFFFFF" d="M32.345,50.91c-0.344,0.328-0.558,0.527-0.767,0.728c-0.207-0.226-0.465-0.427-0.592-0.691
			c-0.035-0.072,0.322-0.465,0.51-0.471C31.732,50.465,31.972,50.703,32.345,50.91z"/>
		<path fill="#FFFFFF" d="M30.952,55.621c-0.229-0.414-0.457-0.651-0.463-0.895c-0.008-0.164,0.34-0.5,0.453-0.474
			c0.226,0.06,0.56,0.316,0.56,0.492C31.497,54.982,31.226,55.215,30.952,55.621z"/>
		<path fill="#FFFFFF" d="M25.302,55.566c-0.336,0.277-0.539,0.574-0.709,0.557c-0.248-0.021-0.474-0.271-0.707-0.426
			c0.201-0.182,0.381-0.457,0.615-0.516C24.677,55.136,24.926,55.371,25.302,55.566z"/>
		<path fill="#FFFFFF" d="M26.995,53.961c-0.243-0.381-0.528-0.635-0.512-0.854c0.023-0.199,0.385-0.363,0.592-0.543
			c0.164,0.194,0.47,0.397,0.457,0.578C27.513,53.379,27.247,53.601,26.995,53.961z"/>
		<path fill="#FFFFFF" d="M35.532,54.101c-0.377,0.315-0.567,0.602-0.807,0.641c-0.137,0.023-0.451-0.32-0.482-0.533
			c-0.024-0.157,0.259-0.506,0.425-0.521C34.89,53.672,35.135,53.894,35.532,54.101z"/>
		<path fill="#FFFFFF" d="M27.219,56.25c0.225,0.372,0.465,0.595,0.434,0.771c-0.035,0.188-0.35,0.477-0.5,0.453
			c-0.188-0.027-0.453-0.316-0.471-0.515C26.665,56.789,26.947,56.593,27.219,56.25z"/>
		<path fill="#FFFFFF" d="M35.907,55.668c0.271,0.3,0.531,0.463,0.56,0.661c0.021,0.137-0.289,0.461-0.438,0.449
			c-0.219-0.016-0.422-0.25-0.631-0.395C35.536,56.189,35.677,55.992,35.907,55.668z"/>
	</g>
	<rect x="15.939" y="22.786" fill="#FFFFFF" width="58.568" height="7"/>
</g>
<g>
	<polygon fill="#887243" points="19.217,27.112 17.782,27.112 17.782,24.681 19.156,24.681 19.156,25.106 18.299,25.106 
		18.299,25.68 19.103,25.68 19.103,26.101 18.299,26.101 18.299,26.687 19.217,26.687 	"/>
	<path fill="#887243" d="M21.836,27.112v-1.474c0-0.139,0.01-0.31,0.022-0.516h-0.014l-0.078,0.313l-0.598,1.675h-0.412
		l-0.607-1.659c-0.012-0.039-0.039-0.149-0.078-0.329h-0.014c0.014,0.206,0.021,0.409,0.021,0.614v1.374h-0.465V24.68h0.754
		l0.521,1.469l0.09,0.344h0.014l0.103-0.344l0.522-1.469h0.732v2.431L21.836,27.112L21.836,27.112z"/>
	<polygon fill="#887243" points="23.638,25.084 23.429,25.084 23.429,26.708 23.638,26.708 23.638,27.112 22.708,27.112 
		22.708,26.708 22.911,26.708 22.911,25.084 22.708,25.084 22.708,24.683 23.638,24.683 	"/>
	<path fill="#887243" d="M23.881,26.502c0.194,0.16,0.418,0.24,0.668,0.24l0.317-0.072l0.107-0.187l-0.086-0.188
		c-0.056-0.061-0.203-0.137-0.449-0.239c-0.373-0.159-0.566-0.392-0.566-0.699c0-0.229,0.084-0.403,0.259-0.527
		c0.176-0.125,0.397-0.188,0.68-0.188c0.234,0,0.438,0.031,0.598,0.092v0.487c-0.16-0.113-0.354-0.165-0.571-0.165l-0.304,0.066
		l-0.114,0.188l0.084,0.175c0.047,0.05,0.174,0.122,0.379,0.211c0.243,0.104,0.405,0.214,0.5,0.329l0.139,0.411
		c0,0.23-0.086,0.409-0.248,0.532c-0.17,0.122-0.404,0.185-0.707,0.185c-0.279,0-0.506-0.044-0.684-0.138L23.881,26.502
		L23.881,26.502z"/>
	<path fill="#887243" d="M25.814,26.502c0.193,0.16,0.418,0.24,0.662,0.24l0.316-0.072l0.11-0.187l-0.084-0.188
		c-0.059-0.061-0.205-0.137-0.447-0.239c-0.381-0.159-0.573-0.392-0.573-0.699c0-0.229,0.092-0.403,0.266-0.527
		c0.168-0.125,0.396-0.188,0.68-0.188c0.238,0,0.435,0.031,0.603,0.092v0.487c-0.168-0.113-0.357-0.165-0.576-0.165l-0.305,0.066
		l-0.115,0.188l0.08,0.175c0.047,0.05,0.178,0.122,0.385,0.211c0.244,0.104,0.404,0.214,0.496,0.329l0.137,0.411
		c0,0.23-0.08,0.409-0.248,0.532c-0.164,0.122-0.397,0.185-0.703,0.185c-0.278,0-0.504-0.044-0.682-0.138L25.814,26.502
		L25.814,26.502z"/>
	<polygon fill="#887243" points="28.579,25.084 28.368,25.084 28.368,26.708 28.579,26.708 28.579,27.112 27.646,27.112 
		27.646,26.708 27.849,26.708 27.849,25.084 27.646,25.084 27.646,24.683 28.579,24.683 	"/>
	<path fill="#887243" d="M28.779,25.929c0-0.379,0.111-0.691,0.336-0.931c0.219-0.238,0.51-0.356,0.877-0.356
		c0.347,0,0.625,0.116,0.838,0.346c0.211,0.233,0.318,0.526,0.318,0.89c0,0.382-0.107,0.686-0.328,0.924
		c-0.221,0.235-0.51,0.354-0.869,0.354c-0.348,0-0.627-0.112-0.846-0.343C28.888,26.583,28.779,26.288,28.779,25.929 M29.327,25.904
		c0,0.23,0.05,0.425,0.168,0.576c0.107,0.147,0.271,0.226,0.472,0.226c0.201,0,0.356-0.069,0.469-0.218
		c0.109-0.143,0.172-0.332,0.172-0.577c0-0.252-0.055-0.453-0.172-0.602c-0.104-0.146-0.258-0.219-0.457-0.219
		c-0.203,0-0.361,0.073-0.477,0.224C29.377,25.469,29.327,25.666,29.327,25.904"/>
	<path fill="#887243" d="M33.72,27.112h-0.537l-1.023-1.571l-0.114-0.196h-0.009c0.009,0.084,0.015,0.211,0.015,0.389v1.38h-0.492
		v-2.431h0.562l0.99,1.524l0.121,0.194h0.012c-0.012-0.056-0.012-0.168-0.012-0.334v-1.386h0.488V27.112L33.72,27.112z"/>
	<path fill="#887243" d="M34.172,26.502c0.192,0.16,0.422,0.24,0.668,0.24l0.315-0.072l0.107-0.187l-0.086-0.188
		c-0.058-0.061-0.203-0.137-0.447-0.239c-0.379-0.159-0.57-0.392-0.57-0.699c0-0.229,0.088-0.403,0.261-0.527
		c0.174-0.125,0.397-0.188,0.682-0.188c0.236,0,0.436,0.031,0.598,0.092v0.487c-0.162-0.113-0.354-0.165-0.573-0.165l-0.302,0.066
		l-0.116,0.188l0.077,0.175c0.056,0.05,0.183,0.122,0.392,0.211c0.24,0.104,0.399,0.214,0.494,0.329l0.137,0.411
		c0,0.23-0.084,0.409-0.248,0.532c-0.162,0.122-0.402,0.185-0.703,0.185c-0.283,0-0.504-0.044-0.684-0.138L34.172,26.502
		L34.172,26.502z"/>
	<path fill="#887243" d="M37.172,27.112v-2.431h0.838c0.862,0,1.293,0.396,1.293,1.187c0,0.373-0.125,0.677-0.363,0.905
		c-0.24,0.227-0.555,0.339-0.93,0.339H37.172z M37.687,25.106v1.581h0.283c0.244,0,0.438-0.07,0.578-0.22
		c0.137-0.145,0.209-0.342,0.209-0.592c0-0.246-0.072-0.431-0.218-0.568c-0.149-0.135-0.34-0.201-0.569-0.201H37.687z"/>
	<path fill="#887243" d="M41.767,27.112h-0.564l-0.186-0.559h-0.883l-0.176,0.559h-0.562l0.885-2.429h0.615L41.767,27.112z
		 M40.898,26.156l-0.277-0.844l-0.039-0.209h-0.014l-0.037,0.2l-0.276,0.853H40.898z"/>
	<path fill="#887243" d="M44.23,27.112H43.7l-1.024-1.571l-0.117-0.196h-0.006c0.006,0.084,0.012,0.211,0.012,0.389v1.38h-0.492
		v-2.431h0.566l0.985,1.524l0.128,0.194h0.006c-0.015-0.056-0.017-0.168-0.017-0.334v-1.386h0.488V27.112L44.23,27.112z"/>
	<path fill="#887243" d="M44.683,26.502c0.199,0.16,0.42,0.24,0.668,0.24l0.318-0.072l0.104-0.187l-0.084-0.188
		c-0.053-0.061-0.207-0.137-0.451-0.239c-0.373-0.159-0.563-0.392-0.563-0.699c0-0.229,0.082-0.403,0.264-0.527
		c0.164-0.125,0.395-0.188,0.672-0.188c0.244,0,0.438,0.031,0.603,0.092v0.487c-0.168-0.113-0.357-0.165-0.574-0.165l-0.303,0.066
		l-0.111,0.188l0.078,0.175c0.049,0.05,0.182,0.122,0.385,0.211c0.238,0.104,0.406,0.214,0.5,0.329l0.135,0.411
		c0,0.23-0.084,0.409-0.25,0.532c-0.164,0.122-0.399,0.185-0.699,0.185c-0.278,0-0.51-0.044-0.688-0.138v-0.515H44.683z"/>
	<polygon fill="#887243" points="49.107,27.112 47.685,27.112 47.685,24.681 48.198,24.681 48.198,26.687 49.107,26.687 	"/>
	<polygon fill="#887243" points="49.804,24.642 49.49,25.393 49.176,25.393 49.365,24.642 	"/>
	<path fill="#887243" d="M52.116,27.112h-0.565l-0.181-0.559H50.49l-0.18,0.559h-0.562l0.886-2.429h0.608L52.116,27.112z
		 M51.247,26.156l-0.272-0.844l-0.043-0.209H50.92l-0.048,0.2l-0.27,0.853H51.247z"/>
	<polygon fill="#887243" points="53.15,25.084 52.939,25.084 52.939,26.708 53.15,26.708 53.15,27.112 52.217,27.112 52.217,26.708 
		52.418,26.708 52.418,25.084 52.217,25.084 52.217,24.683 53.15,24.683 	"/>
	<path fill="#887243" d="M55.502,27.114h-0.599l-0.375-0.634l-0.19-0.251l-0.162-0.058h-0.158v0.941h-0.514v-2.431h0.848
		c0.58,0,0.871,0.217,0.871,0.66c0,0.163-0.053,0.305-0.15,0.424c-0.094,0.119-0.229,0.201-0.395,0.248v0.007
		c0.106,0.036,0.229,0.161,0.367,0.37L55.502,27.114z M54.017,25.078v0.701h0.25l0.295-0.11l0.115-0.264
		c0-0.22-0.133-0.327-0.396-0.327H54.017z"/>
	<polygon fill="#887243" points="57.426,25.084 57.211,25.084 57.211,26.708 57.426,26.708 57.426,27.112 56.495,27.112 
		56.495,26.708 56.691,26.708 56.691,25.084 56.495,25.084 56.495,24.683 57.426,24.683 	"/>
	<path fill="#887243" d="M59.931,27.112h-0.529l-1.024-1.571l-0.119-0.196h-0.006c0.006,0.084,0.014,0.211,0.014,0.389v1.38h-0.49
		v-2.431h0.562l0.993,1.524l0.119,0.194h0.009c-0.009-0.056-0.015-0.168-0.015-0.334v-1.386h0.488L59.931,27.112L59.931,27.112z"/>
	<polygon fill="#887243" points="62.176,25.106 61.482,25.106 61.482,27.112 60.965,27.112 60.965,25.106 60.271,25.106 
		60.271,24.681 62.176,24.681 	"/>
	<polygon fill="#887243" points="63.943,27.112 62.502,27.112 62.502,24.681 63.888,24.681 63.888,25.106 63.021,25.106 
		63.021,25.68 63.823,25.68 63.823,26.101 63.021,26.101 63.021,26.687 63.943,26.687 	"/>
	<path fill="#887243" d="M66.345,27.114h-0.599l-0.379-0.634l-0.19-0.251l-0.16-0.058h-0.158v0.941h-0.517v-2.431h0.854
		c0.576,0,0.863,0.217,0.863,0.66c0,0.163-0.049,0.305-0.146,0.424c-0.094,0.119-0.227,0.201-0.395,0.248v0.007
		c0.106,0.036,0.229,0.161,0.371,0.37L66.345,27.114z M64.859,25.078v0.701h0.252l0.293-0.11l0.113-0.264
		c0-0.22-0.131-0.327-0.396-0.327H64.859z"/>
	<polygon fill="#887243" points="67.306,25.084 67.099,25.084 67.099,26.708 67.306,26.708 67.306,27.112 66.377,27.112 
		66.377,26.708 66.579,26.708 66.579,25.084 66.377,25.084 66.377,24.683 67.306,24.683 	"/>
	<polygon fill="#887243" points="69.099,27.112 67.659,27.112 67.659,24.681 69.04,24.681 69.04,25.106 68.181,25.106 68.181,25.68 
		68.978,25.68 68.978,26.101 68.181,26.101 68.181,26.687 69.099,26.687 	"/>
	<path fill="#887243" d="M71.454,26.067c0,0.723-0.34,1.088-1.008,1.088c-0.649,0-0.979-0.35-0.979-1.059v-1.413h0.52v1.414
		c0,0.403,0.162,0.606,0.479,0.606c0.313,0,0.473-0.191,0.473-0.585v-1.437h0.516L71.454,26.067L71.454,26.067z"/>
	<path fill="#887243" d="M73.988,27.114h-0.594l-0.377-0.634l-0.193-0.251l-0.164-0.058h-0.151v0.941h-0.521v-2.431h0.854
		c0.576,0,0.858,0.217,0.858,0.66c0,0.163-0.043,0.305-0.139,0.424c-0.102,0.119-0.23,0.201-0.398,0.248v0.007
		c0.109,0.036,0.232,0.161,0.369,0.37L73.988,27.114z M72.508,25.078v0.701h0.256l0.291-0.11l0.108-0.264
		c0-0.22-0.131-0.327-0.395-0.327H72.508z"/>
	<polygon fill="#887243" points="75.394,25.319 74.929,25.386 75.261,25.746 74.97,25.951 74.726,25.518 74.491,25.951 74.2,25.746 
		74.532,25.386 74.068,25.319 74.183,24.992 74.611,25.172 74.549,24.683 74.92,24.683 74.849,25.172 75.279,24.992 	"/>
	<polygon fill="#887243" points="18.926,24.048 18.603,24.478 18.299,24.478 18.482,24.048 	"/>
	<polygon fill="#887243" points="63.82,24.048 63.502,24.478 63.191,24.478 63.381,24.048 	"/>
</g>
</svg>
