<?xml version="1.0" encoding="utf-8"?>
<!-- Generator: Adobe Illustrator 16.0.0, SVG Export Plug-In . SVG Version: 6.00 Build 0)  -->
<!DOCTYPE svg PUBLIC "-//W3C//DTD SVG 1.1//EN" "http://www.w3.org/Graphics/SVG/1.1/DTD/svg11.dtd">
<svg version="1.1" id="圖層_1" xmlns="http://www.w3.org/2000/svg" xmlns:xlink="http://www.w3.org/1999/xlink" x="0px" y="0px"
	 width="85.039px" height="85.223px" viewBox="0 0 85.039 85.223" enable-background="new 0 0 85.039 85.223" xml:space="preserve">
<g>
	<path fill="#FFFFFF" d="M45.148,12.311c1.996,0.428,4.066,0.641,5.969,1.318c10.713,3.82,16.93,11.398,18.285,22.716
		c1.264,10.577-4.506,21.19-13.945,26.107c-0.195,0.102-0.398,0.191-0.816,0.395c0.23-0.461,0.357-0.729,0.504-0.991
		c1.535-2.841,3.6-5.262,5.688-7.727c5.75-6.787,7.232-14.631,4.27-23.009c-2.979-8.409-9.08-13.611-17.861-15.298
		c-13.283-2.549-25.867,6.657-27.658,20.041c-1.717,12.833,7.549,24.869,20.357,26.453c3.605,0.444,7.143,0.11,10.57-1.099
		c0.676-0.237,1.141-0.198,1.609,0.357c0.475,0.57,1.025,1.08,1.746,1.822c-1.949,0.571-3.77,1.264-5.643,1.629
		c-14.07,2.746-27.459-5.676-31.064-19.488C13.326,30.883,22.725,15.86,37.598,12.87c1.078-0.217,2.166-0.375,3.254-0.56
		C42.285,12.311,43.715,12.311,45.148,12.311z"/>
	<path fill="#FFFFFF" d="M8.998,43.579c0.92-0.121,1.846-0.242,2.771-0.369c0.492-0.065,0.928-0.074,0.836,0.701
		c-1.023,0.186-2.062,0.391-3.107,0.545c-0.15,0.021-0.332-0.188-0.5-0.291C8.998,43.969,8.998,43.774,8.998,43.579z"/>
	<path fill="#FFFFFF" d="M43.609,38.272c0-4.127,0-8.146,0-12.231c2.646,0,5.273-0.086,7.889,0.036
		c1.311,0.062,2.311,0.866,2.639,2.235c0.34,1.403-0.09,2.281-1.496,3.258c-0.049,0.033-0.064,0.106-0.119,0.193
		c1.314,0.427,2.184,1.235,2.277,2.687c0.08,1.299-0.291,2.491-1.459,3.068c-0.93,0.455-2.043,0.672-3.086,0.723
		C48.086,38.345,45.906,38.272,43.609,38.272z M47.355,35.556c0.922,0,1.762,0.057,2.586-0.017c0.648-0.058,1.062-0.491,1.062-1.178
		c0.004-0.688-0.387-1.112-1.061-1.152c-0.852-0.051-1.713-0.013-2.59-0.013C47.355,34.003,47.355,34.71,47.355,35.556z
		 M47.355,30.801c0.828-0.038,1.594,0.042,2.285-0.155c0.363-0.104,0.791-0.685,0.809-1.068c0.02-0.329-0.457-0.911-0.801-0.982
		c-0.73-0.152-1.512-0.047-2.293-0.047C47.355,29.319,47.355,29.961,47.355,30.801z"/>
	<path fill="#FFFFFF" d="M23.688,38.278c0-4.158,0-8.157,0-12.38c2.555,0.104,5.09,0.047,7.582,0.364
		c1.789,0.229,2.934,1.633,3.26,3.369c0.275,1.445,0.35,2.985,0.182,4.445c-0.254,2.222-1.916,3.699-4.141,4.033
		c-0.512,0.078-1.031,0.153-1.547,0.16C27.27,38.29,25.52,38.278,23.688,38.278z M27.438,35.36c2.672,0.427,3.613-0.357,3.643-2.944
		c0.002-0.325,0.006-0.652-0.02-0.976c-0.154-2.167-1.43-3.069-3.623-2.53C27.438,31.038,27.438,33.177,27.438,35.36z"/>
	<path fill="#FFFFFF" d="M60.666,26.033c0,1.194,0,2.21,0,3.307c0.674,0,1.217,0,1.812,0c0,0.846,0,1.609,0,2.46
		c-0.555,0.03-1.125,0.062-1.775,0.101c0,1.155-0.021,2.287,0.004,3.417c0.012,0.579,0.361,0.787,0.918,0.705
		c0.246-0.037,0.498-0.04,0.828-0.064c0.066,0.753,0.133,1.447,0.219,2.329c-1.32,0-2.576,0.089-3.801-0.031
		c-0.797-0.078-1.332-0.726-1.414-1.539c-0.117-1.189-0.139-2.392-0.189-3.589c-0.016-0.385-0.006-0.771-0.006-1.215
		c-0.4-0.037-0.744-0.069-1.174-0.108c0-0.781,0-1.565,0-2.401c0.369-0.039,0.719-0.075,1.051-0.11
		c0.039-0.071,0.113-0.132,0.104-0.178c-0.23-1.142,0.355-1.706,1.354-2.075C59.25,26.794,59.857,26.429,60.666,26.033z"/>
	<path fill="#FFFFFF" d="M37.123,26.031c1.236,0,2.404,0,3.646,0c0,4.042,0,8.087,0,12.188c-1.195,0-2.383,0-3.646,0
		C37.123,34.165,37.123,30.145,37.123,26.031z"/>
	<path fill="#FFFFFF" d="M53.83,61.852c-1.979-1.892-3.881-3.707-5.771-5.531c-0.121-0.117-0.188-0.344-0.188-0.521
		c-0.02-1.396-0.014-2.793-0.014-4.354c1.809,0.729,3.502,1.414,5.279,2.131c3.078-4.084,6.152-8.162,9.293-12.329
		c0,2.116,0.002,4.083-0.012,6.049c0,0.185-0.088,0.383-0.188,0.547C59.465,52.469,56.689,57.091,53.83,61.852z M61.754,43.063
		c-2.613,3.477-5.246,6.94-7.828,10.442c-0.453,0.615-0.832,0.722-1.516,0.408c-1.279-0.586-2.6-1.076-4.045-1.664
		c0,1.197-0.012,2.197,0.014,3.197c0.004,0.205,0.094,0.465,0.232,0.604c1.664,1.625,3.35,3.234,5.082,4.904
		c0.236-0.381,0.436-0.676,0.613-0.977c2.137-3.561,4.146-7.208,6.465-10.65C62.129,47.321,61.941,45.267,61.754,43.063z"/>
	<path fill="#FFFFFF" d="M24.613,46.677c0,0.836,0,1.638,0,2.509c-0.344,0.016-0.615,0.026-0.938,0.043c0-2.66,0-5.255,0-8.068
		c0.41,0.178,0.727,0.311,1.148,0.489c1.137-0.668,2.299-0.613,3.082,0.254c0.883,0.977,0.965,3.102,0.162,4.219
		C27.297,47.2,26.242,47.384,24.613,46.677z M27.688,44.227c-0.043-0.322-0.07-0.548-0.105-0.771
		c-0.129-0.766-0.486-1.352-1.318-1.448c-0.893-0.104-1.451,0.427-1.611,1.213c-0.133,0.671-0.184,1.455,0.053,2.066
		c0.176,0.453,0.859,0.965,1.332,0.973c0.463,0.013,1.023-0.502,1.389-0.922C27.666,45.063,27.625,44.548,27.688,44.227z"/>
	<path fill="#FFFFFF" d="M45.926,44.352c-0.047,1.02,0.324,1.641,1.113,1.897c0.766,0.246,1.443,0.086,1.965-0.647
		c0.172-0.238,0.576-0.312,1.047-0.552c-0.332,1.666-1.469,2.312-3.102,2.039c-1.439-0.242-2.242-1.565-2.049-3.362
		c0.182-1.685,1.207-2.593,2.85-2.519c1.525,0.069,2.416,1.188,2.416,3.144C48.781,44.352,47.396,44.352,45.926,44.352z
		 M49.145,43.563c-0.242-1.2-0.699-1.61-1.668-1.571c-0.912,0.041-1.391,0.535-1.488,1.571
		C47.016,43.563,48.043,43.563,49.145,43.563z"/>
	<path fill="#FFFFFF" d="M35.732,47.126c-1.633-0.016-2.602-1.123-2.592-2.969c0.004-1.889,1.004-2.972,2.715-2.951
		c1.617,0.021,2.643,1.181,2.625,2.968C38.459,46.032,37.432,47.137,35.732,47.126z M34.105,44.184
		c-0.006,1.358,0.633,2.163,1.711,2.151c1.004-0.01,1.656-0.826,1.682-2.104c0.023-1.295-0.662-2.202-1.682-2.218
		C34.77,41.998,34.109,42.837,34.105,44.184z"/>
	<path fill="#FFFFFF" d="M51.48,41.111c0.402,0.232,0.711,0.409,0.916,0.529c0.611-0.143,1.217-0.39,1.832-0.406
		c1.049-0.031,1.646,0.531,1.713,1.587c0.07,1.229,0.057,2.469,0.02,3.703c-0.006,0.184-0.312,0.36-0.48,0.541
		c-0.148-0.197-0.422-0.39-0.434-0.593c-0.049-0.973-0.012-1.948-0.027-2.926c-0.008-0.766-0.152-1.461-1.111-1.527
		c-0.838-0.06-1.477,0.559-1.514,1.547c-0.043,1.131-0.012,2.266-0.012,3.461c-0.336,0.02-0.584,0.03-0.902,0.047
		C51.48,45.134,51.48,43.235,51.48,41.111z"/>
	<path fill="#FFFFFF" d="M39.082,41.371c0.723-0.277,1.059-0.052,1.27,0.622c0.396,1.229,0.875,2.428,1.371,3.784
		c0.484-1.369,0.943-2.576,1.336-3.804c0.195-0.603,0.492-0.878,1.266-0.604c-0.652,1.8-1.293,3.609-1.98,5.4
		c-0.059,0.157-0.43,0.307-0.629,0.274c-0.234-0.031-0.555-0.219-0.635-0.422C40.389,44.884,39.748,43.128,39.082,41.371z"/>
	<path fill="#FFFFFF" d="M29.928,46.973c0-1.862,0-3.733,0-5.884c0.408,0.265,0.67,0.436,0.99,0.646
		c0.4-0.504,1.055-0.772,2.105-0.16c-0.33,0.264-0.584,0.637-0.828,0.629c-0.975-0.039-1.266,0.543-1.311,1.327
		c-0.057,0.938-0.012,1.881-0.031,2.822C30.84,47.061,30.83,47.061,29.928,46.973z"/>
	<path fill="#FFFFFF" d="M58.445,69.043c-0.656,0.328-1.176,0.668-1.742,0.847c-0.629,0.192-1.379,0.078-1.531-0.615
		c-0.107-0.484,0.189-1.129,0.477-1.602c0.164-0.277,0.65-0.38,1.004-0.527c0.363-0.156,0.744-0.277,1.293-0.478
		c0.355,0.681,0.838,1.438,1.143,2.261c0.109,0.299-0.062,0.924-0.316,1.102c-0.709,0.496-1.52,0.836-2.408,1.062
		C56.961,70.297,58.543,70.559,58.445,69.043z M56.66,69.836c0.596-0.647,1.051-1.016,1.293-1.491
		c0.059-0.115-0.705-0.904-0.879-0.836c-0.51,0.194-0.969,0.62-1.297,1.067C55.703,68.68,56.219,69.223,56.66,69.836z"/>
	<path fill="#FFFFFF" d="M12.535,48.26c0.391-0.1,0.785-0.202,1.18-0.307c0.074,0.061,0.148,0.119,0.223,0.18
		c-0.143,0.229-0.229,0.582-0.434,0.662c-0.982,0.396-1.992,0.722-2.996,1.068c-0.305-0.877-0.65-1.688-0.863-2.535
		c-0.223-0.887,0.229-1.766,0.867-1.949c0.654-0.186,1.406,0.326,1.711,1.254C12.389,47.142,12.43,47.688,12.535,48.26z
		 M12.064,48.067c0.029-1.062-0.521-1.863-1.08-1.845c-0.654,0.021-0.895,0.466-0.861,1.056c0.043,0.664,0.139,1.416,0.973,1.422
		C11.473,48.7,11.848,48.219,12.064,48.067z"/>
	<path fill="#FFFFFF" d="M34.795,70.053c-0.412,0.463-0.666,0.807-0.982,1.073c-0.227,0.189-0.57,0.412-0.805,0.361
		c-0.209-0.043-0.422-0.434-0.48-0.699c-0.133-0.664-0.178-1.346-0.26-2.026c0.711,0.098,0.707,0.098,0.756,0.733
		c0.035,0.438,0.09,0.871,0.146,1.488c0.516-0.559,0.863-0.982,1.258-1.361c0.428-0.414,0.793-0.432,0.953,0.261
		c0.125,0.522,0.266,1.041,0.406,1.579c0.738-0.42,0.695-1.67,2.051-1.588c-0.592,0.781-1.023,1.418-1.523,1.996
		c-0.449,0.521-0.922,0.396-1.123-0.262C35.055,71.153,34.955,70.684,34.795,70.053z"/>
	<path fill="#FFFFFF" d="M63.676,62.829c0.141-0.227,0.221-0.521,0.414-0.637c0.438-0.271,1.027-0.73,1.387-0.609
		c0.584,0.203,1.043,0.801,1.535,1.254c0.031,0.029-0.09,0.31-0.195,0.375c-0.098,0.06-0.312,0.027-0.41-0.051
		c-0.25-0.199-0.475-0.441-0.695-0.676c-0.402-0.418-0.82-0.513-1.266-0.07c-0.441,0.439-0.457,0.848-0.027,1.353
		c0.285,0.338,1.121,0.655,0.266,1.401c-0.854-1-1.664-1.945-2.479-2.901C62.748,61.934,62.748,61.934,63.676,62.829z"/>
	<path fill="#FFFFFF" d="M73.562,50.259c1.379-0.467,1.156-1.678,1.555-2.559c0.418,0.973-0.242,2.807-1.137,3.129
		c-0.27,0.098-0.65,0.074-0.916-0.045c-0.689-0.314-0.898-1.256-0.537-2.348c0.262-0.8,0.639-1.507,1.828-1.291
		C74.096,48.165,73.852,49.12,73.562,50.259z M73.83,47.782c-1.141,0.596-1.295,1.234-0.627,2.125
		C73.406,49.219,73.59,48.606,73.83,47.782z"/>
	<path fill="#FFFFFF" d="M12.34,54.087c-0.842-0.649-1.457-2.074-1.111-2.836c0.178-0.385,0.689-0.781,1.107-0.854
		c0.746-0.136,1.457,0.678,1.703,1.715c0.191,0.826,0.012,1.248-0.824,1.705c-0.379-0.853-0.756-1.697-1.168-2.629
		C11.105,52.278,12.215,53.114,12.34,54.087z M13.305,53.134c0.512-1.168,0.277-1.694-0.852-2.102
		C12.738,51.735,12.98,52.335,13.305,53.134z"/>
	<path fill="#FFFFFF" d="M31.564,69.602c-0.225,0.194-0.533,0.613-0.939,0.781c-0.83,0.334-2.34-0.209-2.715-1.017
		c-0.18-0.383-0.191-1.09,0.051-1.383c0.566-0.693,1.404-0.5,2.152-0.223C30.836,68.024,31.457,68.422,31.564,69.602z
		 M30.105,70.028c0.164-0.234,0.627-0.602,0.633-0.973c0.004-0.724-0.643-1.099-1.273-1.008c-0.395,0.059-1.023,0.551-1.027,0.854
		C28.432,69.637,29.061,69.954,30.105,70.028z"/>
	<path fill="#FFFFFF" d="M67.547,61.711c-0.641-0.09-1.104-0.434-1.117-1.233c-0.016-1.074,1-2.24,1.994-2.255
		c0.795-0.012,1.188,0.427,1.207,1.195C69.666,60.446,68.58,61.67,67.547,61.711z M66.914,60.225
		c0.227,0.219,0.488,0.639,0.855,0.788c0.52,0.214,1.383-0.514,1.285-1.118c-0.062-0.382-0.465-0.931-0.799-0.996
		C67.557,58.76,67.176,59.311,66.914,60.225z"/>
	<path fill="#FFFFFF" d="M15.348,56.114c-0.07-0.312-0.094-0.648-0.219-0.938c-0.131-0.309-0.359-0.573-0.543-0.854
		c0.107-0.066,0.213-0.135,0.324-0.201c0.311,0.596,0.771,1.158,0.9,1.791c0.248,1.219-1.055,1.268-1.645,1.957
		c-0.451-0.695-0.936-1.312-1.252-2.003c-0.143-0.303,0.055-0.758,0.098-1.146c0.367,0.097,0.805,0.099,1.084,0.31
		c0.402,0.303,0.686,0.762,1.018,1.151C15.191,56.157,15.27,56.137,15.348,56.114z M14.988,56.372
		c-0.623-0.426-1.051-0.719-1.484-1.012c-0.039,0.227-0.184,0.508-0.098,0.672C13.656,56.512,13.977,56.993,14.988,56.372z"/>
	<path fill="#FFFFFF" d="M52.008,70.371c-0.902,0.228-1.771,0.443-2.785,0.699c0.883,1.055,1.857,0.24,2.801,0.188
		c-0.754,0.78-2.299,1.108-2.959,0.571c-0.314-0.256-0.588-0.846-0.521-1.219c0.16-0.881,0.93-1.17,1.748-1.271
		C51.064,69.243,51.711,69.391,52.008,70.371z M49.355,70.621c0.586-0.141,1.166-0.276,1.754-0.418
		c-0.027-0.098-0.049-0.199-0.07-0.297C50.344,69.594,49.725,69.618,49.355,70.621z"/>
	<path fill="#FFFFFF" d="M43.193,71.682c-0.518,0-0.967,0.006-1.412-0.002c-0.41-0.011-0.818-0.039-1.266-0.062
		c0.367,0.762,0.367,0.762,2.398,0.935c-0.629,0.487-2.125,0.508-2.699-0.115c-0.287-0.306-0.426-0.937-0.336-1.351
		c0.156-0.688,1.25-1.09,2.145-0.881C42.703,70.364,43.348,70.614,43.193,71.682z M40.508,71.227c0.783,0,1.367,0,1.961,0
		C42.023,70.341,41.406,70.293,40.508,71.227z"/>
	<path fill="#FFFFFF" d="M22.441,64.024c-0.082,0.643-0.443,1.102-1.238,1.117c-1.02,0.022-2.188-1.017-2.223-1.968
		c-0.027-0.674,0.518-1.213,1.234-1.231C21.203,61.918,22.414,62.996,22.441,64.024z M20.602,62.09
		c-0.484,0.646-0.961,0.996-0.965,1.351c-0.01,0.678,0.512,1.203,1.203,1.112c0.352-0.045,0.953-0.666,0.893-0.868
		C21.59,63.188,21.129,62.784,20.602,62.09z"/>
	<path fill="#FFFFFF" d="M69.949,54.831c0.416-0.6,0.416-0.6,2.52,0.566c-0.324,0.678-0.604,1.387-0.988,2.032
		c-0.416,0.695-1.021,0.855-1.729,0.365c-0.371-0.258-0.742-0.516-1.109-0.771c0-0.103,0.008-0.199,0.008-0.302
		c0.258-0.02,0.531-0.114,0.758-0.047c0.27,0.082,0.496,0.302,0.738,0.465c0.453,0.31,0.863,0.289,1.152-0.209
		c0.271-0.469,0.473-0.963-0.137-1.352C70.777,55.337,70.389,55.102,69.949,54.831z"/>
	<path fill="#FFFFFF" d="M44.949,72.672c-0.826-0.034-0.926-0.411-0.723-2.366c0.439-0.056,0.891-0.052,1.303-0.177
		c1.307-0.387,1.99,0.037,2.154,1.396c0.035,0.285,0.059,0.574,0.09,0.895c-0.938,0.32-0.801-0.395-0.863-0.895
		c-0.125-0.922-0.619-1.312-1.346-0.949c-0.275,0.141-0.504,0.539-0.592,0.863C44.871,71.797,44.949,72.205,44.949,72.672z"/>
	<path fill="#FFFFFF" d="M60.348,69.164c0.223-0.465,0.43-0.907,0.656-1.391c-0.887-0.5-1.691-0.953-2.535-1.43
		c0.396-0.249,0.396-0.249,2.348,0.512c0-0.664-0.008-1.359,0.014-2.056c0-0.065,0.195-0.125,0.307-0.19
		C62.004,66.774,61.621,69.098,60.348,69.164z"/>
	<path fill="#FFFFFF" d="M75.254,44.444c-0.242,0.451-0.455,0.92-0.738,1.338c-0.127,0.18-0.436,0.363-0.619,0.326
		c-0.178-0.037-0.424-0.353-0.424-0.545c0-0.677,0.09-1.353,0.145-2.027c0.121,0.01,0.234,0.02,0.352,0.027
		c-0.051,0.571-0.104,1.145-0.152,1.719c0.1,0.033,0.199,0.065,0.303,0.1c0.229-0.422,0.41-0.881,0.697-1.256
		c0.189-0.242,0.527-0.371,0.797-0.547c0.15,0.26,0.439,0.527,0.428,0.783c-0.035,0.768-0.186,1.524-0.289,2.291
		c-0.113-0.017-0.23-0.023-0.336-0.039c0.078-0.715,0.154-1.431,0.232-2.148C75.516,44.458,75.387,44.45,75.254,44.444z"/>
	<path fill="#FFFFFF" d="M73.039,52.409c-0.275,0.299-0.512,0.639-0.824,0.877c-0.23,0.176-0.633,0.363-0.832,0.271
		c-0.199-0.094-0.375-0.549-0.324-0.799c0.107-0.539,0.371-1.045,0.568-1.563c0.096,0.028,0.186,0.059,0.279,0.09
		c-0.143,0.521-0.279,1.045-0.414,1.563c0.09,0.048,0.174,0.089,0.266,0.134c0.289-0.326,0.539-0.695,0.873-0.961
		c0.225-0.173,0.646-0.341,0.826-0.24c0.209,0.115,0.408,0.567,0.348,0.807c-0.174,0.656-0.479,1.277-0.74,1.914
		c-0.104-0.039-0.209-0.078-0.312-0.117c0.211-0.598,0.426-1.194,0.639-1.793C73.273,52.528,73.156,52.469,73.039,52.409z"/>
	<path fill="#FFFFFF" d="M17.289,62.192c0.1-0.281,0.143-0.609,0.32-0.834c0.354-0.463,0.779-0.873,1.332-1.468
		c0.523,0.056,1.707-0.733,2.16,0.765c-0.488-0.131-0.926-0.246-1.363-0.361c-0.041,0.094-0.078,0.188-0.117,0.281
		c0.148,0.229,0.301,0.465,0.453,0.695c-0.027,0.043-0.062,0.082-0.09,0.125c-0.26-0.14-0.512-0.277-0.832-0.449
		c-0.486,0.438-0.986,0.895-1.48,1.348C17.543,62.258,17.414,62.227,17.289,62.192z"/>
	<path fill="#FFFFFF" d="M14.955,59.317c0.07-0.271,0.043-0.648,0.221-0.789c0.727-0.59,1.504-1.119,2.281-1.643
		c0.141-0.096,0.373-0.049,0.566-0.067c-0.047,0.211-0.02,0.512-0.152,0.612c-0.855,0.684-1.748,1.326-2.623,1.98
		C15.148,59.379,15.055,59.347,14.955,59.317z"/>
	<path fill="#FFFFFF" d="M27.83,65.306c0.045,0.226,0.201,0.507,0.119,0.671c-0.428,0.867-0.898,1.711-1.393,2.547
		c-0.08,0.137-0.328,0.18-0.496,0.268c-0.045-0.209-0.195-0.471-0.119-0.614c0.518-0.961,1.084-1.898,1.639-2.845
		C27.666,65.325,27.742,65.317,27.83,65.306z"/>
	<path fill="#FFFFFF" d="M52.521,68.877c0.654-0.25,1.197-0.461,1.867-0.721c-0.35,0.541-0.762,0.916-0.824,1.34
		c-0.061,0.435,0.217,0.92,0.342,1.383C53.156,71.282,52.949,70.981,52.521,68.877z"/>
	<path fill="#FFFFFF" d="M22.625,66.634c-0.67-0.493-0.656-0.517,0.955-2.333c0.494,0.312,0.982,0.621,1.586,1
		c-0.639,0.062-1.168-0.02-1.549,0.188C23.223,65.702,22.984,66.196,22.625,66.634z"/>
</g>
</svg>
