<?xml version="1.0" encoding="utf-8"?>
<!-- Generator: Adobe Illustrator 16.0.0, SVG Export Plug-In . SVG Version: 6.00 Build 0)  -->
<!DOCTYPE svg PUBLIC "-//W3C//DTD SVG 1.1//EN" "http://www.w3.org/Graphics/SVG/1.1/DTD/svg11.dtd">
<svg version="1.1" id="圖層_1" xmlns="http://www.w3.org/2000/svg" xmlns:xlink="http://www.w3.org/1999/xlink" x="0px" y="0px"
	 width="85.039px" height="85.223px" viewBox="0 0 85.039 85.223" enable-background="new 0 0 85.039 85.223" xml:space="preserve">
<g>
	<path fill="#FFFFFF" d="M42.68,13.558c3.639,0.006,7.121,0.702,10.332,1.952c0,0.885-0.02,2.555-0.02,3.466
		c-0.787-0.352-1.547-0.662-2.602-0.786v52.424c-1.457,0.406-2.959,0.709-4.496,0.877V17.719c-0.98-0.233-1.787-0.354-3.215-0.304
		V13.558L42.68,13.558z M41.154,71.664c-4.246-0.204-8.264-1.307-11.836-3.151V48.127h4.637L33.447,66.42
		c1.133,0.579,2.203,0.967,3.676,0.782V48.127v-0.065v-0.045v-0.025v-0.064v-0.073v-0.064v-0.07v-0.069v-0.062v-0.065v-0.068v-0.068
		v-0.069v-0.019v-0.049v-0.072v-0.063v-0.068v-0.061v-0.051V46.92v-0.073v-0.07v-0.062v-0.082v-0.061v-0.01v-0.056V46.44v-0.068
		v-0.068v-0.065v-0.037v-0.037V46.1v-0.062v-0.076v-0.062v-0.055v-0.015V45.77v-0.082v-0.066v-0.065v-0.062v-0.02v-0.052v-0.065
		v-0.066v-0.065v-0.074v-0.047v-0.017v-0.069V44.94v-0.062v-0.063v-0.062v-0.008v-0.066v-0.062v-0.072v-0.057v-0.072v-0.035v-0.58
		h-7.805V16.738c3.572-1.831,7.59-2.94,11.836-3.143v22.543h-3.434V17.958c-1.246,0.097-2.566,0.42-3.23,0.975
		c-0.479,0.4-0.492,0.82-0.535,1.805c-0.152,6.502-0.332,12.985-0.508,19.487c2.582,0,5.141,0.002,7.707,0.002V71.664z
		 M54.65,16.222c2.779,5.157,5.883,10.967,7.965,17.492c1.535-1.404,2.428-4.257,3.715-7.768c3.311,4.711,5.254,10.469,5.254,16.676
		c0,6.593-2.184,12.675-5.891,17.556l-2.146-2.617c2.479-6.106,5.689-12.364,3.445-21.236c-1.348,3.013-2.508,6.172-3.531,8.716
		c-1.773-3.202-2.99-6.184-4.297-7.837V65.87l0.24,0.414c-1.49,1.07-3.076,1.99-4.756,2.765V16.222H54.65z M25.057,65.846
		c-1.059-0.799-2.076-1.652-3.018-2.603V43.853h-4.527c-0.723-0.161,1.832,9.328,2.475,9.344c0.537,0-2.195,0.762-3.988,1.309
		c-1.637-3.614-2.543-7.645-2.543-11.882c0-9.496,4.559-17.925,11.604-23.229v46.451H25.057z M17.574,40.177h4.277v-10.97
		C18.838,32.251,17.609,36.18,17.574,40.177"/>
</g>
</svg>
