<?xml version="1.0" encoding="utf-8"?>
<!-- Generator: Adobe Illustrator 16.0.0, SVG Export Plug-In . SVG Version: 6.00 Build 0)  -->
<!DOCTYPE svg PUBLIC "-//W3C//DTD SVG 1.1//EN" "http://www.w3.org/Graphics/SVG/1.1/DTD/svg11.dtd">
<svg version="1.1" id="圖層_1" xmlns="http://www.w3.org/2000/svg" xmlns:xlink="http://www.w3.org/1999/xlink" x="0px" y="0px"
	 width="85.039px" height="85.223px" viewBox="0 0 85.039 85.223" enable-background="new 0 0 85.039 85.223" xml:space="preserve">
<g id="_x35_555_1_">
	<g>
		<path fill-rule="evenodd" clip-rule="evenodd" fill="#FFFFFF" d="M74.359,39.87c-0.037,0.007-0.068,0.016-0.098,0.016
			c-21.174,0-42.346,0-63.518-0.001c-0.021,0-0.044-0.013-0.075-0.021c-0.028-0.083-0.018-0.17-0.018-0.256c0-0.933,0-1.867,0-2.8
			c0-1.449-0.001-2.896,0-4.344c0.003-3.679,0.008-7.358,0.011-11.037c0-1.139-0.007-2.278-0.011-3.417
			c-0.002-0.648-0.005-1.297-0.008-1.946c-0.003-0.569,0.001-1.139-0.013-1.708c-0.017-0.653,0.192-1.229,0.571-1.749
			c0.453-0.62,1.043-1.052,1.79-1.257c0.207-0.058,0.417-0.084,0.632-0.084c2.136,0.002,4.272,0,6.409,0.002
			c3.695,0.001,7.389,0.005,11.084,0.007c13.411,0.005,26.821,0.01,40.231,0.014c0.504,0,0.996,0.066,1.451,0.294
			c1.023,0.512,1.584,1.335,1.602,2.489c0.018,0.965,0.004,1.931,0.004,2.896c0,7.421,0,14.843,0,22.265
			c0,0.166-0.01,0.332-0.018,0.497C74.385,39.775,74.369,39.821,74.359,39.87z M18.403,26.963l0-0.004
			c-0.003,0.554-0.006,1.106-0.008,1.66c0,0.022,0.016,0.043,0.026,0.069c0.156,0.031,0.31,0.023,0.471,0.005
			c0.008-0.042,0.019-0.072,0.019-0.101c0.001-0.736,0.001-1.472,0-2.207c0-0.036-0.02-0.071-0.032-0.115
			c-0.237-0.001-0.464-0.01-0.702,0.006c-0.215,0.584-0.417,1.163-0.626,1.768c-0.11-0.32-0.206-0.612-0.31-0.9
			c-0.105-0.288-0.191-0.583-0.321-0.867c-0.245,0-0.48,0-0.726,0c-0.008,0.061-0.023,0.114-0.023,0.168
			c-0.001,0.696-0.001,1.392,0,2.088c0,0.051,0.017,0.103,0.026,0.16c0.151,0.009,0.29,0.032,0.432-0.017
			c0.003-0.057,0.008-0.104,0.009-0.15c0.002-0.048,0.001-0.095,0.001-0.143c0-0.047,0-0.095,0-0.143c0-0.055,0-0.11,0-0.166
			c0-0.047,0-0.095,0-0.142c0-0.048,0-0.095,0-0.143c0-0.048,0-0.095,0-0.143s0-0.095,0-0.142c0-0.047,0-0.095,0-0.143
			c0-0.055-0.001-0.111-0.001-0.166c0-0.047-0.005-0.095,0-0.142c0.003-0.04-0.021-0.087,0.022-0.13
			c0.225,0.594,0.425,1.184,0.653,1.765c0.153,0.013,0.292,0.035,0.43-0.017c0.026-0.074,0.052-0.14,0.076-0.207
			c0.168-0.469,0.336-0.937,0.505-1.405C18.338,27.02,18.336,26.963,18.403,26.963z M28.118,26.289c0,0.787,0,1.546,0.001,2.305
			c0,0.03,0.012,0.06,0.021,0.096c0.159,0.031,0.31,0.044,0.476-0.011c0.002-0.141,0.005-0.274,0.006-0.407
			c0.001-0.134,0-0.269,0-0.403c0-0.142-0.001-0.285,0.001-0.427c0.002-0.13-0.011-0.262,0.005-0.441
			c0.387,0.594,0.749,1.146,1.106,1.695c0.187,0.014,0.358,0.026,0.53-0.008c0.01-0.03,0.024-0.051,0.024-0.073
			c0.001-0.751,0.001-1.502,0-2.253c0-0.022-0.015-0.043-0.026-0.077c-0.146-0.024-0.292-0.022-0.434-0.001
			c-0.056,0.079-0.038,0.16-0.038,0.237c-0.001,0.411,0,0.822-0.001,1.233c0,0.043,0.018,0.095-0.047,0.13
			c-0.031-0.042-0.063-0.084-0.092-0.128c-0.276-0.425-0.551-0.849-0.827-1.273c-0.046-0.072-0.099-0.141-0.147-0.208
			C28.49,26.277,28.317,26.259,28.118,26.289z M54.904,26.281c-0.186,0-0.357,0-0.539,0c-0.012,0.061-0.027,0.113-0.027,0.166
			c-0.002,0.704-0.002,1.408,0.002,2.112c0,0.044,0.016,0.089,0.025,0.138c0.158,0.021,0.305,0.033,0.465-0.014
			c0.002-0.082,0.008-0.16,0.01-0.237c0-0.419-0.002-0.839,0-1.258c0-0.041-0.023-0.097,0.053-0.123
			c0.174,0.269,0.352,0.541,0.527,0.81c0.184,0.276,0.355,0.559,0.545,0.824c0.186,0.002,0.357,0.03,0.523-0.018
			c0.008-0.039,0.016-0.062,0.018-0.084c0-0.736,0-1.471-0.002-2.207c0-0.037-0.018-0.073-0.027-0.111
			c-0.158-0.011-0.305-0.031-0.457,0.018c-0.004,0.068-0.01,0.131-0.01,0.193c-0.004,0.071-0.002,0.143-0.002,0.214
			c0,0.063,0,0.126,0,0.189c0,0.063,0,0.126,0,0.19c0,0.071,0,0.143,0,0.214c0,0.063,0,0.126,0,0.189
			c0.002,0.071,0.004,0.143,0,0.214c-0.002,0.059,0.018,0.123-0.023,0.212c-0.141-0.191-0.25-0.371-0.365-0.546
			c-0.121-0.185-0.24-0.371-0.363-0.556C55.139,26.634,55.021,26.457,54.904,26.281z M39.133,27.055
			c0.015-0.004,0.028-0.007,0.042-0.011c0.181,0.277,0.361,0.555,0.543,0.832c0.181,0.276,0.356,0.558,0.541,0.822
			c0.183,0.01,0.347,0.021,0.516-0.007c0.008-0.041,0.018-0.071,0.018-0.101c0.002-0.735,0.002-1.471,0-2.206
			c0-0.036-0.02-0.071-0.034-0.116c-0.079,0-0.149-0.002-0.221,0c-0.069,0.002-0.138,0.008-0.221,0.013
			c-0.004,0.09-0.012,0.167-0.012,0.244c-0.001,0.419,0,0.838-0.001,1.257c0,0.034,0.017,0.08-0.054,0.101
			c-0.35-0.528-0.688-1.07-1.04-1.601c-0.189-0.012-0.368-0.028-0.543,0.009c-0.039,0.211-0.05,1.253-0.026,2.236
			c0.001,0.053,0.011,0.106,0.018,0.168c0.158,0.022,0.303,0.029,0.46-0.006c0.033-0.274,0.011-0.542,0.015-0.809
			C39.137,27.607,39.133,27.331,39.133,27.055z M33.764,26.267c-0.045,0.227-0.056,1.087-0.033,2.23
			c0.001,0.062,0.011,0.123,0.016,0.175c0.022,0.012,0.028,0.018,0.036,0.018c0.362,0.028,0.727,0.041,1.086-0.008
			c0.493-0.067,0.874-0.435,0.972-0.915c0.046-0.226,0.042-0.456-0.01-0.682c-0.087-0.38-0.319-0.626-0.692-0.737
			c-0.061-0.017-0.122-0.032-0.184-0.042C34.562,26.238,34.167,26.281,33.764,26.267z M26.506,28.751
			c0.572,0.02,1.035-0.332,1.169-0.906c0.043-0.185,0.048-0.374,0.026-0.565c-0.068-0.592-0.454-0.991-1.044-1.04
			c-0.669-0.056-1.096,0.322-1.254,0.827c-0.062,0.199-0.066,0.403-0.055,0.61C25.374,28.192,25.784,28.77,26.506,28.751z
			 M50.09,28.685c0.248,0.034,0.316,0.031,0.482-0.018c0.031-0.285-0.01-0.577,0.025-0.868c0.156-0.044,0.279-0.012,0.363,0.113
			c0.121,0.176,0.232,0.357,0.348,0.537c0.055,0.085,0.094,0.183,0.174,0.255c0.18,0.009,0.359,0.025,0.539-0.01
			c-0.08-0.236-0.465-0.815-0.721-1.082c0.062-0.037,0.125-0.066,0.184-0.107c0.242-0.171,0.346-0.405,0.297-0.699
			c-0.047-0.283-0.211-0.437-0.529-0.498c-0.115-0.022-0.232-0.034-0.352-0.037c-0.205-0.006-0.41-0.003-0.615-0.002
			c-0.062,0-0.125,0.007-0.195,0.011c-0.01,0.053-0.023,0.098-0.025,0.144C50.039,26.988,50.055,28.489,50.09,28.685z
			 M69.783,27.613c0.057-0.032,0.111-0.062,0.166-0.095c0.252-0.159,0.365-0.418,0.314-0.712c-0.039-0.22-0.154-0.38-0.369-0.453
			c-0.104-0.036-0.215-0.069-0.322-0.073c-0.316-0.01-0.633-0.005-0.949-0.004c-0.014,0-0.027,0.013-0.047,0.022
			c-0.006,0.018-0.02,0.04-0.02,0.061c0,0.751,0,1.503,0,2.254c0,0.022,0.014,0.044,0.02,0.063c0.209,0.043,0.32,0.041,0.502-0.013
			c0.004-0.284,0.008-0.574,0.012-0.855c0.084-0.051,0.156-0.035,0.221-0.006c0.055,0.024,0.109,0.065,0.145,0.115
			c0.125,0.182,0.24,0.371,0.361,0.557c0.051,0.078,0.082,0.17,0.154,0.223c0.346,0.033,0.402,0.029,0.535-0.033
			C70.381,28.371,70.02,27.843,69.783,27.613z M62.133,27.613c0.064-0.036,0.117-0.056,0.16-0.089
			c0.072-0.059,0.152-0.115,0.209-0.189c0.287-0.388,0.096-0.912-0.373-1.021c-0.076-0.018-0.156-0.036-0.232-0.037
			c-0.309-0.004-0.615-0.001-0.924,0c-0.014,0-0.027,0.015-0.049,0.028c-0.004,0.023-0.014,0.054-0.014,0.084
			c0,0.742,0,1.484,0,2.227c0.002,0.021,0.014,0.043,0.02,0.062c0.221,0.043,0.328,0.041,0.494-0.015
			c0.031-0.284-0.012-0.576,0.027-0.862c0.127-0.017,0.174-0.023,0.213,0.001c0.053,0.033,0.109,0.069,0.143,0.118
			c0.129,0.188,0.248,0.384,0.373,0.576c0.047,0.072,0.076,0.157,0.146,0.203c0.324,0.03,0.391,0.027,0.533-0.028
			C62.748,28.387,62.377,27.843,62.133,27.613z M66.057,26.283c-0.01,0.05-0.02,0.088-0.02,0.125
			c-0.002,0.474-0.006,0.948,0.004,1.423c0.002,0.124,0.029,0.252,0.068,0.371c0.088,0.255,0.266,0.424,0.527,0.5
			c0.227,0.065,0.457,0.065,0.682,0.02c0.33-0.066,0.557-0.264,0.641-0.594c0.039-0.151,0.062-0.311,0.066-0.467
			c0.01-0.403,0.004-0.807,0.004-1.21c0-0.053-0.014-0.107-0.021-0.174c-0.088-0.003-0.166-0.008-0.242-0.008
			c-0.078,0-0.154,0.007-0.246,0.012c-0.006,0.09-0.012,0.167-0.012,0.244c-0.002,0.372,0.002,0.743-0.004,1.115
			c0,0.117-0.016,0.237-0.041,0.352c-0.027,0.121-0.104,0.215-0.221,0.262c-0.25,0.1-0.598,0.039-0.662-0.355
			c-0.016-0.085-0.016-0.173-0.016-0.259c-0.002-0.388,0-0.775-0.002-1.163c0-0.06-0.012-0.121-0.02-0.186
			C66.375,26.261,66.221,26.268,66.057,26.283z M38.311,28.683c-0.013-0.054-0.021-0.1-0.036-0.143
			c-0.255-0.715-0.511-1.429-0.768-2.143c-0.015-0.043-0.043-0.08-0.064-0.117c-0.203,0-0.391,0-0.582,0
			c-0.022,0.04-0.046,0.071-0.06,0.107c-0.266,0.728-0.532,1.455-0.795,2.183c-0.012,0.034-0.008,0.074-0.013,0.12
			c0.182,0.024,0.353,0.028,0.534-0.004c0.028-0.085,0.055-0.167,0.084-0.248c0.032-0.088,0.042-0.185,0.102-0.26
			c0.256-0.039,0.713-0.031,0.869,0.015c0.08,0.161,0.1,0.347,0.194,0.504C37.958,28.706,38.13,28.723,38.311,28.683z M48.662,28.68
			c-0.012-0.053-0.021-0.099-0.037-0.143c-0.254-0.706-0.508-1.412-0.762-2.118c-0.02-0.049-0.049-0.095-0.07-0.138
			c-0.203,0-0.393,0-0.582,0c-0.025,0.048-0.049,0.089-0.064,0.132c-0.262,0.712-0.521,1.424-0.779,2.137
			c-0.016,0.041-0.016,0.087-0.021,0.14c0.184,0.021,0.354,0.027,0.533-0.006c0.031-0.085,0.061-0.167,0.088-0.249
			c0.029-0.088,0.061-0.177,0.088-0.258c0.277-0.041,0.727-0.032,0.885,0.014c0.074,0.163,0.098,0.347,0.191,0.513
			c0.15,0,0.293,0.001,0.434-0.001C48.594,28.703,48.623,28.69,48.662,28.68z M21.979,26.332c-0.263-0.089-0.511-0.118-0.766-0.09
			c-0.15,0.017-0.294,0.053-0.43,0.124c-0.435,0.224-0.464,0.791-0.127,1.076c0.089,0.076,0.194,0.135,0.297,0.192
			c0.082,0.046,0.174,0.076,0.259,0.117c0.063,0.031,0.128,0.063,0.184,0.106c0.123,0.095,0.146,0.246,0.055,0.351
			c-0.028,0.033-0.074,0.058-0.117,0.073c-0.246,0.08-0.482,0.051-0.711-0.066c-0.051-0.026-0.094-0.091-0.173-0.05
			c-0.015,0.147-0.022,0.295,0.007,0.442c0.024,0.016,0.043,0.031,0.063,0.042c0.028,0.014,0.057,0.027,0.087,0.036
			c0.279,0.082,0.563,0.088,0.846,0.038c0.122-0.021,0.245-0.072,0.35-0.136c0.236-0.143,0.326-0.416,0.241-0.679
			c-0.014-0.045-0.036-0.089-0.045-0.135c-0.032-0.151-0.127-0.251-0.255-0.325c-0.088-0.051-0.18-0.098-0.272-0.145
			c-0.077-0.04-0.156-0.077-0.235-0.113c-0.122-0.056-0.208-0.14-0.239-0.283c0.043-0.122,0.118-0.194,0.265-0.224
			c0.18-0.037,0.343-0.014,0.511,0.038c0.059,0.018,0.108,0.066,0.183,0.053c0.007-0.021,0.02-0.041,0.02-0.062
			C21.98,26.593,21.979,26.475,21.979,26.332z M22.936,26.909c0.035-0.138,0.125-0.197,0.266-0.229
			c0.188-0.042,0.359-0.011,0.533,0.048c0.049,0.017,0.092,0.063,0.167,0.035c0.02-0.142,0.027-0.287-0.01-0.441
			c-0.248-0.079-0.495-0.112-0.75-0.081c-0.142,0.017-0.279,0.048-0.41,0.112c-0.474,0.236-0.489,0.841-0.112,1.119
			c0.088,0.065,0.187,0.118,0.284,0.168c0.091,0.048,0.187,0.086,0.28,0.129c0.136,0.062,0.242,0.148,0.26,0.307
			c-0.034,0.144-0.134,0.2-0.27,0.229c-0.221,0.045-0.423,0.007-0.62-0.091c-0.052-0.027-0.096-0.089-0.184-0.048
			c0,0.064-0.001,0.135,0,0.205c0.002,0.078,0.007,0.156,0.009,0.219c0.026,0.024,0.036,0.038,0.049,0.045
			c0.028,0.014,0.057,0.029,0.086,0.038c0.326,0.099,0.654,0.104,0.983,0.021c0.132-0.034,0.25-0.098,0.345-0.198
			c0.127-0.134,0.203-0.301,0.157-0.477c-0.111-0.423-0.1-0.462-0.492-0.669c-0.063-0.033-0.129-0.06-0.193-0.09
			c-0.057-0.027-0.113-0.057-0.17-0.083C23.031,27.122,22.954,27.039,22.936,26.909z M30.74,28.62
			c0.408,0.162,0.801,0.172,1.198,0.047c0.038-0.011,0.073-0.031,0.107-0.05c0.167-0.094,0.268-0.234,0.315-0.423
			c0.033-0.135-0.026-0.246-0.05-0.368c-0.042-0.207-0.17-0.333-0.344-0.426c-0.098-0.051-0.199-0.096-0.298-0.146
			c-0.084-0.043-0.171-0.083-0.25-0.134c-0.083-0.055-0.141-0.14-0.114-0.24c0.024-0.091,0.084-0.157,0.192-0.186
			c0.208-0.056,0.405-0.042,0.603,0.036c0.046,0.018,0.091,0.069,0.16,0.018c0.01-0.133,0.019-0.273-0.008-0.417
			c-0.207-0.091-0.419-0.104-0.631-0.1c-0.158,0.003-0.316,0.027-0.462,0.092c-0.23,0.101-0.396,0.259-0.431,0.521
			c-0.036,0.276,0.065,0.497,0.291,0.656c0.083,0.059,0.177,0.104,0.268,0.149c0.091,0.046,0.186,0.088,0.279,0.13
			c0.13,0.059,0.22,0.15,0.242,0.297c-0.031,0.145-0.132,0.2-0.267,0.228c-0.21,0.043-0.405,0.009-0.598-0.08
			c-0.061-0.028-0.11-0.095-0.2-0.07C30.74,28.302,30.74,28.449,30.74,28.62z M41.26,28.125c-0.006,0.194-0.034,0.349,0.022,0.506
			c0.352,0.145,0.709,0.15,1.072,0.069c0.119-0.027,0.227-0.079,0.315-0.158c0.187-0.167,0.265-0.37,0.187-0.618
			c-0.016-0.053-0.04-0.104-0.05-0.158c-0.025-0.135-0.108-0.227-0.22-0.296c-0.094-0.058-0.191-0.11-0.29-0.161
			c-0.085-0.043-0.17-0.084-0.256-0.123c-0.123-0.056-0.212-0.139-0.231-0.272c0.035-0.144,0.124-0.202,0.267-0.233
			c0.18-0.039,0.345-0.012,0.511,0.043c0.058,0.019,0.115,0.04,0.184,0.063c0.02-0.164,0.029-0.311-0.006-0.454
			c-0.173-0.065-0.4-0.107-0.588-0.102c-0.199,0.005-0.392,0.036-0.574,0.126c-0.481,0.242-0.46,0.848-0.119,1.107
			c0.094,0.071,0.2,0.127,0.305,0.184c0.082,0.044,0.172,0.077,0.258,0.118c0.049,0.024,0.1,0.049,0.144,0.082
			c0.081,0.06,0.132,0.147,0.12,0.245c-0.014,0.111-0.092,0.174-0.205,0.202c-0.216,0.054-0.424,0.037-0.623-0.056
			C41.417,28.208,41.357,28.174,41.26,28.125z M59.09,28.702c0.236,0.009,0.467,0.008,0.693,0.003
			c0.234-0.004,0.469,0.023,0.711-0.02c0.018-0.134,0.027-0.257-0.01-0.392c-0.289-0.043-0.582,0.016-0.883-0.038
			c-0.01-0.187-0.025-0.363,0.016-0.555c0.137-0.001,0.262,0.001,0.387-0.003c0.123-0.004,0.25,0.019,0.379-0.021
			c0.02-0.133,0.025-0.255-0.008-0.391c-0.059-0.005-0.113-0.015-0.166-0.015c-0.158-0.002-0.316,0-0.475-0.003
			c-0.045,0-0.088-0.017-0.133-0.027c-0.006-0.182-0.029-0.353,0.016-0.528c0.074-0.003,0.137-0.008,0.199-0.009
			c0.166-0.001,0.332,0.001,0.496-0.002c0.045-0.001,0.09-0.017,0.133-0.026c0.01-0.135,0.025-0.26-0.016-0.397
			c-0.156-0.002-0.305-0.004-0.453-0.006c-0.15-0.001-0.301-0.003-0.451,0c-0.146,0.004-0.297-0.022-0.438,0.023
			C59.057,26.498,59.057,28.454,59.09,28.702z M15.771,28.293c-0.091-0.006-0.16-0.014-0.23-0.014c-0.174-0.002-0.348,0-0.521-0.002
			c-0.045-0.001-0.089-0.015-0.143-0.023c-0.005-0.19-0.033-0.367,0.019-0.543c0.259-0.034,0.512,0.017,0.764-0.034
			c0.004-0.078,0.011-0.141,0.01-0.202c-0.001-0.061-0.012-0.121-0.019-0.189c-0.138-0.024-0.264-0.011-0.389-0.015
			c-0.124-0.004-0.249,0.013-0.384-0.018c-0.005-0.188-0.035-0.364,0.024-0.549c0.144,0,0.277,0.004,0.41-0.001
			c0.132-0.005,0.267,0.024,0.399-0.025c0.015-0.133,0.024-0.255-0.01-0.39c-0.154-0.025-0.303-0.012-0.451-0.014
			c-0.15-0.002-0.301-0.005-0.45,0c-0.147,0.005-0.297-0.024-0.444,0.028c-0.006,0.038-0.015,0.069-0.015,0.099
			c0,0.727,0,1.453,0,2.18c0,0.037,0.015,0.073,0.026,0.122c0.235,0.011,0.464,0.009,0.691,0.004
			c0.234-0.005,0.47,0.025,0.711-0.022C15.771,28.555,15.771,28.438,15.771,28.293z M64.762,26.711
			c0.09-0.003,0.152-0.008,0.213-0.008c0.168-0.001,0.332,0.002,0.5-0.002c0.043,0,0.086-0.02,0.139-0.032
			c0-0.073,0.002-0.136,0-0.198c-0.002-0.061,0.016-0.128-0.039-0.178c-0.23-0.033-1.145-0.028-1.332,0.01
			c-0.006,0.057-0.018,0.117-0.018,0.178c-0.021,1.184-0.012,2.01,0.031,2.205c0.018,0.006,0.039,0.018,0.062,0.018
			c0.418,0.001,0.838,0.001,1.256,0c0.029,0,0.059-0.02,0.086-0.03c0-0.125,0-0.242,0-0.352c-0.072-0.055-0.146-0.04-0.217-0.042
			c-0.174-0.002-0.348,0.001-0.521-0.002c-0.053-0.001-0.104-0.018-0.156-0.028c-0.018-0.186-0.021-0.356,0.004-0.537
			c0.139-0.023,0.266-0.008,0.391-0.015c0.123-0.006,0.25,0.025,0.373-0.028c0.016-0.129,0.029-0.253-0.014-0.383
			c-0.252-0.047-0.506,0.016-0.758-0.04C64.762,27.068,64.762,26.903,64.762,26.711z M56.85,26.302
			c-0.02,0.129-0.037,0.258,0.01,0.389c0.219,0.031,0.434-0.008,0.641,0.025c0.041,0.094,0.027,0.182,0.029,0.267
			c0,0.49,0,0.979,0,1.469c0,0.077,0.01,0.153,0.014,0.244c0.17,0.016,0.324,0.025,0.482-0.007c0.039-0.086,0.027-0.174,0.027-0.259
			c0-0.481,0-0.963,0-1.444c0-0.085-0.018-0.173,0.037-0.268c0.205-0.043,0.43,0.021,0.645-0.04c0.014-0.133,0.025-0.256-0.01-0.385
			c-0.037-0.007-0.066-0.018-0.098-0.018c-0.568,0-1.135,0-1.703,0.002C56.9,26.276,56.879,26.29,56.85,26.302z M48.953,26.71
			c0.031,0.194,0.043,1.022,0.023,1.456c-0.002,0.038-0.014,0.075-0.02,0.105c-0.066,0.026-0.123,0.047-0.184,0.071
			c0.01,0.119-0.02,0.229,0.025,0.347c0.148,0.032,0.299,0.019,0.445,0.015c0.154-0.003,0.314,0.034,0.459-0.029
			c0.025-0.258,0.023-0.301-0.016-0.357c-0.053-0.012-0.104-0.024-0.158-0.037c-0.006-0.041-0.018-0.071-0.018-0.102
			c0-0.466,0-0.932,0.002-1.397c0-0.022,0.012-0.044,0.02-0.067c0.059-0.02,0.117-0.039,0.174-0.059
			c0.016-0.126,0.025-0.242-0.008-0.353c-0.207-0.042-0.711-0.041-0.914,0.004c-0.014,0.11-0.021,0.225,0.004,0.352
			C48.84,26.674,48.891,26.69,48.953,26.71z M53.07,26.657c0.068,0.025,0.117,0.045,0.178,0.068
			c0.002,0.179,0.004,0.351,0.004,0.524c0,0.174,0.004,0.348,0,0.521c-0.008,0.17,0.025,0.344-0.023,0.506
			c-0.062,0.021-0.113,0.038-0.164,0.054c-0.006,0.13-0.031,0.247,0.031,0.373c0.148,0.001,0.299,0.007,0.447,0.002
			c0.146-0.005,0.297,0.028,0.441-0.032c0.01-0.124,0.025-0.24-0.012-0.352c-0.061-0.015-0.111-0.028-0.162-0.041
			c-0.01-0.029-0.023-0.051-0.023-0.073c-0.002-0.466-0.002-0.932-0.002-1.397c0-0.03,0.01-0.061,0.014-0.095
			c0.062-0.019,0.121-0.036,0.176-0.052c0.031-0.23,0.031-0.23-0.021-0.373c-0.25-0.03-0.693-0.025-0.875,0.013
			C53.043,26.414,53.053,26.53,53.07,26.657z M44.773,28.257c0-0.235,0-0.447,0-0.66c0-0.222,0.002-0.443-0.002-0.664
			c-0.002-0.211,0.016-0.424-0.014-0.644c-0.178-0.019-0.338-0.042-0.494,0.012c-0.006,0.034-0.016,0.057-0.016,0.08
			c0,0.735,0,1.471,0,2.207c0,0.036,0.02,0.072,0.033,0.119c0.236,0,0.465,0.004,0.695-0.001c0.225-0.004,0.453,0.021,0.688-0.02
			c0.018-0.136,0.027-0.257-0.008-0.387C45.369,28.248,45.084,28.308,44.773,28.257z M20.023,28.282
			c-0.033-0.194-0.037-1.336-0.005-1.568c0.054-0.018,0.111-0.037,0.167-0.056c0.017-0.126,0.025-0.242-0.006-0.355
			c-0.21-0.046-0.729-0.042-0.896,0.007c-0.016,0.121-0.036,0.244,0.014,0.358c0.062,0.018,0.112,0.033,0.163,0.048
			c0,0.52,0,1.024-0.001,1.528c0,0.013-0.015,0.026-0.023,0.039c-0.05,0.014-0.101,0.028-0.158,0.044
			c-0.004,0.063-0.009,0.118-0.008,0.172c0.001,0.061,0.008,0.122,0.012,0.178c0.249,0.045,0.74,0.04,0.906-0.009
			c0.015-0.113,0.022-0.229-0.006-0.346C20.122,28.307,20.071,28.294,20.023,28.282z M63.846,28.702
			c0.039-0.232,0.039-0.232-0.006-0.387c-0.053-0.013-0.105-0.026-0.148-0.038c-0.008-0.021-0.01-0.029-0.01-0.036
			c-0.002-0.498-0.004-0.994-0.002-1.492c0-0.014,0.014-0.028,0.02-0.042c0.053-0.014,0.105-0.028,0.158-0.043
			c0.023-0.132,0.031-0.253-0.006-0.37c-0.254-0.035-0.711-0.031-0.889,0.008c-0.033,0.12-0.035,0.241,0,0.362
			c0.062,0.019,0.111,0.035,0.156,0.048c0.008,0.025,0.02,0.039,0.02,0.054c-0.002,0.49-0.002,0.979-0.004,1.469
			c0,0.014-0.014,0.027-0.023,0.047c-0.047,0.013-0.098,0.026-0.156,0.042c-0.02,0.121-0.021,0.235,0.008,0.378
			C63.254,28.707,63.543,28.71,63.846,28.702z M24.218,28.706c0.28,0,0.533,0.002,0.784-0.001c0.044-0.001,0.088-0.02,0.131-0.03
			c0.009-0.129,0.029-0.246-0.017-0.355c-0.061-0.015-0.112-0.027-0.156-0.038c-0.011-0.029-0.02-0.044-0.02-0.059
			c0-0.49,0-0.98,0.002-1.47c0-0.014,0.013-0.028,0.021-0.045c0.05-0.014,0.102-0.029,0.169-0.048
			c0.007-0.123,0.031-0.244-0.021-0.378c-0.152-0.017-0.302-0.012-0.45-0.008c-0.146,0.005-0.297-0.03-0.441,0.032
			c-0.017,0.125-0.025,0.241,0.006,0.356c0.063,0.023,0.119,0.043,0.169,0.062c0.027,0.412,0.018,1.37-0.015,1.556
			c-0.054,0.018-0.11,0.036-0.163,0.053C24.218,28.456,24.218,28.565,24.218,28.706z M71.938,26.908
			c-0.006-0.122-0.037-0.221-0.115-0.31c-0.064,0.025-0.121,0.051-0.182,0.069c-0.062,0.02-0.119,0.078-0.199,0.048
			c-0.014-0.143,0.061-0.279,0.014-0.428c-0.111-0.017-0.217-0.035-0.314,0.014c-0.045,0.148,0.047,0.285,0.004,0.438
			c-0.133-0.049-0.256-0.094-0.387-0.141c-0.053,0.108-0.109,0.199-0.092,0.317c0.133,0.025,0.254,0.048,0.402,0.077
			c-0.105,0.125-0.193,0.232-0.285,0.343c0.084,0.086,0.164,0.157,0.281,0.19c0.076-0.125,0.148-0.245,0.225-0.372
			c0.115,0.113,0.139,0.277,0.27,0.381c0.088-0.065,0.17-0.124,0.266-0.191c-0.102-0.117-0.189-0.223-0.297-0.348
			C71.678,26.964,71.805,26.937,71.938,26.908z M45.93,26.241c-0.064,0.257-0.145,0.483-0.172,0.734
			c0.105,0.021,0.195,0.021,0.295,0.002c0.109-0.2,0.184-0.415,0.271-0.624c0.012-0.031,0.006-0.07,0.01-0.112
			C46.195,26.241,46.072,26.241,45.93,26.241z M14.882,26.07c0.103,0,0.195,0,0.29,0c0.08-0.106,0.157-0.205,0.23-0.307
			c0.021-0.029,0.029-0.065,0.05-0.111c-0.152-0.009-0.284-0.025-0.417,0.012C14.977,25.796,14.906,25.917,14.882,26.07z
			 M60.07,26.072c0.074-0.099,0.156-0.204,0.232-0.311c0.02-0.028,0.025-0.065,0.041-0.108c-0.141,0-0.266,0-0.385,0
			c-0.135,0.232-0.146,0.262-0.162,0.419C59.883,26.072,59.969,26.072,60.07,26.072z"/>
		<path fill-rule="evenodd" clip-rule="evenodd" fill="#FFFFFF" d="M74.295,40.81c0.031,0.237,0.029,24.283,0.002,24.488
			c-0.041,0.008-0.086,0.021-0.131,0.023c-0.072,0.004-0.143,0.002-0.215,0.002c-11.014,0-22.027,0-33.042,0
			c-0.109,0-0.219-0.004-0.34-0.006c-0.01-0.059-0.021-0.104-0.023-0.146c-0.004-0.074-0.001-0.143-0.001-0.215
			c0-7.93,0-15.857,0-23.786c0-0.11,0.001-0.22,0.002-0.339c0.059-0.01,0.102-0.022,0.149-0.024c0.07-0.004,0.143-0.001,0.213-0.001
			c11.014,0,22.028,0,33.043,0C74.062,40.806,74.172,40.809,74.295,40.81z M59.887,61.111c-0.025-0.08-0.037-0.131-0.057-0.182
			c-0.137-0.354-0.271-0.709-0.416-1.059c-1.625-3.932-3.25-7.863-4.875-11.793c-0.191-0.461-0.389-0.916-0.588-1.374
			c-0.092-0.211-0.205-0.41-0.35-0.592c-0.145-0.186-0.328-0.318-0.557-0.385c-0.113-0.035-0.227-0.066-0.344-0.082
			c-0.576-0.072-1.154-0.072-1.73-0.053c-0.344,0.012-0.623,0.17-0.803,0.473c-0.086,0.143-0.158,0.293-0.221,0.445
			c-0.689,1.665-1.375,3.333-2.066,4.999c-1.113,2.678-2.23,5.357-3.348,8.035c-0.188,0.453-0.383,0.902-0.521,1.373
			c-0.018,0.061-0.059,0.117-0.021,0.191c0.059,0.004,0.119,0.01,0.184,0.01c0.963,0.008,1.93,0.01,2.895,0.02
			c0.383,0.002,0.652-0.16,0.791-0.521c0.021-0.053,0.041-0.104,0.059-0.158c0.047-0.158,0.096-0.316,0.141-0.477
			c0.096-0.352,0.184-0.703,0.281-1.055c0.074-0.258,0.174-0.508,0.307-0.742c0.189-0.338,0.477-0.545,0.852-0.629
			c0.324-0.076,0.654-0.102,0.988-0.08c0.395,0.025,0.789,0.057,1.184,0.082c0.531,0.035,1.059-0.031,1.588-0.064
			c0.164-0.01,0.332-0.025,0.496-0.02c0.166,0.004,0.332,0.021,0.494,0.051c0.385,0.068,0.654,0.297,0.844,0.633
			c0.135,0.244,0.23,0.504,0.311,0.768c0.15,0.508,0.299,1.018,0.449,1.523c0.029,0.1,0.062,0.197,0.145,0.27
			c0.094,0.082,0.186,0.17,0.285,0.25c0.119,0.098,0.258,0.148,0.416,0.143c0.094-0.002,0.189,0.008,0.285,0.008
			c0.9,0.002,1.803,0,2.705,0C59.742,61.118,59.797,61.113,59.887,61.111z M70.613,52.24c-0.316,0-0.625,0-0.934,0s-0.617,0-0.926,0
			c-0.307,0-0.617,0-0.924-0.002c-0.309,0-0.617,0.004-0.914-0.002c-0.059-0.098-0.039-0.186-0.039-0.271
			c-0.002-1.02-0.002-2.041-0.002-3.061c0-0.158,0.002-0.316,0-0.475c-0.002-0.045-0.016-0.088-0.025-0.139
			c-0.074-0.004-0.137-0.01-0.199-0.01c-0.174-0.002-0.348,0-0.521,0c-0.674,0-1.344-0.002-2.018,0
			c-0.082,0-0.174-0.023-0.262,0.041c-0.002,0.082-0.006,0.168-0.006,0.256c0,0.654,0,1.312,0,1.969
			c0,0.498,0.002,0.996-0.002,1.494c0,0.076,0.021,0.158-0.051,0.238c-0.076,0-0.162,0-0.25,0c-1.059,0-2.117-0.002-3.178,0.002
			c-0.086,0-0.174-0.025-0.264,0.037c-0.002,0.074-0.006,0.152-0.006,0.23c-0.002,0.293,0,0.584,0,0.877
			c0,0.475-0.002,0.949,0,1.424c0,0.068-0.018,0.145,0.061,0.215c0.062,0,0.141,0,0.221,0c0.252,0,0.506,0,0.758,0
			c0.824,0,1.646-0.002,2.469,0c0.084,0,0.174-0.021,0.266,0.043c0.002,0.078,0.004,0.166,0.004,0.25
			c0.002,0.918,0.002,1.836,0.002,2.754c0,0.182-0.002,0.363,0,0.545c0.002,0.045,0.02,0.088,0.029,0.131
			c0.045,0.006,0.076,0.012,0.105,0.012c0.926,0,1.852,0,2.777,0c0.035,0,0.074-0.012,0.125-0.021
			c0.004-0.318,0.002-0.625,0.002-0.934c0-0.307,0-0.617,0-0.924c0-0.309-0.002-0.617,0-0.926c0.004-0.307-0.016-0.613,0.016-0.932
			c0.072-0.004,0.133-0.012,0.195-0.012c0.293-0.002,0.586-0.002,0.877-0.002c0.791,0,1.582,0.002,2.373,0
			c0.084,0,0.174,0.016,0.248-0.023C70.656,54.786,70.654,52.456,70.613,52.24z"/>
		<path fill-rule="evenodd" clip-rule="evenodd" fill="#FFFFFF" d="M39.656,74.98c-0.046,0.012-0.075,0.025-0.105,0.027
			c-0.063,0.004-0.126,0.004-0.189,0.004c-8.451,0-16.901,0-25.352-0.002c-0.413,0-0.82-0.055-1.218-0.168
			c-1.07-0.305-1.728-1.006-2.001-2.076c-0.098-0.385-0.127-0.779-0.139-1.176c-0.002-0.057,0-0.111,0-0.166
			c0-10.088,0-20.176,0-30.266c0-0.109,0.002-0.219,0.003-0.342c0.057-0.009,0.101-0.021,0.146-0.023
			c0.079-0.004,0.158-0.002,0.237-0.002c2.651,0,5.302-0.001,7.952,0c6.789,0.003,13.579,0.006,20.367,0.009
			c0.086,0,0.172,0,0.271,0c0.011,0.054,0.025,0.097,0.029,0.141c0.005,0.062,0.002,0.126,0.002,0.189c0,11.181,0,22.361,0,33.541
			C39.659,74.773,39.657,74.874,39.656,74.98z M37.552,54.9c-0.138-0.26-0.3-0.451-0.519-0.609
			c-3.225-2.328-6.446-4.666-9.669-6.998c-0.397-0.287-0.8-0.569-1.196-0.856c-0.126-0.092-0.261-0.143-0.417-0.145
			c-0.267-0.006-0.521,0.043-0.754,0.172c-0.151,0.084-0.296,0.184-0.437,0.285c-0.186,0.133-0.361,0.282-0.547,0.415
			c-0.771,0.557-1.542,1.107-2.315,1.66c-0.05,0.035-0.104,0.066-0.161,0.102c-0.094-0.078-0.128-0.186-0.177-0.283
			c-0.092-0.184-0.176-0.371-0.27-0.555c-0.043-0.084-0.094-0.164-0.148-0.242c-0.072-0.102-0.172-0.152-0.298-0.17
			c-0.433-0.059-0.867-0.068-1.302-0.078c-0.134-0.002-0.268,0.014-0.402,0.018c-0.341,0.008-0.681,0.012-1.021,0.02
			c-0.045,0.002-0.09,0.012-0.148,0.02c-0.004,0.129-0.007,0.246-0.011,0.361c-0.012,0.365-0.014,0.727,0.052,1.088
			c0.068,0.375,0.082,0.752,0.052,1.135c-0.069,0.893-0.428,1.643-1.082,2.252c-0.345,0.32-0.733,0.578-1.154,0.785
			c-0.285,0.141-0.557,0.299-0.804,0.502c-0.343,0.277-0.681,0.566-1.02,0.85c-0.011,0.01-0.016,0.027-0.033,0.059
			c0.021,0.059,0.045,0.133,0.071,0.205c0.43,0.105,0.866,0.137,1.287,0.234c0.035,0.113,0.021,0.217,0.021,0.316
			c0,3.648,0,7.295,0,10.943c0,0.07,0,0.143,0,0.213c-0.006,0.918-0.015,1.836-0.017,2.754c0,0.148,0.019,0.299,0.049,0.445
			c0.063,0.307,0.267,0.479,0.568,0.529c0.147,0.025,0.298,0.041,0.447,0.041c0.672-0.002,1.345-0.014,2.017-0.016
			c1.614-0.006,3.228-0.014,4.842-0.014c1.755,0,3.512,0.01,5.269,0.014c2.049,0.002,4.098,0,6.147,0
			c0.158,0,0.316-0.01,0.474-0.023c0.078-0.006,0.157-0.023,0.231-0.049c0.127-0.043,0.218-0.131,0.247-0.266
			c0.027-0.123,0.048-0.248,0.054-0.375c0.012-0.268,0.015-0.537,0.015-0.805c0-4.455,0-8.91,0-13.365
			c0-0.078-0.002-0.158,0.001-0.236c0.002-0.045,0.016-0.09,0.026-0.143c0.23-0.02,0.45-0.037,0.67-0.055
			c0.229-0.018,0.459-0.025,0.686-0.057C37.094,54.947,37.318,54.972,37.552,54.9z"/>
		<path fill-rule="evenodd" clip-rule="evenodd" fill="#FFFFFF" d="M66.205,74.652c-0.033-0.264-0.049-7.631-0.021-8.621
			c0.002-0.047,0.008-0.092,0.012-0.125c0.018-0.018,0.025-0.023,0.031-0.027c0.006-0.002,0.014-0.006,0.021-0.006
			c2.596-0.002,5.189-0.004,7.785-0.006c0.047,0,0.094,0.006,0.139,0.008c0.064,0.07,0.039,0.154,0.039,0.23
			c0.004,0.633,0.004,1.266,0.002,1.898c-0.002,0.988,0.033,1.977,0.08,2.963c0.023,0.459,0.064,0.914,0.082,1.373
			c0.006,0.156-0.021,0.314-0.057,0.469c-0.061,0.273-0.189,0.518-0.355,0.744c-0.34,0.463-0.766,0.818-1.311,1.018
			c-0.193,0.072-0.395,0.109-0.604,0.107c-0.434-0.008-0.869-0.014-1.303-0.021c-0.119-0.002-0.238-0.008-0.355-0.008
			c-1.299,0.004-2.596,0.006-3.893,0.01C66.404,74.657,66.311,74.654,66.205,74.652z M72.156,68.624
			c0.01-0.025,0.021-0.043,0.018-0.055c-0.057-0.164-0.115-0.328-0.174-0.49c-0.035-0.094-0.105-0.154-0.193-0.199
			c-0.207-0.104-0.426-0.164-0.658-0.18c-0.467-0.033-0.912,0.061-1.336,0.25c-0.418,0.186-0.787,0.439-1.082,0.791
			c-0.424,0.506-0.564,1.096-0.439,1.73s0.529,1.074,1.117,1.32c0.578,0.244,1.191,0.299,1.814,0.256
			c0.174-0.01,0.346-0.039,0.508-0.104c0.115-0.047,0.203-0.119,0.254-0.236c0.049-0.115,0.104-0.387,0.105-0.551
			c-0.023-0.004-0.047-0.014-0.068-0.01c-0.227,0.033-0.451,0.07-0.678,0.104c-0.26,0.039-0.52,0.049-0.781,0.025
			c-0.512-0.047-0.92-0.389-1.053-0.889c-0.041-0.15-0.064-0.309-0.066-0.467c-0.002-0.229,0.031-0.457,0.141-0.664
			c0.229-0.43,0.588-0.658,1.066-0.678c0.291-0.014,0.586,0.004,0.877,0.02C71.738,68.611,71.947,68.636,72.156,68.624z"/>
		<path fill-rule="evenodd" clip-rule="evenodd" fill="#FFFFFF" d="M49.219,65.896c0.025-0.008,0.047-0.02,0.068-0.02
			c2.594,0,5.188,0,7.781,0c0.021,0,0.045,0.014,0.068,0.021c0.008,0.021,0.02,0.045,0.02,0.066
			c0.002,2.861,0.002,5.725,0.002,8.598c-0.051,0.012-0.094,0.025-0.137,0.029c-0.057,0.006-0.111,0.002-0.168,0.002
			c-2.451,0-4.902,0-7.354,0c-0.092,0-0.186-0.006-0.277-0.008c-0.012-0.039-0.023-0.061-0.023-0.082
			c-0.002-2.848-0.002-5.693,0-8.539C49.199,65.943,49.213,65.919,49.219,65.896z M55.562,71.904
			c-0.025-0.064-0.037-0.1-0.053-0.135c-0.506-1.08-1.012-2.162-1.518-3.242c-0.057-0.121-0.113-0.242-0.182-0.357
			c-0.275-0.469-0.906-0.475-1.195-0.018c-0.041,0.068-0.076,0.141-0.107,0.211c-0.531,1.131-1.059,2.26-1.588,3.391
			c-0.021,0.049-0.037,0.102-0.057,0.16c0.184,0.072,0.363,0.082,0.545,0.086c0.307,0.006,0.527-0.135,0.68-0.395
			c0.027-0.047,0.055-0.098,0.072-0.148c0.064-0.201,0.217-0.303,0.406-0.365c0.314-0.102,0.635-0.123,0.961-0.074
			c0.123,0.02,0.246,0.051,0.365,0.092c0.154,0.055,0.275,0.15,0.334,0.314c0.031,0.078,0.074,0.156,0.123,0.229
			c0.111,0.172,0.266,0.293,0.471,0.328C55.066,72.023,55.305,71.991,55.562,71.904z"/>
		<path fill-rule="evenodd" clip-rule="evenodd" fill="#FFFFFF" d="M40.56,71.532c-0.003-0.021-0.013-0.051-0.013-0.078
			c-0.001-1.852-0.001-3.703-0.001-5.562c0.06-0.01,0.104-0.021,0.149-0.023c0.055-0.006,0.11-0.002,0.166-0.002c2.5,0,5,0,7.502,0
			c0.092,0,0.186,0.004,0.293,0.006c0.01,0.055,0.02,0.098,0.021,0.143c0.004,0.062,0.002,0.127,0.002,0.189c0,2.691,0,5.381,0,8.07
			c0,0.096,0,0.189,0,0.295c-0.055,0.012-0.098,0.025-0.143,0.029c-0.062,0.004-0.125,0.002-0.189,0.002c-2.492,0-4.984,0-7.477,0
			c-0.094,0-0.188,0-0.293,0c-0.011-0.045-0.029-0.082-0.029-0.117c-0.002-0.816-0.002-1.631-0.001-2.445
			c0-0.037,0.011-0.074,0.019-0.125c0.109-0.006,0.211-0.008,0.312-0.018c0.149-0.016,0.301-0.021,0.446-0.053
			c0.33-0.066,0.578-0.246,0.733-0.549c0.022-0.041,0.048-0.084,0.062-0.129c0.056-0.174,0.188-0.248,0.357-0.266
			c0.477-0.047,0.93,0.035,1.356,0.256c0.082,0.043,0.158,0.105,0.225,0.172c0.26,0.271,0.586,0.449,0.896,0.664
			c0.111-0.094,0.193-0.199,0.273-0.316c-0.023-0.061-0.041-0.119-0.066-0.176c-0.479-1.051-0.955-2.102-1.436-3.152
			c-0.033-0.07-0.066-0.145-0.105-0.211c-0.129-0.229-0.363-0.338-0.62-0.297c-0.271,0.041-0.467,0.188-0.585,0.432
			c-0.212,0.441-0.421,0.885-0.63,1.328c-0.205,0.438-0.407,0.875-0.609,1.312c-0.111,0.242-0.27,0.445-0.496,0.594
			c-0.026,0.016-0.057,0.027-0.086,0.039C40.589,71.546,40.58,71.54,40.56,71.532z M47.004,71.185
			c0.088-0.293,0.076-0.574,0.158-0.836c0.322-0.16,0.662-0.264,0.996-0.443c-0.064-0.045-0.105-0.078-0.15-0.105
			c-0.246-0.143-0.49-0.287-0.742-0.424c-0.094-0.051-0.141-0.119-0.148-0.221c-0.004-0.055-0.006-0.111-0.018-0.164
			c-0.023-0.109-0.049-0.217-0.084-0.32c-0.025-0.078-0.082-0.143-0.17-0.148c-0.18-0.016-0.359-0.021-0.529,0.066
			c-0.025,0.266-0.047,0.525-0.07,0.793c-0.346,0.148-0.686,0.291-1.049,0.447c0.066,0.043,0.107,0.076,0.154,0.1
			c0.24,0.125,0.48,0.244,0.719,0.365c0.055,0.029,0.107,0.064,0.16,0.096c0.008,0.072,0.012,0.135,0.023,0.197
			c0.021,0.123,0.041,0.25,0.072,0.371c0.035,0.148,0.131,0.232,0.287,0.232C46.738,71.191,46.863,71.189,47.004,71.185z"/>
		<path fill-rule="evenodd" clip-rule="evenodd" fill="#FFFFFF" d="M65.66,65.872c0,2.891,0,5.768,0,8.658
			c-0.047,0.01-0.088,0.025-0.133,0.029c-0.072,0.006-0.143,0.002-0.215,0.002c-2.41,0-4.822,0-7.236,0c-0.102,0-0.203,0-0.314,0
			c-0.012-0.059-0.023-0.102-0.029-0.146c-0.004-0.055,0-0.111,0-0.166c0-2.697,0-5.395,0-8.092c0-0.094,0.004-0.188,0.004-0.289
			c0.059-0.01,0.104-0.021,0.148-0.027c0.057-0.004,0.111,0,0.166,0c2.436,0,4.871,0,7.309,0
			C65.451,65.841,65.549,65.825,65.66,65.872z M59.986,71.982c0.248,0.014,0.484,0.025,0.719,0.037
			c0.205,0.008,0.41,0.02,0.617,0.018c0.49-0.004,0.955-0.117,1.385-0.355c0.223-0.123,0.43-0.266,0.592-0.467
			c0.117-0.146,0.166-0.305,0.1-0.484c-0.061-0.17-0.123-0.342-0.191-0.51c-0.066-0.168-0.141-0.334-0.213-0.5
			c-0.037-0.086-0.039-0.168-0.002-0.252c0.025-0.059,0.049-0.117,0.068-0.178c0.043-0.119,0.092-0.236,0.123-0.357
			c0.074-0.271,0.01-0.496-0.219-0.672c-0.186-0.141-0.389-0.244-0.609-0.309s-0.451-0.09-0.68-0.092
			c-0.529-0.002-1.059,0.004-1.588,0.01c-0.037,0-0.072,0.02-0.105,0.027C59.953,68.115,59.955,71.763,59.986,71.982z"/>
		<path fill-rule="evenodd" clip-rule="evenodd" fill="#FFFFFF" d="M42.351,70.404c0.01-0.066,0.008-0.098,0.02-0.125
			c0.201-0.523,0.404-1.043,0.617-1.59c0.122,0.191,0.172,0.379,0.249,0.557c0.08,0.188,0.154,0.379,0.229,0.57
			c0.072,0.182,0.158,0.357,0.211,0.535c-0.014,0.021-0.018,0.029-0.023,0.035c-0.004,0.004-0.014,0.008-0.02,0.008
			c-0.348,0.004-0.696,0.008-1.042,0.01C42.521,70.404,42.451,70.404,42.351,70.404z"/>
		<path fill-rule="evenodd" clip-rule="evenodd" fill="#FFFFFF" d="M18.403,26.963c-0.003-0.014-0.01-0.027-0.011-0.042
			c0-0.009,0.008-0.018,0.013-0.027c-0.001,0.006-0.003,0.014-0.004,0.021c0,0.015,0,0.028,0.001,0.043
			C18.402,26.959,18.403,26.963,18.403,26.963z"/>
		<path fill-rule="evenodd" clip-rule="evenodd" fill="#FFFFFF" d="M34.272,26.718c0.192-0.028,0.372-0.024,0.546,0.032
			c0.251,0.081,0.414,0.247,0.475,0.51c0.044,0.191,0.031,0.377-0.037,0.557c-0.097,0.258-0.285,0.412-0.562,0.445
			c-0.138,0.017-0.279,0.038-0.414-0.007C34.245,28.075,34.238,27.001,34.272,26.718z"/>
		<path fill-rule="evenodd" clip-rule="evenodd" fill="#FFFFFF" d="M27.165,27.509c0.003,0.185-0.037,0.357-0.132,0.519
			c-0.213,0.361-0.779,0.359-0.997,0.007c-0.145-0.233-0.167-0.488-0.123-0.752c0.025-0.151,0.086-0.284,0.185-0.403
			c0.205-0.248,0.73-0.28,0.938,0.084C27.133,27.133,27.168,27.315,27.165,27.509z"/>
		<path fill-rule="evenodd" clip-rule="evenodd" fill="#FFFFFF" d="M50.598,27.343c-0.023-0.21-0.021-0.419,0-0.636
			c0.156-0.042,0.305-0.037,0.449,0.005c0.146,0.043,0.213,0.193,0.168,0.34c-0.047,0.145-0.127,0.244-0.283,0.284
			C50.822,27.363,50.719,27.379,50.598,27.343z"/>
		<path fill-rule="evenodd" clip-rule="evenodd" fill="#FFFFFF" d="M69.082,26.695c0.156,0,0.275-0.013,0.393,0.003
			c0.191,0.027,0.27,0.177,0.225,0.366c-0.045,0.195-0.189,0.26-0.357,0.293c-0.074,0.015-0.154,0.002-0.238,0.002
			C69.062,27.135,69.092,26.925,69.082,26.695z"/>
		<path fill-rule="evenodd" clip-rule="evenodd" fill="#FFFFFF" d="M61.455,26.698c0.137-0.029,0.262-0.026,0.385,0
			c0.18,0.036,0.256,0.181,0.215,0.355c-0.047,0.206-0.197,0.272-0.375,0.306c-0.066,0.013-0.141,0.001-0.207,0.001
			C61.426,27.194,61.422,26.992,61.455,26.698z"/>
		<path fill-rule="evenodd" clip-rule="evenodd" fill="#FFFFFF" d="M37.422,27.735c-0.191,0.011-0.375,0.023-0.575-0.01
			c0.067-0.309,0.187-0.589,0.267-0.877c0.017-0.003,0.024-0.006,0.032-0.006c0.006,0.001,0.015,0.007,0.017,0.011
			c0.087,0.269,0.174,0.537,0.259,0.806C37.428,27.678,37.422,27.702,37.422,27.735z"/>
		<path fill-rule="evenodd" clip-rule="evenodd" fill="#FFFFFF" d="M47.205,27.733c0.035-0.241,0.205-0.77,0.299-0.925
			c0.1,0.309,0.191,0.604,0.289,0.914C47.59,27.76,47.404,27.744,47.205,27.733z"/>
		<path fill-rule="evenodd" clip-rule="evenodd" fill="#FFFFFF" d="M49.682,54.984c0.705-1.951,1.398-3.867,2.092-5.785
			c0.016-0.043,0.039-0.084,0.059-0.127c0.082,0.031,0.084,0.1,0.104,0.154c0.215,0.578,0.424,1.158,0.637,1.738
			c0.461,1.262,0.922,2.525,1.383,3.787c0.027,0.072,0.049,0.146,0.078,0.232C52.58,54.984,51.148,54.984,49.682,54.984z"/>
		<path fill-rule="evenodd" clip-rule="evenodd" fill="#FFFFFF" d="M15.398,54.118c0.028-0.025,0.048-0.049,0.073-0.066
			c0.667-0.51,1.322-1.033,2.04-1.471c0.041-0.023,0.08-0.051,0.118-0.08c0.502-0.352,0.72-0.844,0.704-1.447
			c-0.004-0.127-0.024-0.252-0.025-0.379c-0.003-0.395,0-0.791-0.001-1.186c0-0.213-0.012-0.428-0.008-0.641
			c0.002-0.117,0.017-0.236,0.042-0.352c0.038-0.176,0.152-0.287,0.325-0.346c0.138-0.047,0.28-0.043,0.422-0.039
			c0.34,0.008,0.68,0.014,1.02,0.02c0.142,0.002,0.283,0,0.431,0c0.054,0.039,0.051,0.105,0.059,0.166
			c0.054,0.488,0.106,0.975,0.16,1.463c0.013,0.117,0.031,0.232,0.046,0.35c0.103,0.01,0.155-0.061,0.217-0.104
			c0.548-0.389,1.099-0.775,1.642-1.174c0.715-0.521,1.424-1.053,2.138-1.578c0.107-0.078,0.22-0.154,0.338-0.217
			c0.309-0.167,0.625-0.163,0.933-0.004c0.167,0.088,0.324,0.197,0.478,0.309c0.658,0.48,1.31,0.969,1.97,1.447
			c1.832,1.33,3.665,2.654,5.497,3.982c0.41,0.295,0.825,0.588,1.229,0.893c0.265,0.199,0.515,0.418,0.771,0.631
			c0.01,0.008,0.012,0.027,0.018,0.043c-0.023,0.047-0.067,0.023-0.103,0.029c-0.117,0.016-0.235,0.023-0.352,0.047
			c-0.328,0.066-0.536,0.266-0.596,0.596c-0.033,0.178-0.044,0.361-0.049,0.543c-0.006,0.221,0.008,0.441,0.008,0.664
			c0.003,1.701,0.007,3.4,0.008,5.104c0.001,2.705,0,5.41,0,8.117c0,0.094-0.003,0.188-0.006,0.293
			c-0.058,0.008-0.104,0.016-0.149,0.018c-0.055,0.004-0.11,0-0.166,0c-3.457,0-6.915,0-10.373,0c-0.094,0-0.188,0-0.296,0
			c-0.008-0.074-0.021-0.135-0.021-0.195c-0.002-0.355-0.001-0.713-0.001-1.068c0-1.043,0-2.088,0-3.133
			c0-0.086,0.004-0.172,0.007-0.273c0.052-0.006,0.095-0.008,0.153-0.014c0.06,0.613,0.118,1.215,0.178,1.834
			c0.037-0.02,0.064-0.023,0.074-0.039c0.439-0.689,0.503-1.688-0.003-2.449c-0.175-0.262-0.406-0.461-0.696-0.592
			c-0.042-0.018-0.084-0.039-0.139-0.064c0.018-0.051,0.031-0.094,0.049-0.135c0.031-0.072,0.063-0.145,0.1-0.215
			c0.065-0.127,0.051-0.244-0.032-0.355c-0.019-0.025-0.033-0.053-0.052-0.08c-0.139-0.191-0.299-0.365-0.475-0.541
			c-0.041,0.033-0.082,0.057-0.111,0.09c-0.126,0.143-0.251,0.285-0.371,0.432c-0.144,0.178-0.196,0.377-0.134,0.602
			c0.025,0.09,0.032,0.186,0.038,0.273c-0.083,0.061-0.159,0.049-0.241,0.031c-0.053-0.088-0.041-0.184-0.047-0.275
			c-0.017-0.262-0.028-0.521-0.048-0.781c-0.008-0.094-0.03-0.188-0.054-0.279c-0.06-0.23-0.188-0.418-0.388-0.547
			c-0.119-0.078-0.244-0.148-0.372-0.211c-0.199-0.096-0.404-0.18-0.605-0.271c-0.07-0.031-0.138-0.07-0.222-0.113
			c0.06-0.078,0.111-0.137,0.154-0.201c0.092-0.137,0.195-0.27,0.268-0.418c0.146-0.295,0.095-0.545-0.129-0.781
			c-0.161-0.17-0.347-0.26-0.589-0.248c-0.191,0.01-0.378,0.031-0.561,0.084c-0.221,0.062-0.24,0.086-0.256,0.307
			c-0.006,0.086-0.01,0.174-0.001,0.26c0.033,0.316,0.071,0.629,0.107,0.943c0.009,0.078,0.018,0.154,0.03,0.252
			c-0.076,0.002-0.136,0.01-0.196,0.01c-0.139-0.006-0.267,0.027-0.383,0.104c-0.161,0.102-0.324,0.197-0.479,0.307
			c-0.096,0.066-0.182,0.152-0.266,0.234c-0.093,0.092-0.138,0.207-0.152,0.338c-0.068,0.607-0.068,1.217-0.062,1.824
			c0.003,0.301,0.013,0.602,0.016,0.902c0.003,0.391,0.026,0.441,0.338,0.705c0.057-0.004,0.072-0.053,0.096-0.09
			c0.208-0.342,0.269-0.723,0.28-1.115c0.007-0.205,0.001-0.412,0.002-0.617c0-0.246,0.03-0.488,0.103-0.725
			c0.015-0.049,0.043-0.094,0.065-0.141c0.021,0.008,0.034,0.014,0.034,0.016c0.005,2.074,0.01,4.146,0.013,6.219
			c0,0.045-0.008,0.092-0.013,0.141c-0.088,0.051-0.176,0.033-0.261,0.033c-0.696,0.002-1.392,0-2.089,0
			c-0.229,0-0.459,0.002-0.688,0c-0.062-0.002-0.123-0.01-0.197-0.016c-0.005-0.057-0.013-0.102-0.014-0.146
			c-0.002-0.08-0.001-0.16-0.001-0.238c0-4.24,0.001-8.482,0-12.723c0-0.389-0.005-0.775-0.023-1.162
			c-0.008-0.172-0.046-0.344-0.085-0.514c-0.054-0.23-0.124-0.457-0.186-0.686C15.41,54.197,15.405,54.159,15.398,54.118z
			 M30.103,59.036c0.127,0.021,0.258,0.043,0.39,0.068c0.326,0.062,0.65,0.131,0.978,0.188c0.29,0.047,0.583,0.053,0.874,0.002
			c0.436-0.076,0.802-0.291,1.101-0.611c0.671-0.717,0.912-1.572,0.781-2.537c-0.037-0.266-0.127-0.52-0.262-0.758
			c-0.208-0.367-0.501-0.646-0.856-0.869c-0.27-0.168-0.562-0.291-0.862-0.389c-0.174-0.059-0.336-0.137-0.484-0.246
			c-0.119-0.086-0.208-0.191-0.248-0.336c-0.021-0.076-0.049-0.15-0.077-0.225c-0.306-0.818-0.844-1.422-1.653-1.766
			c-0.62-0.264-1.268-0.377-1.942-0.334c-0.705,0.047-1.316,0.314-1.847,0.773c-0.222,0.191-0.423,0.404-0.594,0.643
			c-0.136,0.191-0.321,0.297-0.54,0.363c-0.148,0.045-0.296,0.045-0.446,0.025c-0.371-0.049-0.741-0.045-1.111,0.012
			c-0.472,0.072-0.895,0.252-1.258,0.564c-0.23,0.201-0.416,0.436-0.565,0.697c-0.087,0.15-0.206,0.262-0.36,0.332
			c-0.136,0.061-0.277,0.115-0.42,0.158c-0.297,0.09-0.582,0.203-0.84,0.375c-0.449,0.301-0.749,0.709-0.813,1.252
			c-0.064,0.527,0.019,1.041,0.229,1.531c0.17,0.396,0.459,0.678,0.859,0.838c0.153,0.062,0.313,0.111,0.474,0.146
			c0.193,0.041,0.39,0.072,0.586,0.09c0.286,0.025,0.532,0.121,0.746,0.32c0.15,0.139,0.317,0.26,0.485,0.379
			c0.246,0.176,0.506,0.324,0.799,0.406c0.402,0.117,0.784,0.076,1.134-0.158c0.125-0.082,0.241-0.18,0.352-0.279
			c0.271-0.248,0.481-0.545,0.687-0.846c0.024-0.035,0.054-0.066,0.092-0.111c0.037,0.055,0.062,0.094,0.088,0.133
			c0.09,0.139,0.175,0.283,0.272,0.416c0.285,0.396,0.616,0.744,1.045,0.984c0.61,0.342,1.23,0.367,1.859,0.051
			c0.309-0.152,0.576-0.361,0.804-0.617C29.742,59.497,29.908,59.277,30.103,59.036z"/>
		<path fill-rule="evenodd" clip-rule="evenodd" fill="#FFFFFF" d="M21.313,63.216c0.078,0,0.148,0,0.216,0
			c0.051,0.088,0.03,0.178,0.03,0.262c0.002,1.051,0.001,2.104,0.002,3.154c0,0.086,0.004,0.172,0.007,0.27
			c0.114,0.014,0.213,0.027,0.323,0.041c0.021-0.053,0.042-0.092,0.053-0.135c0.082-0.348,0.161-0.693,0.243-1.039
			c0.006-0.029,0.023-0.059,0.037-0.084c0.003-0.006,0.015-0.01,0.021-0.008c0.014,0.002,0.033,0.008,0.038,0.018
			c0.01,0.02,0.016,0.045,0.017,0.066c0.002,0.049,0.002,0.096,0.002,0.143c0,1.186,0,2.373-0.001,3.559
			c0,0.078,0.017,0.158-0.028,0.23c-0.174,0.035-0.766,0.039-1.027,0.008c-0.007-0.049-0.021-0.102-0.022-0.154
			c-0.003-0.195-0.001-0.395-0.001-0.592c0-0.893-0.001-1.787,0-2.68c0.002-0.902,0.006-1.803,0.008-2.703
			C21.231,63.452,21.232,63.333,21.313,63.216z"/>
		<path fill-rule="evenodd" clip-rule="evenodd" fill="#FFFFFF" d="M20.014,65.913c0.039,0.004,0.081-0.004,0.112,0.01
			c0.021,0.012,0.031,0.053,0.035,0.08c0.006,0.047,0.004,0.096,0.004,0.143c0,1.105,0,2.211,0,3.316
			c0,0.062-0.005,0.125-0.009,0.201c-0.047,0.01-0.09,0.016-0.128,0.021c-0.014-0.023-0.028-0.035-0.03-0.049
			c-0.005-0.07-0.009-0.143-0.009-0.213c0-1.082-0.001-2.162,0-3.244C19.988,66.093,19.975,66.005,20.014,65.913z"/>
		<path fill-rule="evenodd" clip-rule="evenodd" fill="#FFFFFF" d="M23.157,69.741c-0.049,0.006-0.086,0.008-0.125,0.012
			c-0.056-0.076-0.035-0.158-0.035-0.234c-0.002-0.67-0.001-1.342-0.001-2.012c0-0.141,0-0.281,0-0.439
			c0.058-0.004,0.1-0.006,0.139-0.006c0.012,0.021,0.024,0.035,0.025,0.049c0.004,0.055,0.006,0.109,0.006,0.166
			c0.001,0.75,0.001,1.498,0,2.248C23.167,69.595,23.161,69.665,23.157,69.741z"/>
		<path fill-rule="evenodd" clip-rule="evenodd" fill="#FFFFFF" d="M53.189,68.796c0.102,0.15,0.551,1.234,0.609,1.482
			c-0.033,0.01-0.07,0.027-0.105,0.027c-0.338,0.004-0.676,0.004-1.014,0.002c-0.031,0-0.061-0.01-0.096-0.016
			c-0.002-0.029-0.01-0.053-0.004-0.072C52.736,69.775,53.104,68.917,53.189,68.796z"/>
		<path fill-rule="evenodd" clip-rule="evenodd" fill="#FFFFFF" d="M60.939,71.509c-0.029-0.283-0.023-1.264,0.006-1.434
			c0.311,0.051,1.18,0.34,1.391,0.465c0.006,0.057,0.016,0.117,0.016,0.18c0.002,0.078-0.008,0.156-0.012,0.238
			c-0.035,0.025-0.062,0.055-0.098,0.07C61.828,71.216,61.393,71.355,60.939,71.509z"/>
		<path fill-rule="evenodd" clip-rule="evenodd" fill="#FFFFFF" d="M62.141,69.157c-0.215,0.156-0.943,0.467-1.197,0.516
			c-0.029-0.186-0.029-1.012,0-1.23c0.061,0.01,0.121,0.018,0.18,0.031c0.252,0.059,0.502,0.125,0.756,0.176
			c0.176,0.037,0.252,0.145,0.262,0.312C62.145,69.023,62.141,69.085,62.141,69.157z"/>
		<path fill-rule="evenodd" clip-rule="evenodd" fill="#FFFFFF" d="M28.141,53.228c-0.214-0.229-0.458-0.41-0.594-0.695
			c0.075-0.197,0.225-0.322,0.396-0.424c0.093-0.057,0.2-0.043,0.299-0.004c0.072,0.029,0.143,0.068,0.209,0.109
			c0.141,0.088,0.278,0.18,0.431,0.279c-0.089,0.16-0.238,0.252-0.356,0.373C28.407,52.991,28.275,53.103,28.141,53.228z"/>
		<path fill-rule="evenodd" clip-rule="evenodd" fill="#FFFFFF" d="M23.563,55.542c-0.17-0.217-0.321-0.408-0.45-0.615
			c-0.021-0.035-0.033-0.072-0.049-0.109c-0.038-0.09-0.018-0.17,0.041-0.244c0.03-0.035,0.063-0.072,0.1-0.1
			c0.139-0.104,0.28-0.201,0.425-0.307c0.138,0.113,0.258,0.227,0.367,0.352c0.105,0.121,0.119,0.254,0.04,0.393
			c-0.027,0.049-0.054,0.098-0.087,0.141C23.829,55.208,23.705,55.363,23.563,55.542z"/>
		<path fill-rule="evenodd" clip-rule="evenodd" fill="#FFFFFF" d="M27.518,57.208c-0.151-0.246-0.312-0.459-0.421-0.705
			c-0.062-0.141-0.052-0.279,0.054-0.398c0.068-0.074,0.146-0.143,0.223-0.209c0.058-0.051,0.129-0.059,0.2-0.029
			c0.163,0.066,0.306,0.162,0.417,0.301c0.077,0.094,0.095,0.195,0.044,0.309c-0.019,0.043-0.038,0.086-0.065,0.125
			C27.825,56.798,27.678,56.993,27.518,57.208z"/>
		<path fill-rule="evenodd" clip-rule="evenodd" fill="#FFFFFF" d="M32.082,55.691c-0.209,0.207-0.387,0.408-0.605,0.564
			c-0.154,0.111-0.266,0.102-0.401-0.031c-0.083-0.082-0.154-0.18-0.217-0.279c-0.069-0.109-0.066-0.23,0.009-0.336
			c0.068-0.096,0.149-0.184,0.233-0.266c0.074-0.072,0.171-0.078,0.267-0.047c0.06,0.02,0.119,0.045,0.174,0.076
			C31.712,55.47,31.881,55.572,32.082,55.691z"/>
		<path fill-rule="evenodd" clip-rule="evenodd" fill="#FFFFFF" d="M21.855,57.157c-0.174,0.172-0.336,0.332-0.508,0.479
			c-0.117,0.1-0.248,0.088-0.376,0.023c-0.185-0.092-0.337-0.229-0.504-0.367c0.136-0.17,0.271-0.33,0.447-0.451
			c0.123-0.084,0.254-0.086,0.38-0.018C21.478,56.927,21.656,57.038,21.855,57.157z"/>
		<path fill-rule="evenodd" clip-rule="evenodd" fill="#FFFFFF" d="M23.779,57.853c0.142,0.195,0.273,0.373,0.387,0.561
			c0.074,0.123,0.064,0.24-0.021,0.354c-0.077,0.102-0.164,0.189-0.274,0.256c-0.092,0.055-0.179,0.055-0.269,0.002
			c-0.149-0.088-0.255-0.209-0.326-0.365c-0.042-0.094-0.034-0.184,0.025-0.27c0.009-0.012,0.017-0.027,0.026-0.039
			C23.465,58.181,23.623,58.031,23.779,57.853z"/>
		<path fill-rule="evenodd" clip-rule="evenodd" fill="#FFFFFF" d="M31.969,57.962c0.163-0.23,0.321-0.451,0.479-0.676
			c0.159,0.098,0.457,0.383,0.531,0.504c0.061,0.098,0.065,0.195-0.002,0.285c-0.056,0.074-0.122,0.143-0.191,0.207
			c-0.113,0.102-0.24,0.105-0.37,0.031C32.253,58.22,32.107,58.105,31.969,57.962z"/>
	</g>
</g>
</svg>
