<?xml version="1.0" encoding="utf-8"?>
<!-- Generator: Adobe Illustrator 22.0.1, SVG Export Plug-In . SVG Version: 6.00 Build 0)  -->
<svg version="1.1" id="Layer_1" xmlns="http://www.w3.org/2000/svg" xmlns:xlink="http://www.w3.org/1999/xlink" x="0px" y="0px"
	 viewBox="0 0 1417.3 547.6" style="enable-background:new 0 0 1417.3 547.6;" xml:space="preserve">
<style type="text/css">
	.st0{fill-rule:evenodd;clip-rule:evenodd;fill:#473027;}
	.st1{fill:#473027;}
</style>
<g>
	<g>
		<g>
			<g>
				<g>
					<g>
						<path class="st0" d="M272.3,327.8c2.7-0.9,8.7-2,18.9,12.3c15.1,21.2,36.2,80.2,90.7,80.3c8.3,0,17.1-2.1,23.8-7
							c6.8-5,13-14.5,9.1-23.1c-1.4-3.3-4.8-6.4-8.6-7c-8.5-1.3-11.3,5.4-8.8,9.2c1.3,2,4.6,3.2,8,2.2c1.5-0.5,2.7,3.4,2.6,4.3
							c-0.9,13.9-18.1,16.6-28.9,14.7c-25.6-4.5-38.4-36.9-50.5-56.3c-4.9-7.8-10.2-15.3-16.7-21.8c-6.6-6.5-11-9.3-11-9.3
							s67.7-3.7,67-44.2c-0.3-19.5-16.1-31.8-34.3-37.4c-13.1-4.1-27.2-5.7-41-5.7H238c-3.5,0-7-0.1-10.5,0.1
							c-1.2,0.1-2.5,0.1-3.5,0.9c-1.6,1.3,0.5,3.3,1.5,4.1c2.9,2.1,6.3,3.1,9.7,3.8c1.5,0.3,2.8,0.7,3.2,2.4
							c0.2,1.2,0.2,2.4,0.2,3.6c0,1.6,0,3.1,0,4.7c0,3.3,0,6.6,0,9.9v13.9v16.6c0,6,0,12.1,0,18.2c0,6.2,0,12.4,0,18.5
							c0,5.9-0.1,11.8,0,17.6c0,5.2,0,10.3,0,15.5c0,4.1,0,8.1-0.1,12.1c-0.1,4.2,0.5,10.6-1.5,13.2c-2.6,3.4-8.7,3.1-12.5,4.7
							c-2,0.9-5.6,1.8-6.1,4.3c-1.2,6.7,11.2,4.6,14.8,4.3c10.9-1.1,21.9-0.6,32.8-0.3c5,0.2,10,0.7,15,0.7c2.8,0,17.9,0.3,13.2-5.8
							c-1.4-1.9-8.2-2-13-4.2c-8.8-4.1-11.1-15.8-11.7-22.7c-0.1-1.5-0.2-2.9-0.2-3.7c0-0.9-0.1-18.9-0.2-36.5
							C269.4,330.4,270.2,328.6,272.3,327.8 M269.3,256.5v50.1c0,0-0.7,8.1,17.6,7.9c20.3-0.2,44.3-7.9,43.5-32.9
							c-0.9-25-30.2-31.3-41.9-32C281.2,249,269.3,249.2,269.3,256.5"/>
					</g>
				</g>
				<g>
					<g>
						<path class="st0" d="M567.3,345.3c0,37-32,67-71.4,67c-39.4,0-71.4-30-71.4-67c0-37,32-67,71.4-67
							C535.3,278.3,567.3,308.3,567.3,345.3 M482,285.9c-25.4,5-39.8,35.7-32.2,68.5c7.7,32.8,34.5,55.4,59.9,50.3
							c25.4-5,39.8-35.7,32.1-68.5C534.2,303.4,507.4,280.9,482,285.9"/>
					</g>
				</g>
				<g>
					<path class="st0" d="M708.5,386.9c-3.8-2.3-8.8,1.3-11.9,3.3c-4.4,2.7-8,4.5-13.1,5.6c-15.2,3.3-33,0.2-45.5-9.3
						c-21.9-16.7-27.7-50.5-12.6-73.4c4.1-6.2,10-13.1,16.1-17.3c5.3-3.7,12.5-6.6,19-7.5c10.1-1.4,15.1,0,20.6,3.4
						c7.8,4.7,14.9,13.3,15.2,22.8c0.2,5-1.4,10.7-5.7,13.7c-2.7,1.9-12.6,5-9.6-2c1.1-2.6-1.9-4.9-4.3-5c-3.1-0.2-6.9,0.5-8.6,3.4
						c-1.7,2.9-1.1,6.6,1,9.2c1.7,2.1,4.2,3.8,6.8,4.5c2.1,0.5,4.7,0.7,6.8,0.5c21.9-2.9,25.8-27.1,18-44.5
						c-1.8-3.9-3.3-5.3-2.9-4.9c0.7,0.9,4.3-10.9,8-13.1c3.8-2.2-5.8-8.4-10.8-3.8c-2.2,1.9-1.1,13.1-3.7,11.4
						c-2-1.2-7.3-4.2-17-5.8c-25.6-4-55.8,9.6-70.8,30.5c-4,5.5-7.3,12.2-9.2,18.8c-1.9,6.8-3.2,14.6-3.2,21.7
						c0,18.7,7,38.2,22.1,50.1c4,3.1,8.6,6,13.3,7.9c9,3.7,18.4,5.6,28.2,5.6c13.1,0,25.4-2.6,37-7.9c5.2-2.4,18.2-11,18.2-14.3
						C709.9,388.6,709.5,387.5,708.5,386.9"/>
				</g>
				<g>
					<g>
						<path class="st0" d="M876.6,345.3c0,37-32,67-71.4,67c-39.4,0-71.4-30-71.4-67c0-37,32-67,71.4-67
							C844.6,278.3,876.6,308.3,876.6,345.3 M791.3,285.9c-25.4,5-39.7,35.7-32.1,68.5c7.6,32.8,34.5,55.4,59.9,50.3
							c25.4-5,39.8-35.7,32.1-68.5C843.6,303.4,816.7,280.9,791.3,285.9"/>
					</g>
				</g>
				<g>
					<path class="st0" d="M1017.9,386.9c-3.8-2.3-8.8,1.3-11.9,3.3c-4.3,2.7-8,4.5-13.1,5.6c-15.2,3.3-33,0.2-45.5-9.3
						c-21.9-16.7-27.7-50.5-12.6-73.4c4-6.2,10-13.1,16.1-17.3c5.3-3.7,12.5-6.6,19.1-7.5c10.1-1.4,15,0,20.6,3.4
						c7.2,4.3,12.9,12,13.2,20.2c0.1,3.9-0.8,8.1-3,11.4c-1.5,2.2-6.5,6.9-9.6,6.4c-1.3-0.2-1.4-1.1-1.2-2.1l0.5-1.5
						c1.1-2.6-1.9-4.9-4.3-5c-2.7-0.2-5.3,1.9-5.9,4.4c-0.8,3.5,2.9,7.8,6,9.2c6.3,2.9,14.4-0.6,18.7-5.1
						c11.5-12.2,9.2-26.8,5.2-35.6c-1.8-3.9-3.3-5.3-2.9-4.9c0.7,0.9,4.2-10.9,8-13.1c3.8-2.2-5.8-8.4-10.8-3.8
						c-2.1,1.9-1,13.1-3.7,11.4c-2-1.2-7.3-4.2-16.9-5.8c-25.7-4-55.8,9.6-70.8,30.5c-3.9,5.5-7.3,12.2-9.2,18.8
						c-1.9,6.8-3.2,14.6-3.2,21.7c0,18.7,7.1,38.2,22.1,50.1c4,3.1,8.7,6,13.3,7.9c9,3.7,18.5,5.6,28.2,5.6
						c13.1,0,25.4-2.6,36.9-7.9c5.1-2.4,18.2-11,18.2-14.3C1019.3,388.6,1018.9,387.5,1017.9,386.9"/>
				</g>
				<g>
					<g>
						<path class="st0" d="M1186,345.3c0,37-32,67-71.4,67c-39.4,0-71.4-30-71.4-67c0-37,32-67,71.4-67
							C1154,278.3,1186,308.3,1186,345.3 M1100.7,285.9c-25.4,5-39.8,35.7-32.1,68.5c7.7,32.8,34.5,55.4,59.9,50.3
							c25.4-5,39.8-35.7,32.1-68.5C1152.9,303.4,1126.1,280.9,1100.7,285.9"/>
					</g>
				</g>
				<g>
					<g>
						<path class="st1" d="M1190.7,277.1c-9.3,0-16.9-7.6-16.9-16.9c0-9.3,7.6-16.9,16.9-16.9c9.3,0,16.9,7.6,16.9,16.9
							C1207.6,269.6,1200.1,277.1,1190.7,277.1 M1190.7,245.4c-8.2,0-14.8,6.7-14.8,14.8c0,8.1,6.7,14.8,14.8,14.8
							c8.1,0,14.8-6.6,14.8-14.8C1205.5,252.1,1198.9,245.4,1190.7,245.4"/>
					</g>
				</g>
				<g>
					<g>
						<path class="st1" d="M1200,269.5h-5l-6.3-8.7h-0.6l-0.5,0l-0.4,0h-0.4v5.4c0,0.7,0.1,1.2,0.2,1.5l0.4,0.8l0.6,0.3l0.8,0.1h0.7
							v0.5h-8V269h0.7c0.7,0,1.3-0.3,1.7-0.8c0.2-0.3,0.3-1,0.3-2v-12c0-1.2-0.1-1.9-0.4-2.2c-0.4-0.4-0.9-0.6-1.6-0.6h-0.7v-0.5
							h6.7c1,0,1.9,0,2.6,0.1c0.7,0.1,1.3,0.2,1.8,0.3l1.3,0.6l1.1,0.9l0.7,1.3l0.3,1.5c0,1.2-0.4,2.2-1.1,3
							c-0.7,0.8-1.9,1.4-3.5,1.8l3.8,5.3c0.4,0.6,0.8,1.1,1.2,1.5l1,0.9l1.1,0.5l1.4,0.3V269.5z M1186.8,260h0.5l0.3,0
							c0.9,0,1.7-0.1,2.3-0.3c0.7-0.2,1.3-0.5,1.7-0.9l1-1.3c0.2-0.5,0.3-1,0.3-1.6c0-0.6,0-1.1-0.3-1.6l-0.8-1.2l-1.3-0.8
							c-0.5-0.2-1-0.3-1.6-0.3c-0.5,0-1.2,0.1-2.1,0.3V260z"/>
					</g>
				</g>
			</g>
		</g>
		<rect x="209.4" y="453.7" class="st1" width="993.5" height="3.2"/>
		<rect x="209.4" y="188.2" class="st1" width="413.5" height="3.2"/>
		<g>
			<path class="st0" d="M736.9,166.8c5.3,5.7,12.7,14.2,18.5,19.4c2.9,2.5,12.6,7.5,23.7,6.6c9.3-0.8,11.1-1.9,22.1-4.3
				c-7.7-4.7-16.3-13.1-41.6-12.9c4.6-2.8,22-3.8,43.7,11.7c-2.2-11.5-13.5-23.7-25.3-22.5c-5.6,0.6-7.9-0.1-16.8,2.8
				C754.3,169.6,751.7,171.6,736.9,166.8z"/>
			<g>
				<g>
					<g>
						<path class="st0" d="M702.1,168.1c-6.3,11.1-8.2,22.9-7.1,35c0.6,6,2.2,12.4,5.1,17.6c3.6,6.2,5.9,6,10,0
							c2.4-3.6,3.9-8.2,4.5-12.6c1.9-13.7,0.6-26.9-7.6-39.7c7.7,2.3,13.2,6.5,18.5,11.4c1.7,1.5,6.7,7.7,7.8,9.3
							c8.7,13.2,12.6,27.4,7.2,43c-1.6,4.6-4.5,8.7-7.5,12.8c0.9-13,2.2-25.6-5.4-37.1c0.3,5.8-0.4,11.5-5.1,14.9
							c-3.3,2.4-7.8,5.1-11.3,4.6c-7.9-1.3-16.9,3.4-23.9-4.3c-4-4.4-5.1-9.4-4.5-15.5c-6.2,6-7.9,19.5-5.1,37.8
							c-6.7-6.2-9.4-13.7-10.4-21.9c-1.6-12.9,2.5-24.2,9.5-34.6C688.4,174.1,695.5,171.9,702.1,168.1z"/>
						<path class="st0" d="M701,157.6c-10.7-8.2-26.4-24.7-63.8-6.3c40.6-11.5,50.9,2.9,59.9,10.5c-6.6-3.9-13.5-3.1-19.8-0.2
							c-18.3,8.6-34.4,4.8-49.6-7.6c-1.6-1.3-3.4-2.4-5-3.6c11-5.3,21.7-10.7,32.8-15.7c19.8-8.9,32.3-4.2,42.2,15.7
							C699,152.8,700,155.2,701,157.6z"/>
						<path class="st0" d="M695.1,72.9c0.2-0.1,0.4-0.2,0.4-0.3c0.6-6.2,4.5-10.1,9.5-12.5c2.5-1.2,8.7,7.1,9.9,12.8
							c0.9,0,1.8,0,2.8,0c5.4,0.1,8.9,2.9,10.2,7.6c1.4,5.5-1.8,7.2-5.9,9.1c-8,3.7-14.2,9.3-16.8,19.6
							c-2.8-10.7-9.5-16.3-17.8-20.1c-3.2-1.4-5.9-2.8-5.1-7.2c0.8-4.5,3-7.9,7.6-8.7C691.6,72.9,693.4,73,695.1,72.9z"/>
						<path class="st0" d="M674.4,168.1c-5.3,5.7-12.7,14.2-18.6,19.4c-2.9,2.5-12.6,7.6-23.7,6.6c-9.3-0.8-11.1-1.9-22.2-4.3
							c7.7-4.7,16.4-13.1,41.6-13c-4.6-2.7-22-3.8-43.7,11.7c2.2-11.5,13.5-23.7,25.3-22.5c5.6,0.6,10.6,1.7,16.8,2.7
							C657.2,169.9,659.5,172.8,674.4,168.1z"/>
						<path class="st0" d="M694.5,127.1c-1.7-13.2-5.6-20.7-12.5-22.9c2.3,5.3,4.8,10.9,7.1,16.6c0.5,1.2,0.6,2.5,0.7,3
							c-3.5-2.8-7-6.8-11.3-8.8c-14.6-6.7-18-19.6-19.1-34.8c10.3,4.7,20.3,8.7,29.8,13.9c7.7,4.2,10.6,11.6,8.7,20.6
							C697.1,118.9,695.7,123,694.5,127.1z"/>
						<path class="st0" d="M617.6,143.2c11.9-3.1,14.2-3,31.8-14.2c-10.2,2.8-22.5,6.2-32-1.1c6.7-0.4,13.3-0.9,19.9-1.3
							c-5.8-3.4-12.2-4.7-15.7-11c9.1,6,18.8,3.7,28.4,2.9c6.9-0.6,14-1.2,20.8-0.5c8,0.8,14,6.8,15.2,14c-1.5-0.7-2.8-1.2-4-1.8
							c-7.8-3.3-15.5-3.5-23.2,0.3c-6.6,3.3-13,7-19.7,10.1C632.1,143.8,624.7,145.5,617.6,143.2z"/>
						<path class="st0" d="M679.3,184l0.2-0.2c-5.4,5.9-9.6,14.1-15.2,19.8c-4.3,4.3-10.2,5.8-16.7,5.5c7.9-4.6,11.8-6,13.5-11.1
							c-12.4,5.4-17.8-0.9-17.9-1.3c11-2.6,18.6-11.2,26.4-19c4.2-4.2,8.5-8.4,13.4-11.6c6.9-4.5,15-3.8,20.3,1
							C692.6,169,685.5,175.7,679.3,184z"/>
					</g>
				</g>
				<path class="st0" d="M701.8,139c0.7-0.2,2.1-0.5,4.6,3c3.6,5.1,8.8,19.4,21.9,19.4c2,0,4.1-0.5,5.8-1.7c1.6-1.2,3.2-3.5,2.2-5.6
					c-0.3-0.8-1.2-1.5-2.1-1.7c-2.1-0.3-2.7,1.3-2.1,2.3c0.3,0.5,1.2,0.8,2,0.5c0.4-0.1,0.7,0.9,0.6,1.1c-0.2,3.4-4.3,4-7,3.6
					c-6.2-1.1-9.3-8.9-12.3-13.7c-1.2-1.9-2.4-3.7-4.1-5.3c-1.6-1.6-2.7-2.3-2.7-2.3s16.4-0.9,16.2-10.7c-0.1-4.7-3.9-7.7-8.3-9.1
					c-3.2-1-6.6-1.4-9.9-1.4h-13.2c-0.8,0,0,2.3,0.1,2.7c0,0.3,0,0.6,0,0.9c0.1,0.4,0,0.8,0,1.1c0,0.8,0,1.6,0,2.4v3.4v4
					c0,1.5,0,2.9,0,4.4c0,1.5,0,3,0,4.5c0,1.4-0.1,2.9,0,4.3c0,1.2,0,2.5,0,3.8c0,1,0,2,0,2.9c0,1,0.1,2.6-0.3,3.2
					c-0.6,0.8-2.1,0.8-3,1.2c-0.5,0.2-1.4,0.4-1.5,1c-0.3,1.6,1.6,2.3,2.4,2.2c2.6-0.3,9.8,5.1,9.8,5.1s0.1-14.8,0.1-15.1
					c0-0.2,0-4.6,0-8.9C701.1,139.7,701.3,139.2,701.8,139 M701.1,121.8v12.1c0,0-0.1,2,4.3,1.9c4.9-0.1,10.7-1.9,10.5-8
					c-0.2-6-7.3-7.6-10.2-7.7C704,120,701.1,120,701.1,121.8"/>
				<path class="st0" d="M716,153.5c10.7-8.2,20.7-21.8,58.1-3.4c-40.5-11.5-47.5-0.1-56.5,7.5c2,0.8,7.6,4,8.9,4.3
					c0,0,7.9,1.1,10.1,1.2c23,1.6,31.8,2.1,46.9-10.2c1.6-1.3,3.4-2.4,4.9-3.6c-10.9-5.3-21.8-10.7-32.8-15.7
					c-19.8-8.9-32.3-4.2-42.2,15.7C711.7,152.7,716.5,152.3,716,153.5z"/>
				<path class="st0" d="M716.7,125.9c1.7-13.2,5.6-20.7,12.5-22.9c-2.3,5.3-4.8,10.9-7.1,16.5c-0.5,1.2-0.6,2.5-0.7,3
					c3.5-2.8,6.9-6.8,11.3-8.8c14.6-6.7,17.9-19.6,19-34.8c-10.3,4.7-20.3,8.7-29.8,13.9c-7.7,4.2-10.6,11.6-8.7,20.6
					C714.2,117.6,715.6,121.7,716.7,125.9z"/>
				<path class="st0" d="M793.7,142c-12-3.1-14.2-3-31.8-14.2c10.2,2.8,22.5,6.1,32-1.1c-6.7-0.4-13.3-0.9-19.9-1.3
					c5.8-3.4,12.2-4.7,15.7-11c-9.1,6-18.8,3.7-28.5,2.9c-6.9-0.6-13.9-1.2-20.8-0.5c-8,0.8-13.9,6.8-15.2,14c1.5-0.7,2.8-1.3,4-1.8
					c7.7-3.3,15.5-3.5,23.1,0.2c6.6,3.3,13,7,19.6,10.1C779.2,142.5,786.6,144.2,793.7,142z"/>
			</g>
			<path class="st0" d="M732,182.8l-0.2-0.2c5.3,5.9,9.6,14.1,15.1,19.7c4.3,4.4,10.2,5.8,16.7,5.5c-7.9-4.6-11.9-6-13.5-11.1
				c12.4,5.3,17.8-0.9,17.9-1.3c-11.1-2.6-18.7-11.2-26.4-19c-4.1-4.2-8.5-8.4-13.4-11.6c-6.9-4.5-15-3.8-20.3,1
				C718.7,167.7,725.8,174.5,732,182.8z"/>
		</g>
		<rect x="780.9" y="188.2" class="st1" width="422" height="3.2"/>
	</g>
</g>
</svg>
