<?xml version="1.0" encoding="utf-8"?>
<!-- Generator: Adobe Illustrator 16.0.0, SVG Export Plug-In . SVG Version: 6.00 Build 0)  -->
<!DOCTYPE svg PUBLIC "-//W3C//DTD SVG 1.1//EN" "http://www.w3.org/Graphics/SVG/1.1/DTD/svg11.dtd">
<svg version="1.1" id="圖層_1" xmlns="http://www.w3.org/2000/svg" xmlns:xlink="http://www.w3.org/1999/xlink" x="0px" y="0px"
	 width="226.771px" height="113.386px" viewBox="0 0 226.771 113.386" enable-background="new 0 0 226.771 113.386"
	 xml:space="preserve">
<g>
	<g>
		<g>
			<g>
				<g>
					<path fill-rule="evenodd" clip-rule="evenodd" fill="#483128" d="M28.563,54.822c0.501-0.167,1.597-0.374,3.459,2.26
						c2.757,3.889,6.625,14.704,16.617,14.711c1.524,0,3.134-0.374,4.362-1.28c1.252-0.923,2.386-2.657,1.675-4.226
						c-0.267-0.598-0.884-1.183-1.57-1.288c-1.56-0.236-2.071,0.991-1.606,1.693c0.236,0.371,0.844,0.58,1.473,0.402
						c0.277-0.082,0.489,0.627,0.486,0.796c-0.167,2.55-3.326,3.045-5.307,2.695c-4.687-0.833-7.03-6.763-9.252-10.329
						c-0.886-1.425-1.866-2.807-3.058-3.991c-1.208-1.199-2.021-1.702-2.021-1.702s12.409-0.68,12.277-8.093
						c-0.069-3.581-2.955-5.822-6.286-6.86c-2.406-0.75-4.982-1.047-7.519-1.047H22.28c-0.642,0-1.289-0.013-1.924,0.018
						c-0.215,0.01-0.463,0.008-0.643,0.152c-0.299,0.238,0.089,0.605,0.286,0.749c0.528,0.394,1.148,0.565,1.779,0.702
						c0.284,0.055,0.52,0.134,0.586,0.437c0.041,0.22,0.032,0.449,0.038,0.67c0.012,0.287,0.008,0.575,0.008,0.858
						c0.004,0.605,0.005,1.212,0.005,1.814v2.546v3.048c0.009,1.11-0.001,2.224,0,3.331c0.009,1.134-0.01,2.268-0.001,3.397
						c0.001,1.076-0.012,2.154-0.009,3.231c0.009,0.945-0.003,1.892-0.003,2.835c0,0.742,0.008,1.483-0.01,2.222
						c-0.014,0.774,0.096,1.947-0.275,2.427c-0.479,0.618-1.6,0.562-2.297,0.861c-0.366,0.161-1.031,0.336-1.114,0.791
						c-0.221,1.221,2.051,0.843,2.721,0.774c1.996-0.191,4.017-0.113,6.018-0.048c0.921,0.033,1.833,0.128,2.752,0.133
						c0.521,0,3.27,0.065,2.42-1.068c-0.265-0.344-1.494-0.364-2.388-0.779c-1.61-0.753-2.034-2.906-2.142-4.165
						c-0.025-0.281-0.034-0.521-0.034-0.682c0-0.159-0.02-3.458-0.036-6.695C28.035,55.301,28.184,54.957,28.563,54.822
						 M28.014,41.748v9.182c0,0-0.119,1.492,3.239,1.451c3.723-0.04,8.116-1.441,7.958-6.034c-0.164-4.591-5.527-5.728-7.676-5.871
						C30.195,40.386,28.014,40.42,28.014,41.748"/>
				</g>
			</g>
			<g>
				<g>
					<path fill-rule="evenodd" clip-rule="evenodd" fill="#483128" d="M82.625,58.025c0,6.786-5.859,12.286-13.089,12.286
						c-7.223,0-13.082-5.5-13.082-12.286c0-6.781,5.859-12.28,13.082-12.28C76.766,45.745,82.625,51.244,82.625,58.025
						 M66.997,47.14c-4.66,0.921-7.293,6.541-5.89,12.554c1.403,6.011,6.322,10.146,10.975,9.223
						c4.661-0.917,7.293-6.54,5.892-12.553C76.564,50.351,71.648,46.22,66.997,47.14"/>
				</g>
			</g>
			<g>
				<path fill-rule="evenodd" clip-rule="evenodd" fill="#483128" d="M108.508,65.648c-0.689-0.412-1.61,0.24-2.181,0.595
					c-0.8,0.502-1.475,0.834-2.405,1.036c-2.784,0.596-6.044,0.044-8.329-1.696c-4.019-3.063-5.082-9.25-2.313-13.458
					c0.746-1.132,1.836-2.387,2.954-3.166c0.973-0.677,2.287-1.204,3.487-1.367c1.856-0.254,2.764,0.007,3.781,0.62
					c1.436,0.862,2.725,2.443,2.79,4.169c0.042,0.926-0.258,1.957-1.048,2.513c-0.487,0.342-2.302,0.917-1.755-0.363
					c0.198-0.482-0.344-0.894-0.792-0.923c-0.574-0.03-1.261,0.094-1.578,0.623c-0.317,0.529-0.193,1.219,0.183,1.679
					c0.318,0.383,0.764,0.708,1.248,0.824c0.381,0.092,0.858,0.137,1.246,0.085c4.006-0.526,4.736-4.96,3.3-8.145
					c-0.321-0.712-0.603-0.979-0.539-0.898c0.13,0.156,0.783-1.999,1.477-2.394c0.694-0.394-1.067-1.546-1.986-0.698
					c-0.397,0.358-0.199,2.407-0.679,2.094c-0.364-0.233-1.341-0.781-3.11-1.06c-4.695-0.739-10.225,1.76-12.977,5.588
					c-0.726,1.006-1.345,2.234-1.684,3.438c-0.35,1.246-0.588,2.673-0.588,3.969c0,3.425,1.291,7.011,4.051,9.186
					c0.728,0.569,1.584,1.097,2.436,1.453c1.648,0.687,3.379,1.018,5.158,1.018c2.407,0,4.658-0.482,6.777-1.442
					c0.95-0.431,3.333-2.017,3.33-2.612C108.763,65.97,108.689,65.763,108.508,65.648"/>
			</g>
			<g>
				<g>
					<path fill-rule="evenodd" clip-rule="evenodd" fill="#483128" d="M139.316,58.025c0,6.786-5.861,12.286-13.085,12.286
						c-7.222,0-13.083-5.5-13.083-12.286c0-6.781,5.861-12.28,13.083-12.28C133.456,45.745,139.316,51.244,139.316,58.025
						 M123.689,47.14c-4.658,0.921-7.293,6.541-5.885,12.554c1.402,6.011,6.312,10.146,10.973,9.223
						c4.656-0.917,7.292-6.54,5.888-12.553C133.259,50.351,128.345,46.22,123.689,47.14"/>
				</g>
			</g>
			<g>
				<path fill-rule="evenodd" clip-rule="evenodd" fill="#483128" d="M165.204,65.648c-0.694-0.412-1.61,0.24-2.185,0.595
					c-0.801,0.502-1.471,0.834-2.405,1.036c-2.781,0.596-6.042,0.044-8.333-1.696c-4.017-3.063-5.076-9.25-2.307-13.458
					c0.745-1.132,1.835-2.387,2.95-3.166c0.974-0.677,2.295-1.204,3.492-1.367c1.86-0.254,2.762,0.007,3.779,0.62
					c1.321,0.79,2.365,2.207,2.417,3.711c0.022,0.708-0.146,1.491-0.554,2.087c-0.275,0.394-1.183,1.257-1.75,1.178
					c-0.243-0.034-0.26-0.208-0.222-0.388l0.09-0.27c0.207-0.482-0.335-0.894-0.787-0.923c-0.49-0.025-0.976,0.359-1.073,0.816
					c-0.142,0.641,0.528,1.431,1.092,1.694c1.159,0.54,2.649-0.103,3.425-0.924c2.123-2.232,1.684-4.906,0.956-6.52
					c-0.325-0.712-0.608-0.979-0.535-0.898c0.133,0.156,0.778-1.999,1.47-2.394c0.698-0.394-1.066-1.546-1.989-0.698
					c-0.386,0.358-0.188,2.407-0.677,2.094c-0.368-0.233-1.33-0.781-3.103-1.06c-4.698-0.739-10.228,1.76-12.981,5.588
					c-0.721,1.006-1.343,2.234-1.678,3.438c-0.354,1.246-0.595,2.673-0.595,3.969c0,3.425,1.295,7.011,4.054,9.186
					c0.723,0.569,1.59,1.097,2.439,1.453c1.648,0.687,3.379,1.018,5.16,1.018c2.403,0,4.653-0.482,6.77-1.442
					c0.945-0.431,3.338-2.017,3.335-2.612C165.46,65.97,165.385,65.763,165.204,65.648"/>
			</g>
			<g>
				<g>
					<path fill-rule="evenodd" clip-rule="evenodd" fill="#483128" d="M196.006,58.025c0,6.786-5.852,12.286-13.082,12.286
						c-7.225,0-13.083-5.5-13.083-12.286c0-6.781,5.857-12.28,13.083-12.28C190.154,45.745,196.006,51.244,196.006,58.025
						 M180.382,47.14c-4.658,0.921-7.292,6.541-5.888,12.554c1.409,6.011,6.319,10.146,10.973,9.223
						c4.659-0.917,7.295-6.54,5.887-12.553C189.947,50.351,185.038,46.22,180.382,47.14"/>
				</g>
			</g>
			<g>
				<g>
					<path fill="#483128" d="M196.883,45.533c-1.706,0-3.094-1.389-3.094-3.097c0-1.707,1.388-3.095,3.094-3.095
						c1.711,0,3.095,1.388,3.095,3.095C199.978,44.144,198.594,45.533,196.883,45.533 M196.883,39.727
						c-1.492,0-2.711,1.218-2.711,2.709c0,1.493,1.219,2.708,2.711,2.708c1.489,0,2.705-1.214,2.705-2.708
						C199.588,40.944,198.372,39.727,196.883,39.727"/>
				</g>
			</g>
			<g>
				<g>
					<path fill="#483128" d="M198.575,44.141h-0.906l-1.152-1.593l-0.12,0.006l-0.09,0.001l-0.07-0.001l-0.082-0.006v0.99
						c0,0.121,0.01,0.216,0.027,0.285l0.072,0.155l0.111,0.061l0.152,0.009h0.134v0.094h-1.463v-0.094h0.13
						c0.14,0,0.241-0.044,0.308-0.138c0.036-0.056,0.053-0.18,0.053-0.371v-2.201c0-0.211-0.021-0.342-0.066-0.399
						c-0.069-0.074-0.161-0.111-0.294-0.111h-0.13v-0.095h1.239c0.183,0,0.34,0.006,0.477,0.02c0.132,0.014,0.24,0.036,0.323,0.061
						l0.247,0.117l0.192,0.176l0.134,0.231l0.048,0.272c0,0.214-0.074,0.398-0.206,0.55c-0.135,0.155-0.345,0.26-0.632,0.327
						l0.701,0.975c0.082,0.109,0.152,0.202,0.222,0.275l0.188,0.171l0.205,0.095l0.25,0.043V44.141z M196.155,42.391h0.087
						l0.06,0.003c0.155,0,0.302-0.019,0.425-0.056c0.126-0.036,0.228-0.091,0.309-0.159l0.19-0.238
						c0.036-0.092,0.056-0.188,0.056-0.297c0-0.105-0.015-0.201-0.056-0.289l-0.144-0.231l-0.239-0.147
						c-0.087-0.035-0.183-0.051-0.294-0.051c-0.096,0-0.229,0.015-0.395,0.046V42.391z"/>
				</g>
			</g>
		</g>
	</g>
	<line fill="none" stroke="#483128" stroke-width="0.5801" stroke-miterlimit="10" x1="19.819" y1="29.52" x2="91.698" y2="29.52"/>
	<line fill="none" stroke="#483128" stroke-width="0.5801" stroke-miterlimit="10" x1="120.823" y1="29.52" x2="197.7" y2="29.52"/>
	
		<line fill="none" stroke="#483128" stroke-width="0.5801" stroke-miterlimit="10" x1="17.033" y1="78.184" x2="199.098" y2="78.184"/>
	<g>
		<g>
			<path fill="#483128" stroke="#483128" stroke-width="0.1041" stroke-miterlimit="10" d="M23.002,91.343
				c0,0.025-0.013,0.101-0.038,0.213c-0.151,0.502-0.302,0.979-0.44,1.407c1.118-0.05,1.884-0.088,2.311-0.113
				c0.276-0.013,0.552-0.025,0.816-0.05v-2.348c-0.038,0.013-0.062,0.013-0.088,0.013c-1.004,0.075-1.632,0.125-1.858,0.15
				c-0.101,0.025-0.163,0.038-0.213,0.038s-0.125-0.038-0.226-0.113c-0.113-0.075-0.164-0.138-0.164-0.176
				c0-0.025,0.013-0.05,0.05-0.05c0.829-0.038,1.394-0.075,1.695-0.101c0.276-0.025,0.553-0.05,0.804-0.075v-1.833
				c0-0.402-0.025-0.729-0.075-1.005c-0.075-0.251-0.113-0.389-0.113-0.427c0-0.025,0.012-0.038,0.05-0.038
				c0.025,0,0.138,0.088,0.327,0.264c0.201,0.188,0.301,0.314,0.301,0.364c0,0.075-0.025,0.213-0.062,0.402
				c-0.05,0.364-0.076,0.841-0.076,1.419v0.829c0.478-0.038,0.854-0.076,1.156-0.113c0.238-0.025,0.452-0.05,0.653-0.088
				c0.138-0.025,0.239-0.038,0.301-0.038c0.076,0,0.151,0.038,0.239,0.113c0.101,0.088,0.151,0.164,0.151,0.226
				c0,0.038-0.025,0.05-0.05,0.05c-0.766,0.05-1.583,0.101-2.449,0.163v2.349c0.113,0,0.226-0.013,0.327-0.025
				c0.678-0.05,1.231-0.1,1.658-0.125c0.327-0.025,0.628-0.062,0.904-0.1c0.188-0.025,0.314-0.05,0.389-0.05
				c0.088,0,0.176,0.038,0.276,0.113c0.113,0.088,0.176,0.163,0.176,0.226c0,0.038-0.025,0.05-0.05,0.05
				c-1.18,0.062-2.499,0.138-3.943,0.226h-0.062c0.025,0.05,0.062,0.101,0.113,0.15c0.138,0.188,0.213,0.314,0.213,0.364
				s-0.05,0.101-0.125,0.164c-0.326,0.352-0.703,0.866-1.143,1.544c-0.452,0.628-0.829,1.155-1.13,1.583l4.333-0.465
				c-0.301-0.49-0.653-1.017-1.067-1.57c-0.101-0.101-0.138-0.176-0.138-0.226c0-0.025,0.013-0.05,0.05-0.05
				c0.05,0,0.151,0.063,0.301,0.164c0.527,0.477,1.017,1.004,1.482,1.57c0.213,0.264,0.327,0.49,0.327,0.666
				c0,0.15-0.025,0.314-0.05,0.515c-0.025,0.176-0.075,0.276-0.138,0.276s-0.125-0.088-0.188-0.251
				c-0.125-0.302-0.289-0.59-0.464-0.904c-1.105,0.15-2.047,0.289-2.813,0.415c-0.93,0.15-1.495,0.264-1.708,0.352
				c-0.101,0.025-0.176,0.038-0.226,0.038c-0.038,0-0.125-0.075-0.251-0.201c-0.101-0.138-0.138-0.213-0.138-0.238
				c0-0.025,0.025-0.063,0.088-0.113c0.314-0.125,0.552-0.289,0.703-0.502c0.628-0.879,1.092-1.62,1.394-2.197
				c0.201-0.427,0.301-0.792,0.314-1.067c-1.181,0.075-1.921,0.125-2.21,0.163c-0.125,0.025-0.226,0.038-0.289,0.038
				c-0.076,0-0.164-0.038-0.264-0.113c-0.076-0.05-0.126-0.088-0.151-0.126c-0.176,0.553-0.327,1.055-0.452,1.482
				c-0.339,1.105-0.641,2.022-0.904,2.738c-0.05,0.125-0.1,0.188-0.15,0.188c-0.088,0-0.188-0.088-0.314-0.239
				c-0.276-0.352-0.59-0.741-0.955-1.168c-0.101-0.101-0.151-0.176-0.151-0.213c0-0.025,0.013-0.05,0.05-0.05
				c0.025,0,0.201,0.125,0.502,0.377c0.377,0.314,0.603,0.464,0.678,0.464s0.151-0.075,0.213-0.238
				c0.151-0.339,0.439-1.093,0.867-2.273c0.301-0.854,0.64-1.784,1.03-2.788c0-0.025,0.025-0.05,0.05-0.05
				C22.989,91.293,23.002,91.318,23.002,91.343z M19.963,90.64c0.628,0.339,1.067,0.603,1.331,0.791
				c0.151,0.138,0.239,0.251,0.239,0.352c0,0.188-0.025,0.327-0.05,0.415c-0.025,0.088-0.063,0.125-0.138,0.125
				c-0.05,0-0.113-0.05-0.188-0.151c-0.352-0.402-0.729-0.791-1.105-1.193c-0.226-0.213-0.327-0.339-0.327-0.376
				c0-0.025,0.013-0.05,0.05-0.05S19.875,90.59,19.963,90.64z M20.993,87.978c0.603,0.339,1.042,0.603,1.293,0.779
				c0.15,0.125,0.226,0.239,0.226,0.327c0,0.188-0.025,0.326-0.05,0.414c-0.025,0.088-0.063,0.125-0.138,0.125
				c-0.05,0-0.101-0.038-0.176-0.138c-0.352-0.39-0.703-0.779-1.08-1.168c-0.213-0.201-0.314-0.327-0.314-0.364
				c0-0.025,0.013-0.038,0.05-0.038S20.905,87.94,20.993,87.978z"/>
			<path fill="#483128" stroke="#483128" stroke-width="0.1041" stroke-miterlimit="10" d="M44.88,87.702
				c0.075,0.213,0.113,0.414,0.125,0.603v0.176l6.869-0.527c0.138,0,0.251-0.075,0.327-0.201c0.063-0.125,0.113-0.188,0.164-0.188
				c0.012,0,0.075,0.05,0.201,0.138c0.125,0.1,0.188,0.176,0.188,0.213s-0.038,0.113-0.113,0.213
				c-0.088,0.101-0.125,0.239-0.125,0.415v9.129c-0.038,0.251-0.088,0.389-0.15,0.389c-0.025,0-0.101-0.1-0.201-0.301
				c-0.101-0.213-0.138-0.339-0.138-0.389c0-0.075,0.013-0.151,0.063-0.239c0.062-0.176,0.1-0.439,0.125-0.791v-8.075l-3.566,0.239
				c0.012,0.025,0.025,0.038,0.05,0.05c0.125,0.126,0.188,0.239,0.188,0.339c0,0.05-0.012,0.125-0.038,0.201
				c-0.012,0.138-0.012,0.276-0.012,0.427c0,0.276,0,0.54,0.025,0.791c0.276-0.025,0.502-0.038,0.69-0.063
				c0.239-0.025,0.452-0.05,0.653-0.088c0.138-0.025,0.239-0.038,0.289-0.05c0.076,0,0.164,0.038,0.251,0.1
				c0.101,0.076,0.15,0.151,0.15,0.201c0,0.038-0.025,0.05-0.05,0.05c-0.628,0.025-1.281,0.062-1.972,0.113
				c0.038,0.641,0.113,1.243,0.238,1.796c0.151,0.615,0.327,1.118,0.528,1.507c0.201-0.339,0.376-0.666,0.502-0.979
				c0.201-0.477,0.314-0.955,0.352-1.406c0-0.063,0.025-0.101,0.101-0.101c0.038,0,0.113,0.088,0.213,0.251
				c0.088,0.151,0.138,0.264,0.138,0.339c0,0.05-0.025,0.075-0.05,0.1c-0.1,0.126-0.176,0.289-0.251,0.465
				c-0.201,0.502-0.415,0.929-0.615,1.293c-0.075,0.125-0.138,0.251-0.213,0.352c0.264,0.402,0.515,0.716,0.766,0.942
				c0.188,0.151,0.327,0.226,0.415,0.226c0.075-0.025,0.125-0.113,0.125-0.276c0.038-0.527,0.076-0.992,0.113-1.394
				c0-0.025,0.013-0.038,0.05-0.038c0.025,0,0.05,0.038,0.05,0.088c0,0.992,0,1.583,0.025,1.783c0.05,0.251,0.075,0.402,0.075,0.478
				c0,0.075-0.05,0.1-0.15,0.1c-0.088,0-0.264-0.113-0.54-0.364c-0.402-0.302-0.729-0.641-0.992-1.042
				c-0.05-0.063-0.101-0.138-0.138-0.213c-0.151,0.201-0.301,0.402-0.452,0.578c-0.352,0.376-0.791,0.753-1.331,1.13
				c-0.101,0.076-0.151,0.101-0.176,0.101c-0.038,0-0.05-0.013-0.05-0.038s0.013-0.063,0.05-0.088
				c0.352-0.301,0.628-0.553,0.829-0.779c0.327-0.326,0.616-0.69,0.892-1.08c0.025-0.05,0.05-0.088,0.076-0.126
				c-0.264-0.502-0.478-1.105-0.628-1.795c-0.151-0.628-0.251-1.218-0.289-1.783c-0.201,0.025-0.402,0.038-0.603,0.05
				c-1.03,0.076-1.658,0.138-1.884,0.164c-0.101,0.025-0.163,0.038-0.213,0.038s-0.125-0.025-0.201-0.088
				c-0.101-0.075-0.138-0.125-0.138-0.163c0-0.025,0.013-0.05,0.05-0.05c0.829-0.025,1.394-0.063,1.695-0.101
				c0.39-0.025,0.753-0.063,1.093-0.088c0.062,0,0.125-0.013,0.176-0.013c-0.013-0.05-0.013-0.088-0.013-0.138
				c-0.025-0.402-0.05-0.753-0.05-1.08c-0.025-0.301-0.038-0.515-0.05-0.615l-3.391,0.213c0,4.308-0.012,7.108-0.038,8.389
				c1.607-0.05,3.014-0.113,4.22-0.176c0.829-0.038,1.457-0.088,1.871-0.138c0.138,0,0.276-0.013,0.427-0.013
				c0.076,0.013,0.176,0.05,0.301,0.113c0.126,0.076,0.188,0.138,0.188,0.176c0,0.025-0.025,0.05-0.05,0.05l-6.957,0.276
				c0,0.101-0.013,0.188-0.013,0.264c0,0.164-0.025,0.314-0.05,0.439c-0.025,0.126-0.05,0.201-0.101,0.201s-0.125-0.113-0.239-0.339
				c-0.075-0.15-0.101-0.326-0.101-0.502c0-0.101,0.025-0.239,0.088-0.415c0.05-0.125,0.088-0.439,0.126-0.929
				c0.025-1.356,0.038-3.843,0.038-7.435c0-0.352-0.025-0.653-0.05-0.892c-0.025-0.238-0.05-0.376-0.05-0.427
				c0-0.063,0.013-0.101,0.05-0.101S44.779,87.425,44.88,87.702z M48.584,94.231c0,0.025-0.038,0.063-0.101,0.101l-2.474,1.181
				c-0.075,0.038-0.138,0.05-0.176,0.05c-0.05,0-0.101,0-0.151-0.025c-0.163-0.05-0.239-0.113-0.239-0.176
				c0-0.025,0.025-0.063,0.101-0.101l2.901-1.055c0.038,0,0.063-0.013,0.088-0.013C48.56,94.194,48.584,94.207,48.584,94.231z
				 M46.085,91.582c0.025,0.113,0.05,0.276,0.075,0.477l1.055-0.226c0.176-0.025,0.289-0.075,0.339-0.151
				c0.063-0.088,0.113-0.138,0.151-0.138c0.025,0,0.101,0.05,0.201,0.138c0.05,0.076,0.088,0.126,0.088,0.151
				c0,0.038-0.038,0.088-0.1,0.138c-0.05,0.062-0.088,0.125-0.088,0.201l-0.088,1.143c0.025,0,0.062-0.013,0.088-0.013
				c0.038,0,0.1,0.038,0.176,0.088c0.075,0.05,0.113,0.088,0.113,0.113c0,0.038-0.05,0.05-0.138,0.05
				c-0.628,0.076-1.206,0.126-1.733,0.176c0,0.151,0,0.289,0.013,0.415c0,0.125-0.025,0.188-0.05,0.188
				c-0.063,0-0.125-0.075-0.188-0.201c-0.05-0.063-0.062-0.138-0.062-0.239c0-0.05,0.012-0.138,0.038-0.264
				c0-0.164,0.012-0.478,0.012-0.955c0-0.188-0.012-0.364-0.012-0.527c-0.013-0.226-0.025-0.402-0.038-0.515
				c0-0.125,0.025-0.188,0.05-0.188C46.01,91.444,46.048,91.494,46.085,91.582z M47.504,93.377l0.05-1.318l-1.381,0.188
				c0,0.1,0.013,0.188,0.013,0.264c0,0.364,0.013,0.703,0.025,1.03C46.839,93.491,47.278,93.428,47.504,93.377z M50.292,88.957
				c0.452,0.276,0.778,0.49,0.967,0.641c0.113,0.101,0.176,0.201,0.176,0.276c0,0.15-0.012,0.251-0.038,0.327
				c-0.025,0.075-0.062,0.113-0.113,0.113c-0.038,0-0.088-0.038-0.138-0.125c-0.251-0.314-0.527-0.628-0.804-0.955
				c-0.164-0.176-0.239-0.264-0.239-0.289c0-0.025,0.013-0.05,0.05-0.05C50.179,88.895,50.229,88.919,50.292,88.957z"/>
			<path fill="#483128" stroke="#483128" stroke-width="0.1041" stroke-miterlimit="10" d="M71.367,88.028
				c0.101,0.088,0.151,0.164,0.151,0.226c0,0.038-0.025,0.05-0.05,0.05c-0.628,0.05-1.331,0.113-2.084,0.188
				c0.025,0.025,0.05,0.038,0.062,0.038c0.164,0.151,0.251,0.251,0.251,0.314c0,0.05-0.013,0.101-0.038,0.163
				c-0.038,0.125-0.05,0.213-0.05,0.276v7.108c0,0.251-0.025,0.464-0.076,0.653c-0.05,0.188-0.113,0.289-0.176,0.289
				c-0.05,0-0.088-0.05-0.138-0.138c-0.402-0.54-0.766-0.992-1.105-1.369c-0.05-0.063-0.075-0.101-0.075-0.113
				c0-0.063,0.013-0.101,0.038-0.101s0.188,0.126,0.502,0.364c0.352,0.314,0.54,0.465,0.578,0.465c0.05,0,0.088-0.076,0.101-0.239
				v-6.09c0-0.603-0.038-1.08-0.113-1.407c-0.025-0.075-0.05-0.138-0.05-0.188c-0.804,0.088-1.293,0.151-1.482,0.176
				c-0.075,0.038-0.125,0.05-0.163,0.05c-0.062,0-0.138-0.038-0.239-0.113c-0.113-0.076-0.163-0.138-0.163-0.188
				c0-0.025,0.013-0.038,0.05-0.038c0.666-0.05,1.13-0.088,1.381-0.125c0.314-0.025,0.615-0.063,0.892-0.101
				c0.402-0.05,0.729-0.088,0.979-0.125c0.201-0.025,0.377-0.063,0.54-0.101c0.101-0.025,0.188-0.038,0.239-0.038
				C71.204,87.915,71.279,87.953,71.367,88.028z M73.514,95.462c0.076,0.176,0.113,0.314,0.113,0.389
				c0,0.05-0.025,0.088-0.063,0.101c-0.176,0.15-0.364,0.352-0.59,0.578c-0.326,0.352-0.678,0.678-1.055,0.992
				c-0.327,0.251-0.678,0.49-1.03,0.69c-0.05,0.025-0.088,0.05-0.113,0.05c-0.038,0-0.05-0.025-0.05-0.05
				c0-0.025,0.025-0.062,0.088-0.101c0.615-0.502,1.118-0.967,1.494-1.432c0.402-0.452,0.704-0.954,0.904-1.494
				c0-0.038,0.025-0.063,0.075-0.063S73.414,95.236,73.514,95.462z M77.194,87.337c0.101,0.088,0.163,0.163,0.163,0.226
				c0,0.038-0.025,0.05-0.05,0.05c-0.954,0.063-1.997,0.151-3.152,0.251c-0.113,0.013-0.213,0.025-0.301,0.025
				c0.025,0.05,0.062,0.113,0.1,0.164c0.076,0.15,0.113,0.289,0.113,0.389c0,0.025-0.013,0.063-0.038,0.101
				c-0.151,0.226-0.364,0.565-0.641,1.03l2.298-0.339c0.075,0,0.15-0.038,0.201-0.088c0.063-0.101,0.113-0.163,0.138-0.163
				c0.063,0,0.151,0.038,0.276,0.113c0.138,0.088,0.213,0.151,0.213,0.188c0,0.05-0.063,0.125-0.176,0.226
				c-0.075,0.101-0.113,0.239-0.113,0.415c-0.05,0.979-0.076,1.884-0.076,2.688c-0.025,0.904-0.062,1.607-0.113,2.109
				c-0.05,0.364-0.101,0.54-0.151,0.54c-0.063,0-0.138-0.075-0.213-0.251c-0.063-0.151-0.088-0.251-0.088-0.327
				c0-0.113,0.013-0.226,0.062-0.339c0.038-0.264,0.063-0.616,0.088-1.042c0.063-1.821,0.113-3.089,0.138-3.792l-3.315,0.439
				c0.012,0.164,0.025,0.339,0.038,0.515v0.666c1.193-0.125,1.909-0.239,2.135-0.339c0.075-0.025,0.151-0.038,0.213-0.038
				c0.038,0,0.101,0.038,0.188,0.101c0.075,0.075,0.113,0.125,0.113,0.151c0,0.05-0.075,0.088-0.201,0.088
				c-0.892,0.125-1.708,0.226-2.449,0.326v1.193c1.218-0.126,1.946-0.251,2.185-0.352c0.075-0.025,0.138-0.038,0.213-0.038
				c0.038,0,0.101,0.038,0.176,0.113c0.075,0.062,0.125,0.113,0.125,0.138c0,0.062-0.075,0.1-0.201,0.1
				c-0.917,0.113-1.746,0.214-2.499,0.314v1.332c1.318-0.126,2.11-0.239,2.361-0.339c0.075-0.025,0.163-0.038,0.239-0.038
				c0.05,0.013,0.138,0.05,0.238,0.125c0.101,0.088,0.151,0.151,0.151,0.176c0,0.05-0.075,0.076-0.213,0.076
				c-1.005,0.1-1.934,0.201-2.775,0.301v0.603c-0.025,0.276-0.076,0.427-0.151,0.439c-0.05,0-0.101-0.062-0.15-0.213
				c-0.063-0.125-0.088-0.251-0.088-0.376c0-0.101,0-0.226,0.025-0.402c0.025-0.352,0.05-1.08,0.05-2.173
				c0-1.206-0.025-2.122-0.05-2.737c-0.025-0.339-0.025-0.528-0.025-0.578c0-0.088,0.012-0.138,0.05-0.138
				c0.025,0,0.076,0.1,0.164,0.301c0.05,0.125,0.088,0.276,0.113,0.452l0.691-0.101c0.125-0.364,0.213-0.678,0.276-0.929
				c0.075-0.314,0.113-0.565,0.138-0.766c-0.804,0.075-1.306,0.125-1.507,0.163c-0.101,0.025-0.176,0.038-0.226,0.038
				c-0.075,0-0.163-0.038-0.264-0.113c-0.125-0.075-0.176-0.138-0.176-0.176c0-0.025,0.013-0.05,0.05-0.05
				c0.892-0.05,1.507-0.088,1.846-0.125c0.427-0.038,0.816-0.075,1.193-0.113c0.54-0.05,0.979-0.1,1.318-0.138
				c0.264-0.025,0.502-0.063,0.716-0.113c0.151-0.025,0.264-0.05,0.327-0.05C76.993,87.224,77.093,87.262,77.194,87.337z
				 M74.971,95.412c0.578,0.402,1.13,0.841,1.632,1.318c0.239,0.213,0.364,0.402,0.364,0.553c0,0.125-0.013,0.264-0.038,0.439
				c-0.025,0.151-0.063,0.239-0.113,0.239c-0.075,0-0.138-0.076-0.213-0.201c-0.376-0.653-0.992-1.406-1.846-2.248
				c-0.1-0.088-0.15-0.151-0.15-0.201c0-0.025,0.013-0.05,0.05-0.05C74.72,95.261,74.82,95.312,74.971,95.412z"/>
			<path fill="#483128" stroke="#483128" stroke-width="0.1041" stroke-miterlimit="10" d="M92.341,95.073
				c0,0.879-0.125,1.545-0.352,1.997c-0.101,0.251-0.213,0.376-0.339,0.402c-0.05,0-0.101-0.063-0.176-0.188
				c-0.05-0.138-0.062-0.226-0.062-0.251c0-0.076,0.025-0.138,0.088-0.214c0.389-0.439,0.641-1.118,0.741-2.047
				c0-0.05,0.013-0.088,0.05-0.088C92.316,94.684,92.341,94.822,92.341,95.073z M93.886,87.375c0.076,0.163,0.126,0.276,0.126,0.339
				c0,0.063-0.038,0.113-0.101,0.164c-0.125,0.15-0.264,0.314-0.415,0.502l-1.494,2.7l1.795-0.251
				c0.138-0.264,0.276-0.54,0.415-0.829c0.075-0.213,0.163-0.439,0.239-0.666c0-0.063,0.025-0.101,0.101-0.101
				c0.025,0,0.075,0.101,0.15,0.289c0.05,0.15,0.088,0.251,0.088,0.301c0,0.075-0.025,0.125-0.05,0.151
				c-0.1,0.1-0.352,0.477-0.728,1.13c-0.276,0.427-0.603,0.929-0.979,1.532c-0.164,0.276-0.339,0.54-0.528,0.804l1.972-0.49
				c-0.101-0.188-0.213-0.377-0.326-0.578c-0.076-0.101-0.101-0.176-0.101-0.201v-0.05c0.038,0,0.101,0.038,0.176,0.101
				c0.289,0.276,0.565,0.59,0.829,0.942c0.113,0.164,0.176,0.276,0.176,0.339c0,0.1-0.025,0.201-0.05,0.276
				c-0.062,0.151-0.113,0.214-0.138,0.214c-0.076,0-0.138-0.05-0.164-0.164c-0.088-0.226-0.188-0.452-0.301-0.703
				c-0.741,0.201-1.344,0.377-1.796,0.54c-0.301,0.125-0.552,0.239-0.741,0.339c-0.063,0.063-0.113,0.088-0.138,0.088
				c-0.025,0-0.088-0.05-0.201-0.163c-0.1-0.075-0.15-0.138-0.15-0.188c0-0.062,0.025-0.101,0.075-0.113
				c0.289-0.076,0.527-0.213,0.703-0.427c0.364-0.49,0.729-1.042,1.08-1.658c0.101-0.163,0.201-0.339,0.301-0.54
				c-0.904,0.176-1.444,0.301-1.632,0.376c-0.125,0.05-0.226,0.063-0.276,0.063s-0.101-0.038-0.163-0.138
				c-0.063-0.076-0.088-0.125-0.088-0.164c0-0.038,0.012-0.062,0.062-0.088c0.138-0.1,0.276-0.264,0.427-0.502
				c0.376-0.628,0.703-1.256,1.004-1.871c0.327-0.741,0.515-1.256,0.553-1.532c0-0.05,0.025-0.075,0.062-0.075
				C93.71,87.074,93.786,87.174,93.886,87.375z M93.321,94.721c0.327,0.766,0.49,1.206,0.49,1.331c0,0.101-0.038,0.201-0.101,0.314
				c-0.075,0.151-0.15,0.226-0.201,0.226s-0.075-0.038-0.075-0.113c-0.063-0.59-0.126-1.067-0.188-1.419
				c-0.05-0.226-0.076-0.377-0.076-0.478c0-0.025,0.013-0.05,0.05-0.05C93.233,94.533,93.271,94.596,93.321,94.721z M99.437,88.091
				c0.101,0.101,0.163,0.163,0.163,0.213c0,0.038-0.05,0.088-0.15,0.138c-0.151,0.201-0.264,0.452-0.352,0.753
				c-0.176,0.779-0.352,1.495-0.527,2.147l0.929-0.151c0.088,0,0.176-0.05,0.264-0.15c0.075-0.125,0.138-0.188,0.176-0.188
				c0.05,0,0.113,0.05,0.213,0.151c0.088,0.088,0.138,0.15,0.138,0.188c0,0.063-0.038,0.138-0.088,0.214
				c-0.088,0.15-0.201,0.49-0.339,1.017c-0.201,0.778-0.402,1.432-0.603,1.972c-0.151,0.364-0.314,0.703-0.49,1.017
				c0.49,0.778,0.867,1.256,1.13,1.406c0.289,0.226,0.892,0.402,1.808,0.553c0.063,0.013,0.101,0.025,0.101,0.05
				c0,0.05-0.038,0.088-0.101,0.101c-1.256,0.1-1.921,0.15-2.021,0.15c-0.113-0.038-0.188-0.113-0.226-0.238
				c-0.176-0.402-0.465-0.98-0.854-1.733c-0.013,0.025-0.025,0.05-0.038,0.063c-0.352,0.578-0.704,1.055-1.08,1.457
				c-0.364,0.377-0.691,0.678-0.992,0.904c-0.075,0.05-0.125,0.088-0.138,0.088c-0.038,0-0.05-0.025-0.05-0.05
				c0-0.025,0.025-0.075,0.101-0.138c0.327-0.326,0.615-0.653,0.892-0.979c0.364-0.427,0.678-0.892,0.955-1.394
				c0.05-0.1,0.113-0.213,0.163-0.314c-0.176-0.313-0.364-0.653-0.565-1.029c-0.565-1.03-0.967-1.721-1.206-2.097
				c-0.05,0.49-0.088,0.866-0.138,1.13c-0.151,0.879-0.377,1.633-0.653,2.261c-0.163,0.352-0.376,0.753-0.653,1.206
				c-0.289,0.427-0.578,0.829-0.867,1.206c-0.201,0.226-0.326,0.352-0.376,0.352c-0.038,0-0.05-0.025-0.05-0.05
				c0-0.038,0.025-0.088,0.075-0.163c0.753-1.042,1.269-1.909,1.545-2.587c0.301-0.678,0.527-1.507,0.666-2.511
				c0.125-1.067,0.213-2.474,0.264-4.207c-0.377,0.05-0.666,0.101-0.867,0.151c-0.05,0.025-0.113,0.038-0.163,0.038
				c-0.113,0-0.201-0.05-0.276-0.126c-0.075-0.05-0.113-0.1-0.113-0.163c0-0.025,0.012-0.05,0.038-0.05
				c0.615-0.05,1.206-0.1,1.783-0.176c0.603-0.062,1.23-0.138,1.858-0.213c0.125-0.013,0.226-0.063,0.301-0.163
				c0.076-0.126,0.138-0.188,0.188-0.188C99.248,87.953,99.324,88.003,99.437,88.091z M94.225,94.181
				c0.213,0.239,0.415,0.515,0.615,0.829c0.101,0.15,0.151,0.251,0.151,0.301c0,0.113-0.025,0.213-0.05,0.289
				c-0.063,0.138-0.113,0.201-0.151,0.201c-0.05,0-0.088-0.038-0.113-0.138c-0.113-0.402-0.289-0.854-0.515-1.344
				c-0.05-0.088-0.062-0.15-0.062-0.176v-0.05C94.125,94.093,94.162,94.131,94.225,94.181z M96.699,91.645l1.558-0.251l0.703-2.826
				c-0.678,0.075-1.344,0.151-2.022,0.226c-0.038,0-0.063,0.013-0.088,0.013C96.799,89.962,96.749,90.904,96.699,91.645z M97,91.984
				c0.075,0.464,0.477,1.293,1.206,2.474c0.125,0.226,0.238,0.427,0.352,0.603c0.188-0.377,0.352-0.766,0.477-1.143
				c0.226-0.603,0.439-1.432,0.666-2.486c-1.557,0.213-2.436,0.352-2.637,0.415c-0.05,0.025-0.1,0.05-0.125,0.05
				C96.963,91.934,96.988,91.958,97,91.984z"/>
			<path fill="#483128" stroke="#483128" stroke-width="0.1041" stroke-miterlimit="10" d="M118.012,88.731
				c0.125,0.188,0.201,0.327,0.201,0.402c0,0.076-0.025,0.151-0.075,0.226c-0.125,0.151-0.289,0.452-0.465,0.917
				c-0.151,0.352-0.276,0.653-0.402,0.904c0.929-0.038,1.57-0.076,1.934-0.126c0.276-0.025,0.552-0.05,0.816-0.075v-2.486
				c0-0.415-0.038-0.766-0.101-1.067c-0.101-0.264-0.138-0.415-0.138-0.452c0-0.063,0.025-0.101,0.101-0.101
				c0.038,0,0.15,0.113,0.352,0.314c0.213,0.213,0.326,0.352,0.326,0.427c0,0.076-0.038,0.214-0.088,0.415
				c-0.075,0.377-0.1,0.879-0.1,1.495v1.432c0.05,0,0.1,0,0.15-0.013c0.603-0.063,1.105-0.113,1.482-0.151
				c0.301-0.038,0.565-0.075,0.804-0.125c0.176-0.025,0.289-0.05,0.352-0.062c0.088,0,0.176,0.05,0.276,0.125
				c0.113,0.088,0.176,0.163,0.176,0.226c0,0.038-0.025,0.05-0.05,0.05c-0.979,0.062-2.034,0.15-3.189,0.251v2.537
				c0.603-0.038,1.08-0.075,1.444-0.113c0.302-0.025,0.565-0.05,0.792-0.088c0.176-0.025,0.289-0.038,0.364-0.038
				c0.076,0,0.176,0.038,0.276,0.113c0.101,0.088,0.164,0.163,0.164,0.226c0,0.038-0.025,0.05-0.05,0.05
				c-0.917,0.05-1.909,0.1-2.989,0.163v2.863c2.047-0.113,3.34-0.226,3.868-0.339c0.125-0.025,0.226-0.038,0.301-0.038
				c0.05,0,0.164,0.063,0.339,0.176c0.163,0.113,0.251,0.188,0.251,0.214c0,0.075-0.038,0.1-0.101,0.1
				c-1.469,0.05-3.378,0.126-5.714,0.251c-2.06,0.101-3.165,0.176-3.328,0.213c-0.125,0.013-0.239,0.025-0.327,0.025
				c-0.101,0-0.239-0.062-0.389-0.176c-0.101-0.075-0.151-0.125-0.151-0.163c0-0.075,0.05-0.101,0.151-0.101
				c0.69,0,2.223-0.038,4.596-0.125c0.05,0,0.101,0,0.151-0.013v-2.863c-0.05,0.012-0.101,0.012-0.151,0.012
				c-1.218,0.076-1.972,0.125-2.248,0.151c-0.101,0.025-0.188,0.038-0.251,0.038c-0.063,0-0.151-0.038-0.264-0.113
				c-0.125-0.076-0.176-0.138-0.176-0.176c0-0.025,0.012-0.05,0.05-0.05c0.992-0.038,1.683-0.076,2.059-0.101
				c0.339-0.025,0.666-0.05,0.98-0.075V91.28c-1.218,0.088-1.959,0.164-2.235,0.214c-0.113,0.038-0.201,0.05-0.264,0.05
				c-0.075,0-0.163-0.038-0.264-0.113c-0.05-0.025-0.075-0.05-0.088-0.063c-0.176,0.339-0.326,0.628-0.464,0.854
				c-0.327,0.527-0.716,1.055-1.168,1.557c-0.05,0.063-0.101,0.101-0.125,0.113c-0.038,0-0.05-0.013-0.05-0.05
				c0-0.013,0.025-0.05,0.075-0.125c0.452-0.603,0.804-1.155,1.055-1.67c0.414-0.816,0.728-1.544,0.941-2.172
				c0.151-0.465,0.239-0.904,0.239-1.331c0-0.063,0.013-0.101,0.05-0.101C117.773,88.442,117.861,88.543,118.012,88.731z"/>
			<path fill="#483128" stroke="#483128" stroke-width="0.1041" stroke-miterlimit="10" d="M140.556,95.613
				c0,0.854-0.138,1.507-0.415,1.959c-0.138,0.239-0.276,0.364-0.427,0.39c-0.05,0-0.101-0.063-0.176-0.188
				c-0.05-0.138-0.063-0.226-0.063-0.251c0-0.076,0.038-0.151,0.113-0.201c0.452-0.427,0.741-1.105,0.866-2.009
				c0-0.05,0.013-0.088,0.05-0.088C140.531,95.224,140.556,95.362,140.556,95.613z M141.836,87.187
				c0.126,0.176,0.188,0.276,0.188,0.327c0,0.025-0.038,0.062-0.088,0.113c-0.251,0.213-0.54,0.527-0.879,0.955
				c-0.327,0.376-0.603,0.69-0.804,0.942l2.675-0.439c-0.088-0.138-0.176-0.264-0.251-0.39c-0.151-0.201-0.214-0.314-0.214-0.339
				c0-0.025,0.013-0.05,0.05-0.05c0.025,0,0.063,0.025,0.125,0.075c0.427,0.327,0.716,0.59,0.892,0.766
				c0.101,0.125,0.164,0.239,0.164,0.339c0,0.163-0.013,0.289-0.038,0.364c-0.025,0.088-0.063,0.126-0.113,0.126
				c-0.025,0-0.075-0.05-0.125-0.151c-0.125-0.176-0.239-0.364-0.364-0.565c-0.729,0.15-1.331,0.276-1.833,0.389
				c-0.603,0.151-0.967,0.264-1.105,0.339c-0.075,0.025-0.125,0.025-0.151,0.025c-0.038,0-0.113-0.05-0.226-0.176
				c-0.075-0.126-0.113-0.188-0.113-0.214c0-0.025,0.013-0.05,0.062-0.075c0.239-0.075,0.415-0.188,0.528-0.339
				c0.49-0.603,0.854-1.093,1.08-1.495c0.151-0.301,0.239-0.54,0.239-0.741c0-0.025,0.013-0.05,0.05-0.05
				C141.636,86.923,141.711,87.011,141.836,87.187z M140.543,90.464c0.038,0.1,0.063,0.188,0.076,0.276l2.147-0.326
				c0.088-0.013,0.163-0.063,0.238-0.151c0.076-0.101,0.125-0.15,0.151-0.15c0.025,0,0.075,0.05,0.176,0.125
				c0.101,0.1,0.163,0.15,0.163,0.176c0,0.025-0.025,0.075-0.075,0.15c-0.075,0.101-0.113,0.188-0.113,0.289v3.34
				c-0.025,0.176-0.062,0.301-0.125,0.389c-0.025,0.076-0.075,0.101-0.125,0.101c-0.038,0-0.075-0.025-0.125-0.075
				c-0.339-0.364-0.653-0.678-0.955-0.942c-0.038-0.025-0.05-0.05-0.05-0.063c0-0.025,0.013-0.05,0.05-0.05
				c0,0,0.05,0.025,0.138,0.076c0.427,0.251,0.666,0.364,0.741,0.364c0.05,0,0.088-0.013,0.1-0.063
				c0.013-0.05,0.025-0.113,0.038-0.188c0-0.05,0.013-0.138,0.013-0.276v-2.838l-2.348,0.301v0.892
				c0.766-0.075,1.218-0.138,1.369-0.213c0.05-0.013,0.101-0.025,0.151-0.025c0.038,0,0.101,0.038,0.176,0.113
				s0.113,0.113,0.113,0.138c0,0.038-0.05,0.063-0.138,0.063c-0.615,0.088-1.167,0.163-1.67,0.213V92.9
				c0.816-0.075,1.306-0.138,1.457-0.213c0.05-0.013,0.113-0.025,0.164-0.025c0.025,0,0.088,0.038,0.176,0.113
				c0.075,0.075,0.113,0.113,0.113,0.138c0,0.038-0.05,0.062-0.151,0.062c-0.653,0.088-1.243,0.164-1.771,0.214v0.578
				c0,0.226,0.013,0.464,0.013,0.741c0,0.151-0.038,0.213-0.101,0.213c-0.05,0-0.101-0.062-0.163-0.213
				c-0.063-0.125-0.088-0.239-0.088-0.314c0-0.125,0-0.226,0.012-0.301c0.025-0.276,0.05-0.766,0.05-1.469
				c0-0.452-0.025-0.967-0.05-1.545c-0.025-0.389-0.038-0.628-0.062-0.716c0-0.025,0.013-0.038,0.05-0.05
				C140.367,90.125,140.443,90.238,140.543,90.464z M141.736,95.111c0.414,0.59,0.854,1.067,1.331,1.444
				c0.477,0.377,1.004,0.653,1.557,0.829c0.666,0.226,1.318,0.339,1.959,0.339c0.063,0,0.101-0.05,0.101-0.151
				c0-0.113-0.038-0.251-0.101-0.427c-0.125-0.377-0.226-0.666-0.276-0.892c-0.05-0.113-0.062-0.176-0.062-0.201
				c0-0.025,0.012-0.05,0.05-0.05c0.012,0,0.025,0.025,0.05,0.05c0.339,0.704,0.653,1.256,0.93,1.67
				c0.062,0.075,0.1,0.138,0.1,0.188c0,0.075-0.05,0.138-0.125,0.176c-0.101,0.05-0.276,0.075-0.515,0.075
				c-0.603,0-1.155-0.075-1.67-0.213c-0.465-0.101-0.917-0.276-1.344-0.515c-0.49-0.251-0.879-0.54-1.18-0.867
				c-0.276-0.301-0.54-0.628-0.766-1.005c-0.164-0.264-0.239-0.439-0.239-0.54c0-0.025,0.013-0.05,0.05-0.05
				C141.61,94.973,141.661,95.023,141.736,95.111z M143.846,94.859c0.49,0.339,0.842,0.603,1.042,0.791
				c0.113,0.138,0.176,0.251,0.176,0.352c0,0.176-0.013,0.289-0.038,0.364c-0.025,0.088-0.063,0.126-0.113,0.126
				c-0.038,0-0.088-0.05-0.138-0.151c-0.276-0.377-0.578-0.766-0.879-1.155c-0.176-0.201-0.251-0.327-0.251-0.364
				c0-0.025,0.013-0.05,0.05-0.05C143.72,94.771,143.771,94.809,143.846,94.859z M146.508,87.953
				c0.05,0.138,0.075,0.239,0.075,0.301c0,0.025-0.025,0.05-0.05,0.05c-0.138,0.075-0.289,0.163-0.464,0.276
				c-0.251,0.176-0.528,0.339-0.829,0.49c-0.276,0.125-0.552,0.239-0.829,0.339c-0.025,0.013-0.038,0.013-0.038,0.013v0.188
				c0,0.301,0.025,0.49,0.075,0.59c0.05,0.1,0.138,0.188,0.264,0.238c0.163,0.063,0.427,0.101,0.791,0.113
				c0.302,0,0.59-0.013,0.854-0.038c0.251-0.038,0.415-0.075,0.49-0.113c0.075-0.025,0.113-0.075,0.138-0.176
				c0.025-0.188,0.063-0.615,0.088-1.281c0-0.063,0.013-0.101,0.05-0.101c0.025,0,0.05,0.038,0.05,0.101
				c0.075,0.578,0.188,1.03,0.327,1.356c0.038,0.101,0.062,0.176,0.062,0.213c0,0.063-0.038,0.101-0.113,0.126
				c-0.176,0.062-0.44,0.113-0.779,0.138c-0.352,0.05-0.716,0.075-1.067,0.075s-0.603-0.025-0.753-0.075
				c-0.163-0.025-0.314-0.076-0.439-0.151c-0.113-0.075-0.201-0.176-0.251-0.314c-0.05-0.125-0.075-0.301-0.075-0.502v-1.858
				c0-0.213-0.013-0.427-0.013-0.641c-0.025-0.201-0.038-0.314-0.038-0.339c0-0.025,0.013-0.05,0.05-0.05
				c0.025,0,0.113,0.063,0.251,0.176c0.126,0.101,0.188,0.176,0.188,0.226c0,0.075-0.025,0.151-0.062,0.239
				c-0.063,0.163-0.088,0.364-0.088,0.59v1.156c0.49-0.251,0.879-0.502,1.18-0.754c0.327-0.251,0.565-0.515,0.729-0.804
				c0-0.025,0.025-0.038,0.062-0.038C146.383,87.714,146.433,87.802,146.508,87.953z M146.659,91.394
				c0.05,0.125,0.076,0.226,0.076,0.289c0,0.025-0.025,0.05-0.05,0.063c-0.151,0.075-0.314,0.188-0.49,0.314
				c-0.264,0.201-0.553,0.376-0.867,0.553c-0.276,0.15-0.565,0.276-0.854,0.376v0.452c0,0.251,0.038,0.415,0.113,0.49
				c0.062,0.101,0.176,0.163,0.339,0.201c0.226,0.062,0.578,0.1,1.067,0.1c0.327,0,0.628-0.012,0.904-0.05
				c0.264-0.05,0.439-0.113,0.527-0.163c0.076-0.025,0.125-0.101,0.151-0.226c0.025-0.251,0.062-0.816,0.088-1.708
				c0-0.062,0.013-0.1,0.05-0.1c0.025,0,0.05,0.038,0.05,0.1c0.1,0.779,0.238,1.381,0.414,1.833c0.05,0.125,0.076,0.226,0.076,0.276
				c0,0.063-0.05,0.101-0.138,0.125c-0.188,0.063-0.478,0.101-0.854,0.125c-0.377,0.063-0.766,0.088-1.168,0.088
				c-0.439,0-0.753-0.025-0.955-0.062c-0.201-0.025-0.389-0.063-0.54-0.138c-0.15-0.063-0.251-0.151-0.313-0.264
				c-0.076-0.113-0.101-0.264-0.101-0.439v-1.595c0-0.226-0.013-0.439-0.013-0.653c-0.025-0.201-0.038-0.301-0.038-0.327
				c0-0.025,0.013-0.05,0.05-0.05c0.025,0,0.113,0.062,0.251,0.163c0.125,0.101,0.188,0.176,0.188,0.226
				c0,0.075-0.025,0.15-0.063,0.238c-0.062,0.164-0.088,0.364-0.088,0.59v0.641c0.49-0.276,0.892-0.54,1.193-0.791
				c0.339-0.276,0.59-0.565,0.766-0.892c0-0.025,0.025-0.038,0.05-0.038C146.533,91.142,146.583,91.23,146.659,91.394z
				 M146.922,95.224c0.502,0.301,0.967,0.615,1.407,0.967c0.201,0.151,0.314,0.289,0.314,0.402c0,0.126-0.013,0.264-0.038,0.415
				c-0.025,0.151-0.063,0.226-0.101,0.226c-0.063,0-0.125-0.063-0.188-0.163c-0.326-0.515-0.866-1.105-1.595-1.758
				c-0.101-0.063-0.138-0.113-0.138-0.138c0-0.025,0.013-0.05,0.05-0.05C146.684,95.123,146.785,95.161,146.922,95.224z"/>
			<path fill="#483128" stroke="#483128" stroke-width="0.1041" stroke-miterlimit="10" d="M166.766,91.017
				c0.101,0.088,0.151,0.164,0.151,0.226c0,0.038-0.025,0.05-0.05,0.05c-0.552,0.05-1.143,0.125-1.771,0.201v3.365l1.821-0.64
				c0.038-0.013,0.075-0.025,0.101-0.025c0.025,0,0.05,0.013,0.05,0.038c0,0.063-0.05,0.113-0.138,0.151l-2.7,1.168
				c-0.477,0.201-0.816,0.352-1.03,0.477c-0.075,0.05-0.138,0.075-0.201,0.075c-0.075,0-0.164-0.05-0.276-0.15
				c-0.125-0.113-0.176-0.176-0.176-0.188c0-0.05,0.025-0.101,0.088-0.125c0.377-0.088,0.917-0.251,1.607-0.478l0.565-0.201v-3.428
				c-0.038,0.012-0.062,0.012-0.088,0.012c-0.753,0.088-1.206,0.151-1.381,0.201c-0.062,0.025-0.113,0.038-0.15,0.038
				c-0.063,0-0.138-0.038-0.226-0.113c-0.113-0.076-0.164-0.138-0.164-0.176c0-0.025,0.013-0.05,0.05-0.05
				c0.603-0.05,1.03-0.088,1.256-0.138c0.251-0.025,0.49-0.05,0.703-0.088v-2.863c0-0.352-0.038-0.653-0.113-0.904
				c-0.088-0.226-0.125-0.352-0.125-0.376c0-0.025,0.025-0.05,0.088-0.05c0.038,0,0.138,0.088,0.314,0.251
				c0.176,0.176,0.276,0.289,0.276,0.339c0,0.063-0.025,0.176-0.075,0.352c-0.05,0.326-0.075,0.741-0.075,1.268v1.947
				c0.289-0.05,0.527-0.088,0.729-0.126c0.176-0.025,0.326-0.05,0.477-0.1c0.101-0.025,0.176-0.05,0.226-0.05
				C166.603,90.904,166.678,90.941,166.766,91.017z M171.488,90.452c0.15,0.088,0.238,0.138,0.238,0.151
				c0,0.075-0.05,0.138-0.125,0.213c-0.101,0.113-0.163,0.238-0.176,0.376c-0.15,1.846-0.289,2.989-0.415,3.429
				c-0.113,0.376-0.201,0.552-0.264,0.552c-0.05,0-0.301-0.314-0.728-0.954c-0.201-0.276-0.302-0.427-0.302-0.478
				c0-0.025,0.013-0.05,0.05-0.05c0.025,0,0.125,0.101,0.314,0.276c0.251,0.251,0.415,0.364,0.515,0.364
				c0.075,0,0.138-0.151,0.188-0.452c0.113-0.666,0.214-1.607,0.289-2.838l-1.658,0.64v3.089c0,0.301-0.013,0.603-0.038,0.879
				c-0.05,0.276-0.075,0.402-0.101,0.402c-0.05,0-0.125-0.113-0.251-0.339c-0.075-0.113-0.101-0.213-0.101-0.301
				c0-0.063,0.013-0.125,0.038-0.188c0.025-0.05,0.05-0.176,0.076-0.352c0.025-0.163,0.038-0.477,0.038-0.929v-2.135l-1.62,0.615
				v2.235c0,0.866,0.05,1.444,0.176,1.746c0.113,0.326,0.301,0.552,0.578,0.703c0.352,0.201,0.942,0.314,1.746,0.364
				c0.502,0,0.979-0.025,1.407-0.076c0.414-0.075,0.69-0.138,0.816-0.188c0.125-0.05,0.201-0.138,0.239-0.302
				c0.05-0.301,0.088-1.004,0.138-2.135c0-0.05,0.013-0.088,0.05-0.088c0.025,0,0.05,0.038,0.05,0.088
				c0.075,0.979,0.188,1.746,0.326,2.311c0.038,0.151,0.063,0.264,0.063,0.339s-0.063,0.125-0.188,0.15
				c-0.264,0.063-0.653,0.113-1.181,0.164c-0.527,0.05-1.067,0.088-1.62,0.088c-0.666-0.025-1.143-0.088-1.444-0.188
				c-0.301-0.088-0.578-0.226-0.816-0.427c-0.226-0.201-0.376-0.478-0.477-0.829s-0.151-0.816-0.151-1.369v-2.474l-0.728,0.276
				c-0.076,0.038-0.151,0.05-0.213,0.05c-0.113,0-0.188-0.013-0.214-0.038c-0.125-0.038-0.176-0.076-0.176-0.113
				c0-0.025,0.025-0.062,0.101-0.088l1.23-0.452v-2.16c0-0.239-0.012-0.478-0.012-0.703c-0.025-0.214-0.038-0.339-0.038-0.364
				c0-0.025,0.012-0.05,0.05-0.05c0.025,0,0.126,0.062,0.276,0.176c0.138,0.125,0.213,0.213,0.213,0.264
				c0,0.075-0.038,0.176-0.088,0.276c-0.075,0.176-0.113,0.402-0.113,0.653v1.796l1.62-0.603v-3.252c0-0.376-0.038-0.716-0.088-1.03
				c-0.076-0.188-0.113-0.301-0.113-0.339c0-0.025,0.013-0.05,0.05-0.05s0.151,0.075,0.339,0.213
				c0.164,0.151,0.251,0.264,0.251,0.327c0,0.101-0.013,0.188-0.038,0.264c-0.05,0.101-0.063,0.264-0.063,0.515v3.228l1.432-0.527
				c0.101-0.05,0.176-0.113,0.239-0.188c0.1-0.15,0.163-0.238,0.201-0.251C171.325,90.364,171.388,90.401,171.488,90.452z"/>
			<path fill="#483128" stroke="#483128" stroke-width="0.1041" stroke-miterlimit="10" d="M190.34,90.087
				c0.101,0.088,0.151,0.163,0.151,0.226c0,0.038-0.025,0.05-0.05,0.05c-0.54,0.038-1.118,0.075-1.721,0.125v1.042
				c0.025,0.012,0.063,0.025,0.101,0.05c0.439,0.276,0.854,0.527,1.23,0.766c0.088,0.05,0.138,0.126,0.138,0.226
				c0,0.076-0.012,0.176-0.012,0.327c-0.025,0.151-0.05,0.213-0.088,0.213c-0.05,0-0.113-0.038-0.176-0.125
				c-0.339-0.427-0.741-0.854-1.193-1.281v5.525c0,0.289-0.012,0.578-0.038,0.879c-0.05,0.251-0.088,0.39-0.113,0.39
				c-0.038,0-0.113-0.113-0.239-0.339c-0.075-0.113-0.101-0.213-0.101-0.301c0-0.075,0-0.138,0.025-0.188
				c0.038-0.062,0.062-0.176,0.088-0.352c0.025-0.176,0.038-0.477,0.038-0.929v-5.187c-0.125,0.364-0.289,0.766-0.502,1.206
				c-0.402,0.841-0.904,1.67-1.507,2.499c-0.301,0.377-0.478,0.553-0.553,0.553c-0.025,0-0.038-0.013-0.038-0.05
				c0-0.025,0.025-0.076,0.088-0.164c0.578-0.791,1.08-1.607,1.495-2.461c0.402-0.867,0.703-1.62,0.904-2.261h-0.062
				c-0.779,0.076-1.256,0.125-1.432,0.151c-0.076,0.025-0.138,0.025-0.164,0.025c-0.062,0-0.138-0.038-0.238-0.113
				c-0.101-0.076-0.151-0.138-0.151-0.176c0-0.025,0.013-0.05,0.05-0.05c0.628-0.038,1.067-0.075,1.306-0.101
				c0.289-0.025,0.552-0.05,0.804-0.075v-1.884c0-0.377-0.038-0.729-0.101-1.03c-0.075-0.188-0.101-0.301-0.101-0.352
				c0-0.025,0.013-0.05,0.05-0.05s0.151,0.075,0.339,0.226c0.163,0.151,0.251,0.264,0.251,0.314c0,0.113-0.025,0.201-0.05,0.276
				c-0.038,0.101-0.05,0.264-0.05,0.515v1.947c0.251-0.025,0.465-0.038,0.641-0.063c0.176-0.025,0.352-0.05,0.502-0.088
				c0.1-0.013,0.176-0.025,0.226-0.025C190.164,89.975,190.252,90.012,190.34,90.087z M195.941,88.354
				c0.088,0.075,0.138,0.113,0.138,0.138c0,0.125-0.113,0.201-0.326,0.213c-1.52,0.239-2.901,0.465-4.144,0.691
				c-0.013,0.678-0.038,1.406-0.088,2.172c1.042-0.176,2.11-0.364,3.19-0.565c0.05,0,0.125-0.038,0.226-0.138
				c0.088-0.101,0.163-0.164,0.213-0.164c0.038,0,0.125,0.05,0.264,0.151c0.113,0.113,0.176,0.188,0.176,0.239
				c0,0.113-0.038,0.176-0.1,0.201c-0.289,0.59-0.678,1.381-1.155,2.374c-0.201,0.477-0.478,0.955-0.804,1.444
				c0.766,1.118,1.331,1.771,1.695,1.959c0.326,0.201,0.979,0.364,1.984,0.502c0.063,0.013,0.101,0.025,0.101,0.05
				c0,0.05-0.038,0.088-0.101,0.101c-1.356,0.088-2.097,0.138-2.198,0.138c-0.113-0.025-0.201-0.101-0.251-0.213
				c-0.251-0.502-0.703-1.269-1.381-2.323c-0.163,0.238-0.339,0.477-0.527,0.703c-0.465,0.578-1.093,1.13-1.896,1.683
				c-0.415,0.264-0.615,0.402-0.615,0.402c-0.075,0-0.101-0.025-0.101-0.05c0-0.05,0.025-0.075,0.101-0.1
				c0.979-0.804,1.746-1.52,2.273-2.185c0.201-0.251,0.389-0.515,0.565-0.779c-0.05-0.075-0.1-0.163-0.15-0.239
				c-0.729-1.13-1.206-1.833-1.457-2.135c-0.075-0.075-0.1-0.15-0.1-0.201c0-0.025,0.012-0.05,0.05-0.05
				c0.025,0,0.101,0.013,0.226,0.038c0.151,0.038,0.264,0.113,0.314,0.213c0.076,0.415,0.49,1.143,1.244,2.173
				c0.326-0.478,0.603-0.967,0.829-1.457c0.276-0.565,0.54-1.23,0.779-1.997c-0.415,0.075-0.892,0.151-1.432,0.226
				c-0.704,0.125-1.143,0.201-1.344,0.251c-0.176,0.05-0.302,0.063-0.377,0.063c-0.062,0-0.138-0.025-0.239-0.088
				c-0.012,0-0.012-0.013-0.012-0.013c-0.05,0.779-0.176,1.607-0.364,2.474c-0.176,0.778-0.402,1.494-0.653,2.122
				c-0.239,0.527-0.528,1.055-0.854,1.607c-0.076,0.113-0.113,0.176-0.138,0.176c-0.025,0-0.038-0.025-0.038-0.05
				c0,0,0.012-0.062,0.062-0.176c0.264-0.565,0.478-1.042,0.653-1.457c0.176-0.439,0.352-0.967,0.502-1.595
				c0.188-0.804,0.327-1.595,0.402-2.361c0.088-0.854,0.138-1.947,0.138-3.291c0-0.163-0.012-0.389-0.038-0.666
				c-0.025-0.213-0.05-0.352-0.062-0.415c0-0.025,0.012-0.05,0.05-0.05c0.05,0.025,0.126,0.138,0.239,0.339
				c0.113,0.239,0.176,0.452,0.201,0.641v0.025c2.097-0.276,3.34-0.527,3.742-0.766c0.138-0.05,0.264-0.088,0.389-0.088
				C195.777,88.254,195.84,88.292,195.941,88.354z"/>
		</g>
	</g>
	<g>
		<path fill-rule="evenodd" clip-rule="evenodd" fill="#483128" d="M113.704,25.322c0.971,1.041,2.325,2.608,3.399,3.547
			c0.53,0.458,2.311,1.387,4.345,1.217c1.707-0.142,2.03-0.35,4.061-0.794c-1.408-0.868-2.998-2.408-7.63-2.373
			c0.839-0.503,4.038-0.689,8.006,2.14c-0.411-2.115-2.472-4.337-4.644-4.122c-1.031,0.102-1.448-0.013-3.082,0.502
			C116.909,25.835,116.434,26.194,113.704,25.322z"/>
		<g>
			<g>
				<g>
					<path fill-rule="evenodd" clip-rule="evenodd" fill="#483128" d="M107.342,25.55c-1.149,2.037-1.502,4.193-1.294,6.409
						c0.104,1.104,0.4,2.28,0.942,3.218c0.649,1.135,1.087,1.109,1.839-0.008c0.441-0.655,0.72-1.508,0.829-2.308
						c0.34-2.502,0.116-4.931-1.395-7.271c1.411,0.414,2.424,1.194,3.388,2.08c0.305,0.279,1.231,1.408,1.427,1.703
						c1.597,2.418,2.314,5.011,1.321,7.874c-0.291,0.841-0.818,1.594-1.368,2.34c0.171-2.376,0.396-4.694-0.989-6.797
						c0.051,1.067-0.074,2.107-0.93,2.736c-0.597,0.44-1.433,0.938-2.071,0.836c-1.453-0.233-3.096,0.629-4.379-0.781
						c-0.731-0.805-0.941-1.718-0.821-2.834c-1.123,1.105-1.449,3.579-0.926,6.92c-1.232-1.143-1.714-2.515-1.902-4.016
						c-0.301-2.367,0.465-4.433,1.743-6.341C104.832,26.651,106.118,26.245,107.342,25.55z"/>
					<path fill-rule="evenodd" clip-rule="evenodd" fill="#483128" d="M107.141,23.624c-1.959-1.489-4.842-4.525-11.696-1.154
						c7.435-2.103,9.329,0.541,10.98,1.925c-1.213-0.711-2.478-0.573-3.625-0.034c-3.345,1.574-6.309,0.879-9.085-1.382
						c-0.3-0.244-0.63-0.45-0.909-0.648c2.006-0.969,3.984-1.973,6.002-2.883c3.62-1.635,5.916-0.765,7.739,2.867
						C106.766,22.743,106.944,23.188,107.141,23.624z"/>
					<path fill-rule="evenodd" clip-rule="evenodd" fill="#483128" d="M106.057,8.097c0.031-0.021,0.07-0.035,0.072-0.054
						c0.118-1.142,0.822-1.858,1.749-2.28c0.467-0.214,1.593,1.292,1.812,2.35c0.159,0,0.33-0.002,0.502,0
						c0.986,0.017,1.639,0.524,1.865,1.397c0.264,1.01-0.335,1.324-1.082,1.667c-1.459,0.674-2.609,1.71-3.075,3.586
						c-0.51-1.955-1.733-2.982-3.265-3.677c-0.584-0.266-1.085-0.519-0.935-1.326c0.154-0.829,0.541-1.437,1.392-1.595
						C105.411,8.106,105.739,8.118,106.057,8.097z"/>
					<path fill-rule="evenodd" clip-rule="evenodd" fill="#483128" d="M102.264,25.55c-0.971,1.04-2.326,2.607-3.403,3.547
						c-0.526,0.457-2.307,1.385-4.341,1.215c-1.708-0.14-2.031-0.351-4.062-0.793c1.407-0.867,2.993-2.41,7.632-2.373
						c-0.843-0.502-4.042-0.689-8.011,2.139c0.414-2.115,2.475-4.336,4.647-4.121c1.03,0.104,1.933,0.319,3.08,0.502
						C99.102,25.874,99.531,26.421,102.264,25.55z"/>
					<path fill-rule="evenodd" clip-rule="evenodd" fill="#483128" d="M105.951,18.043c-0.306-2.418-1.022-3.799-2.297-4.196
						c0.42,0.977,0.873,1.999,1.302,3.032c0.096,0.215,0.115,0.463,0.135,0.547c-0.643-0.514-1.275-1.245-2.068-1.605
						c-2.67-1.226-3.287-3.589-3.492-6.383c1.881,0.864,3.729,1.598,5.467,2.546c1.407,0.766,1.939,2.133,1.585,3.777
						C106.419,16.533,106.166,17.284,105.951,18.043z"/>
					<path fill-rule="evenodd" clip-rule="evenodd" fill="#483128" d="M91.848,20.992c2.188-0.562,2.604-0.548,5.821-2.608
						c-1.875,0.504-4.117,1.123-5.873-0.196c1.224-0.08,2.438-0.159,3.645-0.239c-1.055-0.626-2.229-0.861-2.868-2.017
						c1.665,1.097,3.442,0.678,5.208,0.53c1.272-0.108,2.561-0.215,3.82-0.093c1.467,0.139,2.557,1.239,2.781,2.561
						c-0.278-0.125-0.509-0.232-0.737-0.33c-1.422-0.595-2.849-0.643-4.246,0.046c-1.212,0.599-2.38,1.283-3.601,1.847
						C94.506,21.091,93.151,21.401,91.848,20.992z"/>
					<path fill-rule="evenodd" clip-rule="evenodd" fill="#483128" d="M103.161,28.467l0.033-0.034
						c-0.986,1.078-1.753,2.592-2.779,3.622c-0.791,0.794-1.87,1.06-3.05,1.008c1.444-0.841,2.167-1.106,2.474-2.038
						c-2.274,0.979-3.268-0.161-3.285-0.242c2.022-0.468,3.415-2.049,4.84-3.491c0.763-0.771,1.561-1.537,2.458-2.12
						c1.267-0.823,2.747-0.699,3.721,0.191C105.597,25.706,104.287,26.953,103.161,28.467z"/>
				</g>
			</g>
			<path fill-rule="evenodd" clip-rule="evenodd" fill="#483128" d="M107.284,20.226c0.123-0.039,0.386-0.09,0.837,0.547
				c0.668,0.943,1.612,3.564,4.023,3.565c0.371,0,0.761-0.092,1.058-0.311c0.299-0.225,0.579-0.643,0.405-1.024
				c-0.063-0.144-0.217-0.286-0.381-0.312c-0.38-0.058-0.499,0.24-0.383,0.41c0.055,0.089,0.202,0.141,0.352,0.096
				c0.07-0.019,0.122,0.154,0.116,0.194c-0.036,0.617-0.798,0.736-1.282,0.651c-1.138-0.201-1.702-1.636-2.242-2.5
				c-0.217-0.345-0.452-0.68-0.747-0.966c-0.286-0.29-0.487-0.412-0.487-0.412s3.01-0.165,2.978-1.962
				c-0.019-0.866-0.718-1.408-1.525-1.66c-0.583-0.182-1.204-0.255-1.82-0.255h-2.425c-0.154,0,0.005,0.426,0.024,0.5
				c0.007,0.054,0.003,0.108,0.003,0.161c0.011,0.07,0.004,0.139,0.004,0.208c0.007,0.148,0.007,0.293,0.007,0.439v0.617v0.738
				c0,0.269,0,0.539,0,0.808c0,0.274-0.007,0.547,0,0.821c0,0.262-0.011,0.523-0.007,0.784c0.007,0.229-0.004,0.457-0.004,0.688
				c0,0.18,0.004,0.359-0.003,0.536c0,0.188,0.024,0.472-0.062,0.588c-0.116,0.151-0.388,0.135-0.557,0.209
				c-0.09,0.039-0.251,0.082-0.273,0.192c-0.053,0.296,0.284,0.419,0.449,0.402c0.48-0.046,1.798,0.944,1.798,0.944
				s0.019-2.72,0.019-2.759c0-0.04-0.004-0.838-0.004-1.623C107.156,20.343,107.191,20.261,107.284,20.226 M107.149,17.061v2.223
				c0,0-0.025,0.361,0.785,0.352c0.906-0.01,1.967-0.349,1.934-1.463c-0.045-1.109-1.344-1.384-1.86-1.421
				C107.682,16.73,107.149,16.739,107.149,17.061"/>
			<path fill-rule="evenodd" clip-rule="evenodd" fill="#483128" d="M109.877,22.869c1.962-1.491,3.791-3.999,10.643-0.627
				c-7.43-2.103-8.698-0.014-10.351,1.372c0.371,0.137,1.386,0.728,1.628,0.779c0,0,1.444,0.199,1.864,0.228
				c4.218,0.304,5.814,0.392,8.592-1.868c0.301-0.245,0.627-0.45,0.911-0.65c-2.01-0.966-3.99-1.972-6.006-2.882
				c-3.62-1.634-5.916-0.765-7.738,2.867C109.093,22.732,109.973,22.655,109.877,22.869z"/>
			<path fill-rule="evenodd" clip-rule="evenodd" fill="#483128" d="M110.017,17.816c0.31-2.419,1.022-3.8,2.297-4.197
				c-0.423,0.978-0.88,2-1.307,3.032c-0.09,0.216-0.109,0.465-0.128,0.546c0.643-0.512,1.27-1.244,2.064-1.604
				c2.673-1.228,3.289-3.589,3.49-6.382c-1.878,0.864-3.728,1.599-5.468,2.545c-1.403,0.766-1.937,2.134-1.583,3.777
				C109.549,16.304,109.8,17.057,110.017,17.816z"/>
			<path fill-rule="evenodd" clip-rule="evenodd" fill="#483128" d="M124.122,20.765c-2.189-0.563-2.608-0.55-5.822-2.608
				c1.874,0.504,4.116,1.123,5.869-0.196c-1.22-0.08-2.434-0.158-3.645-0.239c1.053-0.626,2.232-0.862,2.869-2.018
				c-1.663,1.097-3.44,0.679-5.211,0.529c-1.268-0.108-2.555-0.213-3.816-0.092c-1.463,0.139-2.556,1.24-2.78,2.562
				c0.277-0.126,0.508-0.232,0.739-0.331c1.42-0.593,2.842-0.643,4.246,0.048c1.207,0.596,2.375,1.281,3.596,1.846
				C121.46,20.864,122.816,21.174,124.122,20.765z"/>
		</g>
		<path fill-rule="evenodd" clip-rule="evenodd" fill="#483128" d="M112.805,28.241l-0.031-0.036
			c0.981,1.079,1.754,2.591,2.779,3.621c0.791,0.797,1.868,1.062,3.053,1.01c-1.448-0.84-2.172-1.106-2.477-2.037
			c2.275,0.979,3.266-0.162,3.285-0.243c-2.023-0.467-3.413-2.047-4.84-3.491c-0.766-0.77-1.562-1.537-2.458-2.12
			c-1.267-0.821-2.749-0.698-3.723,0.191C110.367,25.478,111.679,26.725,112.805,28.241z"/>
	</g>
</g>
</svg>
