<?xml version="1.0" encoding="utf-8"?>
<!-- Generator: Adobe Illustrator 16.0.0, SVG Export Plug-In . SVG Version: 6.00 Build 0)  -->
<!DOCTYPE svg PUBLIC "-//W3C//DTD SVG 1.1//EN" "http://www.w3.org/Graphics/SVG/1.1/DTD/svg11.dtd">
<svg version="1.1" id="圖層_1" xmlns="http://www.w3.org/2000/svg" xmlns:xlink="http://www.w3.org/1999/xlink" x="0px" y="0px"
	 width="100px" height="103.5px" viewBox="0 0 100 103.5" enable-background="new 0 0 100 103.5" xml:space="preserve">
<g>
	<path fill-rule="evenodd" clip-rule="evenodd" fill="#FFFFFF" d="M13.762,50.289c0.049-8.398,3.627-16.797,10.756-23.546
		c7.319-6.928,16.178-10,26.222-9.393c9.042,0.545,16.774,4.167,22.988,10.735c6.898,7.289,9.98,16.085,9.333,26.083
		c-0.577,8.941-4.231,16.563-10.758,22.668c-7.339,6.864-16.169,9.928-26.184,9.312c-9.012-0.554-16.724-4.166-22.926-10.708
		C16.934,68.835,13.772,60.904,13.762,50.289z M72.875,50.623c-0.065-0.693-0.12-1.386-0.195-2.078
		c-0.264-2.424-1.1-4.651-2.37-6.718c-2.207-3.592-5.412-6.077-9.09-7.978c-3.833-1.981-7.984-2.77-12.261-2.894
		c-2.331-0.068-4.65,0.173-6.931,0.701c-5.648,1.305-10.552,3.846-14.198,8.499c-2.847,3.631-4.238,7.68-3.616,12.328
		c0.498,3.721,1.979,6.994,4.545,9.727c3.36,3.578,7.525,5.82,12.254,7.002c1.642,0.41,3.337,0.605,5.013,0.873
		c0.705,0.113,1.01,0.51,0.961,1.188c-0.043,0.595-0.081,1.198-0.211,1.778c-0.213,0.954-0.511,1.89-0.749,2.839
		c-0.235,0.935,0.389,1.517,1.307,1.219c0.383-0.125,0.768-0.28,1.11-0.49c3.227-1.981,6.539-3.842,9.642-6.003
		c4.027-2.804,7.916-5.822,10.965-9.742C71.389,57.869,72.841,54.513,72.875,50.623z"/>
	<path fill-rule="evenodd" clip-rule="evenodd" fill="#FFFFFF" d="M52.679,51.156c0-1.706-0.01-3.413,0.006-5.119
		c0.005-0.606,0.084-1.206,0.718-1.537c0.814-0.426,1.829,0.087,1.837,1.007c0.03,3.261,0.016,6.521,0.007,9.782
		c-0.001,0.586-0.392,0.914-0.896,1.089c-0.582,0.202-1.045-0.075-1.381-0.515c-1.322-1.735-2.62-3.49-3.93-5.236
		c-0.283-0.377-0.583-0.743-1.014-1.289c0,1.192,0.003,2.166,0,3.139c-0.003,0.959,0,1.918-0.026,2.877
		c-0.02,0.68-0.516,0.983-1.083,1.057c-0.585,0.076-1.095-0.196-1.316-0.784c-0.116-0.305-0.161-0.654-0.162-0.984
		c-0.01-2.85-0.004-5.7,0-8.55c0-0.192,0.013-0.386,0.046-0.575c0.1-0.562,0.38-1.082,0.964-1.099
		c0.44-0.014,1.037,0.16,1.309,0.473c0.911,1.048,1.711,2.191,2.544,3.306c0.744,0.997,1.477,2.002,2.215,3.003
		C52.57,51.185,52.625,51.17,52.679,51.156z"/>
	<path fill-rule="evenodd" clip-rule="evenodd" fill="#FFFFFF" d="M59.631,46.884c0,0.743,0,1.411,0,2.206
		c1.037,0,2.089-0.036,3.136,0.019c0.404,0.021,0.896,0.142,1.176,0.402c0.722,0.67,0.519,1.608-0.419,1.956
		c-0.478,0.177-1.033,0.176-1.555,0.196c-0.766,0.031-1.533,0.008-2.338,0.008c0,0.737,0,1.404,0,2.191
		c0.918,0,1.85-0.017,2.779,0.008c0.378,0.01,0.77,0.062,1.126,0.182c0.52,0.173,0.892,0.552,0.822,1.134
		c-0.076,0.644-0.421,1.201-1.121,1.222c-1.688,0.051-3.381,0.056-5.071-0.003c-0.675-0.023-1.165-0.42-1.163-1.209
		c0.007-3.256-0.01-6.513,0.021-9.769c0.007-0.715,0.552-1.082,1.209-1.1c1.592-0.043,3.188-0.045,4.781-0.007
		c0.776,0.018,1.37,0.681,1.328,1.344c-0.044,0.728-0.591,1.206-1.435,1.217C61.827,46.895,60.747,46.884,59.631,46.884z"/>
	<path fill-rule="evenodd" clip-rule="evenodd" fill="#FFFFFF" d="M35.223,53.863c1.154,0,2.211-0.006,3.268,0.001
		c0.896,0.006,1.527,0.542,1.532,1.281c0.005,0.726-0.632,1.28-1.532,1.29c-1.351,0.015-2.702,0.007-4.053,0.004
		c-1.372-0.002-1.861-0.389-1.869-1.768c-0.018-3.06,0.042-6.121,0.097-9.18c0.011-0.657,0.629-1.17,1.252-1.148
		c0.71,0.025,1.168,0.459,1.183,1.18c0.049,2.457,0.083,4.914,0.121,7.37C35.227,53.181,35.223,53.468,35.223,53.863z"/>
	<path fill-rule="evenodd" clip-rule="evenodd" fill="#FFFFFF" d="M43.657,50.42c0,1.544,0.004,3.089-0.001,4.633
		c-0.002,0.84-0.389,1.297-1.152,1.384c-0.624,0.071-1.129-0.376-1.307-1.158c-0.032-0.14-0.103-0.278-0.101-0.417
		c0.031-3.109,0.052-6.218,0.12-9.326c0.016-0.748,0.538-1.192,1.175-1.183c0.732,0.01,1.246,0.508,1.255,1.289
		c0.019,1.592,0.005,3.185,0.005,4.777C43.654,50.42,43.656,50.42,43.657,50.42z"/>
</g>
</svg>
