<?xml version="1.0" encoding="utf-8"?>
<!-- Generator: Adobe Illustrator 16.0.0, SVG Export Plug-In . SVG Version: 6.00 Build 0)  -->
<!DOCTYPE svg PUBLIC "-//W3C//DTD SVG 1.1//EN" "http://www.w3.org/Graphics/SVG/1.1/DTD/svg11.dtd">
<svg version="1.1" id="圖層_1" xmlns="http://www.w3.org/2000/svg" xmlns:xlink="http://www.w3.org/1999/xlink" x="0px" y="0px"
	 width="100px" height="103.5px" viewBox="0 0 100 103.5" enable-background="new 0 0 100 103.5" xml:space="preserve">
<g>
	<path fill-rule="evenodd" clip-rule="evenodd" fill="#FFFFFF" d="M47.511,16.648c19.202,0.099,34.734,15.659,34.678,34.734
		c-0.059,19.214-15.773,34.826-34.79,34.694C28.21,85.944,12.707,70.499,12.784,51.306C12.861,32.038,28.47,16.548,47.511,16.648z
		 M57.29,29.815c-1.969,0-3.865-0.002-5.759,0c-0.727,0.005-1.458-0.025-2.178,0.047c-3.839,0.396-6.429,2.604-7.263,6.303
		c-0.261,1.153-0.274,2.369-0.324,3.561c-0.051,1.291-0.012,2.585-0.012,3.975c-1.45,0-2.812,0-4.19,0c0,2.553,0,5.004,0,7.542
		c1.409,0,2.775,0,4.23,0c0,7.16,0,14.238,0,21.308c2.988,0,5.886,0,8.864,0c0-7.14,0-14.218,0-21.368c2.051,0,4.015,0,5.986,0
		c0.258-2.513,0.504-4.957,0.764-7.512c-2.309,0-4.525,0-6.792,0c0-1.247,0.028-2.389-0.005-3.527
		c-0.092-2.792,0.795-3.099,3.019-3.012c1.21,0.052,2.424,0.012,3.659,0.012C57.29,34.663,57.29,32.303,57.29,29.815z"/>
</g>
</svg>
