<?xml version="1.0" encoding="utf-8"?>
<!-- Generator: Adobe Illustrator 16.0.0, SVG Export Plug-In . SVG Version: 6.00 Build 0)  -->
<!DOCTYPE svg PUBLIC "-//W3C//DTD SVG 1.1//EN" "http://www.w3.org/Graphics/SVG/1.1/DTD/svg11.dtd">
<svg version="1.1" id="圖層_1" xmlns="http://www.w3.org/2000/svg" xmlns:xlink="http://www.w3.org/1999/xlink" x="0px" y="0px"
	 width="100px" height="103.5px" viewBox="0 0 100 103.5" enable-background="new 0 0 100 103.5" xml:space="preserve">
<g>
	<path fill-rule="evenodd" clip-rule="evenodd" fill="#FFFFFF" d="M49.753,17.269c19.353-0.01,34.906,15.562,34.88,34.924
		c-0.032,19.2-15.67,34.836-34.849,34.84C30.526,87.037,14.91,71.372,14.91,52.045C14.91,32.803,30.462,17.285,49.753,17.269z
		 M68.527,52.659c0-3.804,0.017-7.612-0.004-11.419c-0.026-4.446-3.01-7.462-7.491-7.577c-1.544-0.04-3.091-0.012-4.638-0.012
		c-6.01,0.005-12.017-0.042-18.023,0.021c-4.505,0.044-7.66,2.96-7.702,7.184c-0.077,7.852-0.075,15.705-0.009,23.555
		c0.039,4.087,3.231,7.186,7.326,7.209c7.732,0.042,15.467,0.042,23.198,0c4.2-0.023,7.299-3.169,7.336-7.357
		C68.555,60.394,68.527,56.526,68.527,52.659z"/>
	<path fill-rule="evenodd" clip-rule="evenodd" fill="#FFFFFF" d="M59.363,48.839c1.887,0,3.537,0,5.367,0
		c0.047,0.551,0.122,1.057,0.125,1.563c0.007,4.343,0.016,8.69,0,13.028c-0.012,3.188-1.252,4.43-4.423,4.439
		c-7.261,0.012-14.518,0.012-21.776,0c-3.004-0.01-4.35-1.35-4.366-4.346c-0.019-4.813,0-9.628,0-14.592c1.847,0,3.586,0,5.461,0
		c-1.366,5.396-0.096,9.9,4.917,12.787c3.626,2.086,7.395,1.843,10.777-0.548C59.682,58.177,60.786,53.95,59.363,48.839z"/>
	<path fill-rule="evenodd" clip-rule="evenodd" fill="#FFFFFF" d="M49.683,59.273c-3.707,0.035-6.769-2.93-6.801-6.584
		c-0.031-3.621,3.047-6.698,6.7-6.71c3.687,0,6.703,3.023,6.678,6.705C56.237,56.311,53.321,59.238,49.683,59.273z"/>
	<path fill-rule="evenodd" clip-rule="evenodd" fill="#FFFFFF" d="M64.117,44.416c-2.136,0-4.074,0-6.186,0c0-2.029,0-4.066,0-6.225
		c2.018,0,4.05,0,6.186,0C64.117,40.242,64.117,42.229,64.117,44.416z"/>
</g>
</svg>
